<?xml version="1.0" encoding="UTF-8"?>
<svg id="Calque_1" xmlns="http://www.w3.org/2000/svg" version="1.1" viewBox="0 0 612 792">
  <!-- Generator: Adobe Illustrator 29.0.0, SVG Export Plug-In . SVG Version: 2.1.0 Build 186)  -->
  <defs>
    <style>
      .st0 {
        fill: #225568;
      }

      .st1 {
        fill: #e9ffff;
      }

      .st2 {
        fill: #4738a6;
      }

      .st3 {
        fill: #9a89d9;
      }

      .st4 {
        fill: #f24162;
      }

      .st5 {
        fill: #3f120f;
      }

      .st6 {
        fill: #66d9af;
      }

      .st7 {
        fill: #52927c;
      }

      .st8 {
        fill: #f7f7ef;
      }

      .st9 {
        fill: #2c8f79;
      }
    </style>
  </defs>
  <rect class="st3" x="68.1" y="36.8" width="475.8" height="718.4" rx="49.7" ry="49.7"/>
  <g>
    <path class="st6" d="M222,260.5c-33.2,16.1-48.9,28-47,35.6.5,2.3,2.6,4.2,6.2,5.7-10.5,7.8-14.5,17-11.9,21.2,2,3.2,7.5,3.3,10.3,3.1-14.1,10.9-19,25-14.5,32.5.8,1.4,3.2,4.6,9.8,6.2-3.2,19.7-3.1,30.2.5,31.5,1.6.6,3.8-.6,6.7-3.6,1.2,16,3.3,24.1,6.2,24.4,1.4.1,3-1.6,4.8-5.2.6,16.9,2.6,25.7,6.2,26.3,1.7.3,3.7-1.2,6-4.5,4,7.5,13.1,23.1,19,21.5,1.2-.3,2.6-1.5,3.7-4.6,4.5,4.9,12.5,13,16.1,11,3-1.7,1.4-10.1.6-14.1-6.8-32.9-26.5-85.6-31.6-110.1-3.7-17.6-4.5-43.1,8.8-77Z"/>
    <path class="st6" d="M261.2,464.2s-.7,44.2,1.6,68.8c2.2,23.3,13.1,62.4,13.1,62.4,0,0-23.5,3.3-21.8,16.2,1.6,11.9,31.4,10.6,42.2,5.9,15.4-6.7,1.7-61.8.8-74.8-1.9-28.9-.6-55.5-.6-55.5l-35.4-23Z"/>
    <path class="st6" d="M347.9,464.2s.7,44.2-1.6,68.8c-2.2,23.3-13.1,62.4-13.1,62.4,0,0,23.5,3.3,21.8,16.2-1.6,11.9-31.4,10.6-42.2,5.9-15.4-6.7-1.7-61.8-.8-74.8,1.9-28.9.6-55.5.6-55.5l35.4-23Z"/>
    <g>
      <path class="st2" d="M360.8,252s10-59.4,60.2-62.7c50.2-3.3,75.6,70,32.1,92.3-38,19.4-53-25-39.2-27.9s4.8,13.5,20.1,10.1c11.3-2.5,7.1-31.8-12.6-30.1-16.9,1.4-25.5,17.1-24.3,44.3,1.3,27.2-38.9-10.5-38.9-10.5l2.5-15.5Z"/>
      <path class="st2" d="M251.2,252s-10-59.4-60.2-62.7c-50.2-3.3-75.6,70-32.1,92.3,38,19.4,53-25,39.2-27.9-13.8-2.9-4.8,13.5-20.1,10.1-11.3-2.5-7.1-31.8,12.6-30.1,16.9,1.4,25.5,17.1,24.3,44.3-1.3,27.2,38.9-10.5,38.9-10.5l-2.5-15.5Z"/>
    </g>
    <path class="st6" d="M344.9,479.2s15-8.7,36.3-16.9c14.8-5.8,31.6-13.4,31.6-13.4,0,0-4.9-13-1.6-15.5,3.3-2.5,6.3,4.8,6.3,4.8,0,0,11.1-18.4,20.2-6.1,9.2,12.3-16,25.8-16,25.8,0,0-25.4,15.1-39.8,23.7-14.3,8.5-35.6,17-35.6,17l-1.4-19.3Z"/>
    <path class="st6" d="M267.1,479.2s-15-8.7-36.3-16.9c-14.8-5.8-31.6-13.4-31.6-13.4,0,0,4.9-13,1.6-15.5-3.3-2.5-6.3,4.8-6.3,4.8,0,0-11.1-18.4-20.2-6.1-9.2,12.3,16,25.8,16,25.8,0,0,25.4,15.1,39.8,23.7,14.3,8.5,35.6,17,35.6,17l1.4-19.3Z"/>
    <path class="st9" d="M355.6,535.2c-4.9,22.4-24.8,39.6-48.9,39.6h-.6c-.7,0-1.5,0-2.2,0-24.2-.2-44-17.2-49-39.6-1.1-4.8-1.4-9.9-1-15.2l.6-7.8,3.6-42.9.2-2.6h93.8l3.8,45.2.7,8.1c.4,5.2,0,10.3-1,15.2Z"/>
    <circle class="st6" cx="306" cy="355.8" r="127.6" transform="translate(-162 320.6) rotate(-45)"/>
    <path class="st6" d="M367.4,503.1c-1.1,1.1-3.9.4-8.5-1.9,5,16.1,6.7,24.5,5,25.2-.9.4-2.7-1.4-5.4-5.4,1,2.3,1.8,4.5,2.6,6.6,1.4,3.8-1.4,7.8-5.4,7.8h0c-4.9,22.4-24.8,39.6-48.9,39.6h-.6c-.7,0-1.5,0-2.2,0-24.2-.2-44-17.2-49-39.6h0c-3.2,0-5.5-3.1-4.6-6.2.3-.9.6-1.8.9-2.7-3.6,3.2-5.8,4.5-6.6,3.9-1-.7.4-4.6,4.2-11.6-1.7.6-2.8.7-3.3.1-1.2-1.2.6-5.2,5.3-12.1-2.9-1-3.9-2.6-4.3-3.2-1.9-3.6.4-9.7,6.5-14-1.8.4-4.2.7-5.2-.5-2.7-3.3,6.5-15.1,9.2-18.2.4-.4.7-.9,1.1-1.3.8-.9,1.7-1.7,2.6-2.6,22.2-20.2,70.7-23.9,92.3-2.9,5.4,5.3,13.3,16.2,11.2,18.6-1.1,1.3-4.5,0-7.4-1.2,8.9,12.5,12.3,19.8,10.5,21.7Z"/>
    <path class="st1" d="M375.3,344.8c0,35.3-28.6,63.9-63.9,63.9s-63.9-28.6-63.9-63.9.2-5.9.6-8.7c4.2-31.2,30.9-55.2,63.3-55.2s59,24,63.3,55.2c.4,2.8.6,5.8.6,8.7Z"/>
    <circle class="st2" cx="311.4" cy="350.9" r="32.3"/>
    <path class="st5" d="M351.9,418c0,12.1-5.3,23-13.8,30.4-7.1,6.3-16.5,10.1-26.7,10.1s-19.6-3.8-26.7-10.1c-8.4-7.4-13.8-18.3-13.8-30.4h80.9Z"/>
    <path class="st4" d="M338.1,448.4c-7.1,6.3-16.5,10.1-26.7,10.1s-19.6-3.8-26.7-10.1c7.1-6.3,16.5-10.1,26.7-10.1s19.6,3.8,26.7,10.1Z"/>
    <g>
      <path class="st8" d="M296.3,418h0c-2.6,20.2-12.4,20.2-15,0h0s15,0,15,0Z"/>
      <path class="st8" d="M341.5,418h0c-2.6,20.2-12.4,20.2-15,0h0s15,0,15,0Z"/>
    </g>
    <circle class="st1" cx="303.7" cy="554" r="17.2" transform="translate(-305.2 722.3) rotate(-76.7)"/>
    <circle class="st0" cx="303.7" cy="557.6" r="9.9" transform="translate(-308.7 725.1) rotate(-76.7)"/>
    <path class="st1" d="M310.2,554.1c0,1.9-1.5,3.4-3.4,3.4s-3.4-1.5-3.4-3.4,1.5-3.4,3.4-3.4,3.4,1.5,3.4,3.4Z"/>
    <path class="st7" d="M374.7,336h-126.5c4.2-31.2,30.9-55.2,63.3-55.2s59,24,63.3,55.2Z"/>
    <g>
      <path class="st6" d="M305.5,235.1s23.2-34.1,4.6-54.8c-18.6-20.7-38.2-2.1-20.1,9.8,18.1,11.9,22.7,18.1,15.5,44.9Z"/>
      <path class="st6" d="M306.5,234.9s3.3-24.4-12.2-30.4c-15.4-6-20.9,9.1-8.1,10.6,12.8,1.5,17,3.6,20.3,19.8Z"/>
    </g>
    <path class="st6" d="M392.3,260.5c33.2,16.1,48.9,28,47,35.6-.5,2.3-2.6,4.2-6.2,5.7,10.5,7.8,14.5,17,11.9,21.2-2,3.2-7.5,3.3-10.3,3.1,14.1,10.9,19,25,14.5,32.5-.8,1.4-3.2,4.6-9.8,6.2,3.2,19.7,3.1,30.2-.5,31.5-1.6.6-3.8-.6-6.7-3.6-1.2,16-3.3,24.1-6.2,24.4-1.4.1-3-1.6-4.8-5.2-.6,16.9-2.6,25.7-6.2,26.3-1.7.3-3.7-1.2-6-4.5-4,7.5-13.1,23.1-19,21.5-1.2-.3-2.6-1.5-3.7-4.6-4.5,4.9-12.5,13-16.1,11-3-1.7-1.4-10.1-.6-14.1,6.8-32.9,26.5-85.6,31.6-110.1,3.7-17.6,4.5-43.1-8.8-77Z"/>
    <path class="st4" d="M355.6,535.2c-4.9,22.4-24.8,39.6-48.9,39.6h-.6c-.7,0-1.5,0-2.2,0-24.2-.2-44-17.2-49-39.6h100.8Z"/>
  </g>
</svg>