<?xml version="1.0" encoding="UTF-8"?>
<svg id="Calque_1" xmlns="http://www.w3.org/2000/svg" version="1.1" viewBox="0 0 612 792">
  <!-- Generator: Adobe Illustrator 29.0.0, SVG Export Plug-In . SVG Version: 2.1.0 Build 186)  -->
  <defs>
    <style>
      .st0 {
        fill: #4738a6;
      }

      .st1 {
        fill: #9a89d9;
      }

      .st2 {
        fill: #f24162;
      }

      .st3 {
        fill: #fff;
      }

      .st4 {
        fill: #be324e;
      }

      .st5 {
        fill: #66d9af;
      }

      .st6 {
        fill: #3c6a71;
      }

      .st7 {
        fill: #fe3c4c;
      }

      .st8 {
        fill: #0e1216;
      }
    </style>
  </defs>
  <rect class="st1" x="68.1" y="36.8" width="475.8" height="718.4" rx="49.7" ry="49.7"/>
  <g>
    <g>
      <path class="st0" d="M392.4,614.8c-6.8-17.2-38.5-1-38.5-1,9.1-42.4,6.5-81,6.5-81l-2.6-10.7s-22.3-8.7-15.2,15.5c5.5,18.8.3,65.9-2.3,86.1-.6,5,3.4,9.4,8.5,9.1,16.9-.8,49.2-4.2,43.7-18.2Z"/>
      <path class="st0" d="M265,537.8c7.1-24.3-15.2-15.5-15.2-15.5l-2.6,10.7s-2.6,38.5,6.5,81c0,0-31.7-16.2-38.5,1-5.5,14,26.8,17.4,43.7,18.2,5.1.2,9.1-4.1,8.5-9.1-2.6-20.2-7.8-67.3-2.3-86.1Z"/>
    </g>
    <path class="st2" d="M216.2,273.3s-29,5.6-45.1,30.4c0,0,4.3,4.1,11.1,0,0,0-16.1,15-16.3,32.7-.2,17.8-5.3,18.7-5.3,18.7,0,0,7.4,1.5,10.5-3.2,0,0,.7,22.3-7.1,40.8,0,0,4.6,1.3,8.3-4.9,0,0-3.6,12.6-2.9,28.5s-3.4,30.5-3.4,30.5c0,0,3.9,1.4,6.4-3.6,0,0,5.8,19.7,1,36.9-4.9,17.2.7,24.8.7,24.8,0,0,1.9-.7,4.7-9.7,0,0,7.2,16.5,10.8,28.2,3.6,11.7,11.9,15.5,11.9,15.5l.7-8.5s23.3,21.4,35,28.9c0,0,2.7-6.1,1.7-9.2,0,0,23.1,16.5,40.8,22.3,0,0,2.9-6.1,2.4-10.2,0,0,13.5,3.4,17.1,12.9,0,0,2.6-1,5.5-8.3l-1.6-303.6-86.8,9.9Z"/>
    <path class="st2" d="M392.7,273.3s29,5.6,45.1,30.4c0,0-4.3,4.1-11.1,0,0,0,16.1,15,16.3,32.7.2,17.8,5.3,18.7,5.3,18.7,0,0-7.4,1.5-10.5-3.2,0,0-.7,22.3,7.1,40.8,0,0-4.6,1.3-8.3-4.9,0,0,3.6,12.6,2.9,28.5-.7,15.9,3.4,30.5,3.4,30.5,0,0-3.9,1.4-6.4-3.6,0,0-5.8,19.7-1,36.9,4.9,17.2-.7,24.8-.7,24.8,0,0-1.9-.7-4.7-9.7,0,0-7.2,16.5-10.8,28.2-3.6,11.7-11.9,15.5-11.9,15.5l-.7-8.5s-23.3,21.4-35,28.9c0,0-2.7-6.1-1.7-9.2,0,0-23.1,16.5-40.8,22.3,0,0-2.9-6.1-2.4-10.2,0,0-13.5,3.4-17.1,12.9,0,0-2.6-1-5.5-8.3l1.6-303.6,86.8,9.9Z"/>
    <path class="st2" d="M299.1,242c77.4,0,142.5,47.6,135.7,131.1-6.8,83.5,1.6,193.3-135.7,183.6-137.3-9.7-117.9-108-117.9-146.7s-30.5-168,117.9-168.1Z"/>
    <path class="st2" d="M186.4,437.3s-41.2,11-27.1-28.5c14.1-39.5-38-62.7-46.8-8.9-8.8,53.8,45.6,64,67.4,47.2l13.9-2.3-7.4-7.5Z"/>
    <g>
      <path class="st0" d="M156.3,383.4c-2.2-.7,6.7-12.6,9.5-12,2.8.7-6.4,13-9.5,12Z"/>
      <path class="st0" d="M149,377.1c-2.3-.4,4.7-13.5,7.6-13.3,2.9.3-4.3,13.9-7.6,13.3Z"/>
      <path class="st0" d="M140.2,375c-2.2.7-2.1-14.1.5-15.3,2.7-1.1,2.6,14.3-.5,15.3Z"/>
      <path class="st0" d="M132.3,377.4c-1.6,1.6-8.4-11.6-6.5-13.8,1.9-2.2,8.9,11.5,6.5,13.8Z"/>
      <path class="st0" d="M124.7,382.6c-.9,2.1-12.2-7.5-11.3-10.3.9-2.8,12.6,7.2,11.3,10.3Z"/>
    </g>
    <path class="st2" d="M425.6,437.3s41.2,11,27.1-28.5c-14.1-39.5,38-62.7,46.8-8.9,8.8,53.8-45.6,64-67.4,47.2l-13.9-2.3,7.4-7.5Z"/>
    <g>
      <path class="st0" d="M455.7,383.4c2.2-.7-6.7-12.6-9.5-12-2.8.7,6.4,13,9.5,12Z"/>
      <path class="st0" d="M463,377.1c2.3-.4-4.7-13.5-7.6-13.3-2.9.3,4.3,13.9,7.6,13.3Z"/>
      <path class="st0" d="M471.8,375c2.2.7,2.1-14.1-.5-15.3-2.7-1.1-2.6,14.3.5,15.3Z"/>
      <path class="st0" d="M479.7,377.4c1.6,1.6,8.4-11.6,6.5-13.8-1.9-2.2-8.9,11.5-6.5,13.8Z"/>
      <path class="st0" d="M487.3,382.6c.9,2.1,12.2-7.5,11.3-10.3-.9-2.8-12.6,7.2-11.3,10.3Z"/>
    </g>
    <path class="st0" d="M402.2,463.4c0,30.1-11,55.8-26.4,65.3-4.1,2.6-8.6,3.9-13.2,3.9s-2.3,0-3.5-.3c-.2,0-.4,0-.6,0-2.3-.4-4.4-1.1-6.6-2.2-12.3-6-26.2-7.6-39.7-5.9-2.5.3-5.1.5-7.7.5s-5.2-.2-7.7-.5c-13.5-1.7-27.3-.1-39.6,5.9-2.3,1.1-4.6,1.9-7,2.2,0,0,0,0-.1,0-1.1.2-2.3.3-3.5.3-4.8,0-9.3-1.5-13.6-4.2-15.2-9.7-26-35.2-26-65.1s10.9-55.4,26.1-65.1c4.2-2.7,8.8-4.1,13.5-4.1s2.4,0,3.5.3c2.4.4,4.8,1.1,7.1,2.3,12.2,6,26.1,7.5,39.6,5.9,2.5-.3,5.1-.5,7.7-.5s5.2.2,7.7.5c13.6,1.7,27.4,0,39.7-5.9,2.3-1.1,4.6-1.9,7.1-2.2,1.2-.2,2.4-.3,3.5-.3,4.8,0,9.3,1.5,13.5,4.1,15.2,9.7,26.1,35.2,26.1,65.1Z"/>
    <path class="st0" d="M285.6,249s-36.3-22.9-44.7-90c0,0-26.8,43.6-11.2,111.8,0,0,36.6,13.4,55.9-21.8Z"/>
    <circle class="st4" cx="305.2" cy="340.1" r="46.5"/>
    <circle class="st0" cx="305.2" cy="332.4" r="43.6" transform="translate(-90 550.4) rotate(-76.3)"/>
    <circle class="st3" cx="305.2" cy="332.4" r="38.9" transform="translate(-89.8 550.7) rotate(-76.4)"/>
    <circle class="st5" cx="305.2" cy="336.5" r="24.8" transform="translate(-90.8 558.9) rotate(-77.1)"/>
    <circle class="st6" cx="305.2" cy="336.5" r="11.4"/>
    <path class="st3" d="M312.5,321c.8,2.7-2.8,6.2-8,7.7-5.2,1.6-10.1.6-10.9-2.1-.8-2.7,2.8-6.2,8-7.7,5.2-1.6,10.1-.6,10.9,2.1Z"/>
    <circle class="st3" cx="312.9" cy="348.6" r="4.9"/>
    <g>
      <path class="st3" d="M376.1,398.3c-.2,1-.4,2-.6,3-2.4,9.5-8.1,16.2-12.9,15.1-4.8-1.2-6.7-9.8-4.3-19.3.2-.9.5-1.7.7-2.6,1.2-.2,2.4-.3,3.5-.3,4.8,0,9.3,1.5,13.5,4.1Z"/>
      <path class="st3" d="M246.6,416.4c-4.8,1.2-10.5-5.6-12.9-15.1-.2-1-.5-2-.6-3,4.2-2.7,8.8-4.1,13.5-4.1s2.4,0,3.5.3c.3.8.5,1.7.7,2.6,2.4,9.5.4,18.2-4.3,19.3Z"/>
    </g>
    <path class="st8" d="M335.3,506.4c0,.2,0,.5,0,.7-.1,6.2-2.1,12-5.4,16.8-5.8-.6-11.7-.5-17.6.3-2.5.3-5.1.5-7.7.5s-5.2-.2-7.7-.5c-6-.8-12.1-.9-18.1-.2-3.3-4.7-5.2-10.4-5.4-16.5,0-.4,0-.7,0-1.1,0-17.1,13.9-31,31-31s31,13.9,31,31Z"/>
    <g>
      <path class="st3" d="M250.8,530.6c-.1.6-.3,1.1-.5,1.7,0,0,0,0-.1,0-1.1.2-2.3.3-3.5.3-4.8,0-9.3-1.5-13.6-4.2.1-.7.3-1.4.5-2.1,2.4-9.5,8.1-16.2,12.9-15.1,4.8,1.2,6.7,9.8,4.3,19.3Z"/>
      <path class="st3" d="M375.8,528.7c-4.1,2.6-8.6,3.9-13.2,3.9s-2.3,0-3.5-.3c-.2,0-.4,0-.6,0-.2-.5-.3-1.1-.4-1.6-2.4-9.5-.4-18.2,4.3-19.3,4.8-1.2,10.5,5.6,12.9,15.1.2.8.4,1.6.5,2.3Z"/>
    </g>
    <path class="st7" d="M359.1,532.3c-2.4-.4-4.8-1.1-7.1-2.3-7-3.4-14.5-5.4-22.1-6.2-5.8-.6-11.7-.5-17.6.3-2.5.3-5.1.5-7.7.5s-5.2-.2-7.7-.5c-6-.8-12.1-.9-18.1-.2-7.4.8-14.7,2.8-21.5,6.1-2.3,1.1-4.7,1.9-7.2,2.3,3.6-10.3,12-19.1,23.2-24.8,8.9-4.6,19.7-7.3,31.3-7.3s21.8,2.6,30.7,7c11.5,5.8,20.1,14.7,23.8,25.2Z"/>
  </g>
</svg>