<?xml version="1.0" encoding="UTF-8"?>
<svg id="Calque_1" xmlns="http://www.w3.org/2000/svg" version="1.1" viewBox="0 0 612 792">
  <!-- Generator: Adobe Illustrator 29.0.0, SVG Export Plug-In . SVG Version: 2.1.0 Build 186)  -->
  <defs>
    <style>
      .st0 {
        fill: #6d6e30;
      }

      .st1 {
        fill: #4738a6;
      }

      .st2 {
        fill: #223437;
      }

      .st3 {
        fill: #9a89d9;
      }

      .st4 {
        fill: #f24162;
      }

      .st5 {
        fill: #fff;
      }

      .st6 {
        fill: #3c307d;
      }

      .st7 {
        fill: #fefefe;
      }

      .st8 {
        fill: #66d9af;
      }
    </style>
  </defs>
  <rect class="st3" x="68.1" y="36.8" width="475.8" height="718.4" rx="49.7" ry="49.7"/>
  <g>
    <g>
      <path class="st8" d="M448.1,190c-.6-4.8-6.3-6.8-9.8-3.5-20.7,20.2-41,33.6-41,33.6l-13.8,27.1,40.7,19.4c25-29.9,25.7-60.6,23.8-76.6Z"/>
      <path class="st8" d="M165.4,190c.6-4.8,6.3-6.8,9.8-3.5,20.7,20.2,41,33.6,41,33.6l13.8,27.1-40.7,19.4c-25-29.9-25.7-60.6-23.8-76.6Z"/>
    </g>
    <path class="st1" d="M376,609.6c-7.4-18.7-41.9-1.1-41.9-1.1,9.9-46.1,7-88,7-88l-2.8-11.6s-24.3-9.5-16.6,16.9c6,20.5.4,71.7-2.5,93.7-.7,5.5,3.7,10.2,9.2,9.9,18.4-.9,53.5-4.6,47.5-19.8Z"/>
    <path class="st1" d="M236.6,609.6c7.4-18.7,41.9-1.1,41.9-1.1-9.9-46.1-7-88-7-88l2.8-11.6s24.3-9.5,16.6,16.9c-6,20.5-.4,71.7,2.5,93.7.7,5.5-3.7,10.2-9.2,9.9-18.4-.9-53.5-4.6-47.5-19.8Z"/>
    <path class="st1" d="M456,325.8c0-75.9-67.2-137.3-150-137.3s-150,61.5-150,137.3,17,72.7,44.4,97.6c16,14.5,24.4,35.3,24.2,56.9,0,.1,0,.2,0,.4,0,38.2,36.4,69.2,81.4,69.2s81.4-31,81.4-69.2,0-.2,0-.4c-.1-21.5,8.3-42.4,24.2-56.9,27.4-24.9,44.4-59.4,44.4-97.6Z"/>
    <path class="st6" d="M433.8,349.1c0,1.5,0,3-.2,4.4-2.2,24.5-22.8,43.7-47.9,43.7s-45.7-19.2-47.9-43.7c-.1-1.5-.2-2.9-.2-4.4,0-26.6,21.6-48.1,48.1-48.1s48.1,21.5,48.1,48.1Z"/>
    <path class="st8" d="M433.8,341.8c0,1.5,0,3-.2,4.4-2.2,24.5-22.8,43.7-47.9,43.7s-45.7-19.2-47.9-43.7c-.1-1.5-.2-2.9-.2-4.4,0-26.6,21.6-48.1,48.1-48.1s48.1,21.5,48.1,48.1Z"/>
    <circle class="st5" cx="385.7" cy="341.8" r="42.9" transform="translate(-128.7 372.8) rotate(-45)"/>
    <circle class="st8" cx="385.7" cy="346.2" r="27.3" transform="translate(-131.9 374.1) rotate(-45)"/>
    <circle class="st0" cx="385.7" cy="346.2" r="12.5"/>
    <ellipse class="st5" cx="383.3" cy="332.3" rx="10.9" ry="5.6" transform="translate(-78.9 123.1) rotate(-16.6)"/>
    <circle class="st5" cx="394.2" cy="359.6" r="5.4"/>
    <path class="st6" d="M275.8,349.1c0,1.5,0,3-.2,4.4-2.2,24.5-22.8,43.7-47.9,43.7s-45.7-19.2-47.9-43.7c-.1-1.5-.2-2.9-.2-4.4,0-26.6,21.5-48.1,48.1-48.1s48.1,21.5,48.1,48.1Z"/>
    <path class="st8" d="M275.8,341.8c0,1.5,0,3-.2,4.4-2.2,24.5-22.8,43.7-47.9,43.7s-45.7-19.2-47.9-43.7c-.1-1.5-.2-2.9-.2-4.4,0-26.6,21.5-48.1,48.1-48.1s48.1,21.5,48.1,48.1Z"/>
    <circle class="st5" cx="227.6" cy="341.8" r="42.9" transform="translate(-154.5 492.1) rotate(-77.8)"/>
    <circle class="st8" cx="227.6" cy="346.2" r="27.3" transform="translate(-158.7 496.1) rotate(-77.9)"/>
    <circle class="st0" cx="227.6" cy="346.2" r="12.5"/>
    <ellipse class="st5" cx="225.3" cy="332.3" rx="10.9" ry="5.6" transform="translate(-85.4 78.1) rotate(-16.6)"/>
    <circle class="st5" cx="236.2" cy="359.6" r="5.4"/>
    <path class="st6" d="M275.8,341.8c0,1.5,0,3-.2,4.4h-95.8c-.1-1.5-.2-2.9-.2-4.4,0-26.6,21.5-48.1,48.1-48.1s48.1,21.5,48.1,48.1Z"/>
    <path class="st6" d="M433.8,341.8c0,1.5,0,3-.2,4.4h-95.8c-.1-1.5-.2-2.9-.2-4.4,0-26.6,21.6-48.1,48.1-48.1s48.1,21.5,48.1,48.1Z"/>
    <path class="st4" d="M330.7,451c-9.4,1.9-19.2-7.1-21.9-20.1-.4-1.7-.6-3.4-.6-5.1,0-1.4,0-2.7,0-4.1,1.5-1.1,3-2.1,4.6-3,.8-.4,1.6-.9,2.4-1.2l1.3-.5.7-.3.7-.2,1.4-.4,1.4-.2c.5,0,.9,0,1.4,0,.5,0,1,0,1.4,0,1.9.1,3.7.6,5.4,1.1,1.7.6,3.3,1.3,4.9,2.1,3.1,1.6,6,3.3,8.9,4.7,0,0,.2,0,.3.1.4,1.9.6,3.7.7,5.5.4,10.8-4.8,19.9-12.9,21.6Z"/>
    <path class="st7" d="M370.6,429.8c0,5.7-2.2,10.4-4.9,10.4s-4.9-4.6-4.9-10.2c0,0,0-.1,0-.2,0-2.5.4-4.8,1.1-6.6,1.6-1.1,3.1-2.3,4.5-3.7,1.5.4,2.7,2.2,3.5,4.7.5,1.6.8,3.5.8,5.6Z"/>
    <path class="st7" d="M257.3,425.3c0,5.7-2.2,10.4-4.9,10.4s-4.9-4.7-4.9-10.4.2-2.9.4-4.2c0-.2,0-.4.1-.6,1.7-.3,3.4-.9,5-1.5.9-.3,1.9-.7,2.8-1.1.1.3.2.5.3.8.7,1.8,1.1,4,1.1,6.5Z"/>
    <path class="st2" d="M241.7,412.2c-.6,1.8-1.6,3.6-2.8,5.1-.3.4-.6.8-1,1.1l-.2.2h-.1c0,.1-.8.9-.8.9-.4.3-.8.6-1.2.9-.2.1-.4.3-.6.4l-.6.4c-1.7,1-3.6,1.5-5.5,1.7,1.5-1.2,3-2.2,4.3-3.4.3-.3.7-.6,1-.9.3-.3.6-.6.9-.9.3-.4.7-.8,1-1.2,0,0,0,0,0,0,.2-.2.4-.5.6-.8,1.1-1.3,2.1-2.8,3-4.3.9-1.5,1.8-3.1,2.7-4.8.2,1.9-.2,3.9-.8,5.7Z"/>
    <path class="st2" d="M383.5,422.8c-1.9-.1-3.8-.7-5.5-1.7l-.6-.4c-.2-.1-.4-.3-.6-.4-.4-.3-.8-.6-1.2-.9l-.5-.5-.5-.5c-.4-.3-.6-.7-1-1.1-.9-1.1-1.6-2.3-2.2-3.5-.2-.5-.5-1-.6-1.6-.6-1.8-1-3.7-.8-5.7.9,1.7,1.8,3.3,2.7,4.8,0,.2.2.3.3.5.8,1.4,1.7,2.6,2.7,3.8.3.5.7.9,1.1,1.3.2.2.4.4.6.7.3.3.6.6.9.9.3.3.6.6,1,.9,1.3,1.2,2.8,2.2,4.3,3.4Z"/>
    <path class="st2" d="M376.7,417c-.6.7-1.1,1.3-1.7,2-1.3,1.5-2.6,2.9-4.1,4.2-.4.3-.8.7-1.1,1-2.3,2-4.9,3.9-7.8,5.2-.4.2-.8.4-1.3.6-3.1,1.2-6.5,1.9-9.9,1.5-1.9-.2-3.7-.7-5.5-1.3-.6-.2-1.2-.5-1.8-.7-1.1-.5-2.1-.9-3.1-1.5-3.1-1.6-5.9-3.5-8.8-5.1-1.4-.8-2.8-1.5-4.3-2-1.4-.5-2.9-1-4.4-1.1-.4,0-.7,0-1.1,0-.4,0-.7,0-1.1,0h-1.1c0,0-1.1.3-1.1.3h-.5c0,.1-.5.3-.5.3l-1.1.4c-.7.3-1.4.7-2.1,1-2.2,1.1-4.3,2.5-6.4,4-.6.4-1.2.9-1.9,1.3-2.7,1.9-5.5,4-8.8,5.5-1.7.7-3.5,1.2-5.4,1.2-1.9,0-3.8-.5-5.4-1.3-3.3-1.7-5.7-4.3-7.8-6.9-2.1-2.6-4.3-5.1-7-6.8l-1-.6c-.3-.2-.7-.3-1.1-.5-.4-.1-.7-.4-1.1-.4l-1.1-.3c-1.5-.3-3.2-.3-4.8,0-1.6.3-3.2.8-4.7,1.4-.6.2-1.2.4-1.9.7-1,.3-1.9.7-2.9,1-1.8.6-3.6,1.1-5.4,1.3-1.5.2-3,.3-4.6.1-1.7-.2-3.4-.8-4.7-1.8-.3-.2-.6-.5-.9-.8-.6-.6-1.2-1.4-1.5-2.2,0,0,0,0,0,0,.4.8.9,1.5,1.6,2.2.3.3.6.5.9.7,1.3,1,3,1.5,4.6,1.6,1.6.1,3.1,0,4.7-.3,1.7-.3,3.4-.9,5-1.5.9-.3,1.9-.7,2.8-1.1.6-.2,1.2-.5,1.9-.7,1.6-.6,3.2-1.2,4.9-1.6,1.7-.4,3.5-.5,5.2-.2l1.3.3c.4,0,.8.3,1.2.4.4.2.8.3,1.2.5l1.1.7c3,1.8,5.4,4.4,7.6,6.9,2.1,2.5,4.5,4.8,7.3,6.1,1.4.6,2.9.9,4.3.9,1.5,0,2.9-.5,4.3-1.1,2.8-1.3,5.4-3.4,8-5.4,1.3-1,2.5-2,3.8-2.9,1.5-1.1,3-2.1,4.6-3,.8-.4,1.6-.9,2.4-1.2l1.3-.5.7-.3.7-.2,1.4-.4,1.4-.2c.5,0,.9,0,1.4,0,.5,0,1,0,1.4,0,1.9.1,3.7.6,5.4,1.1,1.7.6,3.3,1.3,4.9,2.1,3.1,1.6,6,3.3,8.9,4.7,0,0,.2,0,.3.1,1.3.7,2.7,1.2,4,1.6,1.5.4,2.9.8,4.3.8,2.9.2,5.7-.5,8.3-1.9.8-.4,1.5-.8,2.2-1.3,1.6-1.1,3.1-2.3,4.5-3.7.2-.2.4-.3.5-.5,1.6-1.6,3.1-3.3,4.5-5.1.5-.7,1-1.3,1.5-2,.8,1.4,1.7,2.6,2.7,3.8.3.5.7.9,1.1,1.3Z"/>
    <path class="st1" d="M237.2,474.1s-24,22.5-11.3,34.7c12.7,12.2,18.8,27,9.8,23.8-6.1-2.2-7.9-5.3-14.5-2.8-6.6,2.6-5.2,14.7-11.4,14.5-6.1-.2-2.5-12.3-6.5-14-4-1.7-7.4,1.2-11.3-5.1-3.9-6.2,9.7-7.5,9.4-21.2-.3-13.7,10.7-29.4,22.9-38.8,12.2-9.4,17.7,1.2,12.9,8.9Z"/>
    <path class="st1" d="M381.7,474.1s24,22.5,11.3,34.7c-12.7,12.2-18.8,27-9.8,23.8,6.1-2.2,7.9-5.3,14.5-2.8,6.6,2.6,5.2,14.7,11.4,14.5,6.1-.2,2.5-12.3,6.5-14,4-1.7,7.4,1.2,11.3-5.1,3.9-6.2-9.7-7.5-9.4-21.2s-10.7-29.4-22.9-38.8c-12.2-9.4-17.7,1.2-12.9,8.9Z"/>
    <path class="st1" d="M277,193.8s-2.6-22.7-23.8-26.1c0,0,34.6-5.5,44.3,20.3,0,0,11.4-29.1,45.2-25.1,0,0-17.7,10-17.4,27.5l-19.8,30.1-28.5-26.7Z"/>
    <ellipse class="st4" cx="306" cy="509.1" rx="52.4" ry="35.4"/>
  </g>
</svg>