<?xml version="1.0" encoding="UTF-8"?>
<svg id="Calque_1" xmlns="http://www.w3.org/2000/svg" version="1.1" viewBox="0 0 612 792">
  <!-- Generator: Adobe Illustrator 29.0.0, SVG Export Plug-In . SVG Version: 2.1.0 Build 186)  -->
  <defs>
    <style>
      .st0 {
        fill: #e9ffff;
      }

      .st1 {
        fill: #4738a6;
      }

      .st2 {
        fill: #9a89d9;
      }

      .st3 {
        fill: #f24162;
      }

      .st4 {
        fill: #3c307d;
      }

      .st5 {
        fill: #66d9af;
      }

      .st6 {
        fill: #f7f7ef;
      }
    </style>
  </defs>
  <rect class="st2" x="68.1" y="36.8" width="475.8" height="718.4" rx="49.7" ry="49.7"/>
  <g>
    <path class="st3" d="M267.9,523.1s-.4,27.6,1,43c1.4,14.6,8.2,38.9,8.2,38.9,0,0-14.7,2.1-13.6,10.1,1,7.4,19.6,6.6,26.4,3.7,9.6-4.2,1-38.6.5-46.7-1.2-18-.4-34.7-.4-34.7l-22.1-14.4Z"/>
    <path class="st3" d="M341.1,523.1s.4,27.6-1,43c-1.4,14.6-8.2,38.9-8.2,38.9,0,0,14.7,2.1,13.6,10.1-1,7.4-19.6,6.6-26.4,3.7-9.6-4.2-1-38.6-.5-46.7,1.2-18,.4-34.7.4-34.7l22.1-14.4Z"/>
    <path class="st5" d="M361.5,535.9c-16,3.4-35.1,5.3-55.5,5.3s-40.8-2.1-57.2-5.7l4.9-57.8,3.9-46.2h95.2l3.8,45.8,4.9,58.5Z"/>
    <path class="st5" d="M267.6,466.4l-25.6,1.6c-.2-.8-.4-1.5-.6-2.2-1.6-6.6-1.3-11.5-.7-14.8.5-2.8,1.3-4.3,1.3-4.3l23.6-11.4,2,31.1Z"/>
    <path class="st3" d="M350.8,448.8s3,16.8,11.1,37.7c4.6,11.9,6.2,33.1,6.2,33.1,0,0-13,4-13,8.1s7.5,2,7.5,2c0,0-7.6,19.6,7.4,19.3,15-.3,9.3-24.8,9.3-24.8,0,0-2.5-31.8-4.5-48.1-2-16.2-8.3-37.8-8.3-37.8l-15.8,10.5Z"/>
    <path class="st5" d="M336.1,444.2l17.7,19.3s8.3,1.6,20.4-6.1l-8.9-24-29.2,10.8Z"/>
    <path class="st5" d="M366.6,210.4s28.3-1.6,41.4-39.3c0,0,38.2,41.7-11.4,72.4-49.6,30.7-30-33-30-33Z"/>
    <ellipse class="st0" cx="305.2" cy="435.6" rx="35.2" ry="24.5"/>
    <ellipse class="st3" cx="305.2" cy="435.6" rx="30.3" ry="21.1"/>
    <path class="st5" d="M247.6,210.4s-28.3-1.6-41.4-39.3c0,0-38.2,41.7,11.4,72.4,49.6,30.7,30-33,30-33Z"/>
    <circle class="st3" cx="306" cy="318.9" r="129.5"/>
    <circle class="st0" cx="311.5" cy="307.7" r="64.8" transform="translate(-126.3 310.4) rotate(-45)"/>
    <circle class="st1" cx="311.5" cy="318.5" r="32.8" transform="translate(-134 313.5) rotate(-45)"/>
    <circle class="st4" cx="311.5" cy="321.6" r="20.6" transform="translate(-73.9 549.5) rotate(-76.5)"/>
    <path d="M339.3,384.5c0,8.3-3.7,15.8-9.5,20.9-4.9,4.3-11.3,6.9-18.3,6.9s-13.4-2.6-18.3-6.9c-5.8-5.1-9.5-12.6-9.5-20.9h55.6Z"/>
    <path class="st5" d="M329.8,405.4c-4.9,4.3-11.3,6.9-18.3,6.9s-13.4-2.6-18.3-6.9c4.9-4.3,11.3-6.9,18.3-6.9s13.4,2.6,18.3,6.9Z"/>
    <g>
      <polygon class="st6" points="301.1 384.5 295.9 398.4 290.8 384.5 301.1 384.5"/>
      <polygon class="st6" points="332.1 384.5 327 398.4 321.8 384.5 332.1 384.5"/>
    </g>
    <path class="st3" d="M241.5,465.8c-13.3,2.5-28.9,3.9-35.8-1.4-13-10.1-10.7-49.6-10.7-49.6,0,0-5.7-24.5,9.3-24.8,15-.3,7.4,19.3,7.4,19.3,0,0,7.5-2,7.5,2s-13,8.1-13,8.1c0,0,.3,29.7,12.4,33.8,5.1,1.7,13.7.2,22.1-2.1-.6,3.2-.9,8.2.7,14.8Z"/>
    <circle class="st0" cx="306" cy="496.4" r="17.5" transform="translate(-248 678.5) rotate(-76.5)"/>
    <circle cx="306" cy="500" r="10" transform="translate(-251.3 682) rotate(-76.6)"/>
    <circle class="st0" cx="309.1" cy="496.5" r="3.4"/>
  </g>
</svg>