<?xml version="1.0" encoding="UTF-8"?>
<svg id="Calque_1" xmlns="http://www.w3.org/2000/svg" version="1.1" viewBox="0 0 612 792">
  <!-- Generator: Adobe Illustrator 29.0.0, SVG Export Plug-In . SVG Version: 2.1.0 Build 186)  -->
  <defs>
    <style>
      .st0 {
        fill: #231e1f;
      }

      .st1 {
        fill: #4738a6;
      }

      .st2 {
        fill: #9a89d9;
      }

      .st3 {
        fill: #f24162;
      }

      .st4 {
        fill: #fff;
      }

      .st5 {
        fill: #3c307d;
      }

      .st6 {
        fill: #fefefe;
      }

      .st7 {
        fill: #66d9af;
      }

      .st8 {
        fill: #52927c;
      }
    </style>
  </defs>
  <rect class="st2" x="68.1" y="36.8" width="475.8" height="718.4" rx="49.7" ry="49.7"/>
  <g>
    <g>
      <path class="st3" d="M325,217.8s22.1-37.4,41.6-22.1c19.4,15.3-.7,41.8-.7,41.8l-40.9-19.7Z"/>
      <path class="st3" d="M291.8,217.8s-22.1-37.4-41.6-22.1c-19.4,15.3.7,41.8.7,41.8l40.9-19.7Z"/>
    </g>
    <path class="st1" d="M284.1,573.4c0,35.4-57.6,35.4-57.6,0s12.9-64.2,28.8-64.2,28.8,28.7,28.8,64.2Z"/>
    <path class="st1" d="M387.7,573.4c0,35.4-57.6,35.4-57.6,0s12.9-64.2,28.8-64.2,28.8,28.7,28.8,64.2Z"/>
    <path class="st1" d="M204.9,417.9s-52-12.1-51.6,28.7c.4,40.8-55,45.5-45.9-6.8,9.1-52.3,80-55.5,94.7-33l12,6.5-9.3,4.6Z"/>
    <g>
      <path class="st0" d="M142.3,469c-2.2,0,2.1,13.8,4.9,14,2.8.3-1.7-14-4.9-14Z"/>
      <path class="st0" d="M133.6,472.4c-2.2-.3,0,13.9,2.8,14.6s.4-14.1-2.8-14.6Z"/>
      <path class="st0" d="M124.9,471.6c-1.8-1.3-6.5,12.3-4.4,14.2,2.1,1.9,7-12.3,4.4-14.2Z"/>
      <path class="st0" d="M118.3,466.9c-1-2-11.4,8-10.4,10.6,1,2.7,11.9-7.7,10.4-10.6Z"/>
      <path class="st0" d="M113,459.7c-.1-2.2-13.6,3-13.7,5.8,0,2.8,13.9-2.6,13.7-5.8Z"/>
    </g>
    <path class="st1" d="M407.1,417.9s52-12.1,51.6,28.7c-.4,40.8,55,45.5,45.9-6.8-9.1-52.3-80-55.5-94.7-33l-12,6.5,9.3,4.6Z"/>
    <g>
      <path class="st0" d="M469.7,469c2.2,0-2.1,13.8-4.9,14-2.8.3,1.7-14,4.9-14Z"/>
      <path class="st0" d="M478.4,472.4c2.2-.3,0,13.9-2.8,14.6s-.4-14.1,2.8-14.6Z"/>
      <path class="st0" d="M487.1,471.6c1.8-1.3,6.5,12.3,4.4,14.2-2.1,1.9-7-12.3-4.4-14.2Z"/>
      <path class="st0" d="M493.7,466.9c1-2,11.4,8,10.4,10.6-1,2.7-11.9-7.7-10.4-10.6Z"/>
      <path class="st0" d="M499,459.7c.1-2.2,13.6,3,13.7,5.8,0,2.8-13.9-2.6-13.7-5.8Z"/>
    </g>
    <path class="st1" d="M430,511.7c-4,5.6-8.6,10.6-13.7,15.1-21.5,19.3-51.3,29.3-79.3,33.4-6.2.9-12.4,1.5-18.7,1.8-42.4,2.1-90-8.8-123.7-36.3-3.2-2.6-6.4-5.5-9.3-8.4-9.8-9.7-17.9-21.5-21.2-34.9-5.6-23,3.9-45.1,12.7-65.9,8.3-19.7,15.4-40.5,18.4-61.8,2-13.8,4-27.7,6.9-41.5,3.2-15.3,7.3-30.3,13.3-44.6,2.4-5.8,5.1-11.2,8.2-16.2,18.4-30.1,48-45.2,85.8-42.8,30.7,2,64.5,9,83.7,33.5,3.3,4.2,6.1,8.9,8.5,14.2,9.4,21.1,9.3,45.7,7.5,68.4,0,.6,0,1.3-.1,1.9-1.7,31.1,15.5,51.6,28.4,78.1,16,33,14.5,75.8-7.3,106Z"/>
    <g>
      <path class="st0" d="M397.8,408.4c-8.7,15.4-24.6,12.1-45.2,8.7-9.7-1.6-20.3-3.1-31.8-2.8-9.9.3-20.4,2.1-31.3,6.6-50.4,20.8-92.9,10.9-85-44.7,2.4-16.9,12.4-28.8,24.7-35.8,16.5-9.4,37.1-9.5,48.4-.1,7.8,6.5,15.3,14.2,23.4,21,7.9,6.6,16.4,12.4,26.1,15.5,18,5.7,32.7-10.8,48.8-11.3,4.8-.2,9.7,1.1,14.9,4.8,1.2.9,2.3,1.8,3.3,2.8,9.3,9.2,10.3,23.6,3.8,35.1Z"/>
      <path class="st6" d="M301,361.4c-13.9,19-36.3,46.2-49.9,45.7-13.1-.4-19.2-38.5-21.9-66.6,16.5-9.4,37.1-9.5,48.4-.1,7.8,6.5,15.3,14.2,23.4,21Z"/>
      <path class="st6" d="M352.6,417.1c-9.7-1.6-20.3-3.1-31.8-2.8,5.2-9.7,14.8-26.5,19.2-26.1,4.4.4,9.8,18.2,12.6,28.8Z"/>
      <path class="st6" d="M394,373.3c-3.5,5.2-7,9.2-9.2,9-2.9-.3-6.3-8.2-9-16.6,4.8-.2,9.7,1.1,14.9,4.8,1.2.9,2.3,1.8,3.3,2.8Z"/>
    </g>
    <path class="st3" d="M416.3,526.8c-21.5,19.3-51.3,29.3-79.3,33.4-6.2.9-12.4,1.5-18.7,1.8-42.4,2.1-90-8.8-123.7-36.3,19.8-41.1,61.9-69.5,110.6-69.5s91.5,28.9,111.1,70.6Z"/>
    <path class="st5" d="M409,325.7c0,.6,0,1.3-.1,1.9-6.3,3.3-13.5,5.2-21.1,5.2-24.9,0-45-20.1-45-45s20.1-45,45-45,3.5.1,5.2.3c3.3,4.2,6.1,8.9,8.5,14.2,9.4,21.1,9.3,45.7,7.5,68.4Z"/>
    <circle class="st1" cx="387.8" cy="277.6" r="45"/>
    <circle class="st4" cx="387.8" cy="277.6" r="40.1"/>
    <circle class="st7" cx="387.8" cy="275.6" r="25.5"/>
    <circle class="st8" cx="387.8" cy="275.6" r="11.7"/>
    <path class="st4" d="M395.3,259.7c.8,2.8-2.9,6.4-8.3,8-5.4,1.6-10.5.6-11.3-2.1-.8-2.8,2.9-6.4,8.3-8,5.4-1.6,10.5-.6,11.3,2.1Z"/>
    <circle class="st4" cx="395.8" cy="288.1" r="5"/>
    <path class="st5" d="M264.4,288.3c0,20-16.2,36.2-36.2,36.2s-19.6-4.3-26.2-11.2c3.2-15.3,7.3-30.3,13.3-44.6,2.4-5.8,5.1-11.2,8.2-16.2,1.6-.2,3.1-.3,4.7-.3,20,0,36.2,16.2,36.2,36.2Z"/>
    <circle class="st1" cx="228.3" cy="278.1" r="36.2" transform="translate(-82.8 458.8) rotate(-80.8)"/>
    <circle class="st4" cx="228.3" cy="278.1" r="32.2" transform="translate(-89 108.5) rotate(-22.5)"/>
    <circle class="st7" cx="228.3" cy="278.3" r="20.5"/>
    <circle class="st8" cx="228.3" cy="278.3" r="9.4" transform="translate(-130 242.9) rotate(-45)"/>
    <path class="st4" d="M234.3,265.5c.7,2.2-2.3,5.1-6.6,6.4-4.3,1.3-8.4.5-9.1-1.7-.7-2.2,2.3-5.1,6.6-6.4,4.3-1.3,8.4-.5,9.1,1.7Z"/>
    <path class="st4" d="M238.7,288.4c0,2.2-1.8,4-4,4s-4-1.8-4-4,1.8-4,4-4,4,1.8,4,4Z"/>
  </g>
</svg>