<?xml version="1.0" encoding="UTF-8"?>
<svg id="Calque_1" xmlns="http://www.w3.org/2000/svg" version="1.1" viewBox="0 0 612 792">
  <!-- Generator: Adobe Illustrator 29.0.0, SVG Export Plug-In . SVG Version: 2.1.0 Build 186)  -->
  <defs>
    <style>
      .st0 {
        fill: #4738a6;
      }

      .st1 {
        fill: #9a89d9;
      }

      .st2 {
        fill: #fff;
      }

      .st3 {
        fill: #3c307d;
      }

      .st4 {
        fill: #241f21;
      }

      .st5 {
        fill: #66d9af;
      }

      .st6 {
        fill: #52927c;
      }
    </style>
  </defs>
  <rect class="st1" x="68.1" y="36.8" width="475.8" height="718.4" rx="49.7" ry="49.7"/>
  <g>
    <path class="st5" d="M404.9,573.8c-9.8-24.7-55.4-1.4-55.4-1.4,13-60.9,9.3-116.3,9.3-116.3l-3.7-15.4s-32.1-12.6-21.9,22.3c7.9,27.1.5,94.7-3.3,123.7-.9,7.2,4.9,13.5,12.2,13.1,24.2-1.2,70.7-6.1,62.8-26.1Z"/>
    <path class="st5" d="M203.4,573.8c9.8-24.7,55.4-1.4,55.4-1.4-13-60.9-9.3-116.3-9.3-116.3l3.7-15.4s32.1-12.6,21.9,22.3c-7.9,27.1-.5,94.7,3.3,123.7.9,7.2-4.9,13.5-12.2,13.1-24.2-1.2-70.7-6.1-62.8-26.1Z"/>
    <path class="st5" d="M170.8,362.3s-69.8,40.5-61.5,99.8c8.3,59.3,53.4,37.9,41.8,12.7,0,0,12.9,9.7,15.6,3.4,2.6-6.3-10.9-23.1-10.9-23.1,0,0-13.5-39.3,25.9-70.7l.5-19.4-11.3-2.7Z"/>
    <path class="st5" d="M441.2,362.3s69.8,40.5,61.5,99.8c-8.3,59.3-53.4,37.9-41.8,12.7,0,0-12.9,9.7-15.6,3.4-2.6-6.3,10.9-23.1,10.9-23.1,0,0,13.5-39.3-25.9-70.7l-.5-19.4,11.3-2.7Z"/>
    <path class="st5" d="M290.6,223c2.6-4.7,9.6-16.2,23.9-23.9,12.5-6.8,24.2-7.2,29.7-7.1-6.2,10.8-12.5,21.5-18.7,32.3,5.2-2,25.2-9,46.4,0,9.1,3.9,15.4,9.4,19.4,13.5-8.4,1.2-16.8,2.4-25.2,3.5,9.1,1.4,42.1,7.5,66.8,36.8,16.3,19.3,21.4,39.8,23.2,50-4.5-4.5-9-9-13.5-13.5,3.8,5.7,13.4,21.8,10,41.3-.8,4.4-2.1,8.3-3.5,11.6-2.2-5.8-4.3-11.6-6.5-17.4,2.7,11.6,6.9,37.2-3.2,66.4-15.8,45.6-54.4,65.6-62.9,69.7,1.2-3.9,2.4-7.7,3.5-11.6-5.8,6.1-15.8,14.9-30.3,21.3-8.9,3.9-17.1,5.8-23.5,6.8.4-3.1.9-6.2,1.3-9.4-3.3,3.3-13.3,12.3-28.4,13.5-6.5.5-12-.5-15.8-1.6,1.7-2.7,3.4-5.4,5.2-8.1-10.9,1.2-28.2,1.4-46.8-6.1-47.6-19.1-60.7-71-62.2-77.4-2.4,4.4-4.7,8.8-7.1,13.2-3.9-7.2-10.6-22.1-10-41.6.4-11.3,3-20.5,5.5-26.8-4.2,4.2-8.4,8.4-12.6,12.6-.4-9,.2-22.8,5.5-38.4,3.7-11,8.7-19.6,12.9-25.8-5.4,4.2-10.8,8.4-16.1,12.6,1.7-8.8,6.4-26,20-42.9,11.4-14.1,24.2-21.9,31.9-25.8-10.2-.8-20.4-1.5-30.6-2.3,7.7-5.8,19.5-13.2,35.2-18.4,19.6-6.5,36.8-6.8,47.4-6.1-6.6-5.7-13.1-11.4-19.7-17.1,4.1-1.1,16.7-4,30.6,1.9,9.8,4.1,15.7,10.7,18.4,14.2Z"/>
    <circle class="st6" cx="307.5" cy="343.6" r="71"/>
    <circle class="st6" cx="307.5" cy="331.8" r="71"/>
    <circle class="st2" cx="307.5" cy="331.8" r="63.3" transform="translate(-86.1 554.9) rotate(-76.7)"/>
    <circle class="st0" cx="307.5" cy="338.4" r="40.3" transform="translate(-92.5 560) rotate(-76.7)"/>
    <circle class="st3" cx="307.5" cy="338.4" r="18.5" transform="translate(-92.5 560) rotate(-76.7)"/>
    <path class="st2" d="M319.5,313.3c1.3,4.4-4.5,10-13.1,12.6-8.5,2.5-16.5,1-17.8-3.4-1.3-4.4,4.5-10,13.1-12.6,8.5-2.5,16.5-1,17.8,3.4Z"/>
    <circle class="st2" cx="320.1" cy="358.1" r="7.9"/>
    <g>
      <path class="st4" d="M223.1,457.4c-.3,0-.7-.1-1-.4-.6-.5-.7-1.5-.1-2.1,9.3-10.5,4.4-24.6,4.4-24.7-.3-.8.1-1.6.9-1.9.8-.3,1.6.1,1.9.9.2.6,5.5,15.9-4.9,27.6-.3.3-.7.5-1.1.5Z"/>
      <path class="st2" d="M251.6,438c-6.7,1.3-13,2.8-18.7,4.6,1.9-7.5,6.4-22,11.5-22.7,4.3-.6,6.3,10,7.2,18.1Z"/>
      <path class="st2" d="M381.6,443.2c-5.8-1.8-12.1-3.5-18.9-4.8.9-8.2,2.9-19.1,7.3-18.5,5.3.8,9.8,16,11.7,23.3Z"/>
      <path class="st4" d="M390.8,457.4c-.4,0-.8-.2-1.1-.5-10.4-11.8-5.1-27-4.9-27.6.3-.8,1.1-1.2,1.9-.9.8.3,1.2,1.1.9,1.9h0c0,.1-4.9,14.2,4.4,24.7.5.6.5,1.5-.1,2.1-.3.2-.6.4-1,.4Z"/>
      <path class="st4" d="M228.8,443.8c12.3-5.1,25.3-8.2,38.5-10.3,6.6-1.1,13.2-1.7,19.8-2.2,6.6-.5,13.3-.7,20-.7,6.7,0,13.3.3,20,.8,6.6.6,13.3,1.3,19.8,2.4,13.1,2.1,26.2,5.3,38.4,10.6-12.8-3.3-25.8-5.4-38.9-6.8-6.5-.6-13.1-1.2-19.6-1.5-6.6-.4-13.1-.5-19.7-.5-6.6,0-13.1.1-19.7.4-3.3.1-6.6.3-9.8.6-3.3.3-6.5.5-9.8.8-13.1,1.3-26.1,3.3-38.9,6.5Z"/>
    </g>
  </g>
</svg>