<?xml version="1.0" encoding="UTF-8"?>
<svg id="Calque_1" xmlns="http://www.w3.org/2000/svg" version="1.1" viewBox="0 0 612 792">
  <!-- Generator: Adobe Illustrator 29.0.0, SVG Export Plug-In . SVG Version: 2.1.0 Build 186)  -->
  <defs>
    <style>
      .st0 {
        fill: #4738a6;
      }

      .st1 {
        fill: #9a89d9;
      }

      .st2 {
        fill: #f24162;
      }

      .st3 {
        fill: #fff;
      }

      .st4 {
        fill: #3c307d;
      }

      .st5 {
        fill: #fefefe;
      }

      .st6 {
        fill: #be324e;
      }

      .st7 {
        fill: #66d9af;
      }

      .st8 {
        fill: #3c6a71;
      }
    </style>
  </defs>
  <rect class="st1" x="68.1" y="36.8" width="475.8" height="718.4" rx="49.7" ry="49.7"/>
  <g>
    <path class="st2" d="M356.7,517.1l-2.6,34.2s37.2-10.5,37.2,11.3-58.2,20.3-64.2,7.9c-6-12.4,0-45.8,0-45.8l14.6-19.2,15,11.6Z"/>
    <path class="st2" d="M254.7,517.1l2.6,34.2s-37.2-10.5-37.2,11.3,58.2,20.3,64.2,7.9c6-12.4,0-45.8,0-45.8l-14.6-19.2-15,11.6Z"/>
    <path class="st2" d="M410.7,461.3c-30.8,111.4-177.4,79.5-202.7,21.2-11.8-27.2-30.5-100.7-18.4-162.4,7.5-38.4,27-72.2,67.4-87.5h0c13.5-5.1,29.4-8.1,48-8.6,19.2-.5,35.7,2,49.7,6.8,39.4,13.6,59.9,46,67.6,86.6,8.1,42.9,1.8,95.1-11.6,143.9Z"/>
    <path class="st6" d="M404.3,367.1c4.6,2.2,4.6,8.7,0,11-2.8,1.4-6.1,2.9-9.9,4.6-3.1,1.4-6.6,2.8-10.3,4.2-1.8.7-3.8,1.4-5.7,2.1-19.1,6.8-44.2,13-71.7,13s-49.8-2.7-68.4-5.7c-3.8-.6-7.3-1.2-10.6-1.9-3.7-.7-7.1-1.4-10.2-2-2.5-.5-4.8-1-6.8-1.5-5.1-1.2-6.5-7.7-2.3-10.9,7.7-5.8,19.6-13.9,34.4-21.1,3-1.4,6.1-2.8,9.2-4.2,14-5.8,30-10.4,47.1-11.4,2.5-.2,5-.2,7.6-.2s1.9,0,2.8,0c17.4.3,33.7,3,48.1,6.7,3.3.9,6.5,1.8,9.6,2.7,15.9,4.8,28.8,10.5,37.1,14.6Z"/>
    <path class="st0" d="M397.6,372.6s-6.3,3.8-17,8.5c-2.6,1.1-5.6,2.3-8.7,3.6-1.6.6-3.2,1.2-4.8,1.8-16.1,5.7-37.2,11-60.4,11s-42-2.3-57.7-4.8c-3.2-.5-6.2-1-9-1.6-3.1-.6-6-1.2-8.6-1.7-9.9-2.1-15.8-3.8-15.8-3.8,0,0,14.6-13.5,37.1-24.3,2.5-1.2,5.1-2.4,7.8-3.5,11.8-4.9,25.3-8.7,39.7-9.6,2.1-.1,4.2-.2,6.4-.2s1.6,0,2.4,0c14.6.2,28.4,2.5,40.6,5.6,2.8.7,5.5,1.5,8.1,2.3,24.1,7.3,39.9,16.9,39.9,16.9Z"/>
    <path class="st4" d="M367.1,386.4c-16.1,5.7-37.2,11-60.4,11s-42-2.3-57.7-4.8c16-8.5,36.9-16.4,59.9-16.4s42.4,4.8,58.2,10.2Z"/>
    <path class="st3" d="M380.6,381.1c-2.6,1.1-5.6,2.3-8.7,3.6v-15.3l8.7,11.8Z"/>
    <path class="st3" d="M357.7,355.7l-6.1,11.4-2-13.7c2.8.7,5.5,1.5,8.1,2.3Z"/>
    <path class="st3" d="M309.1,347.8l-1.8,13-7-12.8c2.1-.1,4.2-.2,6.4-.2s1.6,0,2.4,0Z"/>
    <path class="st3" d="M262.2,371.1l-9.4-10c2.5-1.2,5.1-2.4,7.8-3.5l1.6,13.5Z"/>
    <path class="st3" d="M240.5,377.9l-.4,13.1c-3.1-.6-6-1.2-8.6-1.7l9-11.4Z"/>
    <path class="st2" d="M421.1,387.9s28.2,31.4,37.8-9c9.6-40.3,65.3-31.4,43.6,17.9-21.8,49.3-72.4,28.4-81.3,2.7l-10.2-9.4,10.2-2.2Z"/>
    <g>
      <path class="st7" d="M475.1,359.6c2.2.5,1.3-14.1-1.4-15.1-2.7-1-1.8,14.3,1.4,15.1Z"/>
      <path class="st7" d="M484.5,358.3c2.1.9,3.4-13.7.9-15.1-2.5-1.4-3.9,13.8-.9,15.1Z"/>
      <path class="st7" d="M493,361.3c1.4,1.7,9.4-10.6,7.8-13-1.6-2.4-9.9,10.4-7.8,13Z"/>
      <path class="st7" d="M498.2,367.5c.5,2.2,13.2-5.1,12.9-7.9-.3-2.9-13.6,4.7-12.9,7.9Z"/>
      <path class="st7" d="M501.7,375.9c-.4,2.2,14.1.4,14.9-2.4.8-2.8-14.3-.8-14.9,2.4Z"/>
    </g>
    <path class="st2" d="M190.9,387.9s-28.2,31.4-37.8-9c-9.6-40.3-65.3-31.4-43.6,17.9,21.8,49.3,72.4,28.4,81.3,2.7l10.2-9.4-10.2-2.2Z"/>
    <g>
      <path class="st7" d="M136.9,359.6c-2.2.5-1.3-14.1,1.4-15.1,2.7-1,1.8,14.3-1.4,15.1Z"/>
      <path class="st7" d="M127.5,358.3c-2.1.9-3.4-13.7-.9-15.1,2.5-1.4,3.9,13.8.9,15.1Z"/>
      <path class="st7" d="M119,361.3c-1.4,1.7-9.4-10.6-7.8-13,1.6-2.4,9.9,10.4,7.8,13Z"/>
      <path class="st7" d="M113.8,367.5c-.5,2.2-13.2-5.1-12.9-7.9s13.6,4.7,12.9,7.9Z"/>
      <path class="st7" d="M110.3,375.9c.4,2.2-14.1.4-14.9-2.4-.8-2.8,14.3-.8,14.9,2.4Z"/>
    </g>
    <path class="st6" d="M422.4,317.4c-10,10-23.9,16.3-39.2,16.3-30.6,0-55.3-24.8-55.3-55.4s10.8-37.8,27-47.5c39.4,13.6,59.9,46,67.6,86.6Z"/>
    <circle class="st2" cx="383.2" cy="267.9" r="55.4"/>
    <circle class="st3" cx="383.2" cy="267.9" r="49.3" transform="translate(-77.2 349.4) rotate(-45)"/>
    <circle class="st7" cx="383.2" cy="273" r="31.4" transform="translate(29.4 583.2) rotate(-76.7)"/>
    <circle class="st8" cx="383.2" cy="273" r="14.4"/>
    <ellipse class="st3" cx="380.4" cy="257" rx="12.5" ry="6.5" transform="translate(-57.5 119.2) rotate(-16.6)"/>
    <circle class="st3" cx="393" cy="288.4" r="6.2"/>
    <path class="st6" d="M281.3,278.3c0,30.6-24.8,55.4-55.4,55.4s-26.6-5.1-36.3-13.6c7.5-38.4,27-72.2,67.4-87.5h0c14.6,10,24.2,26.7,24.2,45.8Z"/>
    <circle class="st2" cx="225.9" cy="267.9" r="55.4"/>
    <circle class="st5" cx="225.9" cy="267.9" r="49.3" transform="translate(-123.3 238.2) rotate(-45)"/>
    <circle class="st7" cx="225.9" cy="273" r="31.4" transform="translate(-95.2 422.8) rotate(-75.4)"/>
    <circle class="st8" cx="225.9" cy="273" r="14.4"/>
    <path class="st5" d="M235.2,253.4c1,3.4-3.5,7.8-10.2,9.8-6.6,2-12.9.8-13.9-2.6s3.5-7.8,10.2-9.8c6.6-2,12.9-.8,13.9,2.6Z"/>
    <circle class="st5" cx="235.7" cy="288.4" r="6.2"/>
  </g>
</svg>