<?xml version="1.0" encoding="UTF-8"?>
<svg id="Calque_1" xmlns="http://www.w3.org/2000/svg" version="1.1" viewBox="0 0 612 792">
  <!-- Generator: Adobe Illustrator 29.0.0, SVG Export Plug-In . SVG Version: 2.1.0 Build 186)  -->
  <defs>
    <style>
      .st0 {
        fill: #4738a6;
      }

      .st1 {
        fill: #9a89d9;
      }

      .st2 {
        fill: #fff;
      }

      .st3 {
        fill: #0f1317;
      }

      .st4 {
        fill: #16465f;
      }

      .st5 {
        fill: #66d9af;
      }

      .st6 {
        fill: #52927c;
      }
    </style>
  </defs>
  <rect class="st1" x="68.1" y="36.8" width="475.8" height="718.4" rx="49.7" ry="49.7"/>
  <g>
    <path class="st5" d="M237.2,499s3.7,25.3-16.5,18.8c-20.2-6.5-23.5-23.8-38-14.1-14.4,9.7,10.1,48.6,29.6,51.6,19.5,3,42.6-25.8,40.7-48.8-1.8-23-10.9-19.2-10.9-19.2l-4.9,11.6Z"/>
    <path class="st5" d="M386.5,506.3s2.1,15.3-16.8,25c-18.9,9.7-33.4-.2-36.8,16.8-3.4,17,41.5,27.2,57.4,15.6,15.9-11.6,19-50.5,6.8-67-13.7-18.5-15.2-2.2-15.2-2.2l4.7,11.7Z"/>
    <path class="st5" d="M303.7,254.6c82.8-12,160,80.5,143.5,167.3-16.4,86.8-103.8,97-194.6,84-140.5-20.2-132.7-224.6,51.1-251.3Z"/>
    <path class="st5" d="M420.6,316s16.4,2,26.9,18.7l-7.4,1.9s9.9,4.9,14.5,23.6c4.5,18.7,9.6,23.3,9.6,23.3,0,0-4,.8-8.2-3.3,0,0,12.5,17.2,2.6,46.4-9.9,29.2-4,34-4,34,0,0-6,.3-9.1-7.9,0,0-10.9,30.2-48.8,34.5-37.9,4.3,23.8-171.1,23.8-171.1Z"/>
    <path class="st5" d="M189,316s-16.4,2-26.9,18.7l7.4,1.9s-9.9,4.9-14.5,23.6c-4.5,18.7-9.6,23.3-9.6,23.3,0,0,4,.8,8.2-3.3,0,0-12.5,17.2-2.6,46.4,9.9,29.2,4,34,4,34,0,0,6,.3,9.1-7.9,0,0,10.9,30.2,48.8,34.5,37.9,4.3-23.8-171.1-23.8-171.1Z"/>
    <path class="st6" d="M371.8,357.1c0,37-30,67-67,67s-67-30-67-67,30-67,67-67,67,30,67,67Z"/>
    <path class="st0" d="M371.8,347.9c0,37-30,67-67,67s-67-30-67-67,30-67,67-67,67,30,67,67Z"/>
    <circle class="st2" cx="304.8" cy="347.9" r="59.7"/>
    <circle class="st0" cx="304.8" cy="354" r="38"/>
    <circle class="st4" cx="304.8" cy="354" r="17.5"/>
    <ellipse class="st2" cx="301.5" cy="334.7" rx="15.2" ry="7.9" transform="translate(-82.9 99.9) rotate(-16.6)"/>
    <circle class="st2" cx="316.7" cy="372.6" r="7.5"/>
    <g>
      <path class="st5" d="M329.8,273.3l-6.2-1.9c.4-1.4,10.6-33.6,36.1-40.1,17.1-4.3,36.5,4,57.8,24.8l-4.6,4.7c-19.5-19.1-36.9-26.9-51.6-23.2-22,5.6-31.5,35.4-31.5,35.7Z"/>
      <circle class="st5" cx="421.5" cy="264.5" r="14.3"/>
    </g>
    <g>
      <path class="st5" d="M265.2,273.3l6.2-1.9c-.4-1.4-10.6-33.6-36.1-40.1-17.1-4.3-36.5,4-57.8,24.8l4.6,4.7c19.5-19.1,36.9-26.9,51.6-23.2,22,5.6,31.5,35.4,31.5,35.7Z"/>
      <circle class="st5" cx="173.5" cy="264.5" r="14.3"/>
    </g>
    <path class="st3" d="M324.4,449.9c0,12.6-10.2,22.9-22.9,22.9s-22.9-10.2-22.9-22.9,5.4-13.8,13.1-15.6c3-.7,6.3-1,9.7-1s6.8.3,9.7,1c7.8,1.9,13.1,6.5,13.1,15.6Z"/>
    <path class="st2" d="M311.2,434.2l-1.5,14.9h-16.5l-1.5-14.9c3-.7,6.3-1,9.7-1s6.8.3,9.7,1Z"/>
    <path class="st6" d="M371.8,347.9h-134c0-37,30-67,67-67s67,30,67,67Z"/>
    <g>
      <path class="st5" d="M302.7,258.7s-8.4-11.3-21.4-11.4c0,0,24.1-43.4,21.4,11.4Z"/>
      <path class="st5" d="M305.7,258.7s-6.5-44.1,24.1-33.8c0,0-13.1,7.9-24.1,33.8Z"/>
    </g>
    <path class="st5" d="M168.6,436.3s-26,24.4-12.2,37.5c13.8,13.2,20.3,29.2,10.6,25.8-6.6-2.3-8.6-5.8-15.7-3-7.2,2.8-5.7,15.9-12.4,15.7-6.6-.3-2.7-13.3-7-15.2-4.3-1.9-8,1.3-12.2-5.5s10.5-8.1,10.2-22.9c-.3-14.8,11.5-31.8,24.8-42,13.2-10.2,19.2,1.3,13.9,9.6Z"/>
    <path class="st5" d="M443.4,436.3s26,24.4,12.2,37.5c-13.8,13.2-20.3,29.2-10.6,25.8,6.6-2.3,8.6-5.8,15.7-3,7.2,2.8,5.7,15.9,12.4,15.7,6.6-.3,2.7-13.3,7-15.2,4.3-1.9,8,1.3,12.2-5.5,4.2-6.8-10.5-8.1-10.2-22.9.3-14.8-11.5-31.8-24.8-42-13.2-10.2-19.2,1.3-13.9,9.6Z"/>
  </g>
</svg>