<?xml version="1.0" encoding="UTF-8"?>
<svg id="Calque_1" xmlns="http://www.w3.org/2000/svg" version="1.1" viewBox="0 0 612 792">
  <!-- Generator: Adobe Illustrator 29.0.0, SVG Export Plug-In . SVG Version: 2.1.0 Build 186)  -->
  <defs>
    <style>
      .st0 {
        fill: #4738a6;
      }

      .st1 {
        fill: #9a89d9;
      }

      .st2 {
        fill: #84021e;
      }

      .st3 {
        fill: #f24162;
      }

      .st4 {
        fill: #fff;
      }

      .st5 {
        fill: #be324e;
      }

      .st6 {
        fill: #fcfbfc;
      }

      .st7 {
        fill: #66d9af;
      }

      .st8 {
        fill: #3c6a71;
      }
    </style>
  </defs>
  <rect class="st1" x="68.1" y="36.8" width="475.8" height="718.4" rx="49.7" ry="49.7"/>
  <g>
    <g>
      <path class="st7" d="M333.9,241.6c-2.7-11,26.9-50.9,41.6-49.6,14.7,1.3,12.8,51.9,11.8,67.5-1,15.7-47.4,7-53.5-17.9Z"/>
      <path class="st7" d="M236.3,251.2c2.7-11-26.9-50.9-41.6-49.6-14.7,1.3-12.8,51.9-11.8,67.5,1,15.7,47.4,7,53.5-17.9Z"/>
    </g>
    <g>
      <ellipse class="st7" cx="403" cy="296.6" rx="26.9" ry="24.1" transform="translate(-58 101.9) rotate(-13.5)"/>
      <ellipse class="st7" cx="413.8" cy="341.7" rx="26.9" ry="24.1" transform="translate(-68.2 105.7) rotate(-13.5)"/>
      <ellipse class="st7" cx="413.8" cy="387.8" rx="24.1" ry="26.9" transform="translate(-9.9 764.8) rotate(-84.8)"/>
      <ellipse class="st7" cx="416.3" cy="435.4" rx="26.9" ry="24.1" transform="translate(-89.9 108.8) rotate(-13.5)"/>
      <ellipse class="st7" cx="426.3" cy="480.8" rx="26.9" ry="24.1" transform="translate(-100.2 112.4) rotate(-13.5)"/>
    </g>
    <path class="st3" d="M280,230.7c156.8-11.9,151.2,137.6,136.7,212.3-14.5,74.6,60.1,32,60.1,78.5s-191.3,124.9-285.9,13.6c-98.9-116.3-64-292.7,89.2-304.3Z"/>
    <path class="st5" d="M273.4,353.7c0,23.5-19.1,42.6-42.6,42.6s-42.6-19.1-42.6-42.6,19.1-42.6,42.6-42.6,42.6,24.2,42.6,42.6Z"/>
    <circle class="st3" cx="230.8" cy="348.9" r="42.6" transform="translate(-179.1 265.4) rotate(-45)"/>
    <circle class="st4" cx="230.8" cy="348.9" r="37.9"/>
    <circle class="st7" cx="230.8" cy="352.8" r="24.2"/>
    <circle class="st8" cx="230.8" cy="352.8" r="11.1"/>
    <path class="st4" d="M238,337.8c.8,2.6-2.7,6-7.8,7.5-5.1,1.5-9.9.6-10.7-2-.8-2.6,2.7-6,7.8-7.5,5.1-1.5,9.9-.6,10.7,2Z"/>
    <circle class="st4" cx="238.4" cy="364.6" r="4.8"/>
    <circle class="st5" cx="345.3" cy="358.6" r="31" transform="translate(-110.9 159.4) rotate(-22.5)"/>
    <circle class="st3" cx="345.3" cy="352.8" r="31"/>
    <circle class="st4" cx="345.3" cy="352.8" r="27.6"/>
    <circle class="st7" cx="345.3" cy="355.7" r="17.6"/>
    <circle class="st8" cx="345.3" cy="355.7" r="8.1"/>
    <path class="st4" d="M350.5,344.7c.6,1.9-2,4.4-5.7,5.5-3.7,1.1-7.2.4-7.8-1.5s2-4.4,5.7-5.5c3.7-1.1,7.2-.4,7.8,1.5Z"/>
    <path class="st4" d="M354.3,364.3c0,1.9-1.6,3.5-3.5,3.5s-3.5-1.6-3.5-3.5,1.6-3.5,3.5-3.5,3.5,1.6,3.5,3.5Z"/>
    <circle class="st5" cx="297.1" cy="288.2" r="31.4" transform="translate(-116.8 294.5) rotate(-45)"/>
    <circle class="st3" cx="297.1" cy="281.5" r="31.4" transform="translate(-112 292.5) rotate(-45)"/>
    <circle class="st4" cx="297.1" cy="281.5" r="28" transform="translate(-112 292.5) rotate(-45)"/>
    <circle class="st7" cx="297.1" cy="284.4" r="17.8"/>
    <circle class="st8" cx="297.1" cy="284.4" r="8.2"/>
    <path class="st4" d="M302.3,273.3c.6,1.9-2,4.4-5.8,5.6-3.8,1.1-7.3.5-7.9-1.5s2-4.4,5.8-5.6c3.8-1.1,7.3-.5,7.9,1.5Z"/>
    <circle class="st4" cx="302.6" cy="293.1" r="3.5"/>
    <path class="st2" d="M365.7,431.7c-3.4,8.8-8.3,16.9-14.4,24-16.2,19.1-40.9,31.2-68.6,31.2s-7.3-.2-10.8-.6c-4.2-.5-8.3-1.3-12.3-2.3-7.2-1.9-14.1-4.6-20.5-8.1-18-9.8-32.1-25.4-39.4-44.2-4.4-11.2,6.3-22.6,17.8-19.1,9.5,2.9,19.7,5.2,30.3,6.7,7.2,1.1,14.6,1.8,22.2,2.2,4.2.2,8.4.3,12.7.3,6.5,0,12.9-.3,19.2-.8,7.8-.6,15.3-1.6,22.6-2.9,8.1-1.5,15.9-3.3,23.4-5.6,11.5-3.5,22.2,7.9,17.8,19.1Z"/>
    <path class="st0" d="M351.3,455.7c-16.2,19.1-40.9,31.2-68.6,31.2s-7.3-.2-10.8-.6c0-.7,0-1.5,0-2.2,0-24.7,20.1-44.8,44.8-44.8s26.4,6.4,34.6,16.4Z"/>
    <path class="st6" d="M270.1,424.1c0,9.5-5.1,17.2-11.4,17.2s-11.4-7.7-11.4-17.2.2-3.3.4-4.8c7.2,1.1,14.6,1.8,22.2,2.2,0,.8.1,1.7.1,2.6Z"/>
    <path class="st6" d="M324.6,418.2h0c0,9.5-5.1,17.2-11.4,17.2s-10.3-6.2-11.2-14.3c7.8-.6,15.3-1.6,22.6-2.9Z"/>
    <path class="st6" d="M261.9,473.8c0,3.8-.8,7.4-2.2,10.2-7.2-1.9-14.1-4.6-20.5-8.1,0-.7,0-1.4,0-2.1,0-9.5,5.1-17.2,11.4-17.2s11.4,7.7,11.4,17.2Z"/>
    <path class="st3" d="M214.6,535.9c-1.4,8.1,5.3,21-2.9,35.9-4.5,8.1-9.8,10.2-8.7,13.6,2.2,7.1,26.6,2.2,62,5.4,36.8,3.3,40.7,11.3,65.9,8.6,20.9-2.2,17.4-7.6,42.6-10.9,19.9-2.6,30.9-.4,59.1-4.5,22.6-3.3,25.1-6.1,25.2-7.7.3-4.4-17.7-4.4-29.1-16.3-11.8-12.4-5.4-26.2-10.2-37.2-18.7-43-198-22.9-204,13.2Z"/>
  </g>
</svg>