<?xml version="1.0" encoding="UTF-8"?>
<svg id="Calque_1" xmlns="http://www.w3.org/2000/svg" version="1.1" viewBox="0 0 612 792">
  <!-- Generator: Adobe Illustrator 29.0.0, SVG Export Plug-In . SVG Version: 2.1.0 Build 186)  -->
  <defs>
    <style>
      .st0 {
        fill: #4738a6;
      }

      .st1 {
        fill: #9a89d9;
      }

      .st2 {
        fill: #f24162;
      }

      .st3 {
        fill: #fff;
      }

      .st4 {
        fill: #3c307d;
      }

      .st5 {
        fill: #fefefe;
      }

      .st6 {
        fill: #be324e;
      }

      .st7 {
        fill: #66d9af;
      }

      .st8 {
        fill: #52927c;
      }
    </style>
  </defs>
  <rect class="st1" x="68.1" y="36.8" width="475.8" height="718.4" rx="49.7" ry="49.7"/>
  <g>
    <path class="st0" d="M493.1,445.3s6.5,11.8,11.8,14.6c5.3,2.8,8.8-40.5,3.9-44.4-4.9-3.9-42.5,12.5-39.1,19.7,2.2,4.5,14.6,4.8,14.6,4.8l8.8,5.3Z"/>
    <g>
      <path class="st7" d="M383.3,436.6s17.6-4.2,24.5-.9c6.9,3.3-19,27.5-19,27.5l-10.2-15.9,4.8-10.7Z"/>
      <path class="st7" d="M395,469.3s16.5-9,20.9-6c4.4,3-4.8,20.6-4.8,20.6l-16.1-14.6Z"/>
      <path class="st7" d="M423.6,487.5s4.6-18.3,11.1-19.5c6.5-1.2,12.5,17.6,12.5,17.6l-23.6,1.9Z"/>
      <path class="st7" d="M457.4,480.4s-6.8-14.3-3.3-18.6c3.5-4.3,17.5,4.6,17.5,4.6l-14.2,13.9Z"/>
      <path class="st7" d="M476.7,464.9s-8.5-11.4-6.2-15.8,16.2,1,16.2,1l-10,14.8Z"/>
    </g>
    <path class="st0" d="M385.9,425.5s-1.8,41.9,31.7,55c33.5,13,66.6-40.5,66.6-40.5l6.8-.5,2,5.8s-24.9,54.1-63.4,63.4c-39.1,9.5-88.1-34.5-100.8-81.7l25.4-21.1,31.7,19.7Z"/>
    <path class="st0" d="M400.2,383.2s62.3,4.4,76.6,48.4c14.3,44-24.2,44.5-24.7,23,0,0-5.7,11.1-9.6,7.7-4-3.5-.2-19.8-.2-19.8,0,0-4-31.9-42-40.3l-6.9-13.3,6.9-5.7Z"/>
    <path class="st0" d="M180.7,383.2s-62.3,4.4-76.6,48.4c-14.3,44,24.2,44.5,24.7,23,0,0,5.7,11.1,9.6,7.7,4-3.5.2-19.8.2-19.8,0,0,4-31.9,42-40.3l6.9-13.3-6.9-5.7Z"/>
    <path class="st7" d="M415.1,261.1c-3.7.6-7.4,1.6-10.4,3.7-3.6,2.5-6.2,6.5-6.3,13,0,1.4,0,2.8-.1,4.2-.2,5-.4,9.8-1,14.3-.8,6.4-2.2,12.4-4.5,17.6-1.5,3.3-3.4,6.3-5.8,9-5.2,5.8-12.9,9.7-24.1,11.2-31.4,4.1-13.2-26.4-13.2-26.4,0,0,8.7-.5,13.8-11.2,1.4-3.1,2.6-7,3.1-11.9.2-1.6.3-3.4.3-5.3,0-4.9,1.3-9.3,3.4-13.2,1.6-3.1,3.8-5.8,6.4-8.2,4.1-3.7,9.1-6.4,14.6-8.1,3.9-1.2,8-1.8,12.1-1.8,7.5,0,15,1.8,21.3,6,12.7,8.3,1.8,5.4-9.6,7.2Z"/>
    <path class="st7" d="M172.4,261.1c3.7.6,7.4,1.6,10.4,3.7,3.6,2.5,6.2,6.5,6.3,13,0,1.4,0,2.8.1,4.2.2,5,.4,9.8,1,14.3.8,6.4,2.2,12.4,4.5,17.6,1.5,3.3,3.4,6.3,5.8,9,5.2,5.8,12.9,9.7,24.1,11.2,31.4,4.1,13.2-26.4,13.2-26.4,0,0-8.7-.5-13.8-11.2-1.4-3.1-2.6-7-3.1-11.9-.2-1.6-.3-3.4-.3-5.3,0-4.9-1.3-9.3-3.4-13.2-1.6-3.1-3.8-5.8-6.4-8.2-4.1-3.7-9.1-6.4-14.6-8.1-3.9-1.2-8-1.8-12.1-1.8-7.5,0-15,1.8-21.3,6-12.7,8.3-1.8,5.4,9.6,7.2Z"/>
    <path class="st0" d="M424.4,454.2c-.8-69.9-28.1-181.7-133-180.9-104.9-.8-132.3,111-133,180.9-.6,58.1,39.6,118.2,96.4,75.2,21.7-16.5,51.6-16.5,73.4,0,56.7,43,97-17.1,96.4-75.2Z"/>
    <circle class="st4" cx="231.3" cy="357.9" r="26.2"/>
    <circle class="st4" cx="231.3" cy="354.9" r="26.2" transform="translate(-121.3 120.1) rotate(-23.2)"/>
    <circle class="st3" cx="231.3" cy="354.9" r="23.4" transform="translate(-166.6 500.2) rotate(-77)"/>
    <circle class="st7" cx="231.3" cy="357.3" r="14.9" transform="translate(-169.2 501.4) rotate(-76.9)"/>
    <circle class="st8" cx="231.3" cy="357.3" r="6.8" transform="translate(-158.4 528.6) rotate(-80.8)"/>
    <path class="st3" d="M235.7,348.1c.5,1.6-1.7,3.7-4.8,4.6-3.1.9-6.1.4-6.6-1.2-.5-1.6,1.7-3.7,4.8-4.6,3.1-.9,6.1-.4,6.6,1.2Z"/>
    <path class="st3" d="M238.9,364.6c0,1.6-1.3,2.9-2.9,2.9s-2.9-1.3-2.9-2.9,1.3-2.9,2.9-2.9,2.9,1.3,2.9,2.9Z"/>
    <circle class="st4" cx="352" cy="357.9" r="26.2"/>
    <circle class="st4" cx="352" cy="354.9" r="26.2" transform="translate(-147.9 352.8) rotate(-45)"/>
    <circle class="st3" cx="352" cy="354.9" r="23.4" transform="translate(-147.9 352.8) rotate(-45)"/>
    <circle class="st7" cx="352" cy="357.3" r="14.9" transform="translate(-142.2 442.9) rotate(-55.3)"/>
    <circle class="st8" cx="352" cy="357.3" r="6.8" transform="translate(-149.6 353.5) rotate(-45)"/>
    <path class="st3" d="M356.4,348.1c.5,1.6-1.7,3.7-4.8,4.6-3.1.9-6.1.4-6.6-1.2-.5-1.6,1.7-3.7,4.8-4.6,3.1-.9,6.1-.4,6.6,1.2Z"/>
    <path class="st3" d="M359.6,364.6c0,1.6-1.3,2.9-2.9,2.9s-2.9-1.3-2.9-2.9,1.3-2.9,2.9-2.9,2.9,1.3,2.9,2.9Z"/>
    <circle class="st4" cx="291.6" cy="380.4" r="26.2"/>
    <circle class="st4" cx="291.6" cy="377.4" r="26.2"/>
    <circle class="st3" cx="291.6" cy="377.4" r="23.4"/>
    <circle class="st7" cx="291.6" cy="379.8" r="14.9"/>
    <circle class="st8" cx="291.6" cy="379.8" r="6.8"/>
    <path class="st3" d="M296,370.5c.5,1.6-1.7,3.7-4.8,4.6-3.1.9-6.1.4-6.6-1.2-.5-1.6,1.7-3.7,4.8-4.6,3.1-.9,6.1-.4,6.6,1.2Z"/>
    <path class="st3" d="M299.2,387.1c0,1.6-1.3,2.9-2.9,2.9s-2.9-1.3-2.9-2.9,1.3-2.9,2.9-2.9,2.9,1.3,2.9,2.9Z"/>
    <ellipse class="st4" cx="291.6" cy="446.1" rx="83.8" ry="25.8"/>
    <path class="st6" d="M365.9,446.1c0,6.4-10.7,12-27.5,15.8-12.8,2.8-29.1,4.5-46.8,4.5s-34-1.7-46.8-4.5c-16.8-3.7-27.5-9.4-27.5-15.8s4.1-7.7,11.3-10.8c4-1.8,9-3.3,14.8-4.7,1.2-.3,2.4-.5,3.6-.8,4.4-.9,9.2-1.7,14.2-2.3,9.3-1.1,19.5-1.8,30.3-1.8s21.8.7,31.4,1.9c5.1.6,9.8,1.4,14.2,2.4,1.3.3,2.5.5,3.7.8,5.8,1.4,10.8,3,14.8,4.9,6.6,3,10.3,6.6,10.3,10.3Z"/>
    <path class="st2" d="M338.4,461.9c-12.8,2.8-29.1,4.5-46.8,4.5s-34-1.7-46.8-4.5c7.6-7.3,25.7-12.5,46.8-12.5s39.2,5.2,46.8,12.5Z"/>
    <g>
      <path class="st5" d="M243.6,433.2c0,7.1-3.4,12.9-7.5,12.9s-6.8-4.7-7.4-10.8c4-1.8,9-3.3,14.8-4.7.1.8.2,1.7.2,2.6Z"/>
      <path class="st5" d="M261.3,427.6c-.8,5.8-3.7,10.1-7.3,10.1s-5.7-3.2-6.9-7.8c4.4-.9,9.2-1.7,14.2-2.3Z"/>
    </g>
    <g>
      <path class="st5" d="M355.6,435.8c-.7,5.9-3.7,10.3-7.4,10.3s-7.5-5.8-7.5-12.9,0-1.6.1-2.3c5.8,1.4,10.8,3,14.8,4.9Z"/>
      <path class="st5" d="M337.1,430.1c-1.2,4.5-3.8,7.6-6.8,7.6s-6.5-4.2-7.3-9.9c5.1.6,9.8,1.4,14.2,2.4Z"/>
    </g>
  </g>
</svg>