<?xml version="1.0" encoding="UTF-8"?>
<svg id="Calque_1" xmlns="http://www.w3.org/2000/svg" version="1.1" viewBox="0 0 612 792">
  <!-- Generator: Adobe Illustrator 29.5.0, SVG Export Plug-In . SVG Version: 2.1.0 Build 137)  -->
  <defs>
    <style>
      .st0, .st1, .st2, .st3, .st4, .st5, .st6, .st7 {
        fill: #010101;
      }

      .st0, .st8, .st9, .st4, .st10, .st11 {
        font-weight: 700;
      }

      .st0, .st8, .st9, .st10 {
        font-family: WixMadeforText-Bold, 'Wix Madefor Text';
      }

      .st0, .st8, .st12, .st13, .st6 {
        font-size: 12px;
      }

      .st1, .st2, .st14, .st7 {
        font-family: WixMadeforText-SemiBold, 'Wix Madefor Text';
        font-weight: 600;
      }

      .st1, .st9 {
        font-size: 14px;
      }

      .st2 {
        font-size: 14px;
      }

      .st15 {
        fill: none;
        stroke: #010101;
      }

      .st15, .st16 {
        stroke-miterlimit: 10;
      }

      .st9, .st17 {
        fill: #f89941;
      }

      .st18 {
        fill: #89a9d9;
      }

      .st4 {
        font-family: Arial-BoldMT, Arial;
        font-size: 4px;
      }

      .st19, .st12, .st10, .st13, .st20, .st21, .st11, .st16 {
        fill: #231f20;
      }

      .st12, .st6, .st22 {
        font-family: WixMadeforText-Regular, 'Wix Madefor Text';
      }

      .st5, .st20 {
        fill-rule: evenodd;
      }

      .st23 {
        fill: #f26330;
      }

      .st10 {
        font-size: 11px;
        letter-spacing: .1em;
      }

      .st13 {
        font-family: MyriadPro-Regular, 'Myriad Pro';
      }

      .st24 {
        fill: #fff;
      }

      .st21 {
        font-size: 13px;
      }

      .st7 {
        font-size: 10px;
      }

      .st11 {
        font-family: WixMadeforText-ExtraBold, 'Wix Madefor Text';
        font-size: 24px;
      }

      .st25 {
        fill: #333;
      }

      .st16 {
        stroke: #231f20;
      }
    </style>
  </defs>
  <rect class="st24" width="612" height="792"/>
  <rect class="st18" width="225.2" height="792"/>
  <g>
    <text class="st2" transform="translate(26.2 333.2)"><tspan x="0" y="0">EDUCATION</tspan></text>
    <line class="st16" x1="23.9" y1="342.4" x2="184.5" y2="342.4"/>
    <text class="st6" transform="translate(27.1 369.3)"><tspan x="0" y="0">AEC Web Development </tspan><tspan x="0" y="16">Cégep Garneau, Québec </tspan><tspan x="0" y="32">2024</tspan><tspan x="0" y="58">CEES Secondary school </tspan><tspan x="0" y="74" xml:space="preserve">equivalency, Québec                              </tspan><tspan x="0" y="90">2021</tspan><tspan x="0" y="116">Certificate of health or </tspan><tspan x="0" y="132" xml:space="preserve">accident insurance                          </tspan><tspan x="0" y="148" xml:space="preserve">AMF, Québec                          </tspan><tspan x="0" y="164">2018</tspan><tspan x="0" y="190">AENS Secondary school </tspan><tspan x="0" y="206" xml:space="preserve">equivalency                      </tspan><tspan x="0" y="222" xml:space="preserve">Québec                                     </tspan><tspan x="0" y="238">2018</tspan></text>
  </g>
  <text class="st11" transform="translate(22.8 53.1)"><tspan x="0" y="0">WILLIAM</tspan><tspan x="0" y="26">BITTON</tspan></text>
  <text class="st10" transform="translate(22.8 111)"><tspan x="0" y="0">JUNIOR WEB DEVELOPER</tspan></text>
  <g>
    <g>
      <text class="st12" transform="translate(40.2 204) scale(1.1 1)"><tspan x="0" y="0">581 700-2211</tspan></text>
      <path class="st20" d="M23.1,194.1c.5-.5,1.3-.5,1.9,0,0,0,0,0,.1.1l1.3,1.6c.2.3.3.7.2,1l-.4,1.5c0,.2,0,.3.1.4l1.8,1.7c.1.1.3.2.5.1l1.6-.4c.4,0,.8,0,1.1.2l1.7,1.3c.6.4.7,1.3.1,1.8l-.8.7c-.6.5-1.4.7-2.2.5-2-.6-3.8-1.7-5.3-3.1-1.5-1.4-2.6-3-3.3-4.9-.3-.7,0-1.5.5-2l.8-.7Z"/>
    </g>
    <g>
      <text class="st12" transform="translate(41.5 226.8) scale(1.1 1)"><tspan x="0" y="0">willbitton54@gmail.com</tspan></text>
      <path class="st19" d="M21.7,218.6c0-1,.9-1.9,2-1.9h12c1.1,0,2,.8,2,1.9v7.4c0,1-.9,1.9-2,1.9h-12c-1.1,0-2-.8-2-1.9v-7.4ZM23.7,217.7c-.6,0-1,.4-1,.9v.2l7,3.9,7-3.9v-.2c0-.6-.4-.9-1-.9h-12ZM36.7,219.9l-4.7,2.6,4.7,2.7v-5.3ZM36.7,226.3l-5.7-3.3-1.3.7-1.3-.7-5.7,3.3c.2.4.5.7,1,.7h12c.5,0,.8-.3,1-.7ZM22.7,225.2l4.7-2.7-4.7-2.6v5.3Z"/>
    </g>
    <text class="st21" transform="translate(21.7 257.6)"><tspan class="st14"><tspan x="0" y="0">Portfolio :</tspan></tspan><tspan class="st22"><tspan x="0" y="15.6">portfolio-27aq.onrender.com </tspan></tspan></text>
    <g>
      <text class="st1" transform="translate(25.1 163.4)"><tspan x="0" y="0">CONTACT</tspan></text>
      <line class="st15" x1="21.7" y1="172.6" x2="191.7" y2="172.6"/>
    </g>
  </g>
  <g>
    <g>
      <g>
        <text class="st9" transform="translate(266.1 350.5)"><tspan x="0" y="0">WORK EXPERIENCE</tspan></text>
        <line class="st15" x1="266.2" y1="362.5" x2="555.8" y2="362.5"/>
      </g>
      <line class="st15" x1="270" y1="382.8" x2="270" y2="725.6"/>
      <g>
        <ellipse class="st19" cx="270" cy="383.8" rx="2.4" ry="2.6"/>
        <text transform="translate(301.3 386.4) scale(1 1)"><tspan class="st8"><tspan class="st17" x="0" y="0">2024</tspan><tspan class="st3" x="29.1" y="0" xml:space="preserve">  -  </tspan><tspan class="st19" x="43.7" y="0">MUVAC</tspan><tspan class="st3" x="89.9" y="0" xml:space="preserve"> (Berlin)</tspan></tspan><tspan class="st7"><tspan x="0" y="12">Web developer intern</tspan></tspan></text>
      </g>
      <g>
        <ellipse class="st19" cx="270" cy="430.4" rx="2.4" ry="2.6"/>
        <text transform="translate(300.9 433) scale(1 1)"><tspan class="st8"><tspan class="st17" x="0" y="0">2021</tspan><tspan class="st3" x="27.2" y="0" xml:space="preserve">  -  TELLUTION (Québec)</tspan></tspan><tspan class="st7"><tspan x="0" y="12">Electronic repair technician</tspan></tspan></text>
      </g>
      <g>
        <ellipse class="st19" cx="270" cy="475.2" rx="2.4" ry="2.6"/>
        <text transform="translate(300.9 477.7) scale(1 1)"><tspan class="st8"><tspan class="st17" x="0" y="0">2019</tspan><tspan class="st3" x="27.9" y="0" xml:space="preserve">  -  MOBILE KLINIK (Québec)</tspan></tspan><tspan class="st7"><tspan x="0" y="12">Electronic repair technician</tspan></tspan></text>
      </g>
      <g>
        <ellipse class="st19" cx="270" cy="521.9" rx="2.4" ry="2.6"/>
        <text transform="translate(300.9 524.5) scale(1 1)"><tspan class="st8"><tspan class="st17" x="0" y="0">2018</tspan><tspan class="st3" x="28" y="0" xml:space="preserve">  -  COMBINED ASSURANCES (Québec)</tspan></tspan><tspan class="st7"><tspan x="0" y="12">Insurance agent</tspan></tspan></text>
      </g>
      <g>
        <ellipse class="st19" cx="270" cy="567.4" rx="2.4" ry="2.6"/>
        <text transform="translate(300.9 569.9) scale(1 1)"><tspan class="st8"><tspan class="st17" x="0" y="0">2017</tspan><tspan class="st3" x="27.5" y="0" xml:space="preserve">  -  WIRELESS ETC - GLENTEL (Québec)</tspan></tspan><tspan class="st7"><tspan x="0" y="12">Sales associate</tspan></tspan></text>
      </g>
      <g>
        <ellipse class="st19" cx="270.1" cy="614.3" rx="2.4" ry="2.6"/>
        <text transform="translate(300.9 616.9) scale(1 1)"><tspan class="st8"><tspan class="st17" x="0" y="0">2015</tspan><tspan class="st3" x="27.6" y="0" xml:space="preserve">  -  BEST BUY MOBILE (Québec)</tspan></tspan><tspan class="st7"><tspan x="0" y="12">Team leader</tspan></tspan></text>
      </g>
      <g>
        <ellipse class="st19" cx="270" cy="663.2" rx="2.4" ry="2.6"/>
        <text transform="translate(300.9 665.7) scale(1 1)"><tspan class="st8"><tspan class="st17" x="0" y="0">2015</tspan><tspan class="st23" x="27.6" y="0"> </tspan><tspan class="st3" x="30.3" y="0" xml:space="preserve"> -  FONDATION DES MALADIES DU </tspan></tspan><tspan class="st0"><tspan x="0" y="12">COEUR ET DE L’AVC (Québec)</tspan></tspan><tspan class="st7"><tspan x="0" y="24">Recruitement agent</tspan></tspan></text>
      </g>
      <g>
        <ellipse class="st19" cx="270" cy="723.8" rx="2.4" ry="2.6"/>
        <text transform="translate(300.9 726.4) scale(1 1)"><tspan class="st8"><tspan class="st17" x="0" y="0">2014</tspan><tspan class="st3" x="28.4" y="0" xml:space="preserve">  -  LA SOURCE (Québec)</tspan></tspan><tspan class="st7"><tspan x="0" y="12">Sales associate</tspan></tspan></text>
      </g>
    </g>
    <g>
      <g>
        <text class="st6" transform="translate(285.2 225.1)"><tspan x="0" y="0">Java</tspan><tspan x="0" y="18">React</tspan><tspan x="0" y="36">Node js</tspan><tspan x="0" y="54">Javascript</tspan><tspan x="0" y="72">React Native</tspan></text>
        <path class="st5" d="M275.7,217.8v4.7h-.8v-4.7h-1.5c-.6,0-1.1-.5-1.1-1.1v-1.4h-4.2c-.4,0-.8.3-.8.7v6.5h-.8v-6.5c0-.8.7-1.4,1.5-1.4h4.2l3.4,3.2ZM266.2,225.4c0-.1,0-.2,0-.3h.6c0,0,0,.1,0,.2,0,.1.2.2.3.2.1,0,.3,0,.3-.1,0,0,.1-.2.1-.3v-2h.6v2c0,.3,0,.6-.3.7-.2.2-.4.2-.7.2-.1,0-.3,0-.4,0-.1,0-.2-.1-.3-.2,0,0-.1-.2-.2-.3ZM269.2,225.2l-.2.7h-.6l1-2.9h.7l1,2.9h-.6l-.2-.7h-1ZM270.1,224.8l-.4-1.2h0l-.4,1.2h.8ZM271.9,225.9h.7l1-2.9h-.7l-.7,2.3h0l-.7-2.3h-.7l1,2.9ZM274.3,225.2l-.2.7h-.6l1-2.9h.7l1,2.9h-.6l-.2-.7h-1ZM275.2,224.8l-.4-1.2h0l-.4,1.2h.8,0Z"/>
        <path class="st5" d="M276.2,289.7v6.8c0,.8-.6,1.4-1.4,1.4h-.7v-.7h.7c.4,0,.7-.3.7-.7v-6.8h-1.4c-.6,0-1.1-.5-1.1-1.1v-1.4h-3.9c-.4,0-.7.3-.7.7v6.4h-.7v-6.4c0-.8.6-1.4,1.4-1.4h3.9l3.2,3.2ZM268.4,297.1c0,.2.1.4.3.6,0,0,.2.1.3.2.1,0,.3,0,.5,0s.4,0,.6-.1c.2,0,.3-.2.4-.3,0-.1.1-.3.1-.5,0-.2,0-.3,0-.4,0-.1-.2-.2-.3-.3-.1,0-.3-.1-.4-.2h-.4c-.1-.1-.2-.2-.3-.2,0,0-.1-.1-.1-.2,0-.1,0-.2.1-.3,0,0,.2-.1.4-.1s.2,0,.3,0c0,0,.1,0,.2.1,0,0,0,.1,0,.2h.5c0-.1,0-.3-.1-.4,0-.1-.2-.2-.4-.3-.2,0-.4-.1-.6-.1-.2,0-.4,0-.6.1-.2,0-.3.2-.4.3,0,.1-.1.3-.1.5s0,.3,0,.4c0,.1.1.2.3.3.1,0,.2.1.4.2h.4c.1.1.3.2.3.2,0,0,.1.1.1.2,0,0,0,.1,0,.2,0,0-.1.1-.2.1,0,0-.2,0-.3,0,0,0-.2,0-.2,0,0,0-.1,0-.2,0,0,0-.2-.2-.2-.3h-.5ZM267.5,297.9v-2.4h.8v-.5h-2.2v.5h.8v2.4h.6ZM272.6,295h.6l-.9,1.4.9,1.4h-.6l-.6-1h0l-.6,1h-.6l.9-1.4-.9-1.4h.7l.6,1h0l.6-1Z"/>
        <g>
          <path class="st5" d="M275.6,253.7v6.8c0,.8-.6,1.4-1.4,1.4h-.4v-.7h.4c.4,0,.7-.3.7-.7v-6.8h-1.4c-.6,0-1.1-.5-1.1-1.1v-1.4h-3.9c-.4,0-.7.3-.7.7v6.4h-.7v-6.4c0-.8.6-1.4,1.4-1.4h3.9l3.2,3.2Z"/>
          <text class="st4" transform="translate(266.2 262)"><tspan x="0" y="0">EJS</tspan></text>
        </g>
        <path class="st5" d="M276.2,235.7v6.8c0,.8-.6,1.4-1.4,1.4h-.7v-.7h.7c.4,0,.7-.3.7-.7v-6.8h-1.4c-.6,0-1.1-.5-1.1-1.1v-1.4h-3.9c-.4,0-.7.3-.7.7v6.4h-.7v-6.4c0-.8.6-1.4,1.4-1.4h3.9l3.2,3.2ZM268.4,243.1c0,.2.1.4.3.6,0,0,.2.1.3.2.1,0,.3,0,.5,0s.4,0,.6-.1c.2,0,.3-.2.4-.3,0-.1.1-.3.1-.5,0-.2,0-.3,0-.4,0-.1-.2-.2-.3-.3-.1,0-.3-.1-.4-.2h-.4c-.1-.1-.2-.2-.3-.2,0,0-.1-.1-.1-.2,0-.1,0-.2.1-.3,0,0,.2-.1.4-.1s.2,0,.3,0c0,0,.1,0,.2.1,0,0,0,.1,0,.2h.5c0-.1,0-.3-.1-.4,0-.1-.2-.2-.4-.3-.2,0-.4-.1-.6-.1-.2,0-.4,0-.6.1-.2,0-.3.2-.4.3,0,.1-.1.3-.1.5s0,.3,0,.4c0,.1.1.2.3.3.1,0,.2.1.4.2h.4c.1.1.3.2.3.2,0,0,.1.1.1.2,0,0,0,.1,0,.2,0,0-.1.1-.2.1,0,0-.2,0-.3,0,0,0-.2,0-.2,0,0,0-.1,0-.2,0,0,0-.2-.2-.2-.3h-.5ZM267.5,243.9v-2.4h.8v-.5h-2.2v.5h.8v2.4h.6ZM272.6,241h.6l-.9,1.4.9,1.4h-.6l-.6-1h0l-.6,1h-.6l.9-1.4-.9-1.4h.7l.6,1h0l.6-1Z"/>
        <path class="st5" d="M275.4,272v4.6h-.7v-4.6h-1.4c-.6,0-1.1-.5-1.1-1.1v-1.4h-3.9c-.4,0-.7.3-.7.7v6.4h-.7v-6.4c0-.8.6-1.4,1.4-1.4h3.9l3.2,3.2ZM268.5,277.2v2.8h-.6v-1.2h-1.2v1.2h-.6v-2.8h.6v1.2h1.2v-1.2h.6ZM270.1,277.7v2.4h-.6v-2.4h-.8v-.5h2.2v.5h-.8ZM271.6,280v-1.9h0l.7,1.5h.4l.7-1.5h0v1.9h.5v-2.8h-.6l-.8,1.8h0l-.8-1.8h-.6v2.8h.5ZM274.9,279.5h1.2v.5h-1.8v-2.8h.6v2.4h0Z"/>
      </g>
      <g>
        <text class="st4" transform="translate(406.2 279.5)"><tspan x="0" y="0">AEP</tspan></text>
        <text class="st4" transform="translate(397.6 295.5)"><tspan x="0" y="0">PRPROJ</tspan></text>
        <g>
          <path class="st5" d="M415.6,217.8v6.8c0,.8-.6,1.4-1.4,1.4h-.4v-.7h.4c.4,0,.7-.3.7-.7v-6.8h-1.4c-.6,0-1.1-.5-1.1-1.1v-1.4h-3.9c-.4,0-.7.3-.7.7v6.4h-.7v-6.4c0-.8.6-1.4,1.4-1.4h3.9l3.2,3.2Z"/>
          <g>
            <text class="st6" transform="translate(425.9 225)"><tspan x="0" y="0">Figma</tspan><tspan x="0" y="18">Illustrator</tspan><tspan x="0" y="36">Photoshop</tspan><tspan x="0" y="54">After effects</tspan><tspan x="0" y="72">Premiere pro</tspan></text>
            <path class="st5" d="M416.2,235.3v6.8c0,.8-.6,1.4-1.4,1.4h-4.3v-.7h4.3c.4,0,.7-.3.7-.7v-6.8h-1.4c-.6,0-1.1-.5-1.1-1.1v-1.4h-3.9c-.4,0-.7.3-.7.7v6.4h-.7v-6.4c0-.8.6-1.4,1.4-1.4h3.9l3.2,3.2ZM407,242.7l-.2.7h-.6l1-2.9h.7l1,2.9h-.6l-.2-.7h-1ZM407.8,242.3l-.4-1.2h0l-.4,1.2h.7ZM409.5,240.6v2.9h-.6v-2.9h.6Z"/>
            <path class="st5" d="M416.2,253.3v6.8c0,.8-.6,1.4-1.4,1.4h-.4v-.7h.4c.4,0,.7-.3.7-.7v-6.8h-1.4c-.6,0-1.1-.5-1.1-1.1v-1.4h-3.9c-.4,0-.7.3-.7.7v6.4h-.7v-6.4c0-.8.6-1.4,1.4-1.4h3.9l3.2,3.2ZM408.4,260.7c0,.2.1.4.3.6,0,0,.2.1.3.2.1,0,.3,0,.5,0s.4,0,.6-.1c.2,0,.3-.2.4-.3,0-.1.1-.3.1-.5,0-.2,0-.3,0-.4,0-.1-.2-.2-.3-.3-.1,0-.3-.1-.4-.2h-.4c-.1-.1-.2-.2-.3-.2,0,0-.1-.1-.1-.2,0-.1,0-.2.1-.3,0,0,.2-.1.4-.1s.2,0,.3,0c0,0,.1,0,.2.1,0,0,0,.1,0,.2h.5c0-.1,0-.3-.1-.4,0-.1-.2-.2-.4-.3-.2,0-.4-.1-.6-.1-.2,0-.4,0-.6.1-.2,0-.3.2-.4.3,0,.1-.1.3-.1.5s0,.3,0,.4c0,.1.1.2.3.3.1,0,.2.1.4.2h.4c.1.1.3.2.3.2,0,0,.1.1.1.2,0,0,0,.1,0,.2,0,0-.1.1-.2.1,0,0-.2,0-.3,0s-.2,0-.2,0c0,0-.1,0-.2,0,0,0-.2-.2-.2-.3h-.5ZM407.3,258.6h-1.1v2.9h.6v-1h.6c.2,0,.4,0,.5-.1.1,0,.3-.2.3-.3,0-.1.1-.3.1-.5,0-.2,0-.3-.1-.5,0-.1-.2-.3-.3-.3-.1,0-.3-.1-.5-.1ZM407.7,259.6c0,0,0,.2,0,.3,0,0,0,.1-.2.2,0,0-.2,0-.3,0h-.5v-1h.5c.2,0,.3,0,.4.1,0,0,.1.2.1.4ZM411,261.5v-2.9h1c.3,0,.5,0,.7.2.2.1.3.3.4.5s.1.5.1.8,0,.6-.1.8c0,.2-.2.4-.4.5-.2.1-.4.2-.7.2h-1ZM411.9,259.1h-.4v1.9h.4c.1,0,.2,0,.3,0,0,0,.2,0,.2-.2,0,0,.1-.2.1-.3,0-.1,0-.3,0-.4,0-.2,0-.4,0-.5,0-.1-.1-.2-.3-.3-.1,0-.3-.1-.4-.1Z"/>
            <path class="st5" d="M416.2,271.3v6.8c0,.8-.6,1.4-1.4,1.4h-.4v-.7h.4c.4,0,.7-.3.7-.7v-6.8h-1.4c-.6,0-1.1-.5-1.1-1.1v-1.4h-3.9c-.4,0-.7.3-.7.7v6.4h-.7v-6.4c0-.8.6-1.4,1.4-1.4h3.9l3.2,3.2Z"/>
            <path class="st5" d="M416.3,287.2v6.8c0,.8-.6,1.4-1.4,1.4h-.4v-.7h.4c.4,0,.7-.3.7-.7v-6.8h-1.4c-.6,0-1.1-.5-1.1-1.1v-1.4h-3.9c-.4,0-.7.3-.7.7v6.4h-.7v-6.4c0-.8.6-1.4,1.4-1.4h3.9l3.2,3.2Z"/>
            <text class="st4" transform="translate(406.7 226)"><tspan x="0" y="0">FIG</tspan></text>
          </g>
        </g>
      </g>
      <g>
        <text class="st9" transform="translate(266.1 185.6)"><tspan x="0" y="0">SKILLS</tspan></text>
        <line class="st15" x1="266.2" y1="197.6" x2="555.8" y2="197.6"/>
      </g>
    </g>
    <g>
      <g>
        <text class="st9" transform="translate(266.1 54.6)"><tspan x="0" y="0">ABOUT</tspan></text>
        <line class="st15" x1="266.2" y1="66.5" x2="555.8" y2="66.5"/>
      </g>
      <text class="st13" transform="translate(266.1 90.5)"><tspan x="0" y="0">Passionate junior web developer (React, React Native, </tspan><tspan x="0" y="20">Node.js), looking to grow within a collaborative and </tspan><tspan x="0" y="40">project-driven team.</tspan></text>
    </g>
  </g>
  <g>
    <g>
      <g>
        <path class="st25" d="M113.9,700.5l.6.2c.4.1.8.4,1.1.6,0-.2,0-.4,0-.6,0-6.1-5-11.1-11.1-11.1s-11.1,5-11.1,11.1,0,.4,0,.6c.3-.3.7-.5,1.1-.6l.6-.2c.2-5,4.3-9.1,9.4-9.1s9.2,4.1,9.4,9.1Z"/>
        <path class="st25" d="M91.9,710.7c.4,1,1.4,1.7,2.4,1.7s0,0,0,0l-1.6-4.5c-.8.7-1.2,1.8-.8,2.8Z"/>
        <path class="st25" d="M100.1,703.2c-.2-.6-.7-1.2-1.3-1.4-.6-.3-1.3-.3-2,0l-1.6.6c-.6.2-1.2.7-1.4,1.3-.3.6-.3,1.3,0,2l2.9,8c.2.6.7,1.2,1.3,1.4.3.2.7.2,1.1.2s.6,0,.9-.2l1.6-.6h0c.6-.2,1.2-.7,1.4-1.3.3-.6.3-1.3,0-2l-2.9-8Z"/>
        <path class="st25" d="M116.4,707.9l-1.6,4.5s0,0,0,0c1,0,2-.6,2.4-1.7.4-1,0-2.2-.8-2.8Z"/>
        <path class="st25" d="M115.4,703.6c-.3-.6-.8-1.1-1.4-1.3l-1.6-.6c-.6-.2-1.3-.2-2,0-.6.3-1.1.8-1.3,1.4l-2.9,8c-.2.6-.2,1.3,0,2,.3.6.8,1.1,1.4,1.3h0l1.6.6c.3.1.6.2.9.2s.7,0,1.1-.2c.6-.3,1.1-.8,1.3-1.4l2.9-8c.2-.6.2-1.3,0-2Z"/>
      </g>
      <g>
        <polygon class="st25" points="168.2 747.9 169.2 746.8 168.2 745.7 168.2 747.9"/>
        <path class="st25" d="M172.5,735.7h-11.9c-1.1,0-2,.7-2.4,1.7h5.8c2.4,0,4.3,1.9,4.3,4.3v1.5l2.8,3.1c.3.3.3.8,0,1.1l-2.8,3.1v7.4h4.3c1.4,0,2.6-1.1,2.6-2.6v-17.1c0-1.4-1.1-2.6-2.6-2.6Z"/>
        <path class="st25" d="M163.9,739.1h-11.9c-1.4,0-2.6,1.1-2.6,2.6v17.1c0,1.4,1.1,2.6,2.6,2.6h11.9c1.4,0,2.6-1.1,2.6-2.6v-17.1c0-1.4-1.1-2.6-2.6-2.6ZM162.1,751l-3.6,3.7c-.2.2-.4.3-.6.3s-.4,0-.6-.3l-3.6-3.7c-1.2-1.2-1.2-3.3,0-4.5,1.1-1.1,3-1.2,4.2-.3,1.2-1,3.1-.9,4.2.3,1.2,1.2,1.2,3.3,0,4.5Z"/>
        <path class="st25" d="M158.9,747.6l-.3.3c-.3.3-.9.3-1.2,0l-.3-.3c-.3-.3-.6-.4-1-.4s-.7.2-1,.4c-.6.6-.6,1.5,0,2.1l3,3,3-3c.6-.6.6-1.5,0-2.1-.5-.6-1.5-.6-2,0Z"/>
      </g>
      <g>
        <path class="st25" d="M93.5,753.6v-11.1c-.9,0-1.7.8-1.7,1.7v11.9c0,.9.8,1.7,1.7,1.7h8c-1.6-1.1-3.5-1.7-5.5-1.7s-2.6-1.1-2.6-2.6Z"/>
        <path class="st25" d="M115.6,742.5v11.1c0,1.4-1.1,2.6-2.6,2.6s-3.9.6-5.5,1.7h8c.9,0,1.7-.8,1.7-1.7v-11.9c0-.9-.8-1.7-1.7-1.7Z"/>
        <path class="st25" d="M109.7,743.4c.1,0,.3,0,.4,0l.5.2v-4.6h-1.7v4.6l.5-.2c.1,0,.3,0,.4,0Z"/>
        <path class="st25" d="M113.9,753.6v-13.7c0-.5-.4-.9-.9-.9h-.9v6c0,.3-.2.6-.4.7-.1,0-.3.1-.4.1s-.3,0-.4,0l-1.3-.7-1.3.7c-.3.1-.6.1-.8,0-.3-.2-.4-.4-.4-.7v-6h-.9c-.3,0-.6,0-.9.2v18.2l.6-.5c2-1.6,4.5-2.5,7.1-2.5s.9-.4.9-.9Z"/>
        <path class="st25" d="M96,739.1c-.5,0-.9.4-.9.9v13.7c0,.5.4.9.9.9,2.6,0,5.1.9,7.1,2.5l.6.5v-18.2c-.3,0-.6-.2-.9-.2h-6.8Z"/>
      </g>
      <g>
        <path class="st25" d="M172.5,699.9h-4.6c-.5,1.5-1.7,2.6-3.1,3.1v2.9c0,.3,0,.6-.2.9h7.8c1.4,0,2.6-1.1,2.6-2.6v-1.7c0-1.4-1.1-2.6-2.6-2.6Z"/>
        <path class="st25" d="M162.2,708.4h-3.2s-.2,0-.2,0c-.2,0-.4,0-.5,0,.3,1,1.3,1.8,2.4,1.8h10.2c1.1,0,2.1-.7,2.4-1.8-.3,0-.6.1-.9.1h-10.2Z"/>
        <path class="st25" d="M163.1,693.1c2.8,0,5.1,2.3,5.1,5.1h4.3c.3,0,.6,0,.9,0v-6.1c0-1.4-1.1-2.6-2.6-2.6h-10.2c-1.4,0-2.6,1.1-2.6,2.6v.9c.3,0,.6,0,.9,0h4.3Z"/>
        <path class="st25" d="M162.2,706.7c.5,0,.9-.4.9-.9v-4.3c1.9,0,3.4-1.5,3.4-3.4s-1.5-3.4-3.4-3.4h-4.3c-1.4,0-2.6,1.1-2.6,2.6v6.8c0,1.4,1.1,2.6,2.6,2.6h3.4Z"/>
        <path class="st25" d="M160.5,714.4c0,.5.4.9.9.9h8.5c.5,0,.9-.4.9-.9v-2.6h-10.2v2.6Z"/>
      </g>
      <g>
        <path class="st25" d="M54.7,689.7h-3.4c-.5,0-.9.4-.9.9v2.6h-1.7v-2.6c0-.5-.4-.9-.9-.9h-3.4c-.5,0-.9.4-.9.9v2.6h-1.7v-2.6c0-.5-.4-.9-.9-.9h-3.4c-.5,0-.9.4-.9.9v5.1c0,1.4,1.1,2.4,2.4,2.5v.9c0,.3,0,.6.2.9h13.3c0-.3.2-.6.2-.9v-.9h.2c1.4,0,2.6-1.1,2.6-2.6v-5.1c0-.5-.4-.9-.9-.9Z"/>
        <path class="st25" d="M55,712.1c-.3-1.1-1.3-1.9-2.5-1.9h-12.7c-1.2,0-2.2.8-2.5,1.9l-.5,2.1c0,.3,0,.5.2.7.2.2.4.3.7.3h17.1c.3,0,.5-.1.7-.3s.2-.5.2-.7l-.5-2.1Z"/>
        <rect class="st25" x="41.1" y="701.6" width="10.2" height="6.8"/>
      </g>
      <g>
        <path class="st25" d="M47,740c0-.5-.4-.9-.9-.9s-.9.4-.9.9v2.2h1.7v-2.2Z"/>
        <path class="st25" d="M58.8,752l-1.6-5.7c-.8-2.7-3.3-4.3-5.9-3.7-.8.2-1.6.6-2.2,1.2h-5.9c-.6-.6-1.4-1-2.2-1.2-2.5-.6-5.1,1-5.9,3.7l-1.4,5c-.7,2.5,0,4.7,1.7,5.8.7.5,1.6.7,2.4.7s.9,0,1.3-.2c1.3-.4,2.3-1.3,2.8-2.6.6-1.5,2.1-2.5,3.7-2.5h1.1c1.5,0,2.9.9,3.5,2.4.9,2.1,3.2,3.3,5.3,2.8,1.2-.3,2.2-1.1,2.8-2.1.6-1.1.8-2.4.4-3.6ZM41.9,749.5h-.9v.9c0,.5-.4.9-.9.9s-.9-.4-.9-.9v-.9h-.9c-.5,0-.9-.4-.9-.9s.4-.9.9-.9h.9v-.9c0-.5.4-.9.9-.9s.9.4.9.9v.9h.9c.5,0,.9.4.9.9s-.4.9-.9.9ZM54.5,749.4c.3.3.3.9,0,1.2-.2.2-.4.2-.6.2s-.4,0-.6-.2l-.7-.7-.7.7c-.2.2-.4.2-.6.2s-.4,0-.6-.2c-.3-.3-.3-.9,0-1.2l.7-.7-.7-.7c-.3-.3-.3-.9,0-1.2.3-.3.9-.3,1.2,0l.7.7.7-.7c.3-.3.9-.3,1.2,0,.3.3.3.9,0,1.2l-.7.7.7.7Z"/>
      </g>
    </g>
    <g>
      <text class="st2" transform="translate(23.9 665)"><tspan x="0" y="0">HOBBIES</tspan></text>
      <line class="st16" x1="23.9" y1="674.2" x2="184.5" y2="674.2"/>
    </g>
  </g>
</svg>