<?xml version="1.0" encoding="UTF-8"?>
<svg id="Layer_1" xmlns="http://www.w3.org/2000/svg" version="1.1" viewBox="0 0 612 792">
  <!-- Generator: Adobe Illustrator 29.0.0, SVG Export Plug-In . SVG Version: 2.1.0 Build 186)  -->
  <defs>
    <style>
      .st0 {
        font-family: WixMadeforText-Medium, 'Wix Madefor Text';
        font-weight: 500;
      }

      .st0, .st1, .st2, .st3 {
        font-size: 12px;
      }

      .st4 {
        fill: #f8632c;
      }

      .st5, .st6, .st7, .st2, .st8, .st9, .st10, .st3, .st11 {
        fill: #fff;
      }

      .st5, .st12 {
        fill-rule: evenodd;
      }

      .st6, .st13, .st7, .st14, .st10 {
        font-size: 16px;
      }

      .st6, .st7, .st14, .st15 {
        font-weight: 700;
      }

      .st6, .st14 {
        font-family: WixMadeforText-Bold, 'Wix Madefor Text';
      }

      .st16 {
        fill: #231f20;
      }

      .st17 {
        fill: #363cbf;
      }

      .st18 {
        stroke: #fff;
      }

      .st18, .st8, .st19 {
        stroke-miterlimit: 10;
      }

      .st18, .st19 {
        fill: none;
      }

      .st13, .st2, .st10 {
        font-family: WixMadeforText-SemiBold, 'Wix Madefor Text';
        font-weight: 600;
      }

      .st20 {
        font-size: 10px;
      }

      .st20, .st1, .st3, .st11 {
        font-family: WixMadeforText-Regular, 'Wix Madefor Text';
      }

      .st7 {
        font-family: WixMadeforText-ExtraBold, 'Wix Madefor Text';
      }

      .st21 {
        fill: #90a4ae;
      }

      .st8, .st19 {
        stroke: #000;
      }

      .st15 {
        font-family: Arial-BoldMT, Arial;
        font-size: 4px;
      }

      .st22 {
        fill: #78909c;
      }

      .st23 {
        fill: #424242;
      }

      .st11 {
        font-size: 11px;
      }

      .st24 {
        fill: #d7dee2;
      }
    </style>
  </defs>
  <rect class="st8" y="0" width="612" height="792.1"/>
  <rect class="st17" x="0" y="612.4" width="612" height="179.7"/>
  <rect class="st17" y="0" width="612" height="172"/>
  <text class="st7" transform="translate(23 47.5)"><tspan x="0" y="0">William Bitton</tspan></text>
  <text class="st10" transform="translate(23 668.9)"><tspan x="0" y="0">Études effectuées</tspan></text>
  <line class="st18" x1="23" y1="676.6" x2="398" y2="676.6"/>
  <g>
    <path class="st9" d="M24.5,694.2c0-.3,0-.5.2-.7s.3-.4.5-.5c.2-.1.5-.2.7-.2s.5,0,.7.2.4.3.5.5c.1.2.2.5.2.7s0,.5-.2.7c-.1.2-.3.4-.5.5-.2.1-.5.2-.7.2s-.5,0-.7-.2c-.2-.1-.4-.3-.5-.5s-.2-.5-.2-.7Z"/>
    <path class="st9" d="M49.8,697.5h-1l-.9-2.4h-3.8l-.9,2.4h-1l3.3-8.6h1l3.3,8.6ZM44.5,694.3h3.2l-1.6-4.2-1.6,4.2Z"/>
    <path class="st9" d="M56.9,697.5h-5.4v-8.6h5.4v.8h-4.4v2.9h4.2v.8h-4.2v3.1h4.4v.8Z"/>
    <path class="st9" d="M64.9,695.4l.7.7c-.3.5-.8.9-1.4,1.2-.6.3-1.2.4-1.8.4s-1.1-.1-1.6-.3c-.5-.2-.9-.5-1.3-.9-.4-.4-.7-.9-.9-1.4s-.3-1.1-.3-1.8.1-1.2.3-1.8.5-1,.9-1.4c.4-.4.8-.7,1.3-.9.5-.2,1-.3,1.6-.3s1.3.1,1.8.4c.5.3,1,.7,1.4,1.2l-.7.7c-.6-1-1.4-1.4-2.5-1.4s-1.1.2-1.6.5c-.5.3-.8.7-1.1,1.3-.3.5-.4,1.2-.4,1.9s.1,1.3.4,1.9c.3.5.6,1,1.1,1.3.5.3,1,.5,1.6.5s1-.1,1.4-.4c.4-.2.8-.6,1.1-1.1Z"/>
    <path class="st9" d="M74.4,695.8l.6.6c-.3.4-.7.8-1.1,1-.4.2-.9.3-1.4.3s-1.1-.1-1.6-.4c-.5-.3-.8-.6-1.1-1.1s-.4-1-.4-1.6.1-1.1.4-1.6c.3-.5.6-.8,1-1.1.4-.3.9-.4,1.5-.4s1,.1,1.4.4c.4.3.7.6,1,1.1.2.5.3,1,.3,1.6v.4h-4.6c0,.6.3,1.1.7,1.5s.9.6,1.4.6.7,0,1-.3c.3-.2.6-.4.8-.8ZM72.4,692.2c-.5,0-.9.2-1.3.5-.3.4-.6.8-.6,1.4h3.7c0-.6-.2-1-.6-1.4-.3-.3-.7-.5-1.2-.5Z"/>
    <path class="st9" d="M81.9,697.5h-.9v-3.4c0-.6-.1-1.1-.4-1.4-.3-.3-.6-.5-1-.5s-.6,0-.9.3c-.3.2-.5.5-.7.9-.2.4-.3.9-.3,1.5v2.7h-.9v-5.9h.9v1.2c.2-.5.5-.9.9-1.1.4-.2.8-.3,1.2-.3.7,0,1.2.2,1.6.7.4.4.6,1.1.6,1.9v3.5Z"/>
    <path class="st9" d="M91.2,697.5v-.9c-.2.3-.5.6-.9.8s-.8.3-1.2.3-1-.1-1.5-.4c-.4-.3-.8-.6-1-1.1s-.4-1-.4-1.6.1-1.1.4-1.6c.2-.5.6-.8,1-1.1.4-.3.9-.4,1.4-.4s.9.1,1.3.3.7.5.9.9v-3.8h.9v8.6h-.9ZM87.2,694.5c0,.5,0,.9.3,1.2.2.4.4.6.7.8.3.2.7.3,1,.3s.9-.1,1.2-.4c.4-.3.6-.6.7-1v-.8c0-.5,0-.9-.3-1.3s-.4-.7-.7-.9c-.3-.2-.6-.3-1-.3s-.7.1-1,.3c-.3.2-.5.5-.7.8-.2.4-.3.8-.3,1.2Z"/>
    <path class="st9" d="M98.6,695.8l.6.6c-.3.4-.7.8-1.1,1-.4.2-.9.3-1.4.3s-1.1-.1-1.6-.4c-.5-.3-.8-.6-1.1-1.1s-.4-1-.4-1.6.1-1.1.4-1.6c.3-.5.6-.8,1-1.1.4-.3.9-.4,1.5-.4s1,.1,1.4.4c.4.3.7.6,1,1.1.2.5.3,1,.3,1.6v.4h-4.6c0,.6.3,1.1.7,1.5s.9.6,1.4.6.7,0,1-.3c.3-.2.6-.4.8-.8ZM96.6,692.2c-.5,0-.9.2-1.3.5-.3.4-.6.8-.6,1.4h3.7c0-.6-.2-1-.6-1.4-.3-.3-.7-.5-1.2-.5ZM98.3,688.4l-1.5,2.1h-.8l1.3-2.1h1Z"/>
    <path class="st9" d="M103.4,697.5h-.9l-2.4-5.9h1l1.9,4.9,1.9-4.9h.9l-2.4,5.9Z"/>
    <path class="st9" d="M111.5,695.8l.6.6c-.3.4-.7.8-1.1,1-.4.2-.9.3-1.4.3s-1.1-.1-1.6-.4c-.5-.3-.8-.6-1.1-1.1s-.4-1-.4-1.6.1-1.1.4-1.6c.3-.5.6-.8,1-1.1.4-.3.9-.4,1.5-.4s1,.1,1.4.4c.4.3.7.6,1,1.1.2.5.3,1,.3,1.6v.4h-4.6c0,.6.3,1.1.7,1.5s.9.6,1.4.6.7,0,1-.3c.3-.2.6-.4.8-.8ZM109.5,692.2c-.5,0-.9.2-1.3.5-.3.4-.6.8-.6,1.4h3.7c0-.6-.2-1-.6-1.4-.3-.3-.7-.5-1.2-.5Z"/>
    <path class="st9" d="M114.8,697.5h-.9v-8.6h.9v8.6Z"/>
    <path class="st9" d="M119.5,697.7c-.6,0-1.1-.1-1.5-.4-.4-.3-.8-.6-1.1-1.1s-.4-1-.4-1.6.1-1.1.4-1.6c.3-.5.6-.8,1.1-1.1.4-.3,1-.4,1.5-.4s1.1.1,1.5.4c.4.3.8.6,1,1.1.3.5.4,1,.4,1.6s-.1,1.1-.4,1.6-.6.8-1,1.1c-.4.3-1,.4-1.5.4ZM119.5,696.9c.4,0,.7,0,1-.3s.5-.5.7-.8c.2-.4.3-.8.3-1.2s0-.9-.3-1.2-.4-.6-.7-.8c-.3-.2-.6-.3-1-.3s-.7.1-1,.3c-.3.2-.5.5-.7.8s-.3.8-.3,1.2,0,.9.3,1.2c.2.4.4.6.7.8s.6.3,1,.3Z"/>
    <path class="st9" d="M125,699.8h-.9v-8.2h.9v1.1c.2-.4.5-.7.9-.9.4-.2.8-.4,1.3-.4s1,.1,1.4.4c.4.3.7.6,1,1.1.2.5.4,1,.4,1.6s-.1,1.1-.4,1.6c-.2.5-.6.8-1,1.1-.4.3-.9.4-1.5.4s-.9,0-1.2-.3c-.4-.2-.6-.5-.8-.8v3.2ZM125,694.7v.8c.1.4.4.8.7,1s.8.4,1.2.4.8,0,1.1-.3c.3-.2.5-.5.7-.8.2-.4.3-.8.3-1.2s0-.9-.2-1.2c-.2-.4-.4-.6-.7-.8-.3-.2-.6-.3-1-.3s-.7.1-1,.3c-.3.2-.5.5-.7.9-.2.4-.3.8-.3,1.3Z"/>
    <path class="st9" d="M132.5,699.8h-.9v-8.2h.9v1.1c.2-.4.5-.7.9-.9.4-.2.8-.4,1.3-.4s1,.1,1.4.4c.4.3.7.6,1,1.1.2.5.4,1,.4,1.6s-.1,1.1-.4,1.6c-.2.5-.6.8-1,1.1-.4.3-.9.4-1.5.4s-.9,0-1.2-.3c-.4-.2-.6-.5-.8-.8v3.2ZM132.5,694.7v.8c.1.4.4.8.7,1s.8.4,1.2.4.8,0,1.1-.3c.3-.2.5-.5.7-.8.2-.4.3-.8.3-1.2s0-.9-.2-1.2c-.2-.4-.4-.6-.7-.8-.3-.2-.6-.3-1-.3s-.7.1-1,.3c-.3.2-.5.5-.7.9-.2.4-.3.8-.3,1.3Z"/>
    <path class="st9" d="M143.6,695.8l.6.6c-.3.4-.7.8-1.1,1-.4.2-.9.3-1.4.3s-1.1-.1-1.6-.4c-.5-.3-.8-.6-1.1-1.1s-.4-1-.4-1.6.1-1.1.4-1.6c.3-.5.6-.8,1-1.1.4-.3.9-.4,1.5-.4s1,.1,1.4.4c.4.3.7.6,1,1.1.2.5.3,1,.3,1.6v.4h-4.6c0,.6.3,1.1.7,1.5s.9.6,1.4.6.7,0,1-.3c.3-.2.6-.4.8-.8ZM141.7,692.2c-.5,0-.9.2-1.3.5-.3.4-.6.8-.6,1.4h3.7c0-.6-.2-1-.6-1.4-.3-.3-.7-.5-1.2-.5Z"/>
    <path class="st9" d="M155,697.5h-.9v-3.4c0-.6-.1-1.1-.3-1.4-.2-.3-.6-.5-1-.5s-1,.2-1.3.7c-.3.5-.5,1.1-.5,1.9v2.7h-.9v-3.4c0-.6-.1-1.1-.3-1.4-.2-.3-.6-.5-1-.5s-.9.2-1.3.7c-.3.5-.5,1.1-.5,1.9v2.7h-.9v-5.9h.9v1.2c.2-.4.4-.8.7-1,.3-.2.7-.4,1.2-.4s.9.1,1.2.4c.3.3.5.6.7,1.1.2-.5.4-.9.8-1.1.4-.3.8-.4,1.3-.4s1.2.2,1.6.7.6,1.1.6,1.9v3.5Z"/>
    <path class="st9" d="M161.4,695.8l.6.6c-.3.4-.7.8-1.1,1s-.9.3-1.4.3-1.1-.1-1.6-.4c-.5-.3-.8-.6-1.1-1.1s-.4-1-.4-1.6.1-1.1.4-1.6c.3-.5.6-.8,1-1.1.4-.3.9-.4,1.5-.4s1,.1,1.4.4c.4.3.7.6,1,1.1.2.5.3,1,.3,1.6v.4h-4.6c0,.6.3,1.1.7,1.5s.8.6,1.4.6.7,0,1-.3.6-.4.8-.8ZM159.4,692.2c-.5,0-.9.2-1.3.5-.3.4-.6.8-.6,1.4h3.7c0-.6-.2-1-.6-1.4-.3-.3-.7-.5-1.2-.5Z"/>
    <path class="st9" d="M169,697.5h-.9v-3.4c0-.6-.1-1.1-.4-1.4-.3-.3-.6-.5-1-.5s-.6,0-.9.3c-.3.2-.5.5-.7.9-.2.4-.3.9-.3,1.5v2.7h-.9v-5.9h.9v1.2c.2-.5.5-.9.9-1.1s.8-.3,1.2-.3c.7,0,1.2.2,1.6.7.4.4.6,1.1.6,1.9v3.5Z"/>
    <path class="st9" d="M174,697.5h-1.3c-.4,0-.7-.1-.9-.3-.2-.2-.3-.6-.3-1v-3.8h-1.1v-.8h1.1v-1.7h.9v1.7h1.6v.8h-1.6v3.7c0,.4.2.6.6.6h1.1v.8Z"/>
    <path class="st9" d="M184.1,697.5h-1l-1.4-4.7-1.3,4.7h-1l-1.8-5.9h.9l1.3,4.9,1.4-4.9h.9l1.4,5,1.4-5h.9l-1.8,5.9Z"/>
    <path class="st9" d="M191.8,695.8l.6.6c-.3.4-.7.8-1.1,1s-.9.3-1.4.3-1.1-.1-1.6-.4c-.5-.3-.8-.6-1.1-1.1s-.4-1-.4-1.6.1-1.1.4-1.6c.3-.5.6-.8,1-1.1.4-.3.9-.4,1.5-.4s1,.1,1.4.4c.4.3.7.6,1,1.1.2.5.3,1,.3,1.6v.4h-4.6c0,.6.3,1.1.7,1.5s.8.6,1.4.6.7,0,1-.3.6-.4.8-.8ZM189.9,692.2c-.5,0-.9.2-1.3.5-.3.4-.6.8-.6,1.4h3.7c0-.6-.2-1-.6-1.4-.3-.3-.7-.5-1.2-.5Z"/>
    <path class="st9" d="M195.2,697.5h-.9v-8.6h.9v3.8c.2-.4.5-.7.9-.9.4-.2.8-.3,1.3-.3s1,.1,1.4.4c.4.3.7.6,1,1.1.2.5.4,1,.4,1.6s-.1,1.1-.4,1.6-.6.8-1,1.1c-.4.3-.9.4-1.5.4s-.9-.1-1.2-.3-.7-.5-.9-.8v.9ZM195.2,694.7v.8c.1.4.4.8.7,1,.4.3.8.4,1.2.4s.8,0,1-.3.5-.5.7-.8c.2-.4.3-.8.3-1.2s0-.9-.2-1.2c-.2-.4-.4-.6-.7-.8-.3-.2-.6-.3-1-.3s-.7.1-1,.3c-.3.2-.5.5-.7.9s-.3.8-.3,1.3Z"/>
    <path class="st9" d="M206.9,699h-.9c-.6-.7-1-1.5-1.2-2.4s-.4-1.8-.4-2.8.1-1.9.4-2.7.7-1.7,1.2-2.4h.9c-.6.8-1,1.7-1.2,2.5-.3.8-.4,1.7-.4,2.6s.1,1.8.4,2.6c.3.9.7,1.7,1.2,2.5Z"/>
    <path class="st9" d="M214.8,695.4l.7.7c-.3.5-.8.9-1.4,1.2s-1.2.4-1.8.4-1.1-.1-1.6-.3c-.5-.2-.9-.5-1.3-.9s-.7-.9-.9-1.4-.3-1.1-.3-1.8.1-1.2.3-1.8.5-1,.9-1.4.8-.7,1.3-.9c.5-.2,1-.3,1.6-.3s1.3.1,1.8.4c.5.3,1,.7,1.4,1.2l-.7.7c-.6-1-1.4-1.4-2.5-1.4s-1.1.2-1.6.5c-.5.3-.8.7-1.1,1.3-.3.5-.4,1.2-.4,1.9s.1,1.3.4,1.9c.3.5.6,1,1.1,1.3.5.3,1,.5,1.6.5s1-.1,1.4-.4.8-.6,1.1-1.1Z"/>
    <path class="st9" d="M221.5,695.8l.6.6c-.3.4-.7.8-1.1,1s-.9.3-1.4.3-1.1-.1-1.6-.4c-.5-.3-.8-.6-1.1-1.1s-.4-1-.4-1.6.1-1.1.4-1.6c.3-.5.6-.8,1-1.1.4-.3.9-.4,1.5-.4s1,.1,1.4.4c.4.3.7.6,1,1.1.2.5.3,1,.3,1.6v.4h-4.6c0,.6.3,1.1.7,1.5s.8.6,1.4.6.7,0,1-.3.6-.4.8-.8ZM219.5,692.2c-.5,0-.9.2-1.3.5-.3.4-.6.8-.6,1.4h3.7c0-.6-.2-1-.6-1.4-.3-.3-.7-.5-1.2-.5ZM221.2,688.4l-1.5,2.1h-.8l1.3-2.1h1Z"/>
    <path class="st9" d="M229.4,697c0,.6-.1,1.1-.4,1.6s-.6.8-1,1.1c-.4.3-1,.4-1.5.4s-1,0-1.4-.3c-.4-.2-.8-.5-1.1-.8l.6-.6c.5.6,1.1.9,1.9.9s.8,0,1.1-.3c.3-.2.5-.4.7-.8.2-.3.3-.7.3-1.2v-.5c-.2.3-.5.6-.8.8-.4.2-.8.3-1.2.3s-1-.1-1.5-.4c-.4-.3-.8-.6-1-1.1s-.4-1-.4-1.6.1-1.1.4-1.6.6-.8,1-1.1c.4-.3.9-.4,1.4-.4s.9.1,1.3.3c.4.2.7.5.8.9v-1.1h.9v5.4ZM224.5,694.5c0,.4,0,.8.3,1.2.2.3.4.6.7.8.3.2.7.3,1,.3s.9-.1,1.2-.4c.4-.3.6-.6.7-1v-.6c0-.5,0-.9-.3-1.3s-.4-.7-.7-.9c-.3-.2-.6-.3-1-.3s-.7,0-1,.3-.5.5-.7.8c-.2.3-.3.7-.3,1.2Z"/>
    <path class="st9" d="M236,695.8l.6.6c-.3.4-.7.8-1.1,1s-.9.3-1.4.3-1.1-.1-1.6-.4c-.5-.3-.8-.6-1.1-1.1s-.4-1-.4-1.6.1-1.1.4-1.6c.3-.5.6-.8,1-1.1.4-.3.9-.4,1.5-.4s1,.1,1.4.4c.4.3.7.6,1,1.1.2.5.3,1,.3,1.6v.4h-4.6c0,.6.3,1.1.7,1.5s.8.6,1.4.6.7,0,1-.3.6-.4.8-.8ZM234,692.2c-.5,0-.9.2-1.3.5-.3.4-.6.8-.6,1.4h3.7c0-.6-.2-1-.6-1.4-.3-.3-.7-.5-1.2-.5Z"/>
    <path class="st9" d="M239.3,699.8h-.9v-8.2h.9v1.1c.2-.4.5-.7.9-.9.4-.2.8-.4,1.3-.4s1,.1,1.4.4c.4.3.7.6,1,1.1.2.5.4,1,.4,1.6s-.1,1.1-.4,1.6-.6.8-1,1.1c-.4.3-.9.4-1.5.4s-.9,0-1.2-.3c-.4-.2-.6-.5-.8-.8v3.2ZM239.3,694.7v.8c.1.4.4.8.7,1,.4.3.8.4,1.2.4s.8,0,1-.3.5-.5.7-.8c.2-.4.3-.8.3-1.2s0-.9-.2-1.2c-.2-.4-.4-.6-.7-.8-.3-.2-.6-.3-1-.3s-.7.1-1,.3c-.3.2-.5.5-.7.9s-.3.8-.3,1.3Z"/>
    <path class="st9" d="M256.1,697.5h-.9v-1c-.3.4-.7.7-1.1.9s-1,.3-1.6.3-1.1-.1-1.6-.3c-.5-.2-.9-.5-1.3-.9s-.7-.9-.9-1.4-.3-1.1-.3-1.8.1-1.2.3-1.8.5-1,.9-1.4c.4-.4.8-.7,1.3-.9.5-.2,1-.3,1.6-.3s1.3.1,1.9.4c.6.3,1,.7,1.4,1.2l-.7.7c-.3-.5-.7-.9-1.1-1.1-.4-.2-.9-.3-1.5-.3s-1.1.2-1.6.5c-.5.3-.8.7-1.1,1.3-.3.5-.4,1.2-.4,1.9s.1,1.3.4,1.9c.3.5.7,1,1.1,1.3.5.3,1,.5,1.7.5s1.1-.1,1.5-.4.8-.6,1.1-1v-1.6h-2.7v-.8h3.6v4.5Z"/>
    <path class="st9" d="M259.7,697.7c-.4,0-.8,0-1.1-.2-.3-.2-.6-.4-.8-.7s-.3-.6-.3-1c0-.6.2-1.1.7-1.4.5-.4,1.1-.5,1.9-.5h1.7c0-.5-.1-.9-.5-1.2-.3-.3-.7-.4-1.2-.4s-1.3.3-1.7.9l-.6-.6c.7-.7,1.5-1.1,2.4-1.1s.9,0,1.3.3.7.5.9.8c.2.4.3.8.3,1.3v3.7h-.9v-.8c-.2.3-.5.5-.9.7-.4.2-.8.3-1.2.3ZM259.8,696.9c.5,0,.9-.1,1.2-.4.3-.2.6-.5.7-.9v-1h-1.5c-.5,0-1,.1-1.2.3s-.4.5-.4.9.1.6.4.8c.2.2.5.3.9.3Z"/>
    <path class="st9" d="M267.8,691.5v.9h-.2c-.4,0-.7,0-1,.3-.3.2-.6.5-.8.9-.2.4-.3.9-.3,1.5v2.5h-.9v-5.9h.9v1.3c.2-.5.5-.9.9-1.1.4-.2.8-.3,1.2-.3h.2Z"/>
    <path class="st9" d="M274.2,697.5h-.9v-3.4c0-.6-.1-1.1-.4-1.4-.3-.3-.6-.5-1-.5s-.6,0-.9.3c-.3.2-.5.5-.7.9-.2.4-.3.9-.3,1.5v2.7h-.9v-5.9h.9v1.2c.2-.5.5-.9.9-1.1s.8-.3,1.2-.3c.7,0,1.2.2,1.6.7.4.4.6,1.1.6,1.9v3.5Z"/>
    <path class="st9" d="M280.6,695.8l.6.6c-.3.4-.7.8-1.1,1s-.9.3-1.4.3-1.1-.1-1.6-.4c-.5-.3-.8-.6-1.1-1.1s-.4-1-.4-1.6.1-1.1.4-1.6c.3-.5.6-.8,1-1.1.4-.3.9-.4,1.5-.4s1,.1,1.4.4c.4.3.7.6,1,1.1.2.5.3,1,.3,1.6v.4h-4.6c0,.6.3,1.1.7,1.5s.8.6,1.4.6.7,0,1-.3.6-.4.8-.8ZM278.6,692.2c-.5,0-.9.2-1.3.5-.3.4-.6.8-.6,1.4h3.7c0-.6-.2-1-.6-1.4-.3-.3-.7-.5-1.2-.5Z"/>
    <path class="st9" d="M284.7,697.7c-.4,0-.8,0-1.1-.2-.3-.2-.6-.4-.8-.7s-.3-.6-.3-1c0-.6.2-1.1.7-1.4.5-.4,1.1-.5,1.9-.5h1.7c0-.5-.1-.9-.5-1.2-.3-.3-.7-.4-1.2-.4s-1.3.3-1.7.9l-.6-.6c.7-.7,1.5-1.1,2.4-1.1s.9,0,1.3.3.7.5.9.8c.2.4.3.8.3,1.3v3.7h-.9v-.8c-.2.3-.5.5-.9.7-.4.2-.8.3-1.2.3ZM284.8,696.9c.5,0,.9-.1,1.2-.4.3-.2.6-.5.7-.9v-1h-1.5c-.5,0-1,.1-1.2.3s-.4.5-.4.9.1.6.4.8c.2.2.5.3.9.3Z"/>
    <path class="st9" d="M294.6,697.5h-.9v-.9c-.2.3-.5.6-.8.8-.3.2-.7.3-1.2.3-.7,0-1.2-.2-1.6-.6-.4-.4-.6-1-.6-1.8v-3.6h.9v3.5c0,.6.1,1,.4,1.3.3.3.6.4,1.1.4s.8-.1,1.1-.4.6-.6.7-1v-3.9h.9v5.9Z"/>
    <path class="st9" d="M296.9,699.2h-.6c.4-.5.6-1.1.7-1.6-.2,0-.3,0-.4-.2s-.2-.3-.2-.5,0-.4.2-.5c.1-.1.3-.2.5-.2s.4,0,.5.2c.1.1.2.3.2.5,0,.4,0,.8-.2,1.2s-.4.8-.6,1.1Z"/>
    <path class="st9" d="M306.2,697.7c-.6,0-1.2-.1-1.7-.3-.5-.2-1-.5-1.3-.9s-.7-.9-.9-1.4-.3-1.1-.3-1.8.1-1.2.3-1.8.5-1,.9-1.4c.4-.4.8-.7,1.3-.9.5-.2,1.1-.3,1.7-.3s1.2.1,1.7.3c.5.2,1,.5,1.3.9.4.4.7.9.9,1.4.2.5.3,1.1.3,1.8s-.1,1.2-.3,1.8c-.2.5-.5,1-.9,1.4l.9,1-.6.6-.9-1c-.3.2-.7.4-1.1.6-.4.1-.8.2-1.3.2ZM306.2,696.8c.4,0,.7,0,1-.1.3,0,.6-.2.8-.4l-1.3-1.4.6-.6,1.3,1.4c.3-.3.5-.7.6-1.1.1-.4.2-.9.2-1.4s-.1-1.3-.4-1.9c-.3-.5-.6-1-1.1-1.3-.5-.3-1-.5-1.7-.5s-1.2.2-1.7.5c-.5.3-.9.7-1.1,1.3-.3.5-.4,1.2-.4,1.9s.1,1.3.4,1.9c.3.5.6,1,1.1,1.3.5.3,1,.5,1.7.5Z"/>
    <path class="st9" d="M317.2,697.5h-.9v-.9c-.2.3-.5.6-.8.8-.3.2-.7.3-1.2.3-.7,0-1.2-.2-1.6-.6-.4-.4-.6-1-.6-1.8v-3.6h.9v3.5c0,.6.1,1,.4,1.3.3.3.6.4,1.1.4s.8-.1,1.1-.4.6-.6.7-1v-3.9h.9v5.9Z"/>
    <path class="st9" d="M323.7,695.8l.6.6c-.3.4-.7.8-1.1,1s-.9.3-1.4.3-1.1-.1-1.6-.4c-.5-.3-.8-.6-1.1-1.1s-.4-1-.4-1.6.1-1.1.4-1.6c.3-.5.6-.8,1-1.1.4-.3.9-.4,1.5-.4s1,.1,1.4.4c.4.3.7.6,1,1.1.2.5.3,1,.3,1.6v.4h-4.6c0,.6.3,1.1.7,1.5s.8.6,1.4.6.7,0,1-.3.6-.4.8-.8ZM321.7,692.2c-.5,0-.9.2-1.3.5-.3.4-.6.8-.6,1.4h3.7c0-.6-.2-1-.6-1.4-.3-.3-.7-.5-1.2-.5ZM323.4,688.4l-1.5,2.1h-.8l1.3-2.1h1Z"/>
    <path class="st9" d="M327,697.5h-.9v-8.6h.9v3.8c.2-.4.5-.7.9-.9.4-.2.8-.3,1.3-.3s1,.1,1.4.4c.4.3.7.6,1,1.1.2.5.4,1,.4,1.6s-.1,1.1-.4,1.6-.6.8-1,1.1c-.4.3-.9.4-1.5.4s-.9-.1-1.2-.3-.7-.5-.9-.8v.9ZM327,694.7v.8c.1.4.4.8.7,1,.4.3.8.4,1.2.4s.8,0,1-.3.5-.5.7-.8c.2-.4.3-.8.3-1.2s0-.9-.2-1.2c-.2-.4-.4-.6-.7-.8-.3-.2-.6-.3-1-.3s-.7.1-1,.3c-.3.2-.5.5-.7.9s-.3.8-.3,1.3Z"/>
    <path class="st9" d="M338.1,695.8l.6.6c-.3.4-.7.8-1.1,1s-.9.3-1.4.3-1.1-.1-1.6-.4c-.5-.3-.8-.6-1.1-1.1s-.4-1-.4-1.6.1-1.1.4-1.6c.3-.5.6-.8,1-1.1.4-.3.9-.4,1.5-.4s1,.1,1.4.4c.4.3.7.6,1,1.1.2.5.3,1,.3,1.6v.4h-4.6c0,.6.3,1.1.7,1.5s.8.6,1.4.6.7,0,1-.3.6-.4.8-.8ZM336.2,692.2c-.5,0-.9.2-1.3.5-.3.4-.6.8-.6,1.4h3.7c0-.6-.2-1-.6-1.4-.3-.3-.7-.5-1.2-.5Z"/>
    <path class="st9" d="M344.9,695.9l.6.6c-.6.8-1.4,1.2-2.4,1.2s-1.1-.1-1.5-.4c-.4-.3-.8-.6-1-1.1-.3-.5-.4-1-.4-1.6s.1-1.2.4-1.6c.3-.5.6-.8,1.1-1.1.4-.3,1-.4,1.5-.4,1,0,1.8.4,2.3,1.2l-.7.6c-.2-.3-.4-.5-.7-.7-.3-.2-.6-.3-1-.3-.6,0-1.1.2-1.4.6-.4.4-.6,1-.6,1.7s.2,1.3.6,1.7.9.6,1.5.6,1.3-.3,1.7-1Z"/>
    <path class="st9" d="M346.4,699c.6-.8,1-1.7,1.2-2.5.3-.9.4-1.8.4-2.6s-.1-1.8-.4-2.6c-.3-.8-.7-1.7-1.2-2.5h.9c.6.7,1,1.5,1.2,2.4.3.9.4,1.8.4,2.7s-.1,1.9-.4,2.8c-.3.9-.7,1.7-1.2,2.4h-.9Z"/>
    <path class="st9" d="M358.6,694.7h-6v-.8h6v.8Z"/>
    <path class="st9" d="M367.4,697.5h-5.4v-.8l2.8-2.9c.4-.4.7-.8.9-1.1.2-.3.4-.6.5-.9,0-.3.1-.5.1-.8,0-.5-.1-.8-.4-1.1-.3-.3-.7-.4-1.2-.4s-.9.1-1.3.3c-.4.2-.7.6-1,1.1l-.7-.6c.7-1.1,1.7-1.7,2.9-1.7s.9,0,1.3.3c.4.2.7.5.9.8.2.3.3.8.3,1.2s0,.7-.2,1-.3.7-.6,1-.7.8-1.2,1.4l-2.2,2.3h4.2v.8Z"/>
    <path class="st9" d="M371.6,697.7c-.6,0-1.2-.2-1.6-.5-.4-.4-.8-.9-1-1.5-.2-.7-.4-1.5-.4-2.4s.1-1.7.4-2.4c.2-.7.6-1.2,1-1.5.4-.4,1-.5,1.6-.5s1.2.2,1.6.5c.4.4.8.9,1,1.5.2.7.4,1.5.4,2.4s-.1,1.7-.4,2.4c-.2.7-.6,1.2-1,1.5-.4.4-1,.5-1.6.5ZM371.6,696.9c.6,0,1.1-.3,1.5-1,.3-.6.5-1.5.5-2.7s-.2-2.1-.5-2.7c-.3-.6-.8-1-1.5-1s-1.1.3-1.5,1c-.3.6-.5,1.5-.5,2.7s.2,2.1.5,2.7c.3.6.8,1,1.5,1Z"/>
    <path class="st9" d="M381.6,697.5h-5.4v-.8l2.8-2.9c.4-.4.7-.8.9-1.1.2-.3.4-.6.5-.9,0-.3.1-.5.1-.8,0-.5-.1-.8-.4-1.1-.3-.3-.7-.4-1.2-.4s-.9.1-1.3.3c-.4.2-.7.6-1,1.1l-.7-.6c.7-1.1,1.7-1.7,2.9-1.7s.9,0,1.3.3c.4.2.7.5.9.8.2.3.3.8.3,1.2s0,.7-.2,1-.3.7-.6,1-.7.8-1.2,1.4l-2.2,2.3h4.2v.8Z"/>
    <path class="st9" d="M387.7,697.5h-.9v-2.1h-4.4v-.8l4.4-5.6h.9v5.6h1.2v.8h-1.2v2.1ZM386.7,690.1l-3.4,4.4h3.4v-4.4Z"/>
    <path class="st9" d="M24.5,710.2c0-.3,0-.5.2-.7s.3-.4.5-.5c.2-.1.5-.2.7-.2s.5,0,.7.2.4.3.5.5c.1.2.2.5.2.7s0,.5-.2.7c-.1.2-.3.4-.5.5-.2.1-.5.2-.7.2s-.5,0-.7-.2c-.2-.1-.4-.3-.5-.5s-.2-.5-.2-.7Z"/>
    <path class="st9" d="M49.2,711.4l.7.7c-.3.5-.8.9-1.4,1.2-.6.3-1.2.4-1.8.4s-1.1-.1-1.6-.3c-.5-.2-.9-.5-1.3-.9-.4-.4-.7-.9-.9-1.4s-.3-1.1-.3-1.8.1-1.2.3-1.8.5-1,.9-1.4c.4-.4.8-.7,1.3-.9.5-.2,1-.3,1.6-.3s1.3.1,1.8.4c.5.3,1,.7,1.4,1.2l-.7.7c-.6-1-1.4-1.4-2.5-1.4s-1.1.2-1.6.5c-.5.3-.8.7-1.1,1.3-.3.5-.4,1.2-.4,1.9s.1,1.3.4,1.9c.3.5.6,1,1.1,1.3.5.3,1,.5,1.6.5s1-.1,1.4-.4c.4-.2.8-.6,1.1-1.1Z"/>
    <path class="st9" d="M56,711.8l.6.6c-.3.4-.7.8-1.1,1-.4.2-.9.3-1.4.3s-1.1-.1-1.6-.4c-.5-.3-.8-.6-1.1-1.1s-.4-1-.4-1.6.1-1.1.4-1.6c.3-.5.6-.8,1-1.1.4-.3.9-.4,1.5-.4s1,.1,1.4.4c.4.3.7.6,1,1.1.2.5.3,1,.3,1.6v.4h-4.6c0,.6.3,1.1.7,1.5s.9.6,1.4.6.7,0,1-.3c.3-.2.6-.4.8-.8ZM54,708.2c-.5,0-.9.2-1.3.5-.3.4-.6.8-.6,1.4h3.7c0-.6-.2-1-.6-1.4-.3-.3-.7-.5-1.2-.5Z"/>
    <path class="st9" d="M61.6,707.5v.9h-.2c-.4,0-.7,0-1,.3-.3.2-.6.5-.8.9s-.3.9-.3,1.5v2.5h-.9v-5.9h.9v1.3c.2-.5.5-.9.9-1.1s.8-.3,1.2-.3h.2Z"/>
    <path class="st9" d="M66,713.5h-1.3c-.4,0-.7-.1-.9-.3-.2-.2-.3-.6-.3-1v-3.8h-1.1v-.8h1.1v-1.7h.9v1.7h1.6v.8h-1.6v3.7c0,.4.2.6.6.6h1.1v.8Z"/>
    <path class="st9" d="M68.6,705.4c0,.2,0,.3-.2.5s-.3.2-.5.2-.3,0-.5-.2c-.1-.1-.2-.3-.2-.5s0-.4.2-.5c.1-.1.3-.2.5-.2s.3,0,.5.2.2.3.2.5ZM68.4,713.5h-.9v-5.9h.9v5.9Z"/>
    <path class="st9" d="M71.9,713.5h-.9v-5.1h-1.1v-.8h1.1v-1.3c0-1,.5-1.4,1.4-1.4h1.2v.8h-.9c-.2,0-.4,0-.5.2-.1.1-.2.3-.2.6v1.2h1.6v.8h-1.6v5.1Z"/>
    <path class="st9" d="M75.8,705.4c0,.2,0,.3-.2.5s-.3.2-.5.2-.3,0-.5-.2c-.1-.1-.2-.3-.2-.5s0-.4.2-.5c.1-.1.3-.2.5-.2s.3,0,.5.2.2.3.2.5ZM75.6,713.5h-.9v-5.9h.9v5.9Z"/>
    <path class="st9" d="M81.9,711.9l.6.6c-.6.8-1.4,1.2-2.4,1.2s-1.1-.1-1.5-.4c-.4-.3-.8-.6-1-1.1-.3-.5-.4-1-.4-1.6s.1-1.2.4-1.6c.3-.5.6-.8,1.1-1.1.4-.3,1-.4,1.5-.4,1,0,1.8.4,2.3,1.2l-.7.6c-.2-.3-.4-.5-.7-.7s-.6-.3-1-.3c-.6,0-1.1.2-1.4.6-.4.4-.6,1-.6,1.7s.2,1.3.6,1.7c.4.4.9.6,1.5.6s1.3-.3,1.7-1Z"/>
    <path class="st9" d="M85.7,713.7c-.4,0-.8,0-1.1-.2-.3-.2-.6-.4-.8-.7-.2-.3-.3-.6-.3-1,0-.6.2-1.1.7-1.4.5-.4,1.1-.5,1.9-.5h1.7c0-.5-.1-.9-.4-1.2-.3-.3-.7-.4-1.2-.4s-1.3.3-1.7.9l-.6-.6c.7-.7,1.5-1.1,2.4-1.1s.9,0,1.3.3.7.5.9.8c.2.4.3.8.3,1.3v3.7h-.9v-.8c-.2.3-.5.5-.9.7s-.8.3-1.2.3ZM85.8,712.9c.5,0,.9-.1,1.2-.4.3-.2.6-.5.7-.9v-1h-1.5c-.5,0-1,.1-1.2.3s-.4.5-.4.9.1.6.4.8c.2.2.5.3.9.3Z"/>
    <path class="st9" d="M93.7,713.5h-1.3c-.4,0-.7-.1-.9-.3-.2-.2-.3-.6-.3-1v-3.8h-1.1v-.8h1.1v-1.7h.9v1.7h1.6v.8h-1.6v3.7c0,.4.2.6.6.6h1.1v.8Z"/>
    <path class="st9" d="M102.4,713.5v-.9c-.2.3-.5.6-.9.8s-.8.3-1.2.3-1-.1-1.5-.4c-.4-.3-.8-.6-1-1.1s-.4-1-.4-1.6.1-1.1.4-1.6c.2-.5.6-.8,1-1.1.4-.3.9-.4,1.4-.4s.9.1,1.3.3.7.5.9.9v-3.8h.9v8.6h-.9ZM98.5,710.5c0,.5,0,.9.3,1.2.2.4.4.6.7.8.3.2.7.3,1,.3s.9-.1,1.2-.4c.4-.3.6-.6.7-1v-.8c0-.5,0-.9-.3-1.3s-.4-.7-.7-.9c-.3-.2-.6-.3-1-.3s-.7.1-1,.3c-.3.2-.5.5-.7.8-.2.4-.3.8-.3,1.2Z"/>
    <path class="st9" d="M105.6,707.6h-.6c.2-.3.3-.5.5-.8.1-.3.2-.5.2-.8-.2,0-.3,0-.4-.2-.1-.1-.2-.3-.2-.5s0-.4.2-.5.3-.2.5-.2.4,0,.5.2.2.3.2.6c0,.3,0,.7-.2,1.1-.2.4-.4.8-.6,1.1Z"/>
    <path class="st9" d="M112.2,711.8l.6.6c-.3.4-.7.8-1.1,1-.4.2-.9.3-1.4.3s-1.1-.1-1.6-.4c-.5-.3-.8-.6-1.1-1.1s-.4-1-.4-1.6.1-1.1.4-1.6c.3-.5.6-.8,1-1.1.4-.3.9-.4,1.5-.4s1,.1,1.4.4c.4.3.7.6,1,1.1.2.5.3,1,.3,1.6v.4h-4.6c0,.6.3,1.1.7,1.5s.9.6,1.4.6.7,0,1-.3c.3-.2.6-.4.8-.8ZM110.2,708.2c-.5,0-.9.2-1.3.5-.3.4-.6.8-.6,1.4h3.7c0-.6-.2-1-.6-1.4-.3-.3-.7-.5-1.2-.5ZM111.9,704.4l-1.5,2.1h-.8l1.3-2.1h1Z"/>
    <path class="st9" d="M119.2,715.8v-3.2c-.2.3-.5.6-.8.8-.4.2-.8.3-1.2.3s-1-.1-1.5-.4c-.4-.3-.8-.6-1-1.1s-.4-1-.4-1.6.1-1.1.4-1.6c.2-.5.6-.8,1-1.1.4-.3.9-.4,1.4-.4s.9.1,1.3.3c.4.2.7.5.9.9v-1.1h.9v8.2h-.9ZM115.2,710.5c0,.5,0,.9.3,1.2.2.4.4.6.7.8.3.2.7.3,1,.3s.9-.1,1.2-.4c.4-.3.6-.6.7-1v-.8c0-.5,0-.9-.3-1.3s-.4-.7-.7-.9c-.3-.2-.6-.3-1-.3s-.7.1-1,.3c-.3.2-.5.5-.7.8-.2.4-.3.8-.3,1.2Z"/>
    <path class="st9" d="M127.1,713.5h-.9v-.9c-.2.3-.5.6-.8.8-.3.2-.7.3-1.2.3-.7,0-1.2-.2-1.6-.6-.4-.4-.6-1-.6-1.8v-3.6h.9v3.5c0,.6.1,1,.4,1.3.3.3.6.4,1.1.4s.8-.1,1.1-.4.6-.6.7-1v-3.9h.9v5.9Z"/>
    <path class="st9" d="M130.3,705.4c0,.2,0,.3-.2.5s-.3.2-.5.2-.3,0-.5-.2c-.1-.1-.2-.3-.2-.5s0-.4.2-.5c.1-.1.3-.2.5-.2s.3,0,.5.2.2.3.2.5ZM130.1,713.5h-.9v-5.9h.9v5.9Z"/>
    <path class="st9" d="M134.8,713.5h-.9l-2.4-5.9h1l1.9,4.9,1.9-4.9h.9l-2.4,5.9Z"/>
    <path class="st9" d="M140,713.7c-.4,0-.8,0-1.1-.2-.3-.2-.6-.4-.8-.7-.2-.3-.3-.6-.3-1,0-.6.2-1.1.7-1.4.5-.4,1.1-.5,1.9-.5h1.7c0-.5-.1-.9-.4-1.2-.3-.3-.7-.4-1.2-.4s-1.3.3-1.7.9l-.6-.6c.7-.7,1.5-1.1,2.4-1.1s.9,0,1.3.3.7.5.9.8c.2.4.3.8.3,1.3v3.7h-.9v-.8c-.2.3-.5.5-.9.7s-.8.3-1.2.3ZM140.1,712.9c.5,0,.9-.1,1.2-.4.3-.2.6-.5.7-.9v-1h-1.5c-.5,0-1,.1-1.2.3s-.4.5-.4.9.1.6.4.8c.2.2.5.3.9.3Z"/>
    <path class="st9" d="M145.8,713.5h-.9v-8.6h.9v8.6Z"/>
    <path class="st9" d="M152.3,711.8l.6.6c-.3.4-.7.8-1.1,1s-.9.3-1.4.3-1.1-.1-1.6-.4c-.5-.3-.8-.6-1.1-1.1s-.4-1-.4-1.6.1-1.1.4-1.6c.3-.5.6-.8,1-1.1.4-.3.9-.4,1.5-.4s1,.1,1.4.4c.4.3.7.6,1,1.1.2.5.3,1,.3,1.6v.4h-4.6c0,.6.3,1.1.7,1.5s.8.6,1.4.6.7,0,1-.3.6-.4.8-.8ZM150.3,708.2c-.5,0-.9.2-1.3.5-.3.4-.6.8-.6,1.4h3.7c0-.6-.2-1-.6-1.4-.3-.3-.7-.5-1.2-.5Z"/>
    <path class="st9" d="M159.9,713.5h-.9v-3.4c0-.6-.1-1.1-.4-1.4-.3-.3-.6-.5-1-.5s-.6,0-.9.3c-.3.2-.5.5-.7.9-.2.4-.3.9-.3,1.5v2.7h-.9v-5.9h.9v1.2c.2-.5.5-.9.9-1.1s.8-.3,1.2-.3c.7,0,1.2.2,1.6.7.4.4.6,1.1.6,1.9v3.5Z"/>
    <path class="st9" d="M166.1,711.9l.6.6c-.6.8-1.4,1.2-2.4,1.2s-1.1-.1-1.5-.4c-.4-.3-.8-.6-1-1.1-.3-.5-.4-1-.4-1.6s.1-1.2.4-1.6c.3-.5.6-.8,1.1-1.1.4-.3,1-.4,1.5-.4,1,0,1.8.4,2.3,1.2l-.7.6c-.2-.3-.4-.5-.7-.7-.3-.2-.6-.3-1-.3-.6,0-1.1.2-1.4.6-.4.4-.6,1-.6,1.7s.2,1.3.6,1.7.9.6,1.5.6,1.3-.3,1.7-1Z"/>
    <path class="st9" d="M172.5,711.8l.6.6c-.3.4-.7.8-1.1,1s-.9.3-1.4.3-1.1-.1-1.6-.4c-.5-.3-.8-.6-1.1-1.1s-.4-1-.4-1.6.1-1.1.4-1.6c.3-.5.6-.8,1-1.1.4-.3.9-.4,1.5-.4s1,.1,1.4.4c.4.3.7.6,1,1.1.2.5.3,1,.3,1.6v.4h-4.6c0,.6.3,1.1.7,1.5s.8.6,1.4.6.7,0,1-.3.6-.4.8-.8ZM170.5,708.2c-.5,0-.9.2-1.3.5-.3.4-.6.8-.6,1.4h3.7c0-.6-.2-1-.6-1.4-.3-.3-.7-.5-1.2-.5Z"/>
    <path class="st9" d="M182.1,711.8l.6.6c-.3.4-.7.8-1.1,1s-.9.3-1.4.3-1.1-.1-1.6-.4c-.5-.3-.8-.6-1.1-1.1s-.4-1-.4-1.6.1-1.1.4-1.6c.3-.5.6-.8,1-1.1.4-.3.9-.4,1.5-.4s1,.1,1.4.4c.4.3.7.6,1,1.1.2.5.3,1,.3,1.6v.4h-4.6c0,.6.3,1.1.7,1.5s.8.6,1.4.6.7,0,1-.3.6-.4.8-.8ZM180.1,708.2c-.5,0-.9.2-1.3.5-.3.4-.6.8-.6,1.4h3.7c0-.6-.2-1-.6-1.4-.3-.3-.7-.5-1.2-.5ZM181.8,704.4l-1.5,2.1h-.8l1.3-2.1h1Z"/>
    <path class="st9" d="M187.4,713.5h-1.3c-.4,0-.7-.1-.9-.3-.2-.2-.3-.6-.3-1v-3.8h-1.1v-.8h1.1v-1.7h.9v1.7h1.6v.8h-1.6v3.7c0,.4.2.6.6.6h1.1v.8Z"/>
    <path class="st9" d="M193.8,713.5h-.9v-.9c-.2.3-.5.6-.8.8-.3.2-.7.3-1.2.3-.7,0-1.2-.2-1.6-.6-.4-.4-.6-1-.6-1.8v-3.6h.9v3.5c0,.6.1,1,.4,1.3.3.3.6.4,1.1.4s.8-.1,1.1-.4.6-.6.7-1v-3.9h.9v5.9Z"/>
    <path class="st9" d="M200.5,713.5v-.9c-.2.3-.5.6-.9.8s-.8.3-1.2.3-1-.1-1.5-.4c-.4-.3-.8-.6-1-1.1s-.4-1-.4-1.6.1-1.1.4-1.6c.2-.5.6-.8,1-1.1.4-.3.9-.4,1.4-.4s.9.1,1.3.3.7.5.9.9v-3.8h.9v8.6h-.9ZM196.5,710.5c0,.5,0,.9.3,1.2.2.4.4.6.7.8s.7.3,1,.3.9-.1,1.2-.4c.4-.3.6-.6.7-1v-.8c0-.5,0-.9-.3-1.3s-.4-.7-.7-.9c-.3-.2-.6-.3-1-.3s-.7.1-1,.3c-.3.2-.5.5-.7.8-.2.4-.3.8-.3,1.2Z"/>
    <path class="st9" d="M207.9,711.8l.6.6c-.3.4-.7.8-1.1,1s-.9.3-1.4.3-1.1-.1-1.6-.4c-.5-.3-.8-.6-1.1-1.1s-.4-1-.4-1.6.1-1.1.4-1.6c.3-.5.6-.8,1-1.1.4-.3.9-.4,1.5-.4s1,.1,1.4.4c.4.3.7.6,1,1.1.2.5.3,1,.3,1.6v.4h-4.6c0,.6.3,1.1.7,1.5s.8.6,1.4.6.7,0,1-.3.6-.4.8-.8ZM205.9,708.2c-.5,0-.9.2-1.3.5-.3.4-.6.8-.6,1.4h3.7c0-.6-.2-1-.6-1.4-.3-.3-.7-.5-1.2-.5Z"/>
    <path class="st9" d="M209.6,712.6l.6-.6c.3.3.5.5.9.7s.7.3,1.1.3.8,0,1-.3c.3-.2.4-.5.4-.8s-.1-.5-.3-.6c-.2-.2-.6-.3-1.2-.4-.8-.1-1.4-.3-1.8-.6-.3-.3-.5-.6-.5-1.1s.2-1,.6-1.3c.4-.3,1-.5,1.6-.5s.9,0,1.3.3c.4.2.7.5,1,.8l-.6.6c-.2-.3-.5-.5-.8-.7s-.6-.3-1-.3-.7,0-1,.3-.4.4-.4.7.1.4.3.5.6.2,1.1.3c.9.1,1.5.3,1.8.6.4.3.5.7.5,1.2s-.1.7-.3,1-.5.5-.9.7-.8.2-1.2.2-1.1,0-1.5-.3c-.4-.2-.8-.5-1.1-.8Z"/>
    <path class="st9" d="M218.2,712.6l.6-.6c.3.3.5.5.9.7s.7.3,1.1.3.8,0,1-.3c.3-.2.4-.5.4-.8s-.1-.5-.3-.6c-.2-.2-.6-.3-1.2-.4-.8-.1-1.4-.3-1.8-.6-.3-.3-.5-.6-.5-1.1s.2-1,.6-1.3c.4-.3,1-.5,1.6-.5s.9,0,1.3.3c.4.2.7.5,1,.8l-.6.6c-.2-.3-.5-.5-.8-.7s-.6-.3-1-.3-.7,0-1,.3-.4.4-.4.7.1.4.3.5.6.2,1.1.3c.9.1,1.5.3,1.8.6.4.3.5.7.5,1.2s-.1.7-.3,1-.5.5-.9.7-.8.2-1.2.2-1.1,0-1.5-.3c-.4-.2-.8-.5-1.1-.8Z"/>
    <path class="st9" d="M229.3,711.8l.6.6c-.3.4-.7.8-1.1,1s-.9.3-1.4.3-1.1-.1-1.6-.4c-.5-.3-.8-.6-1.1-1.1s-.4-1-.4-1.6.1-1.1.4-1.6c.3-.5.6-.8,1-1.1.4-.3.9-.4,1.5-.4s1,.1,1.4.4c.4.3.7.6,1,1.1.2.5.3,1,.3,1.6v.4h-4.6c0,.6.3,1.1.7,1.5s.8.6,1.4.6.7,0,1-.3.6-.4.8-.8ZM227.3,708.2c-.5,0-.9.2-1.3.5-.3.4-.6.8-.6,1.4h3.7c0-.6-.2-1-.6-1.4-.3-.3-.7-.5-1.2-.5Z"/>
    <path class="st9" d="M236,711.9l.6.6c-.6.8-1.4,1.2-2.4,1.2s-1.1-.1-1.5-.4c-.4-.3-.8-.6-1-1.1-.3-.5-.4-1-.4-1.6s.1-1.2.4-1.6c.3-.5.6-.8,1.1-1.1.4-.3,1-.4,1.5-.4,1,0,1.8.4,2.3,1.2l-.7.6c-.2-.3-.4-.5-.7-.7-.3-.2-.6-.3-1-.3-.6,0-1.1.2-1.4.6-.4.4-.6,1-.6,1.7s.2,1.3.6,1.7.9.6,1.5.6,1.3-.3,1.7-1Z"/>
    <path class="st9" d="M240.5,713.7c-.6,0-1.1-.1-1.5-.4-.4-.3-.8-.6-1-1.1s-.4-1-.4-1.6.1-1.1.4-1.6c.3-.5.6-.8,1-1.1.4-.3,1-.4,1.5-.4s1.1.1,1.5.4c.4.3.8.6,1,1.1.3.5.4,1,.4,1.6s-.1,1.1-.4,1.6c-.3.5-.6.8-1,1.1-.4.3-1,.4-1.5.4ZM240.5,712.9c.4,0,.7,0,1-.3s.5-.5.7-.8c.2-.4.3-.8.3-1.2s0-.9-.3-1.2-.4-.6-.7-.8c-.3-.2-.6-.3-1-.3s-.7.1-1,.3c-.3.2-.5.5-.7.8s-.3.8-.3,1.2,0,.9.3,1.2c.2.4.4.6.7.8.3.2.6.3,1,.3Z"/>
    <path class="st9" d="M250.3,713.5h-.9v-3.4c0-.6-.1-1.1-.4-1.4-.3-.3-.6-.5-1-.5s-.6,0-.9.3c-.3.2-.5.5-.7.9-.2.4-.3.9-.3,1.5v2.7h-.9v-5.9h.9v1.2c.2-.5.5-.9.9-1.1s.8-.3,1.2-.3c.7,0,1.2.2,1.6.7.4.4.6,1.1.6,1.9v3.5Z"/>
    <path class="st9" d="M256.8,713.5v-.9c-.2.3-.5.6-.9.8s-.8.3-1.2.3-1-.1-1.5-.4c-.4-.3-.8-.6-1-1.1s-.4-1-.4-1.6.1-1.1.4-1.6c.2-.5.6-.8,1-1.1.4-.3.9-.4,1.4-.4s.9.1,1.3.3.7.5.9.9v-3.8h.9v8.6h-.9ZM252.8,710.5c0,.5,0,.9.3,1.2.2.4.4.6.7.8s.7.3,1,.3.9-.1,1.2-.4c.4-.3.6-.6.7-1v-.8c0-.5,0-.9-.3-1.3s-.4-.7-.7-.9c-.3-.2-.6-.3-1-.3s-.7.1-1,.3c-.3.2-.5.5-.7.8-.2.4-.3.8-.3,1.2Z"/>
    <path class="st9" d="M261.4,713.7c-.4,0-.8,0-1.1-.2-.3-.2-.6-.4-.8-.7s-.3-.6-.3-1c0-.6.2-1.1.7-1.4.5-.4,1.1-.5,1.9-.5h1.7c0-.5-.1-.9-.5-1.2-.3-.3-.7-.4-1.2-.4s-1.3.3-1.7.9l-.6-.6c.7-.7,1.5-1.1,2.4-1.1s.9,0,1.3.3.7.5.9.8c.2.4.3.8.3,1.3v3.7h-.9v-.8c-.2.3-.5.5-.9.7-.4.2-.8.3-1.2.3ZM261.5,712.9c.5,0,.9-.1,1.2-.4.3-.2.6-.5.7-.9v-1h-1.5c-.5,0-1,.1-1.2.3s-.4.5-.4.9.1.6.4.8c.2.2.5.3.9.3Z"/>
    <path class="st9" d="M267.4,705.4c0,.2,0,.3-.2.5-.1.1-.3.2-.5.2s-.3,0-.5-.2-.2-.3-.2-.5,0-.4.2-.5.3-.2.5-.2.3,0,.5.2c.1.1.2.3.2.5ZM267.2,713.5h-.9v-5.9h.9v5.9Z"/>
    <path class="st9" d="M272.4,707.5v.9h-.2c-.4,0-.7,0-1,.3-.3.2-.6.5-.8.9-.2.4-.3.9-.3,1.5v2.5h-.9v-5.9h.9v1.3c.2-.5.5-.9.9-1.1.4-.2.8-.3,1.2-.3h.2Z"/>
    <path class="st9" d="M278,711.8l.6.6c-.3.4-.7.8-1.1,1s-.9.3-1.4.3-1.1-.1-1.6-.4c-.5-.3-.8-.6-1.1-1.1s-.4-1-.4-1.6.1-1.1.4-1.6c.3-.5.6-.8,1-1.1.4-.3.9-.4,1.5-.4s1,.1,1.4.4c.4.3.7.6,1,1.1.2.5.3,1,.3,1.6v.4h-4.6c0,.6.3,1.1.7,1.5s.8.6,1.4.6.7,0,1-.3.6-.4.8-.8ZM276,708.2c-.5,0-.9.2-1.3.5-.3.4-.6.8-.6,1.4h3.7c0-.6-.2-1-.6-1.4-.3-.3-.7-.5-1.2-.5Z"/>
    <path class="st9" d="M279.7,712.6l.6-.6c.3.3.5.5.9.7s.7.3,1.1.3.8,0,1-.3c.3-.2.4-.5.4-.8s-.1-.5-.3-.6c-.2-.2-.6-.3-1.2-.4-.8-.1-1.4-.3-1.8-.6-.3-.3-.5-.6-.5-1.1s.2-1,.6-1.3c.4-.3,1-.5,1.6-.5s.9,0,1.3.3c.4.2.7.5,1,.8l-.6.6c-.2-.3-.5-.5-.8-.7s-.6-.3-1-.3-.7,0-1,.3-.4.4-.4.7.1.4.3.5.6.2,1.1.3c.9.1,1.5.3,1.8.6.4.3.5.7.5,1.2s-.1.7-.3,1-.5.5-.9.7-.8.2-1.2.2-1.1,0-1.5-.3c-.4-.2-.8-.5-1.1-.8Z"/>
    <path class="st9" d="M295.4,711.4l.7.7c-.3.5-.8.9-1.4,1.2s-1.2.4-1.8.4-1.1-.1-1.6-.3c-.5-.2-.9-.5-1.3-.9s-.7-.9-.9-1.4-.3-1.1-.3-1.8.1-1.2.3-1.8.5-1,.9-1.4.8-.7,1.3-.9c.5-.2,1-.3,1.6-.3s1.3.1,1.8.4c.5.3,1,.7,1.4,1.2l-.7.7c-.6-1-1.4-1.4-2.5-1.4s-1.1.2-1.6.5c-.5.3-.8.7-1.1,1.3-.3.5-.4,1.2-.4,1.9s.1,1.3.4,1.9c.3.5.6,1,1.1,1.3.5.3,1,.5,1.6.5s1-.1,1.4-.4.8-.6,1.1-1.1Z"/>
    <path class="st9" d="M303.3,713.5h-5.4v-8.6h5.4v.8h-4.4v2.9h4.2v.8h-4.2v3.1h4.4v.8Z"/>
    <path class="st9" d="M310.5,713.5h-5.4v-8.6h5.4v.8h-4.4v2.9h4.2v.8h-4.2v3.1h4.4v.8Z"/>
    <path class="st9" d="M311.7,712.1l.7-.7c.8.9,1.7,1.4,2.8,1.4s1.2-.2,1.6-.5c.4-.3.6-.7.6-1.2s-.2-.8-.5-1c-.3-.2-.9-.4-1.8-.6-1.1-.2-1.9-.4-2.3-.8-.5-.4-.7-.9-.7-1.5s.1-.9.4-1.3.6-.7,1.1-.9,1-.3,1.6-.3c1.3,0,2.4.5,3.3,1.5l-.7.7c-.4-.4-.8-.8-1.2-1s-.9-.3-1.4-.3-1.1.1-1.5.4c-.4.3-.5.7-.5,1.2s.2.7.5.9.9.4,1.6.5c1.1.2,2,.5,2.5.8.5.4.7.9.7,1.7s-.1,1-.4,1.3c-.3.4-.7.7-1.1.9-.5.2-1,.3-1.7.3-1.4,0-2.5-.5-3.4-1.6Z"/>
    <path class="st9" d="M325.2,715h-.9c-.6-.7-1-1.5-1.2-2.4s-.4-1.8-.4-2.8.1-1.9.4-2.7.7-1.7,1.2-2.4h.9c-.6.8-1,1.7-1.2,2.5-.3.8-.4,1.7-.4,2.6s.1,1.8.4,2.6c.3.9.7,1.7,1.2,2.5Z"/>
    <path class="st9" d="M330.6,713.7c-.6,0-1.2-.1-1.7-.3-.5-.2-1-.5-1.3-.9s-.7-.9-.9-1.4-.3-1.1-.3-1.8.1-1.2.3-1.8.5-1,.9-1.4c.4-.4.8-.7,1.3-.9.5-.2,1.1-.3,1.7-.3s1.2.1,1.7.3c.5.2,1,.5,1.3.9.4.4.7.9.9,1.4.2.5.3,1.1.3,1.8s-.1,1.2-.3,1.8c-.2.5-.5,1-.9,1.4l.9,1-.6.6-.9-1c-.3.2-.7.4-1.1.6-.4.1-.8.2-1.3.2ZM330.6,712.8c.4,0,.7,0,1-.1.3,0,.6-.2.8-.4l-1.3-1.4.6-.6,1.3,1.4c.3-.3.5-.7.6-1.1.1-.4.2-.9.2-1.4s-.1-1.3-.4-1.9c-.3-.5-.6-1-1.1-1.3-.5-.3-1-.5-1.7-.5s-1.2.2-1.7.5c-.5.3-.9.7-1.1,1.3-.3.5-.4,1.2-.4,1.9s.1,1.3.4,1.9c.3.5.6,1,1.1,1.3.5.3,1,.5,1.7.5Z"/>
    <path class="st9" d="M341.6,713.5h-.9v-.9c-.2.3-.5.6-.8.8-.3.2-.7.3-1.2.3-.7,0-1.2-.2-1.6-.6-.4-.4-.6-1-.6-1.8v-3.6h.9v3.5c0,.6.1,1,.4,1.3.3.3.6.4,1.1.4s.8-.1,1.1-.4.6-.6.7-1v-3.9h.9v5.9Z"/>
    <path class="st9" d="M348.2,711.8l.6.6c-.3.4-.7.8-1.1,1s-.9.3-1.4.3-1.1-.1-1.6-.4c-.5-.3-.8-.6-1.1-1.1s-.4-1-.4-1.6.1-1.1.4-1.6c.3-.5.6-.8,1-1.1.4-.3.9-.4,1.5-.4s1,.1,1.4.4c.4.3.7.6,1,1.1.2.5.3,1,.3,1.6v.4h-4.6c0,.6.3,1.1.7,1.5s.8.6,1.4.6.7,0,1-.3.6-.4.8-.8ZM346.2,708.2c-.5,0-.9.2-1.3.5-.3.4-.6.8-.6,1.4h3.7c0-.6-.2-1-.6-1.4-.3-.3-.7-.5-1.2-.5ZM347.9,704.4l-1.5,2.1h-.8l1.3-2.1h1Z"/>
    <path class="st9" d="M351.5,713.5h-.9v-8.6h.9v3.8c.2-.4.5-.7.9-.9.4-.2.8-.3,1.3-.3s1,.1,1.4.4c.4.3.7.6,1,1.1.2.5.4,1,.4,1.6s-.1,1.1-.4,1.6-.6.8-1,1.1c-.4.3-.9.4-1.5.4s-.9-.1-1.2-.3-.7-.5-.9-.8v.9ZM351.5,710.7v.8c.1.4.4.8.7,1,.4.3.8.4,1.2.4s.8,0,1-.3.5-.5.7-.8c.2-.4.3-.8.3-1.2s0-.9-.2-1.2c-.2-.4-.4-.6-.7-.8-.3-.2-.6-.3-1-.3s-.7.1-1,.3c-.3.2-.5.5-.7.9s-.3.8-.3,1.3Z"/>
    <path class="st9" d="M362.6,711.8l.6.6c-.3.4-.7.8-1.1,1s-.9.3-1.4.3-1.1-.1-1.6-.4c-.5-.3-.8-.6-1.1-1.1s-.4-1-.4-1.6.1-1.1.4-1.6c.3-.5.6-.8,1-1.1.4-.3.9-.4,1.5-.4s1,.1,1.4.4c.4.3.7.6,1,1.1.2.5.3,1,.3,1.6v.4h-4.6c0,.6.3,1.1.7,1.5s.8.6,1.4.6.7,0,1-.3.6-.4.8-.8ZM360.6,708.2c-.5,0-.9.2-1.3.5-.3.4-.6.8-.6,1.4h3.7c0-.6-.2-1-.6-1.4-.3-.3-.7-.5-1.2-.5Z"/>
    <path class="st9" d="M369.3,711.9l.6.6c-.6.8-1.4,1.2-2.4,1.2s-1.1-.1-1.5-.4c-.4-.3-.8-.6-1-1.1-.3-.5-.4-1-.4-1.6s.1-1.2.4-1.6c.3-.5.6-.8,1.1-1.1.4-.3,1-.4,1.5-.4,1,0,1.8.4,2.3,1.2l-.7.6c-.2-.3-.4-.5-.7-.7-.3-.2-.6-.3-1-.3-.6,0-1.1.2-1.4.6-.4.4-.6,1-.6,1.7s.2,1.3.6,1.7.9.6,1.5.6,1.3-.3,1.7-1Z"/>
    <path class="st9" d="M370.9,715c.6-.8,1-1.7,1.2-2.5.3-.9.4-1.8.4-2.6s-.1-1.8-.4-2.6c-.3-.8-.7-1.7-1.2-2.5h.9c.6.7,1,1.5,1.2,2.4.3.9.4,1.8.4,2.7s-.1,1.9-.4,2.8c-.3.9-.7,1.7-1.2,2.4h-.9Z"/>
    <path class="st9" d="M383.1,710.7h-6v-.8h6v.8Z"/>
    <path class="st9" d="M391.9,713.5h-5.4v-.8l2.8-2.9c.4-.4.7-.8.9-1.1.2-.3.4-.6.5-.9,0-.3.1-.5.1-.8,0-.5-.1-.8-.4-1.1-.3-.3-.7-.4-1.2-.4s-.9.1-1.3.3c-.4.2-.7.6-1,1.1l-.7-.6c.7-1.1,1.7-1.7,2.9-1.7s.9,0,1.3.3c.4.2.7.5.9.8.2.3.3.8.3,1.2s0,.7-.2,1-.3.7-.6,1-.7.8-1.2,1.4l-2.2,2.3h4.2v.8Z"/>
    <path class="st9" d="M396.1,713.7c-.6,0-1.2-.2-1.6-.5-.4-.4-.8-.9-1-1.5-.2-.7-.4-1.5-.4-2.4s.1-1.7.4-2.4c.2-.7.6-1.2,1-1.5.4-.4,1-.5,1.6-.5s1.2.2,1.6.5c.4.4.8.9,1,1.5.2.7.4,1.5.4,2.4s-.1,1.7-.4,2.4c-.2.7-.6,1.2-1,1.5-.4.4-1,.5-1.6.5ZM396.1,712.9c.6,0,1.1-.3,1.5-1,.3-.6.5-1.5.5-2.7s-.2-2.1-.5-2.7c-.3-.6-.8-1-1.5-1s-1.1.3-1.5,1c-.3.6-.5,1.5-.5,2.7s.2,2.1.5,2.7c.3.6.8,1,1.5,1Z"/>
    <path class="st9" d="M406.1,713.5h-5.4v-.8l2.8-2.9c.4-.4.7-.8.9-1.1.2-.3.4-.6.5-.9,0-.3.1-.5.1-.8,0-.5-.1-.8-.4-1.1-.3-.3-.7-.4-1.2-.4s-.9.1-1.3.3c-.4.2-.7.6-1,1.1l-.7-.6c.7-1.1,1.7-1.7,2.9-1.7s.9,0,1.3.3c.4.2.7.5.9.8.2.3.3.8.3,1.2s0,.7-.2,1-.3.7-.6,1-.7.8-1.2,1.4l-2.2,2.3h4.2v.8Z"/>
    <path class="st9" d="M409.6,704.9h.9v8.6h-1v-7.5l-2.1,1.7v-1l2.1-1.7Z"/>
    <path class="st9" d="M24.5,726.2c0-.3,0-.5.2-.7s.3-.4.5-.5c.2-.1.5-.2.7-.2s.5,0,.7.2.4.3.5.5c.1.2.2.5.2.7s0,.5-.2.7c-.1.2-.3.4-.5.5-.2.1-.5.2-.7.2s-.5,0-.7-.2c-.2-.1-.4-.3-.5-.5s-.2-.5-.2-.7Z"/>
    <path class="st9" d="M49.2,727.4l.7.7c-.3.5-.8.9-1.4,1.2-.6.3-1.2.4-1.8.4s-1.1-.1-1.6-.3c-.5-.2-.9-.5-1.3-.9-.4-.4-.7-.9-.9-1.4s-.3-1.1-.3-1.8.1-1.2.3-1.8.5-1,.9-1.4c.4-.4.8-.7,1.3-.9.5-.2,1-.3,1.6-.3s1.3.1,1.8.4c.5.3,1,.7,1.4,1.2l-.7.7c-.6-1-1.4-1.4-2.5-1.4s-1.1.2-1.6.5c-.5.3-.8.7-1.1,1.3-.3.5-.4,1.2-.4,1.9s.1,1.3.4,1.9c.3.5.6,1,1.1,1.3.5.3,1,.5,1.6.5s1-.1,1.4-.4c.4-.2.8-.6,1.1-1.1Z"/>
    <path class="st9" d="M56,727.8l.6.6c-.3.4-.7.8-1.1,1-.4.2-.9.3-1.4.3s-1.1-.1-1.6-.4c-.5-.3-.8-.6-1.1-1.1s-.4-1-.4-1.6.1-1.1.4-1.6c.3-.5.6-.8,1-1.1.4-.3.9-.4,1.5-.4s1,.1,1.4.4c.4.3.7.6,1,1.1.2.5.3,1,.3,1.6v.4h-4.6c0,.6.3,1.1.7,1.5s.9.6,1.4.6.7,0,1-.3c.3-.2.6-.4.8-.8ZM54,724.2c-.5,0-.9.2-1.3.5-.3.4-.6.8-.6,1.4h3.7c0-.6-.2-1-.6-1.4-.3-.3-.7-.5-1.2-.5Z"/>
    <path class="st9" d="M61.6,723.5v.9h-.2c-.4,0-.7,0-1,.3-.3.2-.6.5-.8.9s-.3.9-.3,1.5v2.5h-.9v-5.9h.9v1.3c.2-.5.5-.9.9-1.1s.8-.3,1.2-.3h.2Z"/>
    <path class="st9" d="M66,729.5h-1.3c-.4,0-.7-.1-.9-.3-.2-.2-.3-.6-.3-1v-3.8h-1.1v-.8h1.1v-1.7h.9v1.7h1.6v.8h-1.6v3.7c0,.4.2.6.6.6h1.1v.8Z"/>
    <path class="st9" d="M68.6,721.4c0,.2,0,.3-.2.5s-.3.2-.5.2-.3,0-.5-.2c-.1-.1-.2-.3-.2-.5s0-.4.2-.5c.1-.1.3-.2.5-.2s.3,0,.5.2.2.3.2.5ZM68.4,729.5h-.9v-5.9h.9v5.9Z"/>
    <path class="st9" d="M71.9,729.5h-.9v-5.1h-1.1v-.8h1.1v-1.3c0-1,.5-1.4,1.4-1.4h1.2v.8h-.9c-.2,0-.4,0-.5.2-.1.1-.2.3-.2.6v1.2h1.6v.8h-1.6v5.1Z"/>
    <path class="st9" d="M75.8,721.4c0,.2,0,.3-.2.5s-.3.2-.5.2-.3,0-.5-.2c-.1-.1-.2-.3-.2-.5s0-.4.2-.5c.1-.1.3-.2.5-.2s.3,0,.5.2.2.3.2.5ZM75.6,729.5h-.9v-5.9h.9v5.9Z"/>
    <path class="st9" d="M81.9,727.9l.6.6c-.6.8-1.4,1.2-2.4,1.2s-1.1-.1-1.5-.4c-.4-.3-.8-.6-1-1.1-.3-.5-.4-1-.4-1.6s.1-1.2.4-1.6c.3-.5.6-.8,1.1-1.1.4-.3,1-.4,1.5-.4,1,0,1.8.4,2.3,1.2l-.7.6c-.2-.3-.4-.5-.7-.7s-.6-.3-1-.3c-.6,0-1.1.2-1.4.6-.4.4-.6,1-.6,1.7s.2,1.3.6,1.7c.4.4.9.6,1.5.6s1.3-.3,1.7-1Z"/>
    <path class="st9" d="M85.7,729.7c-.4,0-.8,0-1.1-.2-.3-.2-.6-.4-.8-.7-.2-.3-.3-.6-.3-1,0-.6.2-1.1.7-1.4.5-.4,1.1-.5,1.9-.5h1.7c0-.5-.1-.9-.4-1.2-.3-.3-.7-.4-1.2-.4s-1.3.3-1.7.9l-.6-.6c.7-.7,1.5-1.1,2.4-1.1s.9,0,1.3.3.7.5.9.8c.2.4.3.8.3,1.3v3.7h-.9v-.8c-.2.3-.5.5-.9.7s-.8.3-1.2.3ZM85.8,728.9c.5,0,.9-.1,1.2-.4.3-.2.6-.5.7-.9v-1h-1.5c-.5,0-1,.1-1.2.3s-.4.5-.4.9.1.6.4.8c.2.2.5.3.9.3Z"/>
    <path class="st9" d="M93.7,729.5h-1.3c-.4,0-.7-.1-.9-.3-.2-.2-.3-.6-.3-1v-3.8h-1.1v-.8h1.1v-1.7h.9v1.7h1.6v.8h-1.6v3.7c0,.4.2.6.6.6h1.1v.8Z"/>
    <path class="st9" d="M102.4,729.5v-.9c-.2.3-.5.6-.9.8s-.8.3-1.2.3-1-.1-1.5-.4c-.4-.3-.8-.6-1-1.1s-.4-1-.4-1.6.1-1.1.4-1.6c.2-.5.6-.8,1-1.1.4-.3.9-.4,1.4-.4s.9.1,1.3.3.7.5.9.9v-3.8h.9v8.6h-.9ZM98.5,726.5c0,.5,0,.9.3,1.2.2.4.4.6.7.8.3.2.7.3,1,.3s.9-.1,1.2-.4c.4-.3.6-.6.7-1v-.8c0-.5,0-.9-.3-1.3s-.4-.7-.7-.9c-.3-.2-.6-.3-1-.3s-.7.1-1,.3c-.3.2-.5.5-.7.8-.2.4-.3.8-.3,1.2Z"/>
    <path class="st9" d="M105.9,720.7h.6c-.2.3-.3.5-.5.8-.1.3-.2.5-.2.8.2,0,.3,0,.4.2.1.1.2.3.2.5s0,.4-.2.5c-.1.1-.3.2-.5.2s-.4,0-.5-.2c-.1-.1-.2-.3-.2-.5,0-.4,0-.7.2-1.2.2-.4.4-.8.6-1.1Z"/>
    <path class="st9" d="M109.3,729.7c-.4,0-.8,0-1.1-.2-.3-.2-.6-.4-.8-.7-.2-.3-.3-.6-.3-1,0-.6.2-1.1.7-1.4.5-.4,1.1-.5,1.9-.5h1.7c0-.5-.1-.9-.4-1.2-.3-.3-.7-.4-1.2-.4s-1.3.3-1.7.9l-.6-.6c.7-.7,1.5-1.1,2.4-1.1s.9,0,1.3.3.7.5.9.8c.2.4.3.8.3,1.3v3.7h-.9v-.8c-.2.3-.5.5-.9.7s-.8.3-1.2.3ZM109.4,728.9c.5,0,.9-.1,1.2-.4.3-.2.6-.5.7-.9v-1h-1.5c-.5,0-1,.1-1.2.3s-.4.5-.4.9.1.6.4.8c.2.2.5.3.9.3Z"/>
    <path class="st9" d="M113.5,728.6l.6-.6c.3.3.6.5.9.7.3.2.7.3,1.1.3s.8,0,1-.3.4-.5.4-.8-.1-.5-.3-.6-.6-.3-1.2-.4c-.8-.1-1.4-.3-1.8-.6-.3-.3-.5-.6-.5-1.1s.2-1,.6-1.3c.4-.3,1-.5,1.6-.5s.9,0,1.3.3c.4.2.7.5,1,.8l-.6.6c-.2-.3-.5-.5-.8-.7-.3-.2-.6-.3-1-.3s-.7,0-1,.3c-.2.2-.4.4-.4.7s.1.4.3.5c.2.1.6.2,1.1.3.9.1,1.5.3,1.8.6.4.3.5.7.5,1.2s-.1.7-.3,1-.5.5-.9.7-.8.2-1.2.2-1.1,0-1.5-.3c-.4-.2-.8-.5-1.1-.8Z"/>
    <path class="st9" d="M119.4,728.6l.6-.6c.3.3.6.5.9.7.3.2.7.3,1.1.3s.8,0,1-.3.4-.5.4-.8-.1-.5-.3-.6-.6-.3-1.2-.4c-.8-.1-1.4-.3-1.8-.6-.3-.3-.5-.6-.5-1.1s.2-1,.6-1.3c.4-.3,1-.5,1.6-.5s.9,0,1.3.3c.4.2.7.5,1,.8l-.6.6c-.2-.3-.5-.5-.8-.7-.3-.2-.6-.3-1-.3s-.7,0-1,.3c-.2.2-.4.4-.4.7s.1.4.3.5c.2.1.6.2,1.1.3.9.1,1.5.3,1.8.6.4.3.5.7.5,1.2s-.1.7-.3,1-.5.5-.9.7-.8.2-1.2.2-1.1,0-1.5-.3c-.4-.2-.8-.5-1.1-.8Z"/>
    <path class="st9" d="M131,729.5h-.9v-.9c-.2.3-.5.6-.8.8-.3.2-.7.3-1.2.3-.7,0-1.2-.2-1.6-.6-.4-.4-.6-1-.6-1.8v-3.6h.9v3.5c0,.6.1,1,.4,1.3.3.3.6.4,1.1.4s.8-.1,1.1-.4.6-.6.7-1v-3.9h.9v5.9Z"/>
    <path class="st9" d="M136.2,723.5v.9h-.2c-.4,0-.7,0-1,.3-.3.2-.6.5-.8.9s-.3.9-.3,1.5v2.5h-.9v-5.9h.9v1.3c.2-.5.5-.9.9-1.1s.8-.3,1.2-.3h.2Z"/>
    <path class="st9" d="M139.2,729.7c-.4,0-.8,0-1.1-.2-.3-.2-.6-.4-.8-.7-.2-.3-.3-.6-.3-1,0-.6.2-1.1.7-1.4.5-.4,1.1-.5,1.9-.5h1.7c0-.5-.1-.9-.4-1.2-.3-.3-.7-.4-1.2-.4s-1.3.3-1.7.9l-.6-.6c.7-.7,1.5-1.1,2.4-1.1s.9,0,1.3.3.7.5.9.8c.2.4.3.8.3,1.3v3.7h-.9v-.8c-.2.3-.5.5-.9.7s-.8.3-1.2.3ZM139.3,728.9c.5,0,.9-.1,1.2-.4.3-.2.6-.5.7-.9v-1h-1.5c-.5,0-1,.1-1.2.3s-.4.5-.4.9.1.6.4.8c.2.2.5.3.9.3Z"/>
    <path class="st9" d="M149.2,729.5h-.9v-3.4c0-.6-.1-1.1-.4-1.4-.3-.3-.6-.5-1-.5s-.6,0-.9.3c-.3.2-.5.5-.7.9-.2.4-.3.9-.3,1.5v2.7h-.9v-5.9h.9v1.2c.2-.5.5-.9.9-1.1.4-.2.8-.3,1.2-.3.7,0,1.2.2,1.6.7.4.4.6,1.1.6,1.9v3.5Z"/>
    <path class="st9" d="M155.4,727.9l.6.6c-.6.8-1.4,1.2-2.4,1.2s-1.1-.1-1.5-.4c-.4-.3-.8-.6-1-1.1-.3-.5-.4-1-.4-1.6s.1-1.2.4-1.6c.3-.5.6-.8,1.1-1.1.4-.3,1-.4,1.5-.4,1,0,1.8.4,2.3,1.2l-.7.6c-.2-.3-.4-.5-.7-.7-.3-.2-.6-.3-1-.3-.6,0-1.1.2-1.4.6-.4.4-.6,1-.6,1.7s.2,1.3.6,1.7.9.6,1.5.6,1.3-.3,1.7-1Z"/>
    <path class="st9" d="M161.8,727.8l.6.6c-.3.4-.7.8-1.1,1s-.9.3-1.4.3-1.1-.1-1.6-.4c-.5-.3-.8-.6-1.1-1.1s-.4-1-.4-1.6.1-1.1.4-1.6c.3-.5.6-.8,1-1.1.4-.3.9-.4,1.5-.4s1,.1,1.4.4c.4.3.7.6,1,1.1.2.5.3,1,.3,1.6v.4h-4.6c0,.6.3,1.1.7,1.5s.8.6,1.4.6.7,0,1-.3.6-.4.8-.8ZM159.8,724.2c-.5,0-.9.2-1.3.5-.3.4-.6.8-.6,1.4h3.7c0-.6-.2-1-.6-1.4-.3-.3-.7-.5-1.2-.5Z"/>
    <path class="st9" d="M171.2,727.9l.6.6c-.6.8-1.4,1.2-2.4,1.2s-1.1-.1-1.5-.4c-.4-.3-.8-.6-1-1.1-.3-.5-.4-1-.4-1.6s.1-1.2.4-1.6c.3-.5.6-.8,1.1-1.1.4-.3,1-.4,1.5-.4,1,0,1.8.4,2.3,1.2l-.7.6c-.2-.3-.4-.5-.7-.7-.3-.2-.6-.3-1-.3-.6,0-1.1.2-1.4.6-.4.4-.6,1-.6,1.7s.2,1.3.6,1.7.9.6,1.5.6,1.3-.3,1.7-1Z"/>
    <path class="st9" d="M175.7,729.7c-.6,0-1.1-.1-1.5-.4-.4-.3-.8-.6-1-1.1s-.4-1-.4-1.6.1-1.1.4-1.6c.3-.5.6-.8,1-1.1.4-.3,1-.4,1.5-.4s1.1.1,1.5.4c.4.3.8.6,1,1.1.3.5.4,1,.4,1.6s-.1,1.1-.4,1.6c-.3.5-.6.8-1,1.1-.4.3-1,.4-1.5.4ZM175.7,728.9c.4,0,.7,0,1-.3s.5-.5.7-.8c.2-.4.3-.8.3-1.2s0-.9-.3-1.2-.4-.6-.7-.8c-.3-.2-.6-.3-1-.3s-.7.1-1,.3c-.3.2-.5.5-.7.8s-.3.8-.3,1.2,0,.9.3,1.2c.2.4.4.6.7.8.3.2.6.3,1,.3Z"/>
    <path class="st9" d="M185.5,729.5h-.9v-3.4c0-.6-.1-1.1-.4-1.4-.3-.3-.6-.5-1-.5s-.6,0-.9.3c-.3.2-.5.5-.7.9-.2.4-.3.9-.3,1.5v2.7h-.9v-5.9h.9v1.2c.2-.5.5-.9.9-1.1s.8-.3,1.2-.3c.7,0,1.2.2,1.6.7.4.4.6,1.1.6,1.9v3.5Z"/>
    <path class="st9" d="M190.5,729.5h-1.3c-.4,0-.7-.1-.9-.3-.2-.2-.3-.6-.3-1v-3.8h-1.1v-.8h1.1v-1.7h.9v1.7h1.6v.8h-1.6v3.7c0,.4.2.6.6.6h1.1v.8Z"/>
    <path class="st9" d="M195.2,723.5v.9h-.2c-.4,0-.7,0-1,.3-.3.2-.6.5-.8.9-.2.4-.3.9-.3,1.5v2.5h-.9v-5.9h.9v1.3c.2-.5.5-.9.9-1.1.4-.2.8-.3,1.2-.3h.2Z"/>
    <path class="st9" d="M200.7,727.8l.6.6c-.3.4-.7.8-1.1,1s-.9.3-1.4.3-1.1-.1-1.6-.4c-.5-.3-.8-.6-1.1-1.1s-.4-1-.4-1.6.1-1.1.4-1.6c.3-.5.6-.8,1-1.1.4-.3.9-.4,1.5-.4s1,.1,1.4.4c.4.3.7.6,1,1.1.2.5.3,1,.3,1.6v.4h-4.6c0,.6.3,1.1.7,1.5s.8.6,1.4.6.7,0,1-.3.6-.4.8-.8ZM198.7,724.2c-.5,0-.9.2-1.3.5-.3.4-.6.8-.6,1.4h3.7c0-.6-.2-1-.6-1.4-.3-.3-.7-.5-1.2-.5Z"/>
    <path class="st9" d="M206.8,729.5h-.9v-8.6h.9v8.6Z"/>
    <path class="st9" d="M210.4,729.7c-.4,0-.8,0-1.1-.2-.3-.2-.6-.4-.8-.7s-.3-.6-.3-1c0-.6.2-1.1.7-1.4.5-.4,1.1-.5,1.9-.5h1.7c0-.5-.1-.9-.5-1.2-.3-.3-.7-.4-1.2-.4s-1.3.3-1.7.9l-.6-.6c.7-.7,1.5-1.1,2.4-1.1s.9,0,1.3.3.7.5.9.8c.2.4.3.8.3,1.3v3.7h-.9v-.8c-.2.3-.5.5-.9.7-.4.2-.8.3-1.2.3ZM210.6,728.9c.5,0,.9-.1,1.2-.4.3-.2.6-.5.7-.9v-1h-1.5c-.5,0-1,.1-1.2.3s-.4.5-.4.9.1.6.4.8c.2.2.5.3.9.3Z"/>
    <path class="st9" d="M226.9,729.5h-.9v-3.4c0-.6-.1-1.1-.3-1.4-.2-.3-.6-.5-1-.5s-1,.2-1.3.7c-.3.5-.5,1.1-.5,1.9v2.7h-.9v-3.4c0-.6-.1-1.1-.3-1.4-.2-.3-.6-.5-1-.5s-.9.2-1.3.7c-.3.5-.5,1.1-.5,1.9v2.7h-.9v-5.9h.9v1.2c.2-.4.4-.8.7-1,.3-.2.7-.4,1.2-.4s.9.1,1.2.4c.3.3.5.6.7,1.1.2-.5.4-.9.8-1.1.4-.3.8-.4,1.3-.4s1.2.2,1.6.7.6,1.1.6,1.9v3.5Z"/>
    <path class="st9" d="M230.5,729.7c-.4,0-.8,0-1.1-.2-.3-.2-.6-.4-.8-.7s-.3-.6-.3-1c0-.6.2-1.1.7-1.4.5-.4,1.1-.5,1.9-.5h1.7c0-.5-.1-.9-.5-1.2-.3-.3-.7-.4-1.2-.4s-1.3.3-1.7.9l-.6-.6c.7-.7,1.5-1.1,2.4-1.1s.9,0,1.3.3.7.5.9.8c.2.4.3.8.3,1.3v3.7h-.9v-.8c-.2.3-.5.5-.9.7-.4.2-.8.3-1.2.3ZM230.6,728.9c.5,0,.9-.1,1.2-.4.3-.2.6-.5.7-.9v-1h-1.5c-.5,0-1,.1-1.2.3s-.4.5-.4.9.1.6.4.8c.2.2.5.3.9.3Z"/>
    <path class="st9" d="M236.3,729.5h-.9v-8.6h.9v8.6Z"/>
    <path class="st9" d="M240,729.7c-.4,0-.8,0-1.1-.2-.3-.2-.6-.4-.8-.7s-.3-.6-.3-1c0-.6.2-1.1.7-1.4.5-.4,1.1-.5,1.9-.5h1.7c0-.5-.1-.9-.5-1.2-.3-.3-.7-.4-1.2-.4s-1.3.3-1.7.9l-.6-.6c.7-.7,1.5-1.1,2.4-1.1s.9,0,1.3.3.7.5.9.8c.2.4.3.8.3,1.3v3.7h-.9v-.8c-.2.3-.5.5-.9.7-.4.2-.8.3-1.2.3ZM240.1,728.9c.5,0,.9-.1,1.2-.4.3-.2.6-.5.7-.9v-1h-1.5c-.5,0-1,.1-1.2.3s-.4.5-.4.9.1.6.4.8c.2.2.5.3.9.3Z"/>
    <path class="st9" d="M249.4,729.5v-.9c-.2.3-.5.6-.9.8s-.8.3-1.2.3-1-.1-1.5-.4c-.4-.3-.8-.6-1-1.1s-.4-1-.4-1.6.1-1.1.4-1.6c.2-.5.6-.8,1-1.1.4-.3.9-.4,1.4-.4s.9.1,1.3.3.7.5.9.9v-3.8h.9v8.6h-.9ZM245.5,726.5c0,.5,0,.9.3,1.2.2.4.4.6.7.8s.7.3,1,.3.9-.1,1.2-.4c.4-.3.6-.6.7-1v-.8c0-.5,0-.9-.3-1.3s-.4-.7-.7-.9c-.3-.2-.6-.3-1-.3s-.7.1-1,.3c-.3.2-.5.5-.7.8-.2.4-.3.8-.3,1.2Z"/>
    <path class="st9" d="M253.5,721.4c0,.2,0,.3-.2.5-.1.1-.3.2-.5.2s-.3,0-.5-.2-.2-.3-.2-.5,0-.4.2-.5.3-.2.5-.2.3,0,.5.2c.1.1.2.3.2.5ZM253.3,729.5h-.9v-5.9h.9v5.9Z"/>
    <path class="st9" d="M259.8,727.8l.6.6c-.3.4-.7.8-1.1,1s-.9.3-1.4.3-1.1-.1-1.6-.4c-.5-.3-.8-.6-1.1-1.1s-.4-1-.4-1.6.1-1.1.4-1.6c.3-.5.6-.8,1-1.1.4-.3.9-.4,1.5-.4s1,.1,1.4.4c.4.3.7.6,1,1.1.2.5.3,1,.3,1.6v.4h-4.6c0,.6.3,1.1.7,1.5s.8.6,1.4.6.7,0,1-.3.6-.4.8-.8ZM257.9,724.2c-.5,0-.9.2-1.3.5-.3.4-.6.8-.6,1.4h3.7c0-.6-.2-1-.6-1.4-.3-.3-.7-.5-1.2-.5Z"/>
    <path class="st9" d="M267.5,729.7c-.6,0-1.1-.1-1.5-.4-.4-.3-.8-.6-1-1.1s-.4-1-.4-1.6.1-1.1.4-1.6c.3-.5.6-.8,1-1.1.4-.3,1-.4,1.5-.4s1.1.1,1.5.4c.4.3.8.6,1,1.1.3.5.4,1,.4,1.6s-.1,1.1-.4,1.6c-.3.5-.6.8-1,1.1-.4.3-1,.4-1.5.4ZM267.5,728.9c.4,0,.7,0,1-.3s.5-.5.7-.8c.2-.4.3-.8.3-1.2s0-.9-.3-1.2-.4-.6-.7-.8c-.3-.2-.6-.3-1-.3s-.7.1-1,.3c-.3.2-.5.5-.7.8s-.3.8-.3,1.2,0,.9.3,1.2c.2.4.4.6.7.8.3.2.6.3,1,.3Z"/>
    <path class="st9" d="M277.2,729.5h-.9v-.9c-.2.3-.5.6-.8.8-.3.2-.7.3-1.2.3-.7,0-1.2-.2-1.6-.6-.4-.4-.6-1-.6-1.8v-3.6h.9v3.5c0,.6.1,1,.4,1.3.3.3.6.4,1.1.4s.8-.1,1.1-.4.6-.6.7-1v-3.9h.9v5.9Z"/>
    <path class="st9" d="M282.8,729.5h-.9v-8.6h.9v8.6Z"/>
    <path class="st9" d="M289.4,727.8l.6.6c-.3.4-.7.8-1.1,1s-.9.3-1.4.3-1.1-.1-1.6-.4c-.5-.3-.8-.6-1.1-1.1s-.4-1-.4-1.6.1-1.1.4-1.6c.3-.5.6-.8,1-1.1.4-.3.9-.4,1.5-.4s1,.1,1.4.4c.4.3.7.6,1,1.1.2.5.3,1,.3,1.6v.4h-4.6c0,.6.3,1.1.7,1.5s.8.6,1.4.6.7,0,1-.3.6-.4.8-.8ZM287.4,724.2c-.5,0-.9.2-1.3.5-.3.4-.6.8-.6,1.4h3.7c0-.6-.2-1-.6-1.4-.3-.3-.7-.5-1.2-.5Z"/>
    <path class="st9" d="M291.1,728.6l.6-.6c.3.3.5.5.9.7s.7.3,1.1.3.8,0,1-.3c.3-.2.4-.5.4-.8s-.1-.5-.3-.6c-.2-.2-.6-.3-1.2-.4-.8-.1-1.4-.3-1.8-.6-.3-.3-.5-.6-.5-1.1s.2-1,.6-1.3c.4-.3,1-.5,1.6-.5s.9,0,1.3.3c.4.2.7.5,1,.8l-.6.6c-.2-.3-.5-.5-.8-.7s-.6-.3-1-.3-.7,0-1,.3-.4.4-.4.7.1.4.3.5.6.2,1.1.3c.9.1,1.5.3,1.8.6.4.3.5.7.5,1.2s-.1.7-.3,1-.5.5-.9.7-.8.2-1.2.2-1.1,0-1.5-.3c-.4-.2-.8-.5-1.1-.8Z"/>
    <path class="st9" d="M302,729.7c-.4,0-.8,0-1.1-.2-.3-.2-.6-.4-.8-.7s-.3-.6-.3-1c0-.6.2-1.1.7-1.4.5-.4,1.1-.5,1.9-.5h1.7c0-.5-.1-.9-.5-1.2-.3-.3-.7-.4-1.2-.4s-1.3.3-1.7.9l-.6-.6c.7-.7,1.5-1.1,2.4-1.1s.9,0,1.3.3.7.5.9.8c.2.4.3.8.3,1.3v3.7h-.9v-.8c-.2.3-.5.5-.9.7-.4.2-.8.3-1.2.3ZM302.2,728.9c.5,0,.9-.1,1.2-.4.3-.2.6-.5.7-.9v-1h-1.5c-.5,0-1,.1-1.2.3s-.4.5-.4.9.1.6.4.8c.2.2.5.3.9.3Z"/>
    <path class="st9" d="M311.2,727.9l.6.6c-.6.8-1.4,1.2-2.4,1.2s-1.1-.1-1.5-.4c-.4-.3-.8-.6-1-1.1-.3-.5-.4-1-.4-1.6s.1-1.2.4-1.6c.3-.5.6-.8,1.1-1.1.4-.3,1-.4,1.5-.4,1,0,1.8.4,2.3,1.2l-.7.6c-.2-.3-.4-.5-.7-.7-.3-.2-.6-.3-1-.3-.6,0-1.1.2-1.4.6-.4.4-.6,1-.6,1.7s.2,1.3.6,1.7.9.6,1.5.6,1.3-.3,1.7-1Z"/>
    <path class="st9" d="M317.4,727.9l.6.6c-.6.8-1.4,1.2-2.4,1.2s-1.1-.1-1.5-.4c-.4-.3-.8-.6-1-1.1-.3-.5-.4-1-.4-1.6s.1-1.2.4-1.6c.3-.5.6-.8,1.1-1.1.4-.3,1-.4,1.5-.4,1,0,1.8.4,2.3,1.2l-.7.6c-.2-.3-.4-.5-.7-.7-.3-.2-.6-.3-1-.3-.6,0-1.1.2-1.4.6-.4.4-.6,1-.6,1.7s.2,1.3.6,1.7.9.6,1.5.6,1.3-.3,1.7-1Z"/>
    <path class="st9" d="M320.6,721.4c0,.2,0,.3-.2.5-.1.1-.3.2-.5.2s-.3,0-.5-.2-.2-.3-.2-.5,0-.4.2-.5.3-.2.5-.2.3,0,.5.2c.1.1.2.3.2.5ZM320.5,729.5h-.9v-5.9h.9v5.9Z"/>
    <path class="st9" d="M327.1,729.5v-.9c-.2.3-.5.6-.9.8s-.8.3-1.2.3-1-.1-1.5-.4c-.4-.3-.8-.6-1-1.1s-.4-1-.4-1.6.1-1.1.4-1.6c.2-.5.6-.8,1-1.1.4-.3.9-.4,1.4-.4s.9.1,1.3.3.7.5.9.9v-3.8h.9v8.6h-.9ZM323.1,726.5c0,.5,0,.9.3,1.2.2.4.4.6.7.8s.7.3,1,.3.9-.1,1.2-.4c.4-.3.6-.6.7-1v-.8c0-.5,0-.9-.3-1.3s-.4-.7-.7-.9c-.3-.2-.6-.3-1-.3s-.7.1-1,.3c-.3.2-.5.5-.7.8-.2.4-.3.8-.3,1.2Z"/>
    <path class="st9" d="M334.5,727.8l.6.6c-.3.4-.7.8-1.1,1s-.9.3-1.4.3-1.1-.1-1.6-.4c-.5-.3-.8-.6-1.1-1.1s-.4-1-.4-1.6.1-1.1.4-1.6c.3-.5.6-.8,1-1.1.4-.3.9-.4,1.5-.4s1,.1,1.4.4c.4.3.7.6,1,1.1.2.5.3,1,.3,1.6v.4h-4.6c0,.6.3,1.1.7,1.5s.8.6,1.4.6.7,0,1-.3.6-.4.8-.8ZM332.5,724.2c-.5,0-.9.2-1.3.5-.3.4-.6.8-.6,1.4h3.7c0-.6-.2-1-.6-1.4-.3-.3-.7-.5-1.2-.5Z"/>
    <path class="st9" d="M342.1,729.5h-.9v-3.4c0-.6-.1-1.1-.4-1.4-.3-.3-.6-.5-1-.5s-.6,0-.9.3c-.3.2-.5.5-.7.9-.2.4-.3.9-.3,1.5v2.7h-.9v-5.9h.9v1.2c.2-.5.5-.9.9-1.1s.8-.3,1.2-.3c.7,0,1.2.2,1.6.7.4.4.6,1.1.6,1.9v3.5Z"/>
    <path class="st9" d="M347.1,729.5h-1.3c-.4,0-.7-.1-.9-.3-.2-.2-.3-.6-.3-1v-3.8h-1.1v-.8h1.1v-1.7h.9v1.7h1.6v.8h-1.6v3.7c0,.4.2.6.6.6h1.1v.8Z"/>
    <path class="st9" d="M347.9,728.6l.6-.6c.3.3.5.5.9.7s.7.3,1.1.3.8,0,1-.3c.3-.2.4-.5.4-.8s-.1-.5-.3-.6c-.2-.2-.6-.3-1.2-.4-.8-.1-1.4-.3-1.8-.6-.3-.3-.5-.6-.5-1.1s.2-1,.6-1.3c.4-.3,1-.5,1.6-.5s.9,0,1.3.3c.4.2.7.5,1,.8l-.6.6c-.2-.3-.5-.5-.8-.7s-.6-.3-1-.3-.7,0-1,.3-.4.4-.4.7.1.4.3.5.6.2,1.1.3c.9.1,1.5.3,1.8.6.4.3.5.7.5,1.2s-.1.7-.3,1-.5.5-.9.7-.8.2-1.2.2-1.1,0-1.5-.3c-.4-.2-.8-.5-1.1-.8Z"/>
    <path class="st9" d="M359.6,731h-.9c-.6-.7-1-1.5-1.2-2.4s-.4-1.8-.4-2.8.1-1.9.4-2.7.7-1.7,1.2-2.4h.9c-.6.8-1,1.7-1.2,2.5-.3.8-.4,1.7-.4,2.6s.1,1.8.4,2.6c.3.9.7,1.7,1.2,2.5Z"/>
    <path class="st9" d="M368,729.5h-1l-.9-2.4h-3.8l-.9,2.4h-1l3.3-8.6h1l3.3,8.6ZM362.7,726.3h3.2l-1.6-4.2-1.6,4.2Z"/>
    <path class="st9" d="M374.2,728.8h-.7l-2.9-6.4v7.1h-.9v-8.6h1.2l2.9,6.6,3-6.6h1.2v8.6h-.9v-7.1l-2.9,6.4Z"/>
    <path class="st9" d="M381.6,729.5h-1v-8.6h5.1v.8h-4.2v2.9h4v.8h-4v4Z"/>
    <path class="st9" d="M386.5,731.2h-.6c.4-.5.6-1.1.7-1.6-.2,0-.3,0-.4-.2s-.2-.3-.2-.5,0-.4.2-.5c.1-.1.3-.2.5-.2s.4,0,.5.2c.1.1.2.3.2.5,0,.4,0,.8-.2,1.2s-.4.8-.6,1.1Z"/>
    <path class="st9" d="M395.8,729.7c-.6,0-1.2-.1-1.7-.3-.5-.2-1-.5-1.3-.9s-.7-.9-.9-1.4-.3-1.1-.3-1.8.1-1.2.3-1.8.5-1,.9-1.4c.4-.4.8-.7,1.3-.9.5-.2,1.1-.3,1.7-.3s1.2.1,1.7.3c.5.2,1,.5,1.3.9.4.4.7.9.9,1.4.2.5.3,1.1.3,1.8s-.1,1.2-.3,1.8c-.2.5-.5,1-.9,1.4l.9,1-.6.6-.9-1c-.3.2-.7.4-1.1.6-.4.1-.8.2-1.3.2ZM395.8,728.8c.4,0,.7,0,1-.1.3,0,.6-.2.8-.4l-1.3-1.4.6-.6,1.3,1.4c.3-.3.5-.7.6-1.1.1-.4.2-.9.2-1.4s-.1-1.3-.4-1.9c-.3-.5-.6-1-1.1-1.3-.5-.3-1-.5-1.7-.5s-1.2.2-1.7.5c-.5.3-.9.7-1.1,1.3-.3.5-.4,1.2-.4,1.9s.1,1.3.4,1.9c.3.5.6,1,1.1,1.3.5.3,1,.5,1.7.5Z"/>
    <path class="st9" d="M406.8,729.5h-.9v-.9c-.2.3-.5.6-.8.8-.3.2-.7.3-1.2.3-.7,0-1.2-.2-1.6-.6-.4-.4-.6-1-.6-1.8v-3.6h.9v3.5c0,.6.1,1,.4,1.3.3.3.6.4,1.1.4s.8-.1,1.1-.4.6-.6.7-1v-3.9h.9v5.9Z"/>
    <path class="st9" d="M413.4,727.8l.6.6c-.3.4-.7.8-1.1,1s-.9.3-1.4.3-1.1-.1-1.6-.4c-.5-.3-.8-.6-1.1-1.1s-.4-1-.4-1.6.1-1.1.4-1.6c.3-.5.6-.8,1-1.1.4-.3.9-.4,1.5-.4s1,.1,1.4.4c.4.3.7.6,1,1.1.2.5.3,1,.3,1.6v.4h-4.6c0,.6.3,1.1.7,1.5s.8.6,1.4.6.7,0,1-.3.6-.4.8-.8ZM411.4,724.2c-.5,0-.9.2-1.3.5-.3.4-.6.8-.6,1.4h3.7c0-.6-.2-1-.6-1.4-.3-.3-.7-.5-1.2-.5ZM413.1,720.4l-1.5,2.1h-.8l1.3-2.1h1Z"/>
    <path class="st9" d="M416.7,729.5h-.9v-8.6h.9v3.8c.2-.4.5-.7.9-.9.4-.2.8-.3,1.3-.3s1,.1,1.4.4c.4.3.7.6,1,1.1.2.5.4,1,.4,1.6s-.1,1.1-.4,1.6-.6.8-1,1.1c-.4.3-.9.4-1.5.4s-.9-.1-1.2-.3-.7-.5-.9-.8v.9ZM416.7,726.7v.8c.1.4.4.8.7,1,.4.3.8.4,1.2.4s.8,0,1-.3.5-.5.7-.8c.2-.4.3-.8.3-1.2s0-.9-.2-1.2c-.2-.4-.4-.6-.7-.8-.3-.2-.6-.3-1-.3s-.7.1-1,.3c-.3.2-.5.5-.7.9s-.3.8-.3,1.3Z"/>
    <path class="st9" d="M427.8,727.8l.6.6c-.3.4-.7.8-1.1,1s-.9.3-1.4.3-1.1-.1-1.6-.4c-.5-.3-.8-.6-1.1-1.1s-.4-1-.4-1.6.1-1.1.4-1.6c.3-.5.6-.8,1-1.1.4-.3.9-.4,1.5-.4s1,.1,1.4.4c.4.3.7.6,1,1.1.2.5.3,1,.3,1.6v.4h-4.6c0,.6.3,1.1.7,1.5s.8.6,1.4.6.7,0,1-.3.6-.4.8-.8ZM425.8,724.2c-.5,0-.9.2-1.3.5-.3.4-.6.8-.6,1.4h3.7c0-.6-.2-1-.6-1.4-.3-.3-.7-.5-1.2-.5Z"/>
    <path class="st9" d="M434.5,727.9l.6.6c-.6.8-1.4,1.2-2.4,1.2s-1.1-.1-1.5-.4c-.4-.3-.8-.6-1-1.1-.3-.5-.4-1-.4-1.6s.1-1.2.4-1.6c.3-.5.6-.8,1.1-1.1.4-.3,1-.4,1.5-.4,1,0,1.8.4,2.3,1.2l-.7.6c-.2-.3-.4-.5-.7-.7-.3-.2-.6-.3-1-.3-.6,0-1.1.2-1.4.6-.4.4-.6,1-.6,1.7s.2,1.3.6,1.7.9.6,1.5.6,1.3-.3,1.7-1Z"/>
    <path class="st9" d="M436.1,731c.6-.8,1-1.7,1.2-2.5.3-.9.4-1.8.4-2.6s-.1-1.8-.4-2.6c-.3-.8-.7-1.7-1.2-2.5h.9c.6.7,1,1.5,1.2,2.4.3.9.4,1.8.4,2.7s-.1,1.9-.4,2.8c-.3.9-.7,1.7-1.2,2.4h-.9Z"/>
    <path class="st9" d="M448.2,726.7h-6v-.8h6v.8Z"/>
    <path class="st9" d="M457,729.5h-5.4v-.8l2.8-2.9c.4-.4.7-.8.9-1.1.2-.3.4-.6.5-.9,0-.3.1-.5.1-.8,0-.5-.1-.8-.4-1.1-.3-.3-.7-.4-1.2-.4s-.9.1-1.3.3c-.4.2-.7.6-1,1.1l-.7-.6c.7-1.1,1.7-1.7,2.9-1.7s.9,0,1.3.3c.4.2.7.5.9.8.2.3.3.8.3,1.2s0,.7-.2,1-.3.7-.6,1-.7.8-1.2,1.4l-2.2,2.3h4.2v.8Z"/>
    <path class="st9" d="M461.3,729.7c-.6,0-1.2-.2-1.6-.5-.4-.4-.8-.9-1-1.5-.2-.7-.4-1.5-.4-2.4s.1-1.7.4-2.4c.2-.7.6-1.2,1-1.5.4-.4,1-.5,1.6-.5s1.2.2,1.6.5c.4.4.8.9,1,1.5.2.7.4,1.5.4,2.4s-.1,1.7-.4,2.4c-.2.7-.6,1.2-1,1.5-.4.4-1,.5-1.6.5ZM461.3,728.9c.6,0,1.1-.3,1.5-1,.3-.6.5-1.5.5-2.7s-.2-2.1-.5-2.7c-.3-.6-.8-1-1.5-1s-1.1.3-1.5,1c-.3.6-.5,1.5-.5,2.7s.2,2.1.5,2.7c.3.6.8,1,1.5,1Z"/>
    <path class="st9" d="M468.2,720.9h.9v8.6h-1v-7.5l-2.1,1.7v-1l2.1-1.7Z"/>
    <path class="st9" d="M474.5,729.7c-.6,0-1.1-.1-1.5-.3s-.8-.5-1-.9c-.3-.4-.4-.8-.4-1.3s.1-1,.4-1.3.7-.7,1.2-.9c-.4-.2-.7-.4-1-.8-.2-.3-.4-.7-.4-1.1s.1-.9.3-1.2c.2-.4.5-.6.9-.8.4-.2.9-.3,1.4-.3s1,.1,1.4.3c.4.2.7.5.9.8.2.4.3.8.3,1.2s-.1.8-.4,1.1-.6.6-1,.8c.5.2.9.5,1.2.9s.4.8.4,1.3-.1.9-.4,1.3c-.3.4-.6.7-1,.9-.4.2-1,.3-1.5.3ZM474.5,728.9c.4,0,.7,0,1-.2s.5-.4.7-.6.3-.6.3-.9,0-.6-.3-.9-.4-.5-.7-.6-.6-.2-1-.2-.7,0-1,.2c-.3.1-.5.4-.7.6s-.3.6-.3.9,0,.6.3.9.4.5.7.6c.3.2.6.2,1,.2ZM474.5,724.6c.3,0,.6,0,.9-.2.3-.1.5-.3.6-.5.2-.2.2-.5.2-.8s0-.6-.2-.8c-.2-.2-.4-.4-.6-.6-.3-.1-.5-.2-.9-.2s-.6,0-.9.2-.5.3-.6.6c-.2.2-.2.5-.2.8s0,.5.2.8c.2.2.4.4.6.5.3.1.5.2.9.2Z"/>
    <path class="st9" d="M24.5,742.2c0-.3,0-.5.2-.7s.3-.4.5-.5c.2-.1.5-.2.7-.2s.5,0,.7.2.4.3.5.5c.1.2.2.5.2.7s0,.5-.2.7c-.1.2-.3.4-.5.5-.2.1-.5.2-.7.2s-.5,0-.7-.2c-.2-.1-.4-.3-.5-.5s-.2-.5-.2-.7Z"/>
    <path class="st9" d="M49.8,745.5h-1l-.9-2.4h-3.8l-.9,2.4h-1l3.3-8.6h1l3.3,8.6ZM44.5,742.3h3.2l-1.6-4.2-1.6,4.2Z"/>
    <path class="st9" d="M53.9,745.5h-1.3c-.4,0-.7-.1-.9-.3-.2-.2-.3-.6-.3-1v-3.8h-1.1v-.8h1.1v-1.7h.9v1.7h1.6v.8h-1.6v3.7c0,.4.2.6.6.6h1.1v.8Z"/>
    <path class="st9" d="M58.1,745.5h-1.3c-.4,0-.7-.1-.9-.3-.2-.2-.3-.6-.3-1v-3.8h-1.1v-.8h1.1v-1.7h.9v1.7h1.6v.8h-1.6v3.7c0,.4.2.6.6.6h1.1v.8Z"/>
    <path class="st9" d="M63.8,743.8l.6.6c-.3.4-.7.8-1.1,1-.4.2-.9.3-1.4.3s-1.1-.1-1.6-.4c-.5-.3-.8-.6-1.1-1.1s-.4-1-.4-1.6.1-1.1.4-1.6c.3-.5.6-.8,1-1.1.4-.3.9-.4,1.5-.4s1,.1,1.4.4c.4.3.7.6,1,1.1.2.5.3,1,.3,1.6v.4h-4.6c0,.6.3,1.1.7,1.5s.9.6,1.4.6.7,0,1-.3c.3-.2.6-.4.8-.8ZM61.8,740.2c-.5,0-.9.2-1.3.5-.3.4-.6.8-.6,1.4h3.7c0-.6-.2-1-.6-1.4-.3-.3-.7-.5-1.2-.5Z"/>
    <path class="st9" d="M65.5,744.6l.6-.6c.3.3.6.5.9.7.3.2.7.3,1.1.3s.8,0,1-.3.4-.5.4-.8-.1-.5-.3-.6-.6-.3-1.2-.4c-.8-.1-1.4-.3-1.8-.6-.3-.3-.5-.6-.5-1.1s.2-1,.6-1.3c.4-.3,1-.5,1.6-.5s.9,0,1.3.3c.4.2.7.5,1,.8l-.6.6c-.2-.3-.5-.5-.8-.7-.3-.2-.6-.3-1-.3s-.7,0-1,.3c-.2.2-.4.4-.4.7s.1.4.3.5c.2.1.6.2,1.1.3.9.1,1.5.3,1.8.6.4.3.5.7.5,1.2s-.1.7-.3,1-.5.5-.9.7-.8.2-1.2.2-1.1,0-1.5-.3c-.4-.2-.8-.5-1.1-.8Z"/>
    <path class="st9" d="M75.2,745.5h-1.3c-.4,0-.7-.1-.9-.3-.2-.2-.3-.6-.3-1v-3.8h-1.1v-.8h1.1v-1.7h.9v1.7h1.6v.8h-1.6v3.7c0,.4.2.6.6.6h1.1v.8Z"/>
    <path class="st9" d="M78.3,745.7c-.4,0-.8,0-1.1-.2-.3-.2-.6-.4-.8-.7-.2-.3-.3-.6-.3-1,0-.6.2-1.1.7-1.4.5-.4,1.1-.5,1.9-.5h1.7c0-.5-.1-.9-.4-1.2-.3-.3-.7-.4-1.2-.4s-1.3.3-1.7.9l-.6-.6c.7-.7,1.5-1.1,2.4-1.1s.9,0,1.3.3.7.5.9.8c.2.4.3.8.3,1.3v3.7h-.9v-.8c-.2.3-.5.5-.9.7s-.8.3-1.2.3ZM78.4,744.9c.5,0,.9-.1,1.2-.4.3-.2.6-.5.7-.9v-1h-1.5c-.5,0-1,.1-1.2.3s-.4.5-.4.9.1.6.4.8c.2.2.5.3.9.3Z"/>
    <path class="st9" d="M86.3,745.5h-1.3c-.4,0-.7-.1-.9-.3-.2-.2-.3-.6-.3-1v-3.8h-1.1v-.8h1.1v-1.7h.9v1.7h1.6v.8h-1.6v3.7c0,.4.2.6.6.6h1.1v.8Z"/>
    <path class="st9" d="M88.9,737.4c0,.2,0,.3-.2.5s-.3.2-.5.2-.3,0-.5-.2c-.1-.1-.2-.3-.2-.5s0-.4.2-.5c.1-.1.3-.2.5-.2s.3,0,.5.2.2.3.2.5ZM88.7,745.5h-.9v-5.9h.9v5.9Z"/>
    <path class="st9" d="M93.3,745.7c-.6,0-1.1-.1-1.5-.4-.4-.3-.8-.6-1.1-1.1s-.4-1-.4-1.6.1-1.1.4-1.6c.3-.5.6-.8,1.1-1.1.4-.3,1-.4,1.5-.4s1.1.1,1.5.4c.4.3.8.6,1,1.1.3.5.4,1,.4,1.6s-.1,1.1-.4,1.6-.6.8-1,1.1c-.4.3-1,.4-1.5.4ZM93.3,744.9c.4,0,.7,0,1-.3s.5-.5.7-.8c.2-.4.3-.8.3-1.2s0-.9-.3-1.2-.4-.6-.7-.8c-.3-.2-.6-.3-1-.3s-.7.1-1,.3c-.3.2-.5.5-.7.8s-.3.8-.3,1.2,0,.9.3,1.2c.2.4.4.6.7.8s.6.3,1,.3Z"/>
    <path class="st9" d="M103.1,745.5h-.9v-3.4c0-.6-.1-1.1-.4-1.4-.3-.3-.6-.5-1-.5s-.6,0-.9.3c-.3.2-.5.5-.7.9-.2.4-.3.9-.3,1.5v2.7h-.9v-5.9h.9v1.2c.2-.5.5-.9.9-1.1.4-.2.8-.3,1.2-.3.7,0,1.2.2,1.6.7.4.4.6,1.1.6,1.9v3.5Z"/>
    <path class="st9" d="M112.3,745.5v-.9c-.2.3-.5.6-.9.8s-.8.3-1.2.3-1-.1-1.5-.4c-.4-.3-.8-.6-1-1.1s-.4-1-.4-1.6.1-1.1.4-1.6c.2-.5.6-.8,1-1.1.4-.3.9-.4,1.4-.4s.9.1,1.3.3.7.5.9.9v-3.8h.9v8.6h-.9ZM108.3,742.5c0,.5,0,.9.3,1.2.2.4.4.6.7.8.3.2.7.3,1,.3s.9-.1,1.2-.4c.4-.3.6-.6.7-1v-.8c0-.5,0-.9-.3-1.3s-.4-.7-.7-.9c-.3-.2-.6-.3-1-.3s-.7.1-1,.3c-.3.2-.5.5-.7.8-.2.4-.3.8-.3,1.2Z"/>
    <path class="st9" d="M115.5,739.6h-.6c.2-.3.3-.5.5-.8.1-.3.2-.5.2-.8-.2,0-.3,0-.4-.2-.1-.1-.2-.3-.2-.5s0-.4.2-.5.3-.2.5-.2.4,0,.5.2.2.3.2.6c0,.3,0,.7-.2,1.1-.2.4-.4.8-.6,1.1Z"/>
    <path class="st9" d="M122,743.8l.6.6c-.3.4-.7.8-1.1,1-.4.2-.9.3-1.4.3s-1.1-.1-1.6-.4c-.5-.3-.8-.6-1.1-1.1s-.4-1-.4-1.6.1-1.1.4-1.6c.3-.5.6-.8,1-1.1.4-.3.9-.4,1.5-.4s1,.1,1.4.4c.4.3.7.6,1,1.1.2.5.3,1,.3,1.6v.4h-4.6c0,.6.3,1.1.7,1.5s.9.6,1.4.6.7,0,1-.3c.3-.2.6-.4.8-.8ZM120,740.2c-.5,0-.9.2-1.3.5-.3.4-.6.8-.6,1.4h3.7c0-.6-.2-1-.6-1.4-.3-.3-.7-.5-1.2-.5ZM121.7,736.4l-1.5,2.1h-.8l1.3-2.1h1Z"/>
    <path class="st9" d="M129,747.8v-3.2c-.2.3-.5.6-.8.8-.4.2-.8.3-1.2.3s-1-.1-1.5-.4c-.4-.3-.8-.6-1-1.1s-.4-1-.4-1.6.1-1.1.4-1.6c.2-.5.6-.8,1-1.1.4-.3.9-.4,1.4-.4s.9.1,1.3.3c.4.2.7.5.9.9v-1.1h.9v8.2h-.9ZM125,742.5c0,.5,0,.9.3,1.2.2.4.4.6.7.8.3.2.7.3,1,.3s.9-.1,1.2-.4c.4-.3.6-.6.7-1v-.8c0-.5,0-.9-.3-1.3s-.4-.7-.7-.9c-.3-.2-.6-.3-1-.3s-.7.1-1,.3c-.3.2-.5.5-.7.8-.2.4-.3.8-.3,1.2Z"/>
    <path class="st9" d="M137,745.5h-.9v-.9c-.2.3-.5.6-.8.8-.3.2-.7.3-1.2.3-.7,0-1.2-.2-1.6-.6-.4-.4-.6-1-.6-1.8v-3.6h.9v3.5c0,.6.1,1,.4,1.3.3.3.6.4,1.1.4s.8-.1,1.1-.4.6-.6.7-1v-3.9h.9v5.9Z"/>
    <path class="st9" d="M140.1,737.4c0,.2,0,.3-.2.5s-.3.2-.5.2-.3,0-.5-.2c-.1-.1-.2-.3-.2-.5s0-.4.2-.5c.1-.1.3-.2.5-.2s.3,0,.5.2.2.3.2.5ZM139.9,745.5h-.9v-5.9h.9v5.9Z"/>
    <path class="st9" d="M144.6,745.5h-.9l-2.4-5.9h1l1.9,4.9,1.9-4.9h.9l-2.4,5.9Z"/>
    <path class="st9" d="M149.8,745.7c-.4,0-.8,0-1.1-.2-.3-.2-.6-.4-.8-.7s-.3-.6-.3-1c0-.6.2-1.1.7-1.4.5-.4,1.1-.5,1.9-.5h1.7c0-.5-.1-.9-.5-1.2-.3-.3-.7-.4-1.2-.4s-1.3.3-1.7.9l-.6-.6c.7-.7,1.5-1.1,2.4-1.1s.9,0,1.3.3.7.5.9.8c.2.4.3.8.3,1.3v3.7h-.9v-.8c-.2.3-.5.5-.9.7-.4.2-.8.3-1.2.3ZM149.9,744.9c.5,0,.9-.1,1.2-.4.3-.2.6-.5.7-.9v-1h-1.5c-.5,0-1,.1-1.2.3s-.4.5-.4.9.1.6.4.8c.2.2.5.3.9.3Z"/>
    <path class="st9" d="M155.6,745.5h-.9v-8.6h.9v8.6Z"/>
    <path class="st9" d="M162.1,743.8l.6.6c-.3.4-.7.8-1.1,1s-.9.3-1.4.3-1.1-.1-1.6-.4c-.5-.3-.8-.6-1.1-1.1s-.4-1-.4-1.6.1-1.1.4-1.6c.3-.5.6-.8,1-1.1.4-.3.9-.4,1.5-.4s1,.1,1.4.4c.4.3.7.6,1,1.1.2.5.3,1,.3,1.6v.4h-4.6c0,.6.3,1.1.7,1.5s.8.6,1.4.6.7,0,1-.3.6-.4.8-.8ZM160.2,740.2c-.5,0-.9.2-1.3.5-.3.4-.6.8-.6,1.4h3.7c0-.6-.2-1-.6-1.4-.3-.3-.7-.5-1.2-.5Z"/>
    <path class="st9" d="M169.7,745.5h-.9v-3.4c0-.6-.1-1.1-.4-1.4-.3-.3-.6-.5-1-.5s-.6,0-.9.3c-.3.2-.5.5-.7.9-.2.4-.3.9-.3,1.5v2.7h-.9v-5.9h.9v1.2c.2-.5.5-.9.9-1.1s.8-.3,1.2-.3c.7,0,1.2.2,1.6.7.4.4.6,1.1.6,1.9v3.5Z"/>
    <path class="st9" d="M175.9,743.9l.6.6c-.6.8-1.4,1.2-2.4,1.2s-1.1-.1-1.5-.4c-.4-.3-.8-.6-1-1.1-.3-.5-.4-1-.4-1.6s.1-1.2.4-1.6c.3-.5.6-.8,1.1-1.1.4-.3,1-.4,1.5-.4,1,0,1.8.4,2.3,1.2l-.7.6c-.2-.3-.4-.5-.7-.7-.3-.2-.6-.3-1-.3-.6,0-1.1.2-1.4.6-.4.4-.6,1-.6,1.7s.2,1.3.6,1.7.9.6,1.5.6,1.3-.3,1.7-1Z"/>
    <path class="st9" d="M182.3,743.8l.6.6c-.3.4-.7.8-1.1,1s-.9.3-1.4.3-1.1-.1-1.6-.4c-.5-.3-.8-.6-1.1-1.1s-.4-1-.4-1.6.1-1.1.4-1.6c.3-.5.6-.8,1-1.1.4-.3.9-.4,1.5-.4s1,.1,1.4.4c.4.3.7.6,1,1.1.2.5.3,1,.3,1.6v.4h-4.6c0,.6.3,1.1.7,1.5s.8.6,1.4.6.7,0,1-.3.6-.4.8-.8ZM180.3,740.2c-.5,0-.9.2-1.3.5-.3.4-.6.8-.6,1.4h3.7c0-.6-.2-1-.6-1.4-.3-.3-.7-.5-1.2-.5Z"/>
    <path class="st9" d="M191.9,743.8l.6.6c-.3.4-.7.8-1.1,1s-.9.3-1.4.3-1.1-.1-1.6-.4c-.5-.3-.8-.6-1.1-1.1s-.4-1-.4-1.6.1-1.1.4-1.6c.3-.5.6-.8,1-1.1.4-.3.9-.4,1.5-.4s1,.1,1.4.4c.4.3.7.6,1,1.1.2.5.3,1,.3,1.6v.4h-4.6c0,.6.3,1.1.7,1.5s.8.6,1.4.6.7,0,1-.3.6-.4.8-.8ZM190,740.2c-.5,0-.9.2-1.3.5-.3.4-.6.8-.6,1.4h3.7c0-.6-.2-1-.6-1.4-.3-.3-.7-.5-1.2-.5ZM191.6,736.4l-1.5,2.1h-.8l1.3-2.1h1Z"/>
    <path class="st9" d="M197.2,745.5h-1.3c-.4,0-.7-.1-.9-.3-.2-.2-.3-.6-.3-1v-3.8h-1.1v-.8h1.1v-1.7h.9v1.7h1.6v.8h-1.6v3.7c0,.4.2.6.6.6h1.1v.8Z"/>
    <path class="st9" d="M203.7,745.5h-.9v-.9c-.2.3-.5.6-.8.8-.3.2-.7.3-1.2.3-.7,0-1.2-.2-1.6-.6-.4-.4-.6-1-.6-1.8v-3.6h.9v3.5c0,.6.1,1,.4,1.3.3.3.6.4,1.1.4s.8-.1,1.1-.4.6-.6.7-1v-3.9h.9v5.9Z"/>
    <path class="st9" d="M210.3,745.5v-.9c-.2.3-.5.6-.9.8s-.8.3-1.2.3-1-.1-1.5-.4c-.4-.3-.8-.6-1-1.1s-.4-1-.4-1.6.1-1.1.4-1.6c.2-.5.6-.8,1-1.1.4-.3.9-.4,1.4-.4s.9.1,1.3.3.7.5.9.9v-3.8h.9v8.6h-.9ZM206.3,742.5c0,.5,0,.9.3,1.2.2.4.4.6.7.8s.7.3,1,.3.9-.1,1.2-.4c.4-.3.6-.6.7-1v-.8c0-.5,0-.9-.3-1.3s-.4-.7-.7-.9c-.3-.2-.6-.3-1-.3s-.7.1-1,.3c-.3.2-.5.5-.7.8-.2.4-.3.8-.3,1.2Z"/>
    <path class="st9" d="M217.7,743.8l.6.6c-.3.4-.7.8-1.1,1s-.9.3-1.4.3-1.1-.1-1.6-.4c-.5-.3-.8-.6-1.1-1.1s-.4-1-.4-1.6.1-1.1.4-1.6c.3-.5.6-.8,1-1.1.4-.3.9-.4,1.5-.4s1,.1,1.4.4c.4.3.7.6,1,1.1.2.5.3,1,.3,1.6v.4h-4.6c0,.6.3,1.1.7,1.5s.8.6,1.4.6.7,0,1-.3.6-.4.8-.8ZM215.8,740.2c-.5,0-.9.2-1.3.5-.3.4-.6.8-.6,1.4h3.7c0-.6-.2-1-.6-1.4-.3-.3-.7-.5-1.2-.5Z"/>
    <path class="st9" d="M219.5,744.6l.6-.6c.3.3.5.5.9.7s.7.3,1.1.3.8,0,1-.3c.3-.2.4-.5.4-.8s-.1-.5-.3-.6c-.2-.2-.6-.3-1.2-.4-.8-.1-1.4-.3-1.8-.6-.3-.3-.5-.6-.5-1.1s.2-1,.6-1.3c.4-.3,1-.5,1.6-.5s.9,0,1.3.3c.4.2.7.5,1,.8l-.6.6c-.2-.3-.5-.5-.8-.7s-.6-.3-1-.3-.7,0-1,.3-.4.4-.4.7.1.4.3.5.6.2,1.1.3c.9.1,1.5.3,1.8.6.4.3.5.7.5,1.2s-.1.7-.3,1-.5.5-.9.7-.8.2-1.2.2-1.1,0-1.5-.3c-.4-.2-.8-.5-1.1-.8Z"/>
    <path class="st9" d="M228.1,744.6l.6-.6c.3.3.5.5.9.7s.7.3,1.1.3.8,0,1-.3c.3-.2.4-.5.4-.8s-.1-.5-.3-.6c-.2-.2-.6-.3-1.2-.4-.8-.1-1.4-.3-1.8-.6-.3-.3-.5-.6-.5-1.1s.2-1,.6-1.3c.4-.3,1-.5,1.6-.5s.9,0,1.3.3c.4.2.7.5,1,.8l-.6.6c-.2-.3-.5-.5-.8-.7s-.6-.3-1-.3-.7,0-1,.3-.4.4-.4.7.1.4.3.5.6.2,1.1.3c.9.1,1.5.3,1.8.6.4.3.5.7.5,1.2s-.1.7-.3,1-.5.5-.9.7-.8.2-1.2.2-1.1,0-1.5-.3c-.4-.2-.8-.5-1.1-.8Z"/>
    <path class="st9" d="M239.2,743.8l.6.6c-.3.4-.7.8-1.1,1s-.9.3-1.4.3-1.1-.1-1.6-.4c-.5-.3-.8-.6-1.1-1.1s-.4-1-.4-1.6.1-1.1.4-1.6c.3-.5.6-.8,1-1.1.4-.3.9-.4,1.5-.4s1,.1,1.4.4c.4.3.7.6,1,1.1.2.5.3,1,.3,1.6v.4h-4.6c0,.6.3,1.1.7,1.5s.8.6,1.4.6.7,0,1-.3.6-.4.8-.8ZM237.2,740.2c-.5,0-.9.2-1.3.5-.3.4-.6.8-.6,1.4h3.7c0-.6-.2-1-.6-1.4-.3-.3-.7-.5-1.2-.5Z"/>
    <path class="st9" d="M245.9,743.9l.6.6c-.6.8-1.4,1.2-2.4,1.2s-1.1-.1-1.5-.4c-.4-.3-.8-.6-1-1.1-.3-.5-.4-1-.4-1.6s.1-1.2.4-1.6c.3-.5.6-.8,1.1-1.1.4-.3,1-.4,1.5-.4,1,0,1.8.4,2.3,1.2l-.7.6c-.2-.3-.4-.5-.7-.7-.3-.2-.6-.3-1-.3-.6,0-1.1.2-1.4.6-.4.4-.6,1-.6,1.7s.2,1.3.6,1.7.9.6,1.5.6,1.3-.3,1.7-1Z"/>
    <path class="st9" d="M250.4,745.7c-.6,0-1.1-.1-1.5-.4-.4-.3-.8-.6-1-1.1s-.4-1-.4-1.6.1-1.1.4-1.6c.3-.5.6-.8,1-1.1.4-.3,1-.4,1.5-.4s1.1.1,1.5.4c.4.3.8.6,1,1.1.3.5.4,1,.4,1.6s-.1,1.1-.4,1.6c-.3.5-.6.8-1,1.1-.4.3-1,.4-1.5.4ZM250.4,744.9c.4,0,.7,0,1-.3s.5-.5.7-.8c.2-.4.3-.8.3-1.2s0-.9-.3-1.2-.4-.6-.7-.8c-.3-.2-.6-.3-1-.3s-.7.1-1,.3c-.3.2-.5.5-.7.8s-.3.8-.3,1.2,0,.9.3,1.2c.2.4.4.6.7.8.3.2.6.3,1,.3Z"/>
    <path class="st9" d="M260.1,745.5h-.9v-3.4c0-.6-.1-1.1-.4-1.4-.3-.3-.6-.5-1-.5s-.6,0-.9.3c-.3.2-.5.5-.7.9-.2.4-.3.9-.3,1.5v2.7h-.9v-5.9h.9v1.2c.2-.5.5-.9.9-1.1s.8-.3,1.2-.3c.7,0,1.2.2,1.6.7.4.4.6,1.1.6,1.9v3.5Z"/>
    <path class="st9" d="M266.6,745.5v-.9c-.2.3-.5.6-.9.8s-.8.3-1.2.3-1-.1-1.5-.4c-.4-.3-.8-.6-1-1.1s-.4-1-.4-1.6.1-1.1.4-1.6c.2-.5.6-.8,1-1.1.4-.3.9-.4,1.4-.4s.9.1,1.3.3.7.5.9.9v-3.8h.9v8.6h-.9ZM262.7,742.5c0,.5,0,.9.3,1.2.2.4.4.6.7.8s.7.3,1,.3.9-.1,1.2-.4c.4-.3.6-.6.7-1v-.8c0-.5,0-.9-.3-1.3s-.4-.7-.7-.9c-.3-.2-.6-.3-1-.3s-.7.1-1,.3c-.3.2-.5.5-.7.8-.2.4-.3.8-.3,1.2Z"/>
    <path class="st9" d="M271.2,745.7c-.4,0-.8,0-1.1-.2-.3-.2-.6-.4-.8-.7s-.3-.6-.3-1c0-.6.2-1.1.7-1.4.5-.4,1.1-.5,1.9-.5h1.7c0-.5-.1-.9-.5-1.2-.3-.3-.7-.4-1.2-.4s-1.3.3-1.7.9l-.6-.6c.7-.7,1.5-1.1,2.4-1.1s.9,0,1.3.3.7.5.9.8c.2.4.3.8.3,1.3v3.7h-.9v-.8c-.2.3-.5.5-.9.7-.4.2-.8.3-1.2.3ZM271.3,744.9c.5,0,.9-.1,1.2-.4.3-.2.6-.5.7-.9v-1h-1.5c-.5,0-1,.1-1.2.3s-.4.5-.4.9.1.6.4.8c.2.2.5.3.9.3Z"/>
    <path class="st9" d="M277.2,737.4c0,.2,0,.3-.2.5-.1.1-.3.2-.5.2s-.3,0-.5-.2-.2-.3-.2-.5,0-.4.2-.5.3-.2.5-.2.3,0,.5.2c.1.1.2.3.2.5ZM277,745.5h-.9v-5.9h.9v5.9Z"/>
    <path class="st9" d="M282.3,739.5v.9h-.2c-.4,0-.7,0-1,.3-.3.2-.6.5-.8.9-.2.4-.3.9-.3,1.5v2.5h-.9v-5.9h.9v1.3c.2-.5.5-.9.9-1.1.4-.2.8-.3,1.2-.3h.2Z"/>
    <path class="st9" d="M287.8,743.8l.6.6c-.3.4-.7.8-1.1,1s-.9.3-1.4.3-1.1-.1-1.6-.4c-.5-.3-.8-.6-1.1-1.1s-.4-1-.4-1.6.1-1.1.4-1.6c.3-.5.6-.8,1-1.1.4-.3.9-.4,1.5-.4s1,.1,1.4.4c.4.3.7.6,1,1.1.2.5.3,1,.3,1.6v.4h-4.6c0,.6.3,1.1.7,1.5s.8.6,1.4.6.7,0,1-.3.6-.4.8-.8ZM285.8,740.2c-.5,0-.9.2-1.3.5-.3.4-.6.8-.6,1.4h3.7c0-.6-.2-1-.6-1.4-.3-.3-.7-.5-1.2-.5Z"/>
    <path class="st9" d="M289.6,744.6l.6-.6c.3.3.5.5.9.7s.7.3,1.1.3.8,0,1-.3c.3-.2.4-.5.4-.8s-.1-.5-.3-.6c-.2-.2-.6-.3-1.2-.4-.8-.1-1.4-.3-1.8-.6-.3-.3-.5-.6-.5-1.1s.2-1,.6-1.3c.4-.3,1-.5,1.6-.5s.9,0,1.3.3c.4.2.7.5,1,.8l-.6.6c-.2-.3-.5-.5-.8-.7s-.6-.3-1-.3-.7,0-1,.3-.4.4-.4.7.1.4.3.5.6.2,1.1.3c.9.1,1.5.3,1.8.6.4.3.5.7.5,1.2s-.1.7-.3,1-.5.5-.9.7-.8.2-1.2.2-1.1,0-1.5-.3c-.4-.2-.8-.5-1.1-.8Z"/>
    <path class="st9" d="M305.8,745.5h-1l-.9-2.4h-3.8l-.9,2.4h-1l3.3-8.6h1l3.3,8.6ZM300.5,742.3h3.2l-1.6-4.2-1.6,4.2Z"/>
    <path class="st9" d="M312.9,745.5h-5.4v-8.6h5.4v.8h-4.4v2.9h4.2v.8h-4.2v3.1h4.4v.8Z"/>
    <path class="st9" d="M315.7,745.5h-.9v-8.6h1l4.6,7.2v-7.2h.9v8.6h-1l-4.6-7.2v7.2Z"/>
    <path class="st9" d="M323.2,744.1l.7-.7c.8.9,1.7,1.4,2.8,1.4s1.2-.2,1.6-.5c.4-.3.6-.7.6-1.2s-.2-.8-.5-1c-.3-.2-.9-.4-1.8-.6-1.1-.2-1.9-.4-2.3-.8-.5-.4-.7-.9-.7-1.5s.1-.9.4-1.3.6-.7,1.1-.9,1-.3,1.6-.3c1.3,0,2.4.5,3.3,1.5l-.7.7c-.4-.4-.8-.8-1.2-1s-.9-.3-1.4-.3-1.1.1-1.5.4c-.4.3-.5.7-.5,1.2s.2.7.5.9.9.4,1.6.5c1.1.2,2,.5,2.5.8.5.4.7.9.7,1.7s-.1,1-.4,1.3c-.3.4-.7.7-1.1.9-.5.2-1,.3-1.7.3-1.4,0-2.5-.5-3.4-1.6Z"/>
    <path class="st9" d="M336.7,747h-.9c-.6-.7-1-1.5-1.2-2.4s-.4-1.8-.4-2.8.1-1.9.4-2.7.7-1.7,1.2-2.4h.9c-.6.8-1,1.7-1.2,2.5-.3.8-.4,1.7-.4,2.6s.1,1.8.4,2.6c.3.9.7,1.7,1.2,2.5Z"/>
    <path class="st9" d="M342.1,745.7c-.6,0-1.2-.1-1.7-.3-.5-.2-1-.5-1.3-.9s-.7-.9-.9-1.4-.3-1.1-.3-1.8.1-1.2.3-1.8.5-1,.9-1.4c.4-.4.8-.7,1.3-.9.5-.2,1.1-.3,1.7-.3s1.2.1,1.7.3c.5.2,1,.5,1.3.9.4.4.7.9.9,1.4.2.5.3,1.1.3,1.8s-.1,1.2-.3,1.8c-.2.5-.5,1-.9,1.4l.9,1-.6.6-.9-1c-.3.2-.7.4-1.1.6-.4.1-.8.2-1.3.2ZM342.1,744.8c.4,0,.7,0,1-.1.3,0,.6-.2.8-.4l-1.3-1.4.6-.6,1.3,1.4c.3-.3.5-.7.6-1.1.1-.4.2-.9.2-1.4s-.1-1.3-.4-1.9c-.3-.5-.6-1-1.1-1.3-.5-.3-1-.5-1.7-.5s-1.2.2-1.7.5c-.5.3-.9.7-1.1,1.3-.3.5-.4,1.2-.4,1.9s.1,1.3.4,1.9c.3.5.6,1,1.1,1.3.5.3,1,.5,1.7.5Z"/>
    <path class="st9" d="M353.1,745.5h-.9v-.9c-.2.3-.5.6-.8.8-.3.2-.7.3-1.2.3-.7,0-1.2-.2-1.6-.6-.4-.4-.6-1-.6-1.8v-3.6h.9v3.5c0,.6.1,1,.4,1.3.3.3.6.4,1.1.4s.8-.1,1.1-.4.6-.6.7-1v-3.9h.9v5.9Z"/>
    <path class="st9" d="M359.7,743.8l.6.6c-.3.4-.7.8-1.1,1s-.9.3-1.4.3-1.1-.1-1.6-.4c-.5-.3-.8-.6-1.1-1.1s-.4-1-.4-1.6.1-1.1.4-1.6c.3-.5.6-.8,1-1.1.4-.3.9-.4,1.5-.4s1,.1,1.4.4c.4.3.7.6,1,1.1.2.5.3,1,.3,1.6v.4h-4.6c0,.6.3,1.1.7,1.5s.8.6,1.4.6.7,0,1-.3.6-.4.8-.8ZM357.7,740.2c-.5,0-.9.2-1.3.5-.3.4-.6.8-.6,1.4h3.7c0-.6-.2-1-.6-1.4-.3-.3-.7-.5-1.2-.5ZM359.4,736.4l-1.5,2.1h-.8l1.3-2.1h1Z"/>
    <path class="st9" d="M363,745.5h-.9v-8.6h.9v3.8c.2-.4.5-.7.9-.9.4-.2.8-.3,1.3-.3s1,.1,1.4.4c.4.3.7.6,1,1.1.2.5.4,1,.4,1.6s-.1,1.1-.4,1.6-.6.8-1,1.1c-.4.3-.9.4-1.5.4s-.9-.1-1.2-.3-.7-.5-.9-.8v.9ZM363,742.7v.8c.1.4.4.8.7,1,.4.3.8.4,1.2.4s.8,0,1-.3.5-.5.7-.8c.2-.4.3-.8.3-1.2s0-.9-.2-1.2c-.2-.4-.4-.6-.7-.8-.3-.2-.6-.3-1-.3s-.7.1-1,.3c-.3.2-.5.5-.7.9s-.3.8-.3,1.3Z"/>
    <path class="st9" d="M374.1,743.8l.6.6c-.3.4-.7.8-1.1,1s-.9.3-1.4.3-1.1-.1-1.6-.4c-.5-.3-.8-.6-1.1-1.1s-.4-1-.4-1.6.1-1.1.4-1.6c.3-.5.6-.8,1-1.1.4-.3.9-.4,1.5-.4s1,.1,1.4.4c.4.3.7.6,1,1.1.2.5.3,1,.3,1.6v.4h-4.6c0,.6.3,1.1.7,1.5s.8.6,1.4.6.7,0,1-.3.6-.4.8-.8ZM372.1,740.2c-.5,0-.9.2-1.3.5-.3.4-.6.8-.6,1.4h3.7c0-.6-.2-1-.6-1.4-.3-.3-.7-.5-1.2-.5Z"/>
    <path class="st9" d="M380.8,743.9l.6.6c-.6.8-1.4,1.2-2.4,1.2s-1.1-.1-1.5-.4c-.4-.3-.8-.6-1-1.1-.3-.5-.4-1-.4-1.6s.1-1.2.4-1.6c.3-.5.6-.8,1.1-1.1.4-.3,1-.4,1.5-.4,1,0,1.8.4,2.3,1.2l-.7.6c-.2-.3-.4-.5-.7-.7-.3-.2-.6-.3-1-.3-.6,0-1.1.2-1.4.6-.4.4-.6,1-.6,1.7s.2,1.3.6,1.7.9.6,1.5.6,1.3-.3,1.7-1Z"/>
    <path class="st9" d="M382.4,747c.6-.8,1-1.7,1.2-2.5.3-.9.4-1.8.4-2.6s-.1-1.8-.4-2.6c-.3-.8-.7-1.7-1.2-2.5h.9c.6.7,1,1.5,1.2,2.4.3.9.4,1.8.4,2.7s-.1,1.9-.4,2.8c-.3.9-.7,1.7-1.2,2.4h-.9Z"/>
    <path class="st9" d="M394.6,742.7h-6v-.8h6v.8Z"/>
    <path class="st9" d="M403.4,745.5h-5.4v-.8l2.8-2.9c.4-.4.7-.8.9-1.1.2-.3.4-.6.5-.9,0-.3.1-.5.1-.8,0-.5-.1-.8-.4-1.1-.3-.3-.7-.4-1.2-.4s-.9.1-1.3.3c-.4.2-.7.6-1,1.1l-.7-.6c.7-1.1,1.7-1.7,2.9-1.7s.9,0,1.3.3c.4.2.7.5.9.8.2.3.3.8.3,1.2s0,.7-.2,1-.3.7-.6,1-.7.8-1.2,1.4l-2.2,2.3h4.2v.8Z"/>
    <path class="st9" d="M407.6,745.7c-.6,0-1.2-.2-1.6-.5-.4-.4-.8-.9-1-1.5-.2-.7-.4-1.5-.4-2.4s.1-1.7.4-2.4c.2-.7.6-1.2,1-1.5.4-.4,1-.5,1.6-.5s1.2.2,1.6.5c.4.4.8.9,1,1.5.2.7.4,1.5.4,2.4s-.1,1.7-.4,2.4c-.2.7-.6,1.2-1,1.5-.4.4-1,.5-1.6.5ZM407.6,744.9c.6,0,1.1-.3,1.5-1,.3-.6.5-1.5.5-2.7s-.2-2.1-.5-2.7c-.3-.6-.8-1-1.5-1s-1.1.3-1.5,1c-.3.6-.5,1.5-.5,2.7s.2,2.1.5,2.7c.3.6.8,1,1.5,1Z"/>
    <path class="st9" d="M414.6,736.9h.9v8.6h-1v-7.5l-2.1,1.7v-1l2.1-1.7Z"/>
    <path class="st9" d="M420.9,745.7c-.6,0-1.1-.1-1.5-.3s-.8-.5-1-.9c-.3-.4-.4-.8-.4-1.3s.1-1,.4-1.3.7-.7,1.2-.9c-.4-.2-.7-.4-1-.8-.2-.3-.4-.7-.4-1.1s.1-.9.3-1.2c.2-.4.5-.6.9-.8.4-.2.9-.3,1.4-.3s1,.1,1.4.3c.4.2.7.5.9.8.2.4.3.8.3,1.2s-.1.8-.4,1.1-.6.6-1,.8c.5.2.9.5,1.2.9s.4.8.4,1.3-.1.9-.4,1.3c-.3.4-.6.7-1,.9-.4.2-1,.3-1.5.3ZM420.9,744.9c.4,0,.7,0,1-.2s.5-.4.7-.6.3-.6.3-.9,0-.6-.3-.9-.4-.5-.7-.6-.6-.2-1-.2-.7,0-1,.2c-.3.1-.5.4-.7.6s-.3.6-.3.9,0,.6.3.9.4.5.7.6c.3.2.6.2,1,.2ZM420.9,740.6c.3,0,.6,0,.9-.2.3-.1.5-.3.6-.5.2-.2.2-.5.2-.8s0-.6-.2-.8c-.2-.2-.4-.4-.6-.6-.3-.1-.5-.2-.9-.2s-.6,0-.9.2-.5.3-.6.6c-.2.2-.2.5-.2.8s0,.5.2.8c.2.2.4.4.6.5.3.1.5.2.9.2Z"/>
  </g>
  <g>
    <text class="st11" transform="translate(41.5 111.7) scale(1.1 1)"><tspan x="0" y="0">581 700-2211</tspan></text>
    <path class="st5" d="M24.4,102.6c.5-.5,1.3-.5,1.9,0,0,0,0,0,.1.1l1.3,1.6c.2.3.3.7.2,1l-.4,1.5c0,.2,0,.3.1.4l1.8,1.7c.1.1.3.2.5.1l1.6-.4c.4,0,.8,0,1.1.2l1.7,1.3c.6.4.7,1.3.1,1.8l-.8.7c-.6.5-1.4.7-2.2.5-2-.6-3.8-1.7-5.3-3.1-1.5-1.4-2.6-3-3.3-4.9-.3-.7,0-1.5.5-2l.8-.7Z"/>
    <text class="st11" transform="translate(145.9 111.7) scale(1.1 1)"><tspan x="0" y="0">willbitton54@gmail.com</tspan></text>
    <path class="st9" d="M126,104.2c0-1,.9-1.9,2-1.9h12c1.1,0,2,.8,2,1.9v7.4c0,1-.9,1.9-2,1.9h-12c-1.1,0-2-.8-2-1.9v-7.4ZM128,103.3c-.6,0-1,.4-1,.9v.2l7,3.9,7-3.9v-.2c0-.6-.4-.9-1-.9h-12ZM141,105.5l-4.7,2.6,4.7,2.7v-5.3ZM141,111.9l-5.7-3.3-1.3.7-1.3-.7-5.7,3.3c.2.4.5.7,1,.7h12c.5,0,.8-.3,1-.7ZM127,110.8l4.7-2.7-4.7-2.6v5.3Z"/>
  </g>
  <text class="st6" transform="translate(23 79)"><tspan x="0" y="0">Développeur Web Junior</tspan></text>
  <text class="st13" transform="translate(26 238.1)"><tspan x="0" y="0">Compétences de développement web</tspan></text>
  <text class="st13" transform="translate(435.9 238.2)"><tspan x="0" y="0">Design web</tspan></text>
  <line class="st19" x1="435.9" y1="245.9" x2="580.7" y2="245.9"/>
  <text class="st1" transform="translate(463.1 269.8)"><tspan x="0" y="0">Figma</tspan><tspan x="0" y="18">Illustrator</tspan><tspan x="0" y="36">Photoshop</tspan><tspan x="0" y="54">After effects</tspan><tspan x="0" y="72">Premiere pro</tspan></text>
  <text class="st1" transform="translate(269 269.8)"><tspan x="0" y="0">Git</tspan><tspan x="0" y="18">Xcode</tspan><tspan x="0" y="36">Wordpress</tspan><tspan x="0" y="54">Android Studio</tspan><tspan x="0" y="72">Visual Code &amp; Eclipse</tspan></text>
  <text class="st1" transform="translate(46.4 269.8)"><tspan x="0" y="0">Java</tspan><tspan x="0" y="18">React</tspan><tspan x="0" y="36">Node js</tspan><tspan x="0" y="54">Javascript</tspan><tspan x="0" y="72">React Native</tspan></text>
  <path class="st12" d="M453.4,280.2v6.8c0,.8-.6,1.4-1.4,1.4h-4.3v-.7h4.3c.4,0,.7-.3.7-.7v-6.8h-1.4c-.6,0-1.1-.5-1.1-1.1v-1.4h-3.9c-.4,0-.7.3-.7.7v6.4h-.7v-6.4c0-.8.6-1.4,1.4-1.4h3.9l3.2,3.2ZM444.2,287.5l-.2.7h-.6l1-2.9h.7l1,2.9h-.6l-.2-.7h-1ZM445,287.1l-.4-1.2h0l-.4,1.2h.7ZM446.8,285.4v2.9h-.6v-2.9h.6Z"/>
  <path d="M255.6,334c0-.2,0-.4-.2-.4-.2,0-.4,0-.4.2l-2.7,8.7c0,.2,0,.4.2.4.2,0,.4,0,.4-.2l2.7-8.7ZM251.8,335.7c.1.1.1.3,0,.5,0,0,0,0,0,0l-2.1,2.1,2.1,2.1c.1.1.1.3,0,.5s-.3.1-.5,0l-2.3-2.3c-.1-.1-.1-.3,0-.5,0,0,0,0,0,0l2.3-2.3c.1-.1.3-.1.5,0,0,0,0,0,0,0ZM256,335.7c-.1.1-.1.3,0,.5,0,0,0,0,0,0l2.1,2.1-2.1,2.1c-.1.1-.1.3,0,.5s.3.1.5,0l2.3-2.3c.1-.1.1-.3,0-.5,0,0,0,0,0,0l-2.3-2.3c-.1-.1-.3-.1-.5,0,0,0,0,0,0,0Z"/>
  <path class="st12" d="M36.8,262.4v4.7h-.8v-4.7h-1.5c-.6,0-1.1-.5-1.1-1.1v-1.4h-4.2c-.4,0-.8.3-.8.7v6.5h-.8v-6.5c0-.8.7-1.4,1.5-1.4h4.2l3.4,3.2ZM27.3,270.1c0-.1,0-.2,0-.3h.6c0,0,0,.1,0,.2,0,.1.2.2.3.2.1,0,.3,0,.3-.1,0,0,.1-.2.1-.3v-2h.6v2c0,.3,0,.6-.3.7-.2.2-.4.2-.7.2-.1,0-.3,0-.4,0-.1,0-.2-.1-.3-.2,0,0-.1-.2-.2-.3ZM30.4,269.9l-.2.7h-.6l1-2.9h.7l1,2.9h-.6l-.2-.7h-1ZM31.3,269.4l-.4-1.2h0l-.4,1.2h.8ZM33,270.6h.7l1-2.9h-.7l-.7,2.3h0l-.7-2.3h-.7l1,2.9ZM35.4,269.9l-.2.7h-.6l1-2.9h.7l1,2.9h-.6l-.2-.7h-1ZM36.3,269.4l-.4-1.2h0l-.4,1.2h.8,0Z"/>
  <path class="st12" d="M453.4,298.1v6.8c0,.8-.6,1.4-1.4,1.4h-.4v-.7h.4c.4,0,.7-.3.7-.7v-6.8h-1.4c-.6,0-1.1-.5-1.1-1.1v-1.4h-3.9c-.4,0-.7.3-.7.7v6.4h-.7v-6.4c0-.8.6-1.4,1.4-1.4h3.9l3.2,3.2ZM445.6,305.5c0,.2.1.4.3.6,0,0,.2.1.3.2.1,0,.3,0,.5,0s.4,0,.6-.1c.2,0,.3-.2.4-.3,0-.1.1-.3.1-.5,0-.2,0-.3,0-.4,0-.1-.2-.2-.3-.3-.1,0-.3-.1-.4-.2h-.4c-.1-.1-.2-.2-.3-.2,0,0-.1-.1-.1-.2,0-.1,0-.2.1-.3,0,0,.2-.1.4-.1s.2,0,.3,0c0,0,.1,0,.2.1,0,0,0,.1,0,.2h.5c0-.1,0-.3-.1-.4,0-.1-.2-.2-.4-.3-.2,0-.4-.1-.6-.1-.2,0-.4,0-.6.1-.2,0-.3.2-.4.3,0,.1-.1.3-.1.5s0,.3,0,.4c0,.1.1.2.3.3.1,0,.2.1.4.2h.4c.1.1.3.2.3.2,0,0,.1.1.1.2,0,0,0,.1,0,.2,0,0-.1.1-.2.1,0,0-.2,0-.3,0s-.2,0-.2,0c0,0-.1,0-.2,0,0,0-.2-.2-.2-.3h-.5ZM444.5,303.4h-1.1v2.9h.6v-1h.6c.2,0,.4,0,.5-.1.1,0,.3-.2.3-.3,0-.1.1-.3.1-.5,0-.2,0-.3-.1-.5,0-.1-.2-.3-.3-.3-.1,0-.3-.1-.5-.1ZM444.9,304.4c0,0,0,.2,0,.3,0,0,0,.1-.2.2,0,0-.2,0-.3,0h-.5v-1h.5c.2,0,.3,0,.4.1,0,0,.1.2.1.4ZM448.2,306.3v-2.9h1c.3,0,.5,0,.7.2.2.1.3.3.4.5s.1.5.1.8,0,.6-.1.8c0,.2-.2.4-.4.5-.2.1-.4.2-.7.2h-1ZM449.2,303.9h-.4v1.9h.4c.1,0,.2,0,.3,0,0,0,.2,0,.2-.2,0,0,.1-.2.1-.3,0-.1,0-.3,0-.4,0-.2,0-.4,0-.5,0-.1-.1-.2-.3-.3-.1,0-.3-.1-.4-.1Z"/>
  <path class="st12" d="M453.4,316.1v6.8c0,.8-.6,1.4-1.4,1.4h-.4v-.7h.4c.4,0,.7-.3.7-.7v-6.8h-1.4c-.6,0-1.1-.5-1.1-1.1v-1.4h-3.9c-.4,0-.7.3-.7.7v6.4h-.7v-6.4c0-.8.6-1.4,1.4-1.4h3.9l3.2,3.2Z"/>
  <path class="st12" d="M37.3,334.4v6.8c0,.8-.6,1.4-1.4,1.4h-.7v-.7h.7c.4,0,.7-.3.7-.7v-6.8h-1.4c-.6,0-1.1-.5-1.1-1.1v-1.4h-3.9c-.4,0-.7.3-.7.7v6.4h-.7v-6.4c0-.8.6-1.4,1.4-1.4h3.9l3.2,3.2ZM29.5,341.8c0,.2.1.4.3.6,0,0,.2.1.3.2.1,0,.3,0,.5,0s.4,0,.6-.1c.2,0,.3-.2.4-.3,0-.1.1-.3.1-.5,0-.2,0-.3,0-.4,0-.1-.2-.2-.3-.3-.1,0-.3-.1-.4-.2h-.4c-.1-.1-.2-.2-.3-.2,0,0-.1-.1-.1-.2,0-.1,0-.2.1-.3,0,0,.2-.1.4-.1s.2,0,.3,0c0,0,.1,0,.2.1,0,0,0,.1,0,.2h.5c0-.1,0-.3-.1-.4,0-.1-.2-.2-.4-.3-.2,0-.4-.1-.6-.1-.2,0-.4,0-.6.1-.2,0-.3.2-.4.3,0,.1-.1.3-.1.5s0,.3,0,.4c0,.1.1.2.3.3.1,0,.2.1.4.2h.4c.1.1.3.2.3.2,0,0,.1.1.1.2,0,0,0,.1,0,.2,0,0-.1.1-.2.1,0,0-.2,0-.3,0,0,0-.2,0-.2,0,0,0-.1,0-.2,0,0,0-.2-.2-.2-.3h-.5ZM28.7,342.5v-2.4h.8v-.5h-2.2v.5h.8v2.4h.6ZM33.7,339.7h.6l-.9,1.4.9,1.4h-.6l-.6-1h0l-.6,1h-.6l.9-1.4-.9-1.4h.7l.6,1h0l.6-1Z"/>
  <path d="M258.7,264.4l-4.4-4.4c-.3-.3-.7-.3-.9,0,0,0,0,0,0,0l-.9.9,1.2,1.2c.4-.1.8,0,1,.5,0,.2,0,.3,0,.5l1.1,1.1c.4-.1.8,0,1,.5,0,.3,0,.6-.2.8-.3.3-.8.3-1.1,0-.2-.2-.3-.5-.2-.8l-1-1v2.7c.4.2.5.6.3,1-.2.4-.6.5-1,.3s-.5-.6-.3-1c0-.2.2-.3.4-.4v-2.7c-.4-.2-.6-.6-.4-1,0,0,0,0,0,0l-1.1-1.1-3,3c-.3.3-.3.7,0,.9,0,0,0,0,0,0l4.4,4.4c.3.3.7.3.9,0h0s4.3-4.3,4.3-4.3c.3-.3.3-.7,0-.9"/>
  <text class="st15" transform="translate(443.4 324.3)"><tspan x="0" y="0">AEP</tspan></text>
  <path class="st12" d="M453.5,332.1v6.8c0,.8-.6,1.4-1.4,1.4h-.4v-.7h.4c.4,0,.7-.3.7-.7v-6.8h-1.4c-.6,0-1.1-.5-1.1-1.1v-1.4h-3.9c-.4,0-.7.3-.7.7v6.4h-.7v-6.4c0-.8.6-1.4,1.4-1.4h3.9l3.2,3.2Z"/>
  <text class="st15" transform="translate(434.8 340.3)"><tspan x="0" y="0">PRPROJ</tspan></text>
  <path class="st12" d="M452.8,262.6v6.8c0,.8-.6,1.4-1.4,1.4h-.4v-.7h.4c.4,0,.7-.3.7-.7v-6.8h-1.4c-.6,0-1.1-.5-1.1-1.1v-1.4h-3.9c-.4,0-.7.3-.7.7v6.4h-.7v-6.4c0-.8.6-1.4,1.4-1.4h3.9l3.2,3.2Z"/>
  <text class="st15" transform="translate(443.9 270.8)"><tspan x="0" y="0">FIG</tspan></text>
  <line class="st19" x1="26" y1="245.9" x2="401" y2="245.9"/>
  <text class="st13" transform="translate(26 391.3)"><tspan x="0" y="0">Expériences de travail</tspan></text>
  <text class="st14" transform="translate(435.9 391.3)"><tspan x="0" y="0">Qualités</tspan></text>
  <line class="st19" x1="435.9" y1="399.1" x2="580.7" y2="399.1"/>
  <line class="st19" x1="26" y1="399.1" x2="401" y2="399.1"/>
  <text transform="translate(154.9 429.2) scale(1 1)"><tspan class="st0"><tspan x="0" y="0">MUVAC (Berlin)</tspan></tspan><tspan class="st20"><tspan x="0" y="12">Stagiaire développeur web</tspan></tspan><tspan class="st0"><tspan x="0" y="36">TELLUTION (Québec)</tspan></tspan><tspan class="st20"><tspan x="0" y="48">Technicien de réparation électronique</tspan></tspan><tspan class="st0"><tspan x="0" y="71">MOBILE KLINIK (Québec)</tspan></tspan><tspan class="st20"><tspan x="0" y="83">Technicien de réparation électronique</tspan></tspan><tspan class="st0"><tspan x="0" y="108">COMBINED ASSURANCES (Québec)</tspan></tspan><tspan class="st20"><tspan x="0" y="120">Représentant en assurances</tspan></tspan></text>
  <ellipse class="st16" cx="144.1" cy="503" rx="2.4" ry="2.6"/>
  <rect class="st4" x="26.1" y="489.9" width="97.9" height="26.3" rx="13.2" ry="13.2"/>
  <text class="st2" transform="translate(62.3 506.4) scale(.9 1)"><tspan x="0" y="0">2019</tspan></text>
  <ellipse class="st16" cx="144.1" cy="466.5" rx="2.4" ry="2.6"/>
  <rect class="st4" x="26.1" y="453.4" width="97.9" height="26.3" rx="13.2" ry="13.2"/>
  <text class="st2" transform="translate(62.7 470) scale(.9 1)"><tspan x="0" y="0">2021</tspan></text>
  <ellipse class="st16" cx="144.1" cy="430" rx="2.4" ry="2.6"/>
  <rect class="st4" x="26.1" y="416.9" width="97.9" height="26.3" rx="13.2" ry="13.2"/>
  <text class="st2" transform="translate(61.9 433.5) scale(.9 1)"><tspan x="0" y="0">2024</tspan></text>
  <line class="st19" x1="144.1" y1="428.1" x2="144.1" y2="540.6"/>
  <rect class="st4" x="26.1" y="526.3" width="97.9" height="26.3" rx="13.2" ry="13.2"/>
  <text class="st2" transform="translate(62.3 542.9) scale(.9 1)"><tspan x="0" y="0">2018</tspan></text>
  <ellipse class="st16" cx="144.1" cy="539.5" rx="2.4" ry="2.6"/>
  <rect class="st4" x="440.3" y="416.9" width="141.3" height="24.8" rx="12.4" ry="12.4"/>
  <text class="st2" transform="translate(481 432.7)"><tspan x="0" y="0">Autonome</tspan></text>
  <rect class="st4" x="440.3" y="453.9" width="141.3" height="24.8" rx="12.4" ry="12.4"/>
  <text class="st2" transform="translate(468 469.8)"><tspan x="0" y="0">Esprit d’équipe</tspan></text>
  <rect class="st4" x="440.3" y="490.9" width="141.3" height="24.8" rx="12.4" ry="12.4"/>
  <text class="st2" transform="translate(460.5 506.7)"><tspan x="0" y="0">Gestion du temps</tspan></text>
  <rect class="st4" x="440.3" y="527.8" width="141.3" height="24.8" rx="12.4" ry="12.4"/>
  <text class="st2" transform="translate(457.6 543.7)"><tspan x="0" y="0">Capacité d’analyse</tspan></text>
  <g>
    <path class="st12" d="M36.8,298.4v6.8c0,.8-.6,1.4-1.4,1.4h-.4v-.7h.4c.4,0,.7-.3.7-.7v-6.8h-1.4c-.6,0-1.1-.5-1.1-1.1v-1.4h-3.9c-.4,0-.7.3-.7.7v6.4h-.7v-6.4c0-.8.6-1.4,1.4-1.4h3.9l3.2,3.2Z"/>
    <text class="st15" transform="translate(27.3 306.6)"><tspan x="0" y="0">EJS</tspan></text>
  </g>
  <path class="st12" d="M37.3,280.4v6.8c0,.8-.6,1.4-1.4,1.4h-.7v-.7h.7c.4,0,.7-.3.7-.7v-6.8h-1.4c-.6,0-1.1-.5-1.1-1.1v-1.4h-3.9c-.4,0-.7.3-.7.7v6.4h-.7v-6.4c0-.8.6-1.4,1.4-1.4h3.9l3.2,3.2ZM29.5,287.8c0,.2.1.4.3.6,0,0,.2.1.3.2.1,0,.3,0,.5,0s.4,0,.6-.1c.2,0,.3-.2.4-.3,0-.1.1-.3.1-.5,0-.2,0-.3,0-.4,0-.1-.2-.2-.3-.3-.1,0-.3-.1-.4-.2h-.4c-.1-.1-.2-.2-.3-.2,0,0-.1-.1-.1-.2,0-.1,0-.2.1-.3,0,0,.2-.1.4-.1s.2,0,.3,0c0,0,.1,0,.2.1,0,0,0,.1,0,.2h.5c0-.1,0-.3-.1-.4,0-.1-.2-.2-.4-.3-.2,0-.4-.1-.6-.1-.2,0-.4,0-.6.1-.2,0-.3.2-.4.3,0,.1-.1.3-.1.5s0,.3,0,.4c0,.1.1.2.3.3.1,0,.2.1.4.2h.4c.1.1.3.2.3.2,0,0,.1.1.1.2,0,0,0,.1,0,.2,0,0-.1.1-.2.1,0,0-.2,0-.3,0,0,0-.2,0-.2,0,0,0-.1,0-.2,0,0,0-.2-.2-.2-.3h-.5ZM28.7,288.5v-2.4h.8v-.5h-2.2v.5h.8v2.4h.6ZM33.7,285.7h.6l-.9,1.4.9,1.4h-.6l-.6-1h0l-.6,1h-.6l.9-1.4-.9-1.4h.7l.6,1h0l.6-1Z"/>
  <g>
    <path d="M256.8,301.4c0-.5-.2-.9-.4-1.2h0c-.2-.4-.4-.7-.4-1s.3-.8.7-.8,0,0,0,0h0c-.8-.7-1.8-1.1-2.9-1.1-1.4,0-2.8.7-3.6,1.9.1,0,.2,0,.3,0,.4,0,1.1,0,1.1,0,.2,0,.3.3,0,.4,0,0-.2,0-.5,0l1.6,4.6.9-2.8-.7-1.8c-.2,0-.4,0-.4,0-.2,0-.2-.4,0-.4,0,0,.7,0,1.1,0s1.1,0,1.1,0c.2,0,.3.3,0,.4,0,0-.2,0-.5,0l1.6,4.6.4-1.4h0c.2-.6.3-1,.3-1.4h0ZM249.6,301.7c0,1.6.9,3.1,2.4,3.9l-2-5.6c-.2.5-.4,1.1-.4,1.7"/>
    <path d="M252.7,305.8l1.3-3.7,1.3,3.6s0,0,0,0c-.8.3-1.8.3-2.6,0M257.7,299.6c0,.1,0,.3,0,.4,0,.4,0,.9-.3,1.5l-1.3,3.8c2-1.2,2.7-3.7,1.6-5.8h0Z"/>
    <path class="st12" d="M248.9,301.7c0-2.8,2.2-5,5-5s5,2.2,5,5-2.2,5-5,5-5-2.2-5-5M249.2,301.7c0,2.6,2.1,4.8,4.8,4.8s4.8-2.1,4.8-4.8-2.1-4.8-4.8-4.8-4.8,2.1-4.8,4.8"/>
  </g>
  <path d="M253.9,314.4c-2.8,0-5,2.2-5,5s.6,2.7,1.5,3.6l-.4.7c0,0,0,.1,0,.2v.9c0,.2,0,.3.2.4,0,0,.1,0,.2,0s.2,0,.2,0l.8-.4c0,0,.1,0,.2-.2l.4-.6c.6.3,1.3.4,2,.4s1.4-.2,2-.4l.4.6c0,0,0,.1.2.2l.8.4c0,0,.1,0,.2,0s.1,0,.2,0c.1,0,.2-.2.2-.4v-.9c0,0,0-.2,0-.2l-.4-.7c.9-.9,1.5-2.2,1.5-3.6,0-2.8-2.2-5-5-5ZM253.5,316.4h.9c.1,0,.2,0,.2.2v.7h.4c.2,0,.4.2.4.4v1.8c0,0,0,.1,0,.2l-1.2,1.2c-.2.2-.4.2-.6,0l-1.2-1.2s0,0,0-.2v-1.8c0-.2.2-.4.4-.4h.4v-.7c0-.1,0-.2.2-.2ZM253.9,318.1c-.4,0-.7.3-.7.7s.3.7.7.7.7-.3.7-.7-.3-.7-.7-.7ZM256.5,319.7h.9c0,.9-.5,1.7-1.1,2.3h0c-.2.2-.5.4-.7.5h0c-.5.3-1.1.4-1.7.4s-1.2-.2-1.7-.4l-1.1,1.9-.8.4v-.9l2.1-3.7.6.6-.4.8c.4.2.8.3,1.2.3s.9-.1,1.2-.3h0c.3-.1.5-.3.7-.5h0s0,0,0,0c.4-.4.6-1,.7-1.5ZM255.3,320.3l.3.5c-.2.2-.4.4-.7.6l-.2-.4.6-.6ZM256.5,322.4l.9,1.6v.9h0l-.8-.4-.9-1.6c.3-.1.5-.3.7-.5Z"/>
  <g>
    <path class="st16" d="M258.5,287.3l-8.5,1.3-1-6.8,8.5-1.3,1.1,6.8Z"/>
    <path class="st16" d="M257.4,280.5l1.1,6.8-8.5,1.3v-.7c0,0,7.4-7.5,7.4-7.5Z"/>
    <path class="st16" d="M248.9,281.8l.5,3.5,4-4.2-4.6.7Z"/>
    <path class="st9" d="M250.4,288.1l-.9-6,7.6-1.2,1,5.9-7.6,1.2ZM250,282.5l.8,5,6.7-1.1-.8-5-6.7,1Z"/>
    <path class="st9" d="M251,284.8v.7c0,0,5.7-.9,5.7-.9v-.7c-.1,0-5.7.9-5.7.9Z"/>
    <path class="st9" d="M252.2,286.4l-.7.8v-1.1c0,0,0,0,.1,0l1.2-2.9c0-.1.2-.2.3-.1h.2c.1.1.2.3.1.4l-1.2,2.9s0,0,0,0ZM255.4,285.3l-2.1-2.5c0,0,0-.3,0-.3h.2c0-.2.3-.2.3-.1l2.1,2.5-.5.4ZM256.1,285s.5.2.5.8-.1.6-.1.6c0,0,0-.3-.5-.4-.6-.2-.6-.7-.6-.7h.5c0-.1.2-.3.2-.3Z"/>
    <path class="st16" d="M253.1,284.3l-.3.7.4-.4v-.3c0,0-.2,0-.2,0Z"/>
    <path class="st16" d="M252.9,285.5l.4-.9-.4.4-.2.5h.3Z"/>
    <path class="st16" d="M251.9,285.5l.5-1.1h-.3l-.5,1.1h.2Z"/>
    <path class="st16" d="M256.2,284.7l-.8-.9h-.3l.8.9h0c0,0-.5.5-.5.5l-.3-.3h0l-.7-.8h-.3l.7.8.5.5.2.2h.2c0-.1.5-.6.5-.6h.2c0-.1-.1-.3-.1-.3Z"/>
    <path class="st16" d="M252.3,283.4v.3l1.1.5v-.3l-1.1-.5Z"/>
    <path class="st16" d="M252.6,286.3l-.7-.3-.2.2.9.4v-.3Z"/>
    <path class="st16" d="M251.4,285.8v.2h.3c0,.1.2,0,.2,0l-.4-.2Z"/>
    <path class="st16" d="M257.1,281.4h0s.2,1,.2,1l.3-.8s0,0,0,0v-.5c-.3.1-.4.3-.5.4ZM256.2,286s0,0-.2,0c-.1,0-.2,0-.2-.1l-.3,1h.5c0,0,.2-.8.2-.8ZM255.3,287.3v.5c-.1,0,.4,0,.4,0v-.5c.1,0-.4,0-.4,0ZM256.4,283.6h0s0,.3,0,.3h.2s0,.5,0,.5l.2-.7v-.4c.1,0,0-1,0-1l-.2.8v.4Z"/>
    <path class="st21" d="M256.8,282.4l.2,1,.3-1-.2-1c-.1.3-.2.6-.2.7v.2ZM255.5,286.8v.5c-.1,0,.4,0,.4,0v-.5c.1,0-.4,0-.4,0ZM256.6,284.4v-.5c0,0-.3,0-.3,0l-.2.7h.5c0,0,0-.3,0-.3ZM256.1,285h-.1c0,0-.2.8-.2.8,0,0,.2,0,.2.1,0,0,.1,0,.2,0l.2-.8c-.1-.1-.3-.2-.3-.2Z"/>
    <path class="st16" d="M256.4,285.2l.2-.6h-.5c0,0-.1.6-.1.6l.2-.2s.2,0,.3.2Z"/>
    <path class="st21" d="M256.1,285l-.2.2-.2.7c0,0,.2,0,.2.1,0,0,.1,0,.2,0l.2-.8c-.1-.1-.3-.2-.3-.2Z"/>
    <path class="st22" d="M256.7,279.7c-1.4,0-2.3.3-2.3.3h0c2,.1,2.2.8,2.3,1v-1.4Z"/>
    <path class="st24" d="M258.5,280.1c0,0,0,.2-.2.2-.2,0-.5-.4-.5-.4-.4-.2-1.1-.5-1.8-.5-1.4,0-1.8.3-1.8.3h0c1,.1,1.3.2,1.7.5.5.4.5,1.3.3,2.1l-.4,1.2.7.2.5-1.5s.1-.4.2-.7c0-.2.2-.4.5-.5.1,0,.3,0,.4,0,.1,0,.1.2,0,.3h.5c0,.1.4-1,.4-1l-.5-.2Z"/>
    <path class="st21" d="M258.2,280.2c-.2,0-.5-.4-.5-.4l-.2.6c0,.2-.3.4-.6.3l-1-.3c.1.2.2.4.2.7l.9.3c0-.1.2-.3.3-.4h0s0,0,.1,0c.1,0,.3,0,.4,0,.1,0,.1.2,0,.3h0l.4-1.1c0,0,0,.2-.2.2Z"/>
    <path class="st23" d="M255.7,283.4l-2,4.6c-.1.3,0,.7.4.7h.2c.3.2.6,0,.7-.3l1.4-4.9-.7-.2Z"/>
  </g>
  <path class="st12" d="M36.5,316.6v4.6h-.7v-4.6h-1.4c-.6,0-1.1-.5-1.1-1.1v-1.4h-3.9c-.4,0-.7.3-.7.7v6.4h-.7v-6.4c0-.8.6-1.4,1.4-1.4h3.9l3.2,3.2ZM29.6,321.8v2.8h-.6v-1.2h-1.2v1.2h-.6v-2.8h.6v1.2h1.2v-1.2h.6ZM31.2,322.3v2.4h-.6v-2.4h-.8v-.5h2.2v.5h-.8ZM32.7,324.7v-1.9h0l.7,1.5h.4l.7-1.5h0v1.9h.5v-2.8h-.6l-.8,1.8h0l-.8-1.8h-.6v2.8h.5ZM36.1,324.2h1.2v.5h-1.8v-2.8h.6v2.4h0Z"/>
  <text class="st3" transform="translate(23 132.6)"><tspan x="0" y="0">Visitez mon portfolio: portfolio-27aq.onrender.com </tspan></text>
</svg>