<?xml version="1.0" encoding="utf-8"?>
<!-- Generator: Adobe Illustrator 26.4.1, SVG Export Plug-In . SVG Version: 6.00 Build 0)  -->
<svg version="1.1" id="Calque_1" xmlns="http://www.w3.org/2000/svg" xmlns:xlink="http://www.w3.org/1999/xlink" x="0px" y="0px"
	 viewBox="0 0 1280 303.2" style="enable-background:new 0 0 1280 303.2;" xml:space="preserve">
<style type="text/css">
	.st0{fill:url(#SVGID_1_);}
	.st1{fill:#466BFF;}
</style>
<linearGradient id="SVGID_1_" gradientUnits="userSpaceOnUse" x1="2.897" y1="250.7957" x2="1282.897" y2="250.7957" gradientTransform="matrix(1 0 0 -1 0 418.9305)">
	<stop  offset="0" style="stop-color:#F0F3FF"/>
	<stop  offset="1" style="stop-color:#466BFF"/>
</linearGradient>
<path class="st0" d="M1282.9,329.3c-50.9-13.9-97.8-182.1-184.2-245.3c-86.5-63.2-153.4-66.4-246.6-30.8s-127.5,53.5-241.6-9.7
	S362.9,5.8,246.9,70.1c-95,66-165.1,257.1-244,259.2H1282.9z"/>
<path class="st1" d="M1269.2,316.4c-78.9-2.1-113.1-151.9-208.1-218S870.9-16.9,756.9,46.3s-224.8,34-318-1.6S272.6-9.7,186.2,53.5
	s-146.1,249-197,262.9H1269.2z"/>
</svg>
