<?xml version="1.0" encoding="utf-8"?>
<!-- Generator: Adobe Illustrator 26.4.1, SVG Export Plug-In . SVG Version: 6.00 Build 0)  -->
<svg version="1.1" id="Calque_1" xmlns="http://www.w3.org/2000/svg" xmlns:xlink="http://www.w3.org/1999/xlink" x="0px" y="0px"
	 viewBox="0 0 1920 1080" style="enable-background:new 0 0 1920 1080;" xml:space="preserve">
<style type="text/css">
	.st0{fill:#F0F3FF;}
	.st1{fill:url(#SVGID_1_);}
	.st2{fill:url(#SVGID_00000075123628835134462180000017296442823005047968_);}
	.st3{fill:#466BFF;}
	.st4{fill:none;stroke:#81ABFF;stroke-width:5;stroke-miterlimit:10;}
	.st5{fill:#81ABFF;}
	.st6{fill:#272525;}
	.st7{fill:#FFFFFF;}
	.st8{fill:#55422F;stroke:#272525;stroke-miterlimit:10;}
	.st9{fill:#F0F3FF;stroke:#272525;stroke-width:4;stroke-miterlimit:10;}
	.st10{fill:none;stroke:#272525;stroke-width:4;stroke-linecap:round;stroke-linejoin:round;stroke-miterlimit:10;}
	.st11{font-family:'CroissantOne-Regular';}
	.st12{font-size:103.4428px;}
	.st13{fill:#F0F3FF;stroke:#272525;stroke-width:4;stroke-linecap:round;stroke-linejoin:round;stroke-miterlimit:10;}
	.st14{fill:none;stroke:#272525;stroke-width:4;stroke-miterlimit:10;}
	.st15{fill:#FFFFFF;stroke:#272525;stroke-width:4;stroke-miterlimit:10;}
	.st16{fill:none;stroke:#FFFFFF;stroke-width:2;stroke-linecap:round;stroke-linejoin:round;stroke-miterlimit:10;}
	.st17{clip-path:url(#SVGID_00000011028988160570105450000004074302739636653189_);fill:#81ABFF;}
	.st18{clip-path:url(#SVGID_00000158025933929994177400000014121855393617368727_);}
</style>
<rect class="st0" width="1920" height="1080"/>
<linearGradient id="SVGID_1_" gradientUnits="userSpaceOnUse" x1="1097.2388" y1="752.5475" x2="1996.4916" y2="532.8546" gradientTransform="matrix(1 0 0 -1 0 1080)">
	<stop  offset="0" style="stop-color:#FFFFFF"/>
	<stop  offset="1" style="stop-color:#466BFF"/>
</linearGradient>
<path class="st1" d="M1590,186.1c0,0-314.2,93.5-317.1,191.2s311.8,191.5,402.3,210.1c12.6,2.6,20.1,7.4,23.6,14.1
	c21.5,40.9-170.7,124-162.6,202.4c3.2,30.7,37.2,66.9,154.5,101.3c76.1,15.7,152.2,31.5,228.4,47.2c0.3-285.5,0.7-571.1,1-856.6
	L1590,186.1z"/>
<linearGradient id="SVGID_00000098182092399891039800000005912261733412511153_" gradientUnits="userSpaceOnUse" x1="-2.2663" y1="449.6118" x2="546.123" y2="449.6118" gradientTransform="matrix(1 0 0 -1 0 1080)">
	<stop  offset="0" style="stop-color:#FFFFFF"/>
	<stop  offset="1" style="stop-color:#466BFF"/>
</linearGradient>
<path style="fill:url(#SVGID_00000098182092399891039800000005912261733412511153_);" d="M85.7,930.7c-29.3-227-58.6-454.1-88-681.1
	C15,296,46.3,360.2,105.7,416c42.2,39.6,80.1,57.6,130.9,83c194.6,97.3,292.2,146.7,304.5,183.7c32.1,96-93.8,253.2-244.1,307
	C159.7,1039,34.8,990.2-2.3,974C27.1,959.6,56.4,945.2,85.7,930.7z"/>
<path class="st3" d="M0,1047.7c-0.8-271.9-1.5-543.9-2.3-815.8c24,100.6,72.5,230.1,181,277.3c131,57,257.4-46.1,307,12.6
	c60.1,71.1-74.1,282.9-130.9,372.5c-37,58.3-57.4,78.6-75.5,93.1C180,1067.1,51.2,1055.3,0,1047.7z"/>
<path class="st3" d="M1373.1,393c-23.4,89.7,231.6,165.5,339.9,218.3c5.5,2.7,9.3,6.1,11.7,10.3c48.1,82.8-302.4,356.2-257.5,428.7
	c10.2,16.5,46.2,30.2,182.2-9.3c89.9-26.2,179.8-52.5,269.7-78.7c0.3-289.1,0.6-578.3,0.9-867.4C1920,94.8,1396.5,303.3,1373.1,393z
	"/>
<path class="st4" d="M1770.4,142.7c0,0-397.3,283-329.3,407.7s409.8,124.7,478.9,274"/>
<path class="st4" d="M0,257.4c0,0,604.7,194.6,492.9,355.4S0,852.2,0,852.2"/>
<g>
	<path class="st5" d="M1332.2,324.1c-2,10.6-3.1,29.2,8,35.7c13.3,7.8,43.7-4.9,56.2-6.6c40.3-5.5,68.1,17.1,104.9,29.7
		c11.8,4.1,28.6-0.1,37.1-9.8c17.6-20.2-5.3-44.3-21.5-54.1c-17-10.3-37-18-45.1-38.1c-5.8-14.3-8.2-23.8-26.7-23
		C1406.6,259.6,1340.4,280.3,1332.2,324.1z"/>
</g>
<ellipse class="st5" cx="1713.3" cy="779.7" rx="24.7" ry="16.9"/>
<ellipse class="st5" cx="265.6" cy="826.8" rx="24.7" ry="16.9"/>
<ellipse class="st5" cx="1773.1" cy="803.8" rx="16.9" ry="11.5"/>
<g>
	<path class="st6" d="M1265.7,536.6c1.4,0,2.8,0.3,4.1,0.7c1.9,0.5,3.9,1.2,5.5,2.4c-1.6,1.8-3.7,3.1-6.1,3.6
		c-0.7,0.1-1.3,0.2-2,0.2h-0.1c-1.7,0-3.5-0.3-5-1.1c-1.1-0.6-2.2-1.4-3-2.4c1.3-1.4,2.8-2.6,4.7-3.1
		C1264.5,536.6,1265.1,536.6,1265.7,536.6 M1265.7,532.6c-1,0-1.9,0.1-2.8,0.3c-2.4,0.6-4.7,2.1-6.7,4.3l-2.2,2.5l2,2.6
		c1.1,1.5,2.6,2.7,4.3,3.5c2,1,4.4,1.6,6.8,1.6h0.2c1,0,1.9-0.1,2.7-0.3c3-0.6,5.8-2.2,8.2-4.8l3.1-3.4l-3.8-2.6
		c-2.2-1.6-4.7-2.4-6.8-2.9C1269.4,533,1267.6,532.6,1265.7,532.6L1265.7,532.6z"/>
</g>
<g>
	<path class="st6" d="M1187.9,455.7c1.2,0,2.4,0.1,3.6,0.4c1.1,0.3,2.1,0.6,3.1,1.1c2.7,1.2,5.1,2.9,6.9,5.2
		c1.3,1.6,2.3,3.6,2.8,5.6c-2.2,1-4.6,1.6-6.9,1.6c-0.7,0-1.4-0.1-2.1-0.2c-3.2-0.6-6-2.6-8.5-4.7s-5-4.4-6.7-7.3
		C1182.5,456.3,1185.2,455.7,1187.9,455.7 M1187.9,451.7c-3.1,0-6.2,0.7-9.4,2l-4.2,1.8l2.3,4c2.1,3.5,5,6.2,7.5,8.3
		c2.9,2.4,6.2,4.8,10.3,5.6c0.9,0.2,1.9,0.3,2.9,0.3c2.7,0,5.6-0.7,8.5-2l3-1.3l-0.8-3.2c-0.6-2.6-1.8-5.1-3.5-7.2
		c-2.1-2.6-5-4.8-8.4-6.3c-1.3-0.6-2.5-1-3.8-1.3C1190.9,451.9,1189.4,451.7,1187.9,451.7L1187.9,451.7z"/>
</g>
<g>
	<path class="st0" d="M1275.7,564.7c-4.7,0-9-0.8-12.7-2.4c-1.8-0.8-3.3-1.6-4.5-2.7c-2.4-2-4.2-4.9-5.4-8.9l-0.3-1.1l0.8-0.8
		c2.8-3.1,6.1-5.4,9.7-6.8c2.2-0.8,4.6-1.2,6.9-1.2s4.5,0.4,6.5,1.2c3,1.2,5.9,3.3,8.7,6.4c2.7,2.9,5.2,6.5,7.6,11l1.2,2.2l-2.5,0.6
		c-0.7,0.2-1.3,0.3-2,0.5c-5.1,1.2-9.3,1.8-13.2,1.9C1276.2,564.7,1276,564.7,1275.7,564.7z"/>
	<path class="st6" d="M1270.1,542.9c2,0,3.9,0.3,5.8,1.1c3.1,1.2,5.7,3.4,8,5.9c2.9,3.2,5.2,6.8,7.3,10.6c-0.7,0.2-1.3,0.3-2,0.5
		c-4.2,1-8.4,1.8-12.7,1.8c-0.2,0-0.4,0-0.7,0c-4.1,0-8.2-0.6-11.9-2.2c-1.4-0.6-2.8-1.4-4-2.4c-2.4-2-3.9-4.9-4.8-7.9
		c2.4-2.7,5.5-5,8.9-6.2C1265.9,543.3,1268,542.9,1270.1,542.9 M1270.1,538.9c-2.6,0-5.1,0.5-7.6,1.4c-3.9,1.4-7.5,3.9-10.5,7.3
		l-1.5,1.7l0.7,2.2c1.3,4.3,3.3,7.5,6.1,9.8c1.4,1.1,3,2.1,5,3c4,1.7,8.5,2.6,13.5,2.6c0.2,0,0.5,0,0.7,0c4-0.1,8.4-0.7,13.6-1.9
		c0.7-0.2,1.4-0.3,2-0.5l4.9-1.3l-2.4-4.5c-2.5-4.6-5.1-8.3-7.9-11.4c-3.1-3.3-6.2-5.6-9.5-6.9
		C1275.1,539.4,1272.6,538.9,1270.1,538.9L1270.1,538.9z"/>
</g>
<g>
	<path class="st0" d="M1229.8,542.3c-0.2-3.7,0.3-7,1.5-9.8c1.4-3.2,3.7-6.1,6.9-8.6c2-1.5,4.3-2.9,7.2-4.3l2.8-1.3l0.1,3.1
		c0.2,5.1-0.7,9.3-2.6,12.6c-1.6,2.7-4,5.1-7.2,7.1c-1.7,1.1-3.6,2-5.9,3l-2.6,1.1L1229.8,542.3z"/>
	<path class="st6" d="M1246.3,521.3c0.2,4-0.4,8.1-2.4,11.6c-1.6,2.7-3.9,4.8-6.6,6.5c-1.8,1.1-3.7,2-5.6,2.8
		c-0.2-3.1,0.2-6.1,1.4-8.9c1.3-3.1,3.6-5.7,6.3-7.8C1241.6,523.8,1243.9,522.5,1246.3,521.3 M1250,515.1l-5.5,2.7
		c-3.1,1.5-5.4,2.9-7.5,4.6c-3.5,2.7-6,5.9-7.5,9.4c-1.4,3.2-1.9,6.8-1.7,10.7l0.3,5.6l5.2-2.2c2.5-1,4.4-2,6.2-3.1
		c3.5-2.2,6.1-4.8,7.9-7.8c2.2-3.7,3.1-8.2,2.9-13.7L1250,515.1L1250,515.1z"/>
</g>
<g>
	<path class="st6" d="M1223.5,423.8c3.6,4.3,6.7,9.1,8.8,14.3c2.6,6.5,3.5,13.9,1.6,20.6c-1.5,5.4-4.5,10.2-7.9,14.6
		c-1,1.4-2.1,2.7-3.4,3.9c-2.6-1.2-4.8-3.3-6.3-5.7c-1.8-2.8-2.8-6-3.3-9.2c-0.9-6.2-0.1-12.5,1.6-18.5
		C1216.5,436.9,1219.6,430.1,1223.5,423.8 M1223.1,417.1l-3,4.6c-4.2,6.6-7.4,13.7-9.4,21.3c-2,7.4-2.6,14-1.6,20.1
		c0.6,4.2,1.9,7.8,3.9,10.8c2,3.2,4.8,5.7,8,7.1l2.4,1.1l2-1.8c1.5-1.4,2.8-2.9,3.9-4.4c3.1-4.1,6.8-9.5,8.6-16
		c1.9-7.1,1.3-15.4-1.8-23.2c-2.1-5.2-5.1-10.3-9.4-15.4L1223.1,417.1L1223.1,417.1z"/>
</g>
<g>
	<path class="st7" d="M1205.4,454c-1.3-0.6-2.3-1.6-3.1-2.8c-0.7-1.2-1.2-2.6-1.5-4.2c-0.3-2.3-0.1-4.8,0.6-7.6
		c0.8-2.8,1.9-5.5,3.5-7.9l1.5-2.3l1.7,2.1c1.6,1.9,2.8,3.8,3.5,5.8c1.2,3,1.4,6.1,0.7,8.8c-0.7,2.4-2.1,4.5-3.2,6
		c-0.4,0.5-0.9,1.1-1.5,1.7l-1,0.9L1205.4,454z"/>
	<path class="st6" d="M1206.6,432.6c1.3,1.6,2.5,3.3,3.2,5.2c0.9,2.4,1.3,5.1,0.6,7.5c-0.5,2-1.7,3.7-2.9,5.3
		c-0.4,0.5-0.8,1-1.2,1.4c-0.9-0.4-1.7-1.2-2.3-2.1c-0.7-1-1-2.2-1.2-3.4c-0.3-2.2,0-4.6,0.6-6.7
		C1204,437.4,1205.1,434.9,1206.6,432.6 M1206.1,425.8l-3,4.6c-1.7,2.6-2.9,5.5-3.8,8.5c-0.8,3.1-1,5.8-0.7,8.4
		c0.3,1.9,0.9,3.5,1.8,5c1,1.6,2.4,2.8,4,3.5l2.4,1.1l2-1.8c0.7-0.6,1.3-1.3,1.7-2c1.3-1.7,2.8-3.9,3.6-6.7
		c0.9-3.1,0.6-6.7-0.7-10.1c-0.9-2.2-2.1-4.2-3.9-6.3L1206.1,425.8L1206.1,425.8z"/>
</g>
<g>
	<path class="st6" d="M1186.9,484.6c2.2,0,4.4,0.2,6.6,0.5c6.8,1,13.5,3.1,19,7.2c4.7,3.5,8.4,8.5,9.7,14.2
		c-3.6,1.8-7.6,2.6-11.7,2.6c-2,0-4-0.2-5.9-0.6c-6.6-1.4-12.6-4.9-17.4-9.5c-3.9-3.7-7.2-8.3-8.6-13.4c2.6-0.7,5.2-1,7.9-1.1
		C1186.5,484.6,1186.7,484.6,1186.9,484.6 M1186.9,480.6c-0.2,0-0.4,0-0.6,0c-3,0-5.9,0.5-8.8,1.2l-3.9,1l1.1,3.9
		c1.4,5.4,4.8,10.7,9.7,15.3c5.7,5.4,12.4,9,19.4,10.5c2.2,0.5,4.5,0.7,6.7,0.7c4.8,0,9.4-1.1,13.5-3l2.8-1.4l-0.7-3.1
		c-1.5-6.3-5.5-12.3-11.2-16.5c-5.4-4.1-12.4-6.8-20.8-8C1191.4,480.8,1189.1,480.6,1186.9,480.6L1186.9,480.6z"/>
</g>
<g>
	<path class="st6" d="M1202.4,526.4c7.3,3.5,13.5,9.3,18.5,15.8c1.5,2,3,4,4.1,6.2c2.4,4.6,3.4,9.6,3.8,14.8
		c-4.4-0.5-8.7-1.9-12.4-4.3c-4.1-2.5-7.5-6.2-9.5-10.5c-0.9-2-1.6-4-2.1-6.1C1203.5,537.1,1202.7,531.8,1202.4,526.4 M1198.1,519.9
		l0.3,6.7c0.3,5.6,1.1,11.2,2.5,16.7c0.5,1.9,1.2,4.4,2.4,6.8c2.3,4.9,6.2,9.2,11,12.2c4.1,2.5,9,4.2,14.1,4.8l4.9,0.6l-0.4-4.9
		c-0.6-6.6-1.9-11.8-4.2-16.3c-1.1-2.1-2.5-4.2-4.5-6.8c-6.1-7.8-12.8-13.4-20-16.9L1198.1,519.9L1198.1,519.9z"/>
</g>
<g>
	<path class="st0" d="M1225.4,482.9c-0.1-2.5-0.1-5.2,0.4-7.9c0.6-3.4,1.8-6.2,3.7-8.3c0.5-0.5,1-1.1,1.7-1.6
		c3-2.5,6.9-4.3,11.2-5.3c2.6-0.6,5.3-0.8,8.4-0.8c0.7,0,1.5,0,2.2,0l2.7,0.1l-0.9,2.6c-1.8,5.2-4.8,10.1-8.6,14.2
		c-1.6,1.7-3.1,3-4.7,4.1c-3.6,2.5-8.1,4.1-13.9,4.9l-2.2,0.3L1225.4,482.9z"/>
	<path class="st6" d="M1250.9,460.9c0.7,0,1.4,0,2.1,0c-1.7,5-4.5,9.6-8.2,13.4c-1.3,1.4-2.8,2.7-4.4,3.8c-3.8,2.6-8.4,3.9-13,4.6
		c-0.1-2.5-0.1-5.1,0.4-7.5c0.5-2.7,1.5-5.3,3.3-7.3c0.5-0.5,1-1,1.5-1.4c2.9-2.5,6.6-4,10.3-4.8
		C1245.5,461.1,1248.2,460.9,1250.9,460.9 M1250.9,456.9c-3.2,0-6.1,0.3-8.9,0.9c-4.6,1-8.8,3-12.1,5.7c-0.7,0.6-1.4,1.2-1.9,1.8
		c-2.2,2.4-3.6,5.5-4.2,9.3c-0.5,2.9-0.5,5.7-0.4,8.3l0.1,4.5l4.5-0.7c6-0.9,10.8-2.6,14.7-5.3c1.7-1.2,3.4-2.6,5-4.4
		c4-4.2,7.1-9.4,9-14.9l1.8-5.1l-5.4-0.2C1252.4,456.9,1251.6,456.9,1250.9,456.9L1250.9,456.9z"/>
</g>
<g>
	<path class="st0" d="M1252.5,524.3c-4.4-0.9-8.4-3.4-11.2-6.8c-3.1-3.8-4.8-8.7-4.5-13.6c0.1-1.6,0.3-3.1,0.6-4.2
		c0.5-2.7,1.3-5.4,2.2-8.1l0.8-2.4l2.1,1.4c2.6,1.6,4.9,4,6.8,6.8c2,3.1,3.6,6.8,4.9,11.5c1.5,5.5,1.7,10.1,0.8,14l-0.5,1.9
		L1252.5,524.3z"/>
	<path class="st6" d="M1241.3,492.3c2.5,1.6,4.6,3.8,6.2,6.2c2.2,3.3,3.6,7.1,4.6,10.9c1.1,4.2,1.8,8.8,0.8,13
		c-3.9-0.8-7.5-3-10.1-6.1c-2.8-3.4-4.3-7.8-4.1-12.2c0.1-1.3,0.3-2.6,0.5-4C1239.8,497.4,1240.5,494.8,1241.3,492.3 M1239.2,486.1
		l-1.7,4.8c-0.9,2.7-1.7,5.5-2.2,8.3c-0.2,1.2-0.5,2.8-0.6,4.5c-0.2,5.4,1.6,10.8,5,14.9c3.1,3.8,7.5,6.4,12.3,7.5l3.8,0.8l0.9-3.8
		c1.1-4.2,0.8-9.1-0.8-15c-1.3-4.9-3-8.8-5.2-12.1c-2-3-4.6-5.6-7.4-7.4L1239.2,486.1L1239.2,486.1z"/>
</g>
<g>
	<path class="st6" d="M1289.6,500.4c2.4,0,4.8,0.2,7.2,0.7c-1.9,7.7-4.2,15.5-9.1,21.7c-1.8,2.3-3.9,4.3-6.4,5.8
		c-3.8,2.3-8.4,3.1-12.9,3.1c-0.8,0-1.7,0-2.5-0.1c-3.6-0.2-7.2-0.9-10.7-2c1-4.4,2.4-8.7,4.5-12.6c2.4-4.4,5.6-8.3,9.8-11
		c1.1-0.7,2.2-1.3,3.4-1.9C1278.1,501.7,1283.8,500.4,1289.6,500.4 M1289.6,496.4c-6.4,0-12.7,1.4-18.4,4.1
		c-1.4,0.7-2.7,1.4-3.9,2.1c-4.5,2.9-8.3,7.2-11.1,12.4c-2.1,3.9-3.7,8.4-4.9,13.6l-0.8,3.6l3.5,1.1c3.8,1.2,7.7,1.9,11.6,2.1
		c0.9,0.1,1.9,0.1,2.8,0.1c5.8,0,10.8-1.2,14.9-3.7c2.7-1.6,5.2-3.9,7.5-6.7c5.5-7,8-15.6,9.9-23.2l1-4.1l-4.2-0.8
		C1294.9,496.7,1292.3,496.4,1289.6,496.4L1289.6,496.4z"/>
</g>
<g>
	<path class="st7" d="M1239.2,578.9c-0.2-17.5,5.4-34.9,15.7-48.8c10.3-13.9,25.1-24.3,41.5-29.2c-16.3,5.4-30.6,16.2-40.2,30.1
		c-9.6,14-14.5,31-13.7,47.8L1239.2,578.9z"/>
	<path class="st6" d="M1296.4,500.9c-16.4,4.9-31.2,15.2-41.5,29.2c-10.3,13.9-15.9,31.3-15.7,48.8l3.3-0.1
		c-0.7-16.7,4.1-33.8,13.7-47.8C1265.9,517.1,1280.2,506.3,1296.4,500.9L1296.4,500.9z"/>
</g>
<g>
	<path class="st7" d="M1237.7,582.7c-3.2-12.5-5.9-25.1-8-37.8c-2.2-12.7-3.8-25.5-5.1-38.3c-2.5-25.6-3.4-51.3-3.5-77
		c0.7,25.7,2.1,51.4,5.2,76.8c1.5,12.7,3.5,25.4,5.9,38s5.3,25.1,8.8,37.4L1237.7,582.7z"/>
	<path class="st6" d="M1221,429.6c0.2,25.7,1,51.4,3.5,77c1.3,12.8,2.9,25.6,5.1,38.3s4.8,25.3,8,37.8l3.2-0.9
		c-3.4-12.3-6.4-24.8-8.8-37.4c-2.4-12.6-4.4-25.3-5.9-38C1223.1,480.9,1221.7,455.3,1221,429.6L1221,429.6z"/>
</g>
<path class="st8" d="M1254.1,532.1c-1.2-6.9-2.9-13.7-5-20.4c-2.1-6.7-4.6-13.2-7.7-19.5c3.3,6.2,5.9,12.7,8.2,19.3
	c2.2,6.6,4.1,13.4,5.5,20.3L1254.1,532.1z"/>
<path class="st8" d="M1223.5,485.8c2-2.6,4.4-4.9,6.8-7c2.5-2.1,5-4.1,7.6-6s5.2-3.8,7.7-5.8s5.1-4,7.4-6.2
	c-2.2,2.3-4.7,4.4-7.2,6.4s-5.1,4-7.6,6s-5,4-7.4,6.2c-2.4,2.1-4.7,4.4-6.5,7L1223.5,485.8z"/>
<g>
	<path class="st7" d="M1226.1,511c-9.7-10.1-21.8-17.7-35.2-22.1c13.4,4.1,25.9,11.5,35.9,21.4L1226.1,511z"/>
	<path class="st6" d="M1190.9,488.9c13.3,4.4,25.5,12.1,35.2,22.1l0.7-0.7C1216.8,500.4,1204.4,493,1190.9,488.9L1190.9,488.9z"/>
</g>
<g>
	<path class="st7" d="M1237.1,581.6c-4.7-9.3-9.3-18.6-14.5-27.5s-11-17.6-17.9-25.4c7.3,7.4,13.6,15.8,19.3,24.5
		c5.7,8.7,10.9,17.8,16.1,26.8L1237.1,581.6z"/>
	<path class="st6" d="M1204.7,528.7c6.9,7.8,12.7,16.5,17.9,25.4c5.2,9,9.9,18.2,14.5,27.5l2.9-1.6c-5.1-9-10.3-18.1-16.1-26.8
		C1218.3,544.5,1212,536.1,1204.7,528.7L1204.7,528.7z"/>
</g>
<g>
	<path class="st7" d="M1244.9,550.2c12.9-0.5,26,2.1,37.6,7.5c-11.8-5.1-24.8-7.4-37.6-6.5V550.2z"/>
	<path class="st6" d="M1248.1,550.1c-1.1,0-2.1,0-3.2,0.1l0.1,1c1.8-0.1,3.5-0.2,5.3-0.2c11,0,22.1,2.3,32.3,6.7
		C1271.8,552.7,1260,550.1,1248.1,550.1L1248.1,550.1z"/>
</g>
<path class="st8" d="M1230.6,543.7c2.9-5.9,6.3-11.5,10.1-16.8c-3.6,5.5-6.6,11.2-9.2,17.2L1230.6,543.7z"/>
<g>
	<path class="st7" d="M1223.4,488.4c-1.7-3.4-3.9-6.5-6.4-9.4s-5.3-5.5-8.4-7.8c-3-2.3-6.3-4.4-9.7-6.2c-3.4-1.8-6.9-3.4-10.5-4.8
		c3.6,1.3,7.2,2.8,10.6,4.6c3.4,1.7,6.8,3.7,9.9,6s6,4.8,8.6,7.7c2.6,2.9,4.9,6,6.7,9.5L1223.4,488.4z"/>
	<path class="st6" d="M1188.4,460.3c3.6,1.4,7.1,3,10.5,4.8s6.6,3.8,9.7,6.2c3,2.3,5.9,4.9,8.4,7.8s4.7,6,6.4,9.4l0.9-0.5
		c-1.8-3.4-4.1-6.6-6.7-9.5s-5.5-5.4-8.6-7.7c-3.1-2.3-6.4-4.2-9.9-6C1195.6,463.1,1192,461.6,1188.4,460.3L1188.4,460.3z"/>
</g>
<g>
	<path class="st7" d="M1248.4,540.9c7.6-1.6,15.5-2.2,23.2-1.5c-7.7-0.3-15.5,0.6-23,2.5L1248.4,540.9z"/>
	<path class="st6" d="M1265.3,539.1c-5.7,0-11.3,0.6-16.9,1.8l0.2,1c6.5-1.7,13.3-2.6,20.1-2.6c1,0,1.9,0,2.9,0.1
		C1269.5,539.2,1267.4,539.1,1265.3,539.1L1265.3,539.1z"/>
</g>
<g>
	<path class="st7" d="M1211.7,474.1c-5.2-11.2-7.1-23.9-5.4-36c-1.4,12.2,0.8,24.7,6.3,35.6L1211.7,474.1z"/>
	<path class="st6" d="M1206.4,438.1c-1.8,12.1,0.1,24.8,5.4,36l0.9-0.4C1207.2,462.8,1205,450.3,1206.4,438.1L1206.4,438.1z"/>
</g>
<path class="st9" d="M1271.5,599.3c-1.5-5.1-4.5-9.8-8.5-12.8c-2.1-1.6-4.6-2.7-6.6-4.4s-3.7-4.4-3.5-7.2h-14.2l0,0h-14.2
	c0.3,2.8-1.4,5.5-3.5,7.2c-2,1.7-4.5,2.8-6.6,4.4c-4.1,3-7,7.7-8.5,12.8c-1.6,5.1-1.8,10.6-1.3,16c0.6,6.5,2.5,13,6.1,18.2
	s9.2,8.9,15.1,9.1h12.8l0,0h12.8c5.9-0.2,11.5-3.9,15.1-9.1s5.5-11.7,6.1-18.2C1273.3,609.9,1273.1,604.4,1271.5,599.3z"/>
<line class="st10" x1="525.2" y1="854.8" x2="1394.8" y2="854.8"/>
<text transform="matrix(1 0 0 1 320.2964 305.005)" class="st3 st11 st12">BIENVENUE.</text>
<rect x="636.4" y="642.3" class="st13" width="647.1" height="28.2"/>
<rect x="670.1" y="670.8" class="st13" width="20.3" height="184"/>
<rect x="1231.3" y="670.8" class="st13" width="20.3" height="184"/>
<path class="st14" d="M1116.8,590.8H803.2c-10.8,0-19.6-8.8-19.6-19.6v-175c0-10.8,8.8-19.6,19.6-19.6h313.7
	c10.8,0,19.6,8.8,19.6,19.6v175C1136.4,582.1,1127.6,590.8,1116.8,590.8z"/>
<path class="st3" d="M1117.4,584.4H802.6c-6,0-10.8-4.9-10.8-10.8V393.9c0-6,4.9-10.8,10.8-10.8h314.7c6,0,10.8,4.9,10.8,10.8v179.7
	C1128.2,579.6,1123.3,584.4,1117.4,584.4z"/>
<rect x="931.4" y="590.8" class="st14" width="58.9" height="35.1"/>
<path class="st14" d="M907.3,625.9h105.4c5.1,0,9.2,4.1,9.2,9.2v7.2H898.1v-7.2C898.1,630.1,902.2,625.9,907.3,625.9z"/>
<path class="st9" d="M888.1,723.5H754.3c-11,0-19.8-8.9-19.8-19.8v-99.8c0-47.9,38.8-86.7,86.7-86.7l0,0c47.9,0,86.7,38.8,86.7,86.7
	v99.8C907.9,714.6,899,723.5,888.1,723.5z"/>
<path class="st9" d="M897.9,770.8H744.5c-5.5,0-10-4.5-10-10v-4.5c0-5.5,4.5-10,10-10h153.4c5.5,0,10,4.5,10,10v4.5
	C907.9,766.3,903.4,770.8,897.9,770.8z"/>
<path class="st9" d="M821.8,761L821.8,761c-7.5,0-13.5-6.1-13.5-13.5v-89.3c0-7.5,6.1-13.5,13.5-13.5l0,0c7.5,0,13.5,6.1,13.5,13.5
	v89.3C835.4,754.9,829.3,761,821.8,761z"/>
<rect x="804" y="770.8" class="st9" width="34.5" height="16.1"/>
<rect x="807.4" y="786.9" class="st9" width="27.5" height="16.1"/>
<rect x="815.8" y="803" class="st9" width="10.8" height="29.5"/>
<path class="st9" d="M781.2,839.7h80l0,0c0-4-3.2-7.2-7.2-7.2h-65.6C784.4,832.5,781.2,835.7,781.2,839.7L781.2,839.7z"/>
<rect x="790.2" y="839.7" class="st15" width="1.8" height="4.6"/>
<rect x="820.3" y="839.7" class="st15" width="1.8" height="4.6"/>
<rect x="850.4" y="839.7" class="st15" width="1.8" height="4.6"/>
<circle class="st6" cx="791.1" cy="849.2" r="5.6"/>
<circle class="st6" cx="821.2" cy="849.2" r="5.6"/>
<circle class="st6" cx="851.3" cy="849.2" r="5.6"/>
<path class="st9" d="M1174,595.1h38.8V627c0,8.5-6.9,15.4-15.4,15.4h-8.1c-8.5,0-15.4-6.9-15.4-15.4L1174,595.1L1174,595.1z"/>
<path class="st14" d="M1213.7,602.1c7.1,0,12.8,5.7,12.8,12.8s-5.7,12.8-12.8,12.8"/>
<path class="st14" d="M1071.5,640.5c0-11,8.9-19.9,19.9-19.9s19.9,8.9,19.9,19.9"/>
<path class="st6" d="M670.1,670.8c0,0,21.1,7.9,20.3,17.7c0.9-12,0-17.7,0-17.7H670.1z"/>
<path class="st6" d="M1229.7,670.8c0,0,21.1,7.9,20.3,17.7c0.9-12,0-17.7,0-17.7H1229.7z"/>
<path class="st6" d="M931.4,598c0,0,57.8-0.8,58,10.3c0.9-14.5,0.9-17.6,0.9-17.6h-58.9V598z"/>
<g>
	<path class="st16" d="M895.6,503.3c-1.9-6.2-2.9-12.8-2.9-19.6c0-6,0.8-11.9,2.3-17.4"/>
	<path class="st16" d="M905,522.6c-2.9-4.1-5.3-8.5-7.3-13.2"/>
	<path class="st16" d="M1008.4,530.5C996.2,543.2,979,551,960,551c-18,0-34.3-7.1-46.4-18.6"/>
	<path class="st16" d="M1012.1,526.4c-0.2,0.3-0.5,0.6-0.7,0.8"/>
	<path class="st16" d="M1015.6,521.8c-0.4,0.5-0.8,1.1-1.1,1.6"/>
	<path class="st16" d="M999.8,429.4c16.7,12.3,27.6,32,27.6,54.3c0,6.8-1,13.3-2.9,19.5"/>
	<path class="st16" d="M966.9,416.8c7.8,0.8,15.2,2.9,22,6.1"/>
	<path class="st16" d="M910.3,438.3c12.3-13.5,30-21.9,49.7-21.9"/>
	<path class="st16" d="M906.9,442.4c1.1-1.4,2.2-2.8,3.4-4.1"/>
	<g>
		<path class="st16" d="M982.6,558.1c-7.2,2.2-14.7,3.3-22.6,3.3c-6.9,0-13.7-0.9-20.1-2.6"/>
		<path class="st16" d="M1004.8,547.2c-4.7,3.3-9.8,6.2-15.2,8.4"/>
		<path class="st16" d="M1014,427.9c14.6,14.1,23.7,33.9,23.7,55.9c0,20.8-8.1,39.6-21.4,53.6"/>
		<path class="st16" d="M1009.2,423.6c0.3,0.3,0.6,0.5,1,0.8"/>
		<path class="st16" d="M1003.9,419.6c0.6,0.4,1.3,0.9,1.9,1.3"/>
		<path class="st16" d="M897.3,437.8c14.1-19.3,37-31.8,62.7-31.8c7.8,0,15.4,1.2,22.5,3.3"/>
		<path class="st16" d="M882.7,475.8c0.9-9,3.4-17.6,7.1-25.4"/>
		<path class="st16" d="M907.6,541.1c-15.6-14.2-25.3-34.7-25.3-57.4"/>
		<path class="st16" d="M912.3,545.1c-1.6-1.3-3.2-2.6-4.7-4"/>
	</g>
	<g>
		<path class="st7" d="M918.9,457.5v-3.4h17.8l3,45.2c0.4,5.7,3,8.6,7.9,8.6c5.2,0,9.4-3.1,12.5-9.3c-0.2-0.9-0.3-2.4-0.4-4.4
			l-2.4-36.8h-5.2V454h17.8l3,45.2c0.4,5.7,3,8.6,7.9,8.6c3.2,0,6-1.4,8.5-4.1c4.7-5.3,7-13.2,7-23.6c0-5.8-1-11-3-15.5
			c-1-2.3-2.3-3.7-4-4.4c-1.6-0.7-3.8-1.1-6.5-1.1h-3.2l-0.5-3.1l8.8-3c1-0.3,1.8-0.4,2.5-0.4s1.4,0.1,1.9,0.3c2,0.8,4,3.4,6,7.7
			c2,4.3,3,10.1,3,17.4c0,9.5-1.8,17.7-5.5,24.8c-1.9,3.5-4.3,6.3-7.4,8.4c-3.1,2.1-6.6,3.1-10.5,3.1c-8.2,0-13.5-3.2-16-9.5
			c-4.3,6.3-10,9.5-17.2,9.5c-6.2,0-10.6-1.7-13.3-5s-4.2-8.4-4.7-15.3l-2.4-36.8h-5.4V457.5z"/>
	</g>
</g>
<g>
	<g>
		<defs>
			<rect id="SVGID_00000143600272850494992110000011747695140222613679_" x="-1" y="105" width="1920" height="1080"/>
		</defs>
		<clipPath id="SVGID_00000097497484394045687970000006264377586086270865_">
			<use xlink:href="#SVGID_00000143600272850494992110000011747695140222613679_"  style="overflow:visible;"/>
		</clipPath>
		<path style="clip-path:url(#SVGID_00000097497484394045687970000006264377586086270865_);fill:#81ABFF;" d="M1690.1,589.1
			c88.3,16,225.4,20.1,260.6-120.7c35.2-140.7,43-207.7,3.7-256.2s-227.7-65.1-205.5,55.7c22.3,120.8-143.7,82.2-135.3,146.3
			S1627.3,577.7,1690.1,589.1z"/>
	</g>
	<g>
		<defs>
			<rect id="SVGID_00000050643340556610911890000010964078557216962206_" x="-1" y="105" width="1920" height="1080"/>
		</defs>
		<clipPath id="SVGID_00000166651254019647058280000006252431389257489577_">
			<use xlink:href="#SVGID_00000050643340556610911890000010964078557216962206_"  style="overflow:visible;"/>
		</clipPath>
		<g style="clip-path:url(#SVGID_00000166651254019647058280000006252431389257489577_);">
			<path class="st5" d="M-65.7,503.7C-81,535.3-98.6,565.6-99.4,602c-1.2,51.4,23.6,92.4,74,106.8c25.8,7.4,52.6,9.8,78.6,16.8
				C74.6,731.4,95,740,116,746.9c29.7,9.9,59.8,13.9,86.9-4.3c29.1-19.5,33.8-67.4,29.6-99.1c-5.3-40.5-24.3-122.5-74.3-128.2
				c-29.1-3.3-55.6,0-67.3-31.5c-5.2-14.2-8-43.9-29.7-40.7C15.4,450-42.9,456.3-65.7,503.7z"/>
		</g>
	</g>
</g>
<path class="st3" d="M-65.3,1019.3"/>
</svg>
