<?xml version="1.0" encoding="utf-8"?>
<!-- Generator: Adobe Illustrator 26.4.1, SVG Export Plug-In . SVG Version: 6.00 Build 0)  -->
<svg version="1.1" id="Calque_1" xmlns="http://www.w3.org/2000/svg" xmlns:xlink="http://www.w3.org/1999/xlink" x="0px" y="0px"
	 viewBox="0 0 595.1 416.4" style="enable-background:new 0 0 595.1 416.4;" xml:space="preserve">
<style type="text/css">
	.st0{fill:#FFFFFF;}
	.st1{fill:url(#SVGID_1_);}
	.st2{fill:url(#SVGID_00000034792491720715403770000010191040163337384613_);}
	.st3{fill:#85AAE5;}
	.st4{fill:none;stroke:#81ABFF;stroke-width:5;stroke-miterlimit:10;}
	.st5{fill:#81ABFF;}
	.st6{clip-path:url(#SVGID_00000062887003569447753260000005565625542696134047_);fill:#81ABFF;}
	.st7{clip-path:url(#SVGID_00000120522379619073318040000012276035797027653564_);}
	.st8{enable-background:new    ;}
	.st9{fill:none;stroke:#272525;stroke-width:4;stroke-linecap:round;stroke-linejoin:round;stroke-miterlimit:10;}
	.st10{fill:#FFFFFF;stroke:#272525;stroke-width:4;stroke-linecap:round;stroke-linejoin:round;stroke-miterlimit:10;}
	.st11{fill:#FFFFFF;stroke:#272525;stroke-width:4;stroke-miterlimit:10;}
	.st12{fill:#FFFFFF;stroke:#272525;stroke-width:4;stroke-miterlimit:10;}
	.st13{fill:#272525;}
	.st14{fill:none;stroke:#FFFFFF;stroke-width:2;stroke-linecap:round;stroke-linejoin:round;stroke-miterlimit:10;}
	.st15{fill:#FFFFFF;}
	.st16{fill:none;stroke:#272525;stroke-width:4;stroke-miterlimit:10;}
	.st17{fill:none;stroke:#85AAE5;stroke-width:2;stroke-linecap:round;stroke-linejoin:round;stroke-miterlimit:10;}
</style>
<rect x="-785.4" y="-268.2" class="st0" width="1920" height="1080"/>
<linearGradient id="SVGID_1_" gradientUnits="userSpaceOnUse" x1="1880.542" y1="288.2346" x2="2779.7947" y2="507.9275" gradientTransform="matrix(1 0 0 1 0 288)">
	<stop  offset="0" style="stop-color:#FFFFFF"/>
	<stop  offset="1" style="stop-color:#85AAE5"/>
</linearGradient>
<path class="st1" d="M2373.3,434.8c0,0-314.2,93.5-317.1,191.2c-2.9,97.7,311.8,191.5,402.3,210.1c12.6,2.6,20.1,7.4,23.6,14.1
	c21.5,40.9-170.7,124-162.6,202.4c3.2,30.7,37.2,66.9,154.5,101.3c76.1,15.7,152.2,31.5,228.4,47.2c0.3-285.5,0.7-571.1,1-856.6
	L2373.3,434.8z"/>
<linearGradient id="SVGID_00000077305241116753635420000014744982908104273309_" gradientUnits="userSpaceOnUse" x1="-611.0741" y1="1024.9945" x2="-35.7417" y2="1024.9945" gradientTransform="matrix(1 0 0 1 0 288)">
	<stop  offset="0" style="stop-color:#FFFFFF"/>
	<stop  offset="1" style="stop-color:#85AAE5"/>
</linearGradient>
<path style="fill:url(#SVGID_00000077305241116753635420000014744982908104273309_);" d="M-582.4,1346
	c-2.9-224,0.7-244.1-28.7-471.1c17.3,46.4,75.5,225.1,134.9,280.9c42.2,39.6,80.1,57.6,130.9,83c194.6,97.3,292.2,146.7,304.5,183.7
	c32.1,96-93.8,253.2-244.1,307c-137.3,49.3-246,0.3-283.1-15.9C-574.8,1483.7-573.7,1584.4-582.4,1346z"/>
<path class="st3" d="M-124.3,1384.5c-12.9-432,216.9-248.2,115.5-364.9c24,100.6-45.3-220.8,63.2-173.6c131,57,257.4-46.1,307,12.6
	c60.1,71.1-206.2,168-263,257.6c-37,58.3,74.7,193.5,56.6,208C55.7,1403.9-73.1,1392.1-124.3,1384.5z"/>
<path class="st3" d="M1500.9,487.5c-23.4,89.7,231.6,165.5,339.9,218.3c5.5,2.7,9.3,6.1,11.7,10.3
	c48.1,82.8-302.4,356.2-257.5,428.7c10.2,16.5,46.2,30.2,182.2-9.3c89.9-26.2,179.8-52.5,269.7-78.7c0.3-289.1,0.6-578.3,0.9-867.4
	C2047.8,189.3,1524.3,397.8,1500.9,487.5z"/>
<path class="st4" d="M2399.5-462.4c0,0-397.3,283-329.3,407.7S2480,70,2549.1,219.3"/>
<path class="st4" d="M-344.5-1126.3c0,0,604.7,194.6,492.9,355.4s-492.9,239.4-492.9,239.4"/>
<g>
	<path class="st5" d="M2181.6-1333.2c-2,10.6-3.1,29.2,8,35.7c13.3,7.8,43.7-4.9,56.2-6.6c40.3-5.5,68.1,17.1,104.9,29.7
		c11.8,4.1,28.6-0.1,37.1-9.8c17.6-20.2-5.3-44.3-21.5-54.1c-17-10.3-37-18-45.1-38.1c-5.8-14.3-8.2-23.8-26.7-23
		C2256-1397.7,2189.8-1377,2181.6-1333.2z"/>
</g>
<ellipse class="st5" cx="1060" cy="-1001.4" rx="24.7" ry="16.9"/>
<ellipse class="st5" cx="-278.6" cy="-1211.4" rx="24.7" ry="16.9"/>
<ellipse class="st5" cx="657.5" cy="-1205.6" rx="16.9" ry="11.5"/>
<g>
	<g>
		<defs>
			<rect id="SVGID_00000183939516272972887700000004645023973645823417_" x="-407.6" y="-1680.5" width="1920" height="1080"/>
		</defs>
		<clipPath id="SVGID_00000062166956715256690310000014304660870928278153_">
			<use xlink:href="#SVGID_00000183939516272972887700000004645023973645823417_"  style="overflow:visible;"/>
		</clipPath>
		<path style="clip-path:url(#SVGID_00000062166956715256690310000014304660870928278153_);fill:#81ABFF;" d="M1283.5-1196.4
			c88.3,16,225.4,20.1,260.6-120.7c35.2-140.7,43-207.7,3.7-256.2s-227.7-65.1-205.5,55.7c22.3,120.8-143.7,82.2-135.3,146.3
			S1220.7-1207.8,1283.5-1196.4z"/>
	</g>
</g>
<g>
	<defs>
		<rect id="SVGID_00000114754436967060672050000001072152875591938178_" x="-1146.3" y="-1453.7" width="2090.7" height="1080"/>
	</defs>
	<clipPath id="SVGID_00000123408688373421140930000011436362407774497713_">
		<use xlink:href="#SVGID_00000114754436967060672050000001072152875591938178_"  style="overflow:visible;"/>
	</clipPath>
	<g style="clip-path:url(#SVGID_00000123408688373421140930000011436362407774497713_);">
		<path class="st5" d="M-1216.8-1055c-16.7,31.6-35.8,61.9-36.7,98.3c-1.3,51.4,25.7,92.4,80.6,106.8c28.1,7.4,57.3,9.8,85.6,16.8
			c23.3,5.8,45.5,14.4,68.4,21.3c32.3,9.9,65.1,13.9,94.6-4.3c31.7-19.5,36.8-67.4,32.2-99.1c-5.8-40.5-26.5-122.5-80.9-128.2
			c-31.7-3.3-60.5,0-73.3-31.5c-5.7-14.2-8.7-43.9-32.3-40.7C-1128.5-1108.7-1192-1102.4-1216.8-1055z"/>
	</g>
</g>
<path class="st3" d="M-736.3,711.7"/>
<circle class="st3" cx="1057.9" cy="1198" r="50"/>
<circle class="st3" cx="1006" cy="1076.5" r="142.4"/>
<circle class="st0" cx="1065.6" cy="1119.2" r="88.5"/>
<circle class="st3" cx="1066.7" cy="1122.3" r="69.3"/>
<circle class="st0" cx="985.1" cy="1146.3" r="100.1"/>
<circle class="st3" cx="982.1" cy="1141.3" r="53.9"/>
<g class="st8">
	<path class="st3" d="M-1141.4,92.9v-2.8h16.8c14.6,0,21.9,4.4,21.9,13.3c0,6.1-3.6,10.1-10.8,12v0.5c8.6,1.3,12.9,4.8,12.9,10.6
		c0,4.2-1.9,7.3-5.7,9.4c-3.8,2.1-9.2,3.1-16.1,3.1h-18.9v-2.8h4.2V92.9H-1141.4z M-1124.7,92.9h-2v21.6h2c3.3,0,6-1,8.2-2.9
		c2.2-2,3.2-4.6,3.2-8c0-3.4-1.1-6-3.2-7.9C-1118.7,93.8-1121.4,92.9-1124.7,92.9z M-1123.2,117.2h-3.5v19.1h3.5
		c3.4,0,6.1-0.8,8.4-2.5c2.2-1.7,3.4-4,3.4-7c0-3-1.1-5.3-3.4-7C-1117.1,118-1119.9,117.2-1123.2,117.2z"/>
	<path class="st3" d="M-1092.7,92.9v-2.8h20.2v2.8h-4.9v43.3h4.9v2.8h-20.2v-2.8h4.9V92.9H-1092.7z"/>
	<path class="st3" d="M-1032,139h-31.3v-2.8h4.2V92.9h-4.2v-2.8h30c1,0,1.8,0,2.3,0.1s0.9,0.3,1.4,0.8c0.4,0.4,0.6,1.1,0.6,2.1
		l-1.9,11.7h-2.7l-1.4-6.9c-0.4-2.1-1.2-3.4-2.3-4c-1.1-0.6-3.2-0.9-6.3-0.9h-4.9v23.9h16.1v3.1h-16.1v16.3h6.3c3,0,5.1-0.3,6.2-0.9
		c1.1-0.6,1.9-2,2.4-4l1.4-6.2h2.7l1.9,11c0,0.9-0.2,1.6-0.6,2.1c-0.4,0.4-0.9,0.7-1.4,0.8S-1031,139-1032,139z"/>
	<path class="st3" d="M-1020,139v-2.8h4.2V92.9h-4.2v-2.8h16.3l20,39.3V92.9h-4.2v-2.8h13.3v2.8h-4.2V139h-11.1l-21-41.3v38.5h4.2
		v2.8H-1020z"/>
	<path class="st3" d="M-968.7,92.9v-2.8h14.7l2.4,37.4c0.3,4.7,2.5,7.1,6.5,7.1c3,0,5.6-1.1,7.8-3.4c4.3-4.4,6.4-10.9,6.4-19.5
		c0-4.8-0.8-9.1-2.5-12.8c-0.8-1.9-1.9-3.1-3.3-3.7c-1.4-0.6-3.1-0.9-5.4-0.9h-2.7l-0.4-2.6l7.3-2.4c0.8-0.2,1.5-0.3,2.1-0.3
		c0.6,0,1.1,0.1,1.5,0.3c1.7,0.7,3.3,2.8,5,6.4c1.6,3.6,2.4,8.3,2.4,14.3c0,7.7-1.7,14.5-5,20.5c-1.6,2.9-3.7,5.2-6.5,6.9
		c-2.7,1.7-5.8,2.6-9.3,2.6c-5.1,0-8.8-1.4-11-4.1c-2.2-2.7-3.5-7-3.9-12.6l-2-30.4H-968.7z"/>
	<path class="st3" d="M-886.4,139h-31.3v-2.8h4.2V92.9h-4.2v-2.8h30c1,0,1.8,0,2.3,0.1c0.5,0.1,0.9,0.3,1.4,0.8
		c0.4,0.4,0.6,1.1,0.6,2.1l-1.9,11.7h-2.7l-1.4-6.9c-0.4-2.1-1.2-3.4-2.3-4c-1.1-0.6-3.2-0.9-6.3-0.9h-4.9v23.9h16.1v3.1h-16.1v16.3
		h6.3c3,0,5.1-0.3,6.2-0.9c1.1-0.6,1.9-2,2.4-4l1.4-6.2h2.7l1.9,11c0,0.9-0.2,1.6-0.6,2.1c-0.4,0.4-0.9,0.7-1.4,0.8
		C-884.6,139-885.4,139-886.4,139z"/>
	<path class="st3" d="M-874.5,139v-2.8h4.2V92.9h-4.2v-2.8h16.3l20,39.3V92.9h-4.2v-2.8h13.3v2.8h-4.2V139h-11.1l-21-41.3v38.5h4.2
		v2.8H-874.5z"/>
	<path class="st3" d="M-791,92.9v-2.8h13.3v2.8h-4.2v29.3c0,3.4-0.5,6.2-1.5,8.7c-1,2.4-2.4,4.3-4.2,5.6c-3.3,2.4-7.4,3.6-12.4,3.6
		c-4.9,0-9.1-1.2-12.5-3.7c-1.8-1.3-3.2-3.1-4.3-5.5c-1-2.4-1.5-5.3-1.5-8.7V92.9h-4.2v-2.8h18.9v2.8h-4.2v31.4c0,3.6,1,6.4,2.9,8.4
		s4.4,2.9,7.2,2.9s5.4-1,7.5-3c2.2-2,3.2-4.8,3.2-8.3V92.9H-791z"/>
	<path class="st3" d="M-739.8,139h-31.3v-2.8h4.2V92.9h-4.2v-2.8h30c1,0,1.8,0,2.3,0.1c0.5,0.1,0.9,0.3,1.4,0.8
		c0.4,0.4,0.6,1.1,0.6,2.1l-1.9,11.7h-2.7l-1.4-6.9c-0.4-2.1-1.2-3.4-2.3-4c-1.1-0.6-3.2-0.9-6.3-0.9h-4.9v23.9h16.1v3.1h-16.1v16.3
		h6.3c3,0,5.1-0.3,6.2-0.9c1.1-0.6,1.9-2,2.4-4l1.4-6.2h2.7l1.9,11c0,0.9-0.2,1.6-0.6,2.1c-0.4,0.4-0.9,0.7-1.4,0.8
		C-738,139-738.8,139-739.8,139z"/>
	<path class="st3" d="M-726.3,138.5c-1-1-1.6-2.3-1.6-3.8c0-1.5,0.5-2.8,1.6-3.8c1-1,2.3-1.6,3.8-1.6c1.5,0,2.8,0.5,3.8,1.6
		c1,1,1.6,2.3,1.6,3.8c0,1.5-0.5,2.8-1.6,3.8c-1,1-2.3,1.6-3.8,1.6C-724,140.1-725.2,139.5-726.3,138.5z"/>
</g>
<path class="st3" d="M52.6,408.3c-19.3-37.6-30.1-80.2-30.1-125.3c0-151.9,123.1-275,275-275s275,123.1,275,275
	c0,44.7-10.7,86.9-29.6,124.2"/>
<line class="st9" x1="4.4" y1="406.8" x2="591.4" y2="406.8"/>
<rect x="79.5" y="263.4" class="st10" width="436.8" height="19"/>
<rect x="102.2" y="282.6" class="st10" width="13.7" height="124.2"/>
<rect x="481" y="282.6" class="st10" width="13.7" height="124.2"/>
<path class="st11" d="M403.8,228.6H192.1c-7.3,0-13.2-5.9-13.2-13.2V97.3c0-7.3,5.9-13.2,13.2-13.2h211.7c7.3,0,13.2,5.9,13.2,13.2
	v118.1C417,222.7,411,228.6,403.8,228.6z"/>
<path class="st3" d="M404.2,224.3H191.7c-4,0-7.3-3.3-7.3-7.3V95.7c0-4,3.3-7.3,7.3-7.3h212.4c4,0,7.3,3.3,7.3,7.3V217
	C411.4,221,408.1,224.3,404.2,224.3z"/>
<rect x="278.6" y="228.6" class="st11" width="39.8" height="23.7"/>
<path class="st11" d="M262.3,252.3h71.1c3.4,0,6.2,2.8,6.2,6.2v4.9h-83.6v-4.9C256.1,255.1,258.9,252.3,262.3,252.3z"/>
<path class="st11" d="M249.4,318.2h-90.3c-7.4,0-13.4-6-13.4-13.4v-67.4c0-32.3,26.2-58.5,58.5-58.5l0,0c32.3,0,58.5,26.2,58.5,58.5
	v67.4C262.7,312.2,256.7,318.2,249.4,318.2z"/>
<path class="st11" d="M256,350.1H152.5c-3.7,0-6.7-3-6.7-6.7v-3c0-3.7,3-6.7,6.7-6.7H256c3.7,0,6.7,3,6.7,6.7v3
	C262.7,347.1,259.7,350.1,256,350.1z"/>
<path class="st11" d="M204.6,343.5L204.6,343.5c-5.1,0-9.1-4.1-9.1-9.1v-60.3c0-5.1,4.1-9.1,9.1-9.1l0,0c5.1,0,9.1,4.1,9.1,9.1v60.3
	C213.8,339.4,209.7,343.5,204.6,343.5z"/>
<rect x="192.6" y="350.1" class="st11" width="23.3" height="10.9"/>
<rect x="194.9" y="361" class="st11" width="18.6" height="10.9"/>
<rect x="200.6" y="371.8" class="st11" width="7.3" height="19.9"/>
<path class="st11" d="M177.2,396.6h54l0,0c0-2.7-2.2-4.9-4.9-4.9h-44.3C179.4,391.7,177.2,393.9,177.2,396.6L177.2,396.6z"/>
<rect x="183.3" y="396.6" class="st12" width="1.2" height="3.1"/>
<rect x="203.6" y="396.6" class="st12" width="1.2" height="3.1"/>
<rect x="223.9" y="396.6" class="st12" width="1.2" height="3.1"/>
<circle class="st13" cx="183.9" cy="403" r="3.8"/>
<circle class="st13" cx="204.2" cy="403" r="3.8"/>
<circle class="st13" cx="224.5" cy="403" r="3.8"/>
<path class="st11" d="M373.2,262.2c0-7.4,6-13.4,13.4-13.4c7.4,0,13.4,6,13.4,13.4"/>
<path class="st13" d="M102.2,282.6c0,0,14.2,5.3,13.7,11.9c0.6-8.1,0-11.9,0-11.9H102.2z"/>
<path class="st13" d="M480,282.6c0,0,14.2,5.3,13.7,11.9c0.6-8.1,0-11.9,0-11.9H480z"/>
<path class="st13" d="M278.6,233.5c0,0,39-0.5,39.1,7c0.6-9.8,0.6-11.9,0.6-11.9h-39.8V233.5z"/>
<g>
	<path class="st14" d="M254.4,169.5c-1.3-4.2-2-8.6-2-13.2c0-4,0.5-8,1.6-11.7"/>
	<path class="st14" d="M260.8,182.6c-2-2.8-3.6-5.7-4.9-8.9"/>
	<path class="st14" d="M330.6,187.9c-8.2,8.6-19.8,13.8-32.7,13.8c-12.1,0-23.2-4.8-31.3-12.6"/>
	<path class="st14" d="M333.1,185.1c-0.1,0.2-0.3,0.4-0.5,0.5"/>
	<path class="st14" d="M335.4,182c-0.3,0.3-0.5,0.7-0.7,1.1"/>
	<path class="st14" d="M324.8,119.7c11.3,8.3,18.6,21.6,18.6,36.7c0,4.6-0.7,9-2,13.2"/>
	<path class="st14" d="M302.6,111.2c5.3,0.5,10.3,2,14.8,4.1"/>
	<path class="st14" d="M264.4,125.7c8.3-9.1,20.2-14.8,33.5-14.8"/>
	<path class="st14" d="M262.1,128.4c0.7-0.9,1.5-1.9,2.3-2.8"/>
	<g>
		<path class="st14" d="M313.2,206.5c-4.9,1.5-9.9,2.2-15.3,2.2c-4.7,0-9.2-0.6-13.6-1.8"/>
		<path class="st14" d="M328.2,199.2c-3.2,2.2-6.6,4.2-10.3,5.7"/>
		<path class="st14" d="M334.4,118.6c9.9,9.5,16,22.9,16,37.7c0,14-5.5,26.7-14.4,36.2"/>
		<path class="st14" d="M331.1,115.7c0.2,0.2,0.4,0.3,0.7,0.5"/>
		<path class="st14" d="M327.5,113c0.4,0.3,0.9,0.6,1.3,0.9"/>
		<path class="st14" d="M255.6,125.3c9.5-13,25-21.5,42.3-21.5c5.3,0,10.4,0.8,15.2,2.2"/>
		<path class="st14" d="M245.7,151c0.6-6.1,2.3-11.9,4.8-17.1"/>
		<path class="st14" d="M262.5,195.1c-10.5-9.6-17.1-23.4-17.1-38.7"/>
		<path class="st14" d="M265.7,197.8c-1.1-0.9-2.2-1.8-3.2-2.7"/>
	</g>
	<g>
		<path class="st15" d="M270.2,138.6v-2.3h12l2,30.5c0.3,3.8,2,5.8,5.3,5.8c3.5,0,6.3-2.1,8.4-6.3c-0.1-0.6-0.2-1.6-0.3-3l-1.6-24.8
			h-3.5v-2.3h12l2,30.5c0.3,3.8,2,5.8,5.3,5.8c2.2,0,4-0.9,5.7-2.8c3.2-3.6,4.7-8.9,4.7-15.9c0-3.9-0.7-7.4-2-10.5
			c-0.7-1.6-1.6-2.5-2.7-3c-1.1-0.5-2.6-0.7-4.4-0.7h-2.2l-0.3-2.1l5.9-2c0.7-0.2,1.2-0.3,1.7-0.3s0.9,0.1,1.3,0.2
			c1.3,0.5,2.7,2.3,4,5.2c1.3,2.9,2,6.8,2,11.7c0,6.4-1.2,11.9-3.7,16.7c-1.3,2.4-2.9,4.3-5,5.7c-2.1,1.4-4.5,2.1-7.1,2.1
			c-5.5,0-9.1-2.2-10.8-6.4c-2.9,4.3-6.7,6.4-11.6,6.4c-4.2,0-7.2-1.1-9-3.4c-1.8-2.2-2.8-5.7-3.2-10.3l-1.6-24.8h-3.6L270.2,138.6
			L270.2,138.6z"/>
	</g>
</g>
<path class="st0" d="M514.4,187.8c-1.2-0.9-2.6-1.3-4-1.8c-1.4-0.4-2.9-0.7-4.3-0.4c-1.3,0.4-2.5,1.2-3.4,2.3
	c0.6,0.7,1.3,1.3,2.2,1.8c1.2,0.6,2.5,0.8,3.8,0.8c0.5,0,1-0.1,1.5-0.1C511.7,190.1,513.1,189.1,514.4,187.8z"/>
<path class="st13" d="M507.3,185.6c1,0,2,0.2,3,0.5c1.4,0.4,2.9,0.9,4,1.8c-1.2,1.3-2.7,2.3-4.5,2.6c-0.5,0.1-1,0.1-1.5,0.1h-0.1
	c-1.2,0-2.6-0.2-3.7-0.8c-0.8-0.4-1.6-1-2.2-1.8c1-1,2-1.9,3.4-2.3C506.4,185.6,506.9,185.6,507.3,185.6 M507.3,182.6
	c-0.7,0-1.4,0.1-2,0.2c-1.8,0.4-3.4,1.5-4.9,3.1l-1.6,1.8l1.5,1.9c0.8,1.1,1.9,2,3.1,2.6c1.5,0.7,3.2,1.2,5,1.2h0.1
	c0.7,0,1.4-0.1,2-0.2c2.2-0.4,4.2-1.6,6-3.5l2.3-2.5l-2.8-1.9c-1.6-1.2-3.4-1.8-5-2.1C510,182.9,508.7,182.6,507.3,182.6
	L507.3,182.6z"/>
<path class="st0" d="M444.7,127.7c1.2,2,3,3.8,4.9,5.3c1.8,1.5,3.9,3,6.2,3.4c2.3,0.4,4.5-0.1,6.7-1.1c-0.4-1.5-1.1-2.9-2-4.1
	c-1.3-1.7-3.1-2.9-5-3.8c-0.7-0.3-1.5-0.6-2.3-0.8C450.3,126.1,447.4,126.5,444.7,127.7z"/>
<path class="st13" d="M450.4,126.4c0.9,0,1.8,0.1,2.6,0.3c0.8,0.2,1.5,0.4,2.3,0.8c2,0.9,3.7,2.1,5,3.8c1,1.2,1.7,2.6,2,4.1
	c-1.6,0.7-3.4,1.2-5,1.2c-0.5,0-1-0.1-1.5-0.1c-2.3-0.4-4.4-1.9-6.2-3.4c-1.8-1.5-3.7-3.2-4.9-5.3
	C446.6,126.9,448.5,126.4,450.4,126.4 M450.4,123.5c-2.3,0-4.5,0.5-6.9,1.5l-3.1,1.3l1.7,2.9c1.5,2.6,3.7,4.5,5.5,6.1
	c2.1,1.8,4.5,3.5,7.5,4.1c0.7,0.1,1.4,0.2,2.1,0.2c2,0,4.1-0.5,6.2-1.5l2.2-1l-0.6-2.3c-0.4-1.9-1.3-3.7-2.6-5.3
	c-1.5-1.9-3.7-3.5-6.1-4.6c-1-0.4-1.8-0.7-2.8-1C452.7,123.7,451.6,123.5,450.4,123.5L450.4,123.5z"/>
<path class="st0" d="M524.5,203.3c0.5-0.1,1-0.2,1.5-0.4c-1.5-2.8-3.2-5.4-5.3-7.7c-1.6-1.8-3.6-3.4-5.8-4.3c-2.8-1.1-6-1-8.8,0.1
	c-2.5,1-4.7,2.6-6.5,4.5c0.7,2.2,1.8,4.3,3.5,5.8c0.9,0.7,1.9,1.2,2.9,1.8c2.9,1.2,6.1,1.7,9.2,1.6
	C518.3,204.6,521.4,204.1,524.5,203.3z"/>
<path class="st13" d="M510.6,190.2c1.5,0,2.9,0.2,4.2,0.8c2.3,0.9,4.2,2.5,5.8,4.3c2.1,2.3,3.8,5,5.3,7.7c-0.5,0.1-1,0.2-1.5,0.4
	c-3.1,0.7-6.1,1.3-9.3,1.3c-0.1,0-0.3,0-0.5,0c-3,0-6-0.4-8.7-1.6c-1-0.4-2-1-2.9-1.8c-1.8-1.5-2.9-3.6-3.5-5.8c1.8-2,4-3.7,6.5-4.5
	C507.4,190.5,509,190.2,510.6,190.2 M510.6,187.3c-1.9,0-3.7,0.4-5.6,1c-2.9,1-5.5,2.9-7.7,5.3l-1.1,1.2l0.5,1.6
	c1,3.1,2.4,5.5,4.5,7.2c1,0.8,2.2,1.5,3.7,2.2c2.9,1.2,6.2,1.9,9.9,1.9c0.1,0,0.4,0,0.5,0c2.9-0.1,6.1-0.5,9.9-1.4
	c0.5-0.1,1-0.2,1.5-0.4l3.6-1l-1.8-3.3c-1.8-3.4-3.7-6.1-5.8-8.3c-2.3-2.4-4.5-4.1-6.9-5C514.2,187.5,512.4,187.3,510.6,187.3
	L510.6,187.3z"/>
<path class="st0" d="M491.4,182.9c1.5-2.6,1.8-5.5,1.8-8.5c-1.8,0.9-3.4,1.8-5,3c-2,1.5-3.7,3.4-4.6,5.7c-0.9,2-1.2,4.3-1,6.5
	c1.4-0.6,2.8-1.2,4.1-2C488.6,186.4,490.3,184.8,491.4,182.9z"/>
<path class="st13" d="M493.1,174.4c0.1,2.9-0.3,5.9-1.8,8.5c-1.2,2-2.9,3.5-4.8,4.8c-1.3,0.8-2.7,1.5-4.1,2c-0.1-2.3,0.1-4.5,1-6.5
	c1-2.3,2.6-4.2,4.6-5.7C489.7,176.2,491.4,175.3,493.1,174.4 M495.9,169.8l-4,2c-2.3,1.1-3.9,2.1-5.5,3.4c-2.6,2-4.4,4.3-5.5,6.9
	c-1,2.3-1.4,5-1.2,7.8l0.2,4.1l3.8-1.6c1.8-0.7,3.2-1.5,4.5-2.3c2.6-1.6,4.5-3.5,5.8-5.7c1.6-2.7,2.3-6,2.1-10L495.9,169.8
	L495.9,169.8z"/>
<path class="st0" d="M470,117.9c-1.2,4.4-1.8,9-1.2,13.5c0.4,2.4,1.1,4.8,2.4,6.7c1.1,1.8,2.7,3.3,4.6,4.2c1-0.9,1.8-1.8,2.5-2.9
	c2.5-3.2,4.8-6.7,5.8-10.7c1.3-5,0.7-10.3-1.2-15.1c-1.5-3.8-3.8-7.3-6.4-10.5C473.6,107.7,471.4,112.7,470,117.9z"/>
<path class="st13" d="M476.5,103.1c2.6,3.1,4.9,6.7,6.4,10.5c1.9,4.8,2.6,10.2,1.2,15.1c-1.1,3.9-3.3,7.5-5.8,10.7
	c-0.7,1-1.5,2-2.5,2.9c-1.9-0.9-3.5-2.4-4.6-4.2c-1.3-2-2-4.4-2.4-6.7c-0.7-4.5-0.1-9.1,1.2-13.5
	C471.4,112.7,473.6,107.7,476.5,103.1 M476.2,98.2l-2.2,3.4c-3.1,4.8-5.4,10-6.9,15.6c-1.5,5.4-1.9,10.2-1.2,14.7
	c0.4,3.1,1.4,5.7,2.9,7.9c1.5,2.3,3.5,4.2,5.8,5.2l1.8,0.8l1.5-1.3c1.1-1,2-2.1,2.9-3.2c2.3-3,5-6.9,6.3-11.7c1.4-5.2,1-11.3-1.3-17
	c-1.5-3.8-3.7-7.5-6.9-11.3L476.2,98.2L476.2,98.2z"/>
<path class="st0" d="M461.7,114.9c-0.4,1.6-0.7,3.3-0.4,4.9c0.1,0.9,0.4,1.8,0.9,2.5c0.4,0.7,1,1.2,1.7,1.5c0.4-0.3,0.7-0.7,0.9-1
	c0.9-1.2,1.8-2.5,2.1-3.9c0.5-1.8,0.3-3.8-0.4-5.5c-0.6-1.4-1.4-2.7-2.3-3.8C463.1,111.2,462.3,113,461.7,114.9z"/>
<path class="st13" d="M464.1,109.6c1,1.2,1.8,2.4,2.3,3.8c0.7,1.8,1,3.7,0.4,5.5c-0.4,1.5-1.2,2.7-2.1,3.9c-0.3,0.4-0.6,0.7-0.9,1
	c-0.7-0.3-1.2-0.9-1.7-1.5c-0.5-0.7-0.7-1.6-0.9-2.5c-0.2-1.6,0-3.4,0.4-4.9C462.3,113,463.1,111.2,464.1,109.6 M463.8,104.6
	l-2.2,3.4c-1.2,1.9-2.1,4-2.8,6.2c-0.6,2.3-0.7,4.2-0.5,6.1c0.2,1.4,0.7,2.6,1.3,3.7c0.7,1.2,1.8,2,2.9,2.6l1.8,0.8l1.5-1.3
	c0.5-0.4,1-1,1.2-1.5c1-1.2,2-2.9,2.6-4.9c0.7-2.3,0.4-4.9-0.5-7.4c-0.7-1.6-1.5-3.1-2.9-4.6L463.8,104.6L463.8,104.6z"/>
<path class="st0" d="M443.6,148.4c1,3.7,3.4,7.1,6.3,9.8c3.6,3.4,8,5.9,12.7,6.9c4.3,0.9,8.9,0.4,12.9-1.5c-1-4.1-3.7-7.8-7.1-10.4
	c-4-3-8.9-4.5-13.9-5.3c-1.8-0.2-3.4-0.4-5.2-0.4C447.4,147.6,445.5,147.9,443.6,148.4z"/>
<path class="st13" d="M449.7,147.6c1.6,0,3.2,0.1,4.8,0.4c5,0.7,9.9,2.3,13.9,5.3c3.4,2.6,6.1,6.2,7.1,10.4
	c-2.6,1.3-5.6,1.9-8.6,1.9c-1.5,0-2.9-0.1-4.3-0.4c-4.8-1-9.2-3.6-12.7-6.9c-2.9-2.7-5.3-6.1-6.3-9.8c1.9-0.5,3.8-0.7,5.8-0.8
	C449.5,147.6,449.6,147.6,449.7,147.6 M449.7,144.6c-0.1,0-0.3,0-0.4,0c-2.2,0-4.3,0.4-6.4,0.9l-2.9,0.7l0.8,2.9
	c1,3.9,3.5,7.8,7.1,11.2c4.2,3.9,9.1,6.6,14.2,7.7c1.6,0.4,3.3,0.5,4.9,0.5c3.5,0,6.9-0.8,9.9-2.2l2-1l-0.5-2.3
	c-1.1-4.6-4-9-8.2-12.1c-3.9-3-9.1-5-15.2-5.8C453.1,144.8,451.3,144.6,449.7,144.6L449.7,144.6z"/>
<path class="st0" d="M474.6,189.7c-3.7-4.8-8.2-8.9-13.5-11.5c0.1,3.9,0.8,7.8,1.8,11.5c0.4,1.5,0.9,3.1,1.5,4.5
	c1.5,3.1,3.9,5.8,6.9,7.7c2.8,1.7,5.9,2.7,9.1,3.1c-0.3-3.8-1-7.5-2.8-10.8C476.8,192.6,475.8,191.1,474.6,189.7z"/>
<path class="st13" d="M461.1,178.1c5.3,2.6,9.9,6.8,13.5,11.5c1.1,1.5,2.2,2.9,3,4.5c1.8,3.4,2.5,7,2.8,10.8
	c-3.2-0.4-6.4-1.4-9.1-3.1c-3-1.8-5.5-4.5-6.9-7.7c-0.7-1.5-1.2-2.9-1.5-4.5C461.8,185.9,461.2,182.1,461.1,178.1 M458,173.4
	l0.2,4.9c0.2,4.1,0.8,8.2,1.8,12.2c0.4,1.4,0.9,3.2,1.8,5c1.7,3.6,4.5,6.7,8,8.9c3,1.8,6.6,3.1,10.3,3.5l3.6,0.4l-0.3-3.6
	c-0.4-4.8-1.4-8.6-3.1-11.9c-0.8-1.5-1.8-3.1-3.3-5c-4.5-5.7-9.4-9.8-14.6-12.4L458,173.4L458,173.4z"/>
<path class="st0" d="M488.9,142.9c1.2-0.8,2.3-1.8,3.2-2.8c2.6-2.8,4.7-6.2,6-9.8c-2.5-0.1-5,0-7.4,0.5c-2.8,0.6-5.4,1.8-7.5,3.5
	c-0.4,0.3-0.7,0.7-1.1,1c-1.3,1.5-2,3.4-2.4,5.3c-0.3,1.8-0.3,3.7-0.3,5.5C482.7,145.7,486,144.8,488.9,142.9z"/>
<path class="st13" d="M496.5,130.2c0.5,0,1,0,1.5,0c-1.2,3.7-3.3,7-6,9.8c-1,1-2,2-3.2,2.8c-2.8,1.9-6.1,2.9-9.5,3.4
	c-0.1-1.8-0.1-3.7,0.3-5.5c0.4-2,1.1-3.9,2.4-5.3c0.4-0.4,0.7-0.7,1.1-1c2.1-1.8,4.8-2.9,7.5-3.5
	C492.5,130.4,494.5,130.2,496.5,130.2 M496.5,127.3c-2.3,0-4.5,0.2-6.5,0.7c-3.4,0.7-6.4,2.2-8.8,4.2c-0.5,0.4-1,0.9-1.4,1.3
	c-1.6,1.8-2.6,4-3.1,6.8c-0.4,2.1-0.4,4.2-0.3,6.1l0.1,3.3l3.3-0.5c4.4-0.7,7.9-1.9,10.7-3.9c1.2-0.9,2.5-1.9,3.7-3.2
	c2.9-3.1,5.2-6.9,6.6-10.9l1.3-3.7l-3.9-0.1C497.6,127.3,497.1,127.3,496.5,127.3L496.5,127.3z"/>
<path class="st0" d="M494.1,157.7c-1.2-1.8-2.7-3.4-4.5-4.5c-0.7,1.8-1.2,3.7-1.5,5.7c-0.2,1-0.4,1.9-0.4,2.9c-0.1,3.2,1,6.4,3,8.9
	c1.9,2.3,4.5,3.9,7.4,4.5c0.7-3.1,0.3-6.4-0.6-9.5C496.7,162.8,495.7,160.1,494.1,157.7z"/>
<path class="st13" d="M489.5,153.1c1.8,1.2,3.4,2.8,4.5,4.5c1.6,2.4,2.6,5.2,3.4,8c0.8,3.1,1.3,6.4,0.6,9.5
	c-2.9-0.6-5.5-2.2-7.4-4.5c-2-2.5-3.1-5.7-3-8.9c0.1-1,0.2-1.9,0.4-2.9C488.4,156.9,488.9,155,489.5,153.1 M488,148.7l-1.2,3.5
	c-0.7,2-1.2,4-1.6,6.1c-0.1,0.9-0.4,2-0.4,3.3c-0.1,3.9,1.2,7.9,3.7,10.9c2.3,2.8,5.5,4.7,9,5.5l2.8,0.6l0.7-2.8
	c0.8-3.1,0.6-6.7-0.6-11c-1-3.6-2.2-6.4-3.8-8.8c-1.5-2.2-3.4-4.1-5.4-5.4L488,148.7L488,148.7z"/>
<path class="st0" d="M530,159.6c-5.8-1.1-12.1-0.3-17.4,2.2c-0.9,0.4-1.7,0.9-2.5,1.4c-3.1,2-5.4,4.8-7.2,8c-1.5,2.9-2.6,6-3.3,9.2
	c2.6,0.8,5.2,1.2,7.8,1.5c3.9,0.2,7.9-0.2,11.3-2.2c1.8-1.1,3.4-2.6,4.7-4.2C527,171,528.6,165.3,530,159.6z"/>
<path class="st13" d="M524.8,159.1c1.8,0,3.5,0.1,5.3,0.5c-1.4,5.6-3.1,11.3-6.7,15.9c-1.3,1.7-2.9,3.1-4.7,4.2
	c-2.8,1.7-6.1,2.3-9.4,2.3c-0.6,0-1.2,0-1.8-0.1c-2.6-0.1-5.3-0.7-7.8-1.5c0.7-3.2,1.8-6.4,3.3-9.2c1.8-3.2,4.1-6.1,7.2-8
	c0.8-0.5,1.6-1,2.5-1.4C516.4,160.1,520.6,159.1,524.8,159.1 M524.8,156.2c-4.7,0-9.3,1-13.4,3c-1,0.5-2,1-2.9,1.5
	c-3.3,2.1-6.1,5.3-8.1,9.1c-1.5,2.9-2.7,6.1-3.6,9.9l-0.6,2.6l2.6,0.8c2.8,0.9,5.6,1.4,8.5,1.5c0.7,0.1,1.4,0.1,2,0.1
	c4.2,0,7.9-0.9,10.9-2.7c2-1.2,3.8-2.9,5.5-4.9c4-5.1,5.8-11.4,7.2-17l0.7-3l-3.1-0.6C528.7,156.4,526.7,156.2,524.8,156.2
	L524.8,156.2z"/>
<g>
	<path class="st15" d="M488,216.5c-0.1-12.8,3.9-25.5,11.5-35.7c7.5-10.2,18.3-17.8,30.3-21.3c-11.9,3.9-22.4,11.8-29.4,22
		c-7,10.2-10.6,22.7-10,34.9L488,216.5z"/>
	<path class="st13" d="M529.8,159.5c-12,3.6-22.8,11.1-30.3,21.3c-7.5,10.2-11.6,22.9-11.5,35.7l2.4-0.1c-0.5-12.2,3-24.7,10-34.9
		C507.4,171.3,517.9,163.4,529.8,159.5L529.8,159.5z"/>
</g>
<g>
	<path class="st15" d="M486.8,219.3c-2.3-9.1-4.3-18.3-5.8-27.6c-1.6-9.3-2.8-18.6-3.7-28c-1.8-18.7-2.5-37.5-2.6-56.3
		c0.5,18.8,1.5,37.6,3.8,56.1c1.1,9.3,2.6,18.6,4.3,27.8c1.8,9.2,3.9,18.3,6.4,27.3L486.8,219.3z"/>
	<path class="st13" d="M474.7,107.4c0.1,18.8,0.7,37.6,2.6,56.3c1,9.4,2.1,18.7,3.7,28c1.6,9.3,3.5,18.5,5.8,27.6l2.3-0.7
		c-2.5-9-4.7-18.1-6.4-27.3c-1.8-9.2-3.2-18.5-4.3-27.8C476.2,144.9,475.2,126.1,474.7,107.4L474.7,107.4z"/>
</g>
<g>
	<path class="st15" d="M498.9,182.3c-0.9-5-2.1-10-3.7-14.9c-1.5-4.9-3.4-9.6-5.6-14.3c2.4,4.5,4.3,9.3,6,14.1c1.6,4.8,3,9.8,4,14.8
		L498.9,182.3z"/>
	<path class="st13" d="M498.6,182.7l-0.1-0.4c-0.9-4.9-2.1-9.9-3.7-14.8c-1.7-5.3-3.5-9.9-5.6-14.2l0.7-0.4c2.3,4.2,4.2,8.8,6,14.2
		c1.7,4.9,3,9.9,4,14.9l0.1,0.4L498.6,182.7z"/>
</g>
<g>
	<path class="st15" d="M476.5,148.4c1.5-1.9,3.2-3.6,5-5.1c1.8-1.5,3.7-3,5.6-4.4c1.9-1.4,3.8-2.8,5.6-4.2s3.7-2.9,5.4-4.5
		c-1.6,1.7-3.4,3.2-5.3,4.7s-3.7,2.9-5.6,4.4s-3.7,2.9-5.4,4.5c-1.8,1.5-3.4,3.2-4.8,5.1L476.5,148.4z"/>
	<path class="st13" d="M477.2,149.4l-1.2-0.9l0.2-0.3c1.5-2,3.4-3.7,5-5.1c1.8-1.6,3.7-3.1,5.6-4.4c0.7-0.5,1.3-1,2-1.5
		c1.2-0.9,2.4-1.8,3.7-2.8c1.8-1.4,3.7-2.9,5.3-4.5l0.5,0.5c-1.7,1.8-3.7,3.4-5.3,4.8c-1.2,1-2.3,1.9-3.6,2.9c-0.7,0.5-1.3,1-2,1.5
		c-1.8,1.4-3.6,2.9-5.4,4.5c-1.5,1.4-3.3,3.1-4.7,5L477.2,149.4z"/>
</g>
<g>
	<path class="st15" d="M478.4,166.9c-7.1-7.4-15.9-12.9-25.7-16.2c9.8,3,18.9,8.4,26.2,15.6L478.4,166.9z"/>
	<path class="st13" d="M452.7,150.7c9.7,3.2,18.6,8.8,25.7,16.2l0.5-0.5C471.6,159.1,462.5,153.7,452.7,150.7L452.7,150.7z"/>
</g>
<g>
	<path class="st15" d="M486.5,218.5c-3.4-6.8-6.8-13.6-10.6-20.1c-3.8-6.5-8-12.9-13.1-18.6c5.3,5.4,9.9,11.5,14.1,17.9
		s8,13,11.8,19.6L486.5,218.5z"/>
	<path class="st13" d="M462.7,179.8c5,5.7,9.3,12.1,13.1,18.6c3.8,6.6,7.2,13.3,10.6,20.1l2.1-1.2c-3.7-6.6-7.5-13.2-11.8-19.6
		C472.7,191.3,468,185.2,462.7,179.8L462.7,179.8z"/>
</g>
<g>
	<path class="st15" d="M492.1,195.4c9.4-0.4,19,1.5,27.5,5.5c-8.6-3.7-18.1-5.4-27.5-4.8V195.4z"/>
	<path class="st13" d="M494.5,195.4c-0.8,0-1.5,0-2.3,0.1l0.1,0.7c1.3-0.1,2.6-0.1,3.9-0.1c8,0,16.2,1.7,23.6,4.9
		C511.8,197.3,503.1,195.4,494.5,195.4L494.5,195.4z"/>
</g>
<g>
	<path class="st15" d="M481.7,190.8c2.1-4.3,4.6-8.4,7.4-12.3c-2.6,4-4.8,8.2-6.7,12.6L481.7,190.8z"/>
	<path class="st13" d="M482.5,191.6l-1.3-0.7l0.1-0.4c2.1-4.3,4.6-8.4,7.5-12.3l0.6,0.4c-2.6,3.9-4.8,8.2-6.7,12.5L482.5,191.6z"/>
</g>
<g>
	<path class="st15" d="M476.4,150.3c-1.2-2.5-2.9-4.8-4.7-6.9c-1.8-2.1-3.9-4-6.1-5.7c-2.2-1.7-4.6-3.2-7.1-4.5
		c-2.5-1.3-5-2.5-7.7-3.5c2.6,1,5.3,2,7.7,3.4c2.5,1.2,5,2.7,7.2,4.4c2.3,1.7,4.4,3.5,6.3,5.6c1.9,2.1,3.6,4.4,4.9,6.9L476.4,150.3z
		"/>
	<path class="st13" d="M450.9,129.8c2.6,1,5.2,2.2,7.7,3.5s4.8,2.8,7.1,4.5c2.2,1.7,4.3,3.6,6.1,5.7c1.8,2.1,3.4,4.4,4.7,6.9
		l0.7-0.4c-1.3-2.5-3-4.8-4.9-6.9c-1.9-2.1-4-3.9-6.3-5.6c-2.3-1.7-4.7-3.1-7.2-4.4C456.1,131.9,453.5,130.8,450.9,129.8
		L450.9,129.8z"/>
</g>
<g>
	<path class="st15" d="M494.6,188.7c5.6-1.2,11.3-1.6,17-1.1c-5.6-0.2-11.3,0.4-16.8,1.8L494.6,188.7z"/>
	<path class="st13" d="M507,187.4c-4.2,0-8.3,0.4-12.4,1.3l0.1,0.7c4.8-1.2,9.7-1.9,14.7-1.9c0.7,0,1.4,0,2.1,0.1
		C510.1,187.5,508.5,187.4,507,187.4L507,187.4z"/>
</g>
<g>
	<path class="st15" d="M467.9,139.9c-3.8-8.2-5.2-17.5-3.9-26.3c-1,8.9,0.6,18.1,4.6,26L467.9,139.9z"/>
	<path class="st13" d="M464,113.6c-1.3,8.8,0.1,18.1,3.9,26.3l0.7-0.3C464.5,131.6,462.9,122.5,464,113.6L464,113.6z"/>
</g>
<path class="st0" d="M511.6,231.4c-1.1-3.7-3.3-7.2-6.2-9.4c-1.5-1.2-3.4-2-4.8-3.2c-1.5-1.2-2.7-3.2-2.6-5.3h-10.4l0,0h-10.4
	c0.2,2-1,4-2.6,5.3c-1.5,1.2-3.3,2-4.8,3.2c-3,2.2-5.1,5.6-6.2,9.4c-1.2,3.7-1.3,7.7-1,11.7c0.4,4.8,1.8,9.5,4.5,13.3
	c2.6,3.8,6.7,6.5,11,6.7h9.4l0,0h9.4c4.3-0.1,8.4-2.9,11-6.7c2.6-3.8,4-8.6,4.5-13.3C512.9,239.1,512.7,235.1,511.6,231.4z"/>
<path class="st13" d="M487.6,264.5h-9.4c-4.6-0.1-9.1-2.9-12.3-7.3c-2.6-3.7-4.2-8.5-4.8-14c-0.4-4.5-0.1-8.6,1-12.3
	c1.3-4.2,3.7-7.8,6.7-10.1c0.7-0.5,1.5-1,2.2-1.5c1-0.6,1.8-1.1,2.6-1.8c1.4-1.2,2.1-2.7,2-4l-0.1-1.6h24l-0.1,1.6
	c-0.1,1.3,0.7,2.9,2,4c0.7,0.7,1.6,1.2,2.6,1.8c0.7,0.4,1.5,0.9,2.2,1.5c3.1,2.3,5.5,5.8,6.7,10.1l0,0c1.1,3.7,1.5,7.7,1,12.3
	c-0.5,5.5-2.2,10.3-4.8,14c-3.1,4.4-7.7,7.1-12.2,7.3H487.6z M478.6,215c-0.3,1.8-1.3,3.5-3,4.9c-1,0.8-2,1.4-2.9,2
	c-0.7,0.4-1.4,0.8-2,1.3c-2.6,1.9-4.6,5-5.7,8.6c-1,3.3-1.3,7-0.9,11.1c0.5,5,2,9.4,4.2,12.6c2.6,3.7,6.3,5.9,9.9,6.1H497
	c3.6-0.1,7.3-2.4,9.9-6.1c2.3-3.2,3.7-7.6,4.2-12.6c0.4-4.1,0.1-7.8-0.9-11.1l0,0c-1.1-3.7-3.1-6.7-5.7-8.6c-0.6-0.4-1.2-0.9-2-1.3
	c-1-0.6-2-1.2-2.9-2c-1.6-1.4-2.6-3.1-3-4.9H478.6z"/>
<g>
	<path class="st16" d="M469.2,236.2c4.8,0,8.6,3.8,8.6,8.6s-3.8,8.6-8.6,8.6"/>
	<path class="st11" d="M442.4,231.5h26.2V253c0,5.7-4.7,10.4-10.4,10.4h-5.5c-5.7,0-10.4-4.7-10.4-10.4L442.4,231.5L442.4,231.5z"/>
</g>
<g>
	<path class="st17" d="M-1240.3,16.6c-9.2-30-14-61.8-14-94.7c0-29,3.9-57.5,11.1-84.1"/>
	<path class="st17" d="M-1194.9,109.9c-14-19.8-25.6-41.1-35.3-63.8"/>
	<path class="st17" d="M-695.4,148c-58.9,61.4-142,99-233.8,99c-87,0-165.7-34.3-224.2-89.9"/>
	<path class="st17" d="M-677.5,128.2c-1,1.4-2.4,2.9-3.4,3.9"/>
	<path class="st17" d="M-660.6,106c-1.9,2.4-3.9,5.3-5.3,7.7"/>
	<path class="st17" d="M-737-340.4c80.7,59.4,133.3,154.6,133.3,262.3c0,32.9-4.8,64.3-14,94.2"/>
	<path class="st17" d="M-895.9-401.2c37.7,3.9,73.4,14,106.3,29.5"/>
	<path class="st17" d="M-1169.3-297.4c59.4-65.2,144.9-105.8,240.1-105.8"/>
	<path class="st17" d="M-1185.8-277.6c5.3-6.8,10.6-13.5,16.4-19.8"/>
	<g>
		<path class="st17" d="M-820.1,281.4c-34.8,10.6-71,15.9-109.2,15.9c-33.3,0-66.2-4.3-97.1-12.6"/>
		<path class="st17" d="M-712.8,228.7c-22.7,15.9-47.3,30-73.4,40.6"/>
		<path class="st17" d="M-668.4-347.6c70.5,68.1,114.5,163.8,114.5,270c0,100.5-39.1,191.3-103.4,258.9"/>
		<path class="st17" d="M-691.6-368.4c1.4,1.4,2.9,2.4,4.8,3.9"/>
		<path class="st17" d="M-717.2-387.7c2.9,1.9,6.3,4.3,9.2,6.3"/>
		<path class="st17" d="M-1232.1-299.8c68.1-93.2,178.7-153.6,302.9-153.6c37.7,0,74.4,5.8,108.7,15.9"/>
		<path class="st17" d="M-1302.7-116.2c4.3-43.5,16.4-85,34.3-122.7"/>
		<path class="st17" d="M-1182.4,199.2c-75.4-68.6-122.2-167.6-122.2-277.3"/>
		<path class="st17" d="M-1159.7,218.6c-7.7-6.3-15.5-12.6-22.7-19.3"/>
	</g>
</g>
</svg>
