<?xml version="1.0" encoding="utf-8"?>
<!-- Generator: Adobe Illustrator 26.4.1, SVG Export Plug-In . SVG Version: 6.00 Build 0)  -->
<svg version="1.1" id="Calque_1" xmlns="http://www.w3.org/2000/svg" xmlns:xlink="http://www.w3.org/1999/xlink" x="0px" y="0px"
	 viewBox="0 0 1920 1080" style="enable-background:new 0 0 1920 1080;" xml:space="preserve">
<style type="text/css">
	.st0{fill:#F0F3FF;}
	.st1{fill:url(#SVGID_1_);}
	.st2{fill:url(#SVGID_00000109745321781149861320000013533855380112124582_);}
	.st3{fill:#466BFF;}
	.st4{fill:none;stroke:#81ABFF;stroke-width:5;stroke-miterlimit:10;}
	.st5{fill:#81ABFF;}
	.st6{fill:#272525;}
	.st7{fill:#FFFFFF;}
	.st8{fill:#55422F;stroke:#272525;stroke-miterlimit:10;}
	.st9{fill:#F0F3FF;stroke:#272525;stroke-width:4;stroke-miterlimit:10;}
	.st10{fill:none;stroke:#272525;stroke-width:4;stroke-linecap:round;stroke-linejoin:round;stroke-miterlimit:10;}
	.st11{font-family:'CroissantOne-Regular';}
	.st12{font-size:103.4428px;}
	.st13{fill:#F0F3FF;stroke:#272525;stroke-width:4;stroke-linecap:round;stroke-linejoin:round;stroke-miterlimit:10;}
	.st14{fill:none;stroke:#272525;stroke-width:4;stroke-miterlimit:10;}
	.st15{fill:#FFFFFF;stroke:#272525;stroke-width:4;stroke-miterlimit:10;}
	.st16{fill:none;stroke:#FFFFFF;stroke-width:2;stroke-linecap:round;stroke-linejoin:round;stroke-miterlimit:10;}
	.st17{clip-path:url(#SVGID_00000181778603687958078450000009025371078954512574_);fill:#81ABFF;}
	.st18{clip-path:url(#SVGID_00000036234893277483833530000011952746840668360837_);}
</style>
<rect y="-0.1" class="st0" width="1920" height="1079.2"/>
<linearGradient id="SVGID_1_" gradientUnits="userSpaceOnUse" x1="1097.2388" y1="844.2106" x2="1996.4916" y2="624.5176" gradientTransform="matrix(1 0 0 -1 0 1080)">
	<stop  offset="0" style="stop-color:#FFFFFF"/>
	<stop  offset="1" style="stop-color:#466BFF"/>
</linearGradient>
<path class="st1" d="M1590,94.5c0,0-314.2,93.5-317.1,191.2s311.8,191.5,402.3,210.1c12.6,2.6,20.1,7.4,23.6,14.1
	c21.5,40.9-170.7,124-162.6,202.4c3.2,30.7,37.2,66.9,154.5,101.3c76.1,15.7,152.2,31.5,228.4,47.2c0.3-285.5,0.7-571.1,1-856.6
	L1590,94.5z"/>
<linearGradient id="SVGID_00000085243286020912409830000017306929173188716428_" gradientUnits="userSpaceOnUse" x1="-2.2663" y1="541.2748" x2="546.123" y2="541.2748" gradientTransform="matrix(1 0 0 -1 0 1080)">
	<stop  offset="0" style="stop-color:#FFFFFF"/>
	<stop  offset="1" style="stop-color:#466BFF"/>
</linearGradient>
<path style="fill:url(#SVGID_00000085243286020912409830000017306929173188716428_);" d="M85.7,839.1C56.4,612,27.1,385-2.3,157.9
	c17.3,46.4,48.6,110.6,108,166.4c42.2,39.6,80.1,57.6,130.9,83c194.6,97.3,292.2,146.7,304.5,183.7c32.1,96-93.8,253.2-244.1,307
	c-137.3,49.2-262.1,0.4-299.3-15.8C27.1,867.9,56.4,853.5,85.7,839.1z"/>
<path class="st3" d="M0,956c-0.8-271.9-1.5-543.9-2.3-815.8c24,100.6,72.5,230.1,181,277.3c131,57,257.4-46.1,307,12.6
	c60.1,71.1-74.1,282.9-130.9,372.5c-37,58.3-57.4,78.6-75.5,93.1C180,975.5,51.2,963.7,0,956z"/>
<path class="st3" d="M1373.1,301.3c-23.4,89.7,231.6,165.5,339.9,218.3c5.5,2.7,9.3,6.1,11.7,10.3
	c48.1,82.8-302.4,356.2-257.5,428.7c10.2,16.5,46.2,30.2,182.2-9.3c89.9-26.2,179.8-52.5,269.7-78.7c0.3-289.1,0.6-578.3,0.9-867.4
	C1920,3.2,1396.5,211.6,1373.1,301.3z"/>
<path class="st4" d="M1770.4,51c0,0-397.3,283-329.3,407.7s409.8,124.7,478.9,274"/>
<path class="st4" d="M0,165.7c0,0,604.7,194.6,492.9,355.4S0,760.5,0,760.5"/>
<g>
	<path class="st5" d="M1332.2,232.4c-2,10.6-3.1,29.2,8,35.7c13.3,7.8,43.7-4.9,56.2-6.6c40.3-5.5,68.1,17.1,104.9,29.7
		c11.8,4.1,28.6-0.1,37.1-9.8c17.6-20.2-5.3-44.3-21.5-54.1c-17-10.3-37-18-45.1-38.1c-5.8-14.3-8.2-23.8-26.7-23
		C1406.6,167.9,1340.4,188.6,1332.2,232.4z"/>
</g>
<ellipse class="st5" cx="1713.3" cy="688" rx="24.7" ry="16.9"/>
<ellipse class="st5" cx="265.6" cy="735.2" rx="24.7" ry="16.9"/>
<ellipse class="st5" cx="1773.1" cy="712.1" rx="16.9" ry="11.5"/>
<g>
	<path class="st6" d="M1265.7,444.9c1.4,0,2.8,0.3,4.1,0.7c1.9,0.5,3.9,1.2,5.5,2.4c-1.6,1.8-3.7,3.1-6.1,3.6
		c-0.7,0.1-1.3,0.2-2,0.2h-0.1c-1.7,0-3.5-0.3-5-1.1c-1.1-0.6-2.2-1.4-3-2.4c1.3-1.4,2.8-2.6,4.7-3.1
		C1264.5,444.9,1265.1,444.9,1265.7,444.9 M1265.7,440.9c-1,0-1.9,0.1-2.8,0.3c-2.4,0.6-4.7,2.1-6.7,4.3l-2.2,2.5l2,2.6
		c1.1,1.5,2.6,2.7,4.3,3.5c2,1,4.4,1.6,6.8,1.6h0.2c1,0,1.9-0.1,2.7-0.3c3-0.6,5.8-2.2,8.2-4.8l3.1-3.4l-3.8-2.6
		c-2.2-1.6-4.7-2.4-6.8-2.9C1269.4,441.3,1267.6,440.9,1265.7,440.9L1265.7,440.9z"/>
</g>
<g>
	<path class="st6" d="M1187.9,364c1.2,0,2.4,0.1,3.6,0.4c1.1,0.3,2.1,0.6,3.1,1.1c2.7,1.2,5.1,2.9,6.9,5.2c1.3,1.6,2.3,3.6,2.8,5.6
		c-2.2,1-4.6,1.6-6.9,1.6c-0.7,0-1.4-0.1-2.1-0.2c-3.2-0.6-6-2.6-8.5-4.7s-5-4.4-6.7-7.3C1182.5,364.6,1185.2,364,1187.9,364
		 M1187.9,360c-3.1,0-6.2,0.7-9.4,2l-4.2,1.8l2.3,4c2.1,3.5,5,6.2,7.5,8.3c2.9,2.4,6.2,4.8,10.3,5.6c0.9,0.2,1.9,0.3,2.9,0.3
		c2.7,0,5.6-0.7,8.5-2l3-1.3l-0.8-3.2c-0.6-2.6-1.8-5.1-3.5-7.2c-2.1-2.6-5-4.8-8.4-6.3c-1.3-0.6-2.5-1-3.8-1.3
		C1190.9,360.2,1189.4,360,1187.9,360L1187.9,360z"/>
</g>
<g>
	<path class="st0" d="M1275.7,473c-4.7,0-9-0.8-12.7-2.4c-1.8-0.8-3.3-1.6-4.5-2.7c-2.4-2-4.2-4.9-5.4-8.9l-0.3-1.1l0.8-0.8
		c2.8-3.1,6.1-5.4,9.7-6.8c2.2-0.8,4.6-1.2,6.9-1.2s4.5,0.4,6.5,1.2c3,1.2,5.9,3.3,8.7,6.4c2.7,2.9,5.2,6.5,7.6,11l1.2,2.2l-2.5,0.6
		c-0.7,0.2-1.3,0.3-2,0.5c-5.1,1.2-9.3,1.8-13.2,1.9C1276.2,473,1276,473,1275.7,473z"/>
	<path class="st6" d="M1270.1,451.2c2,0,3.9,0.3,5.8,1.1c3.1,1.2,5.7,3.4,8,5.9c2.9,3.2,5.2,6.8,7.3,10.6c-0.7,0.2-1.3,0.3-2,0.5
		c-4.2,1-8.4,1.8-12.7,1.8c-0.2,0-0.4,0-0.7,0c-4.1,0-8.2-0.6-11.9-2.2c-1.4-0.6-2.8-1.4-4-2.4c-2.4-2-3.9-4.9-4.8-7.9
		c2.4-2.7,5.5-5,8.9-6.2C1265.9,451.6,1268,451.2,1270.1,451.2 M1270.1,447.2c-2.6,0-5.1,0.5-7.6,1.4c-3.9,1.4-7.5,3.9-10.5,7.3
		l-1.5,1.7l0.7,2.2c1.3,4.3,3.3,7.5,6.1,9.8c1.4,1.1,3,2.1,5,3c4,1.7,8.5,2.6,13.5,2.6c0.2,0,0.5,0,0.7,0c4-0.1,8.4-0.7,13.6-1.9
		c0.7-0.2,1.4-0.3,2-0.5l4.9-1.3l-2.4-4.5c-2.5-4.6-5.1-8.3-7.9-11.4c-3.1-3.3-6.2-5.6-9.5-6.9
		C1275.1,447.7,1272.6,447.2,1270.1,447.2L1270.1,447.2z"/>
</g>
<g>
	<path class="st0" d="M1229.8,450.6c-0.2-3.7,0.3-7,1.5-9.8c1.4-3.2,3.7-6.1,6.9-8.6c2-1.5,4.3-2.9,7.2-4.3l2.8-1.3l0.1,3.1
		c0.2,5.1-0.7,9.3-2.6,12.6c-1.6,2.7-4,5.1-7.2,7.1c-1.7,1.1-3.6,2-5.9,3l-2.6,1.1L1229.8,450.6z"/>
	<path class="st6" d="M1246.3,429.6c0.2,4-0.4,8.1-2.4,11.6c-1.6,2.7-3.9,4.8-6.6,6.5c-1.8,1.1-3.7,2-5.6,2.8
		c-0.2-3.1,0.2-6.1,1.4-8.9c1.3-3.1,3.6-5.7,6.3-7.8C1241.6,432.1,1243.9,430.8,1246.3,429.6 M1250,423.4l-5.5,2.7
		c-3.1,1.5-5.4,2.9-7.5,4.6c-3.5,2.7-6,5.9-7.5,9.4c-1.4,3.2-1.9,6.8-1.7,10.7l0.3,5.6l5.2-2.2c2.5-1,4.4-2,6.2-3.1
		c3.5-2.2,6.1-4.8,7.9-7.8c2.2-3.7,3.1-8.2,2.9-13.7L1250,423.4L1250,423.4z"/>
</g>
<g>
	<path class="st6" d="M1223.5,332.1c3.6,4.3,6.7,9.1,8.8,14.3c2.6,6.5,3.5,13.9,1.6,20.6c-1.5,5.4-4.5,10.2-7.9,14.6
		c-1,1.4-2.1,2.7-3.4,3.9c-2.6-1.2-4.8-3.3-6.3-5.7c-1.8-2.8-2.8-6-3.3-9.2c-0.9-6.2-0.1-12.5,1.6-18.5
		C1216.5,345.2,1219.6,338.4,1223.5,332.1 M1223.1,325.4l-3,4.6c-4.2,6.6-7.4,13.7-9.4,21.3c-2,7.4-2.6,14-1.6,20.1
		c0.6,4.2,1.9,7.8,3.9,10.8c2,3.2,4.8,5.7,8,7.1l2.4,1.1l2-1.8c1.5-1.4,2.8-2.9,3.9-4.4c3.1-4.1,6.8-9.5,8.6-16
		c1.9-7.1,1.3-15.4-1.8-23.2c-2.1-5.2-5.1-10.3-9.4-15.4L1223.1,325.4L1223.1,325.4z"/>
</g>
<g>
	<path class="st7" d="M1205.4,362.3c-1.3-0.6-2.3-1.6-3.1-2.8c-0.7-1.2-1.2-2.6-1.5-4.2c-0.3-2.3-0.1-4.8,0.6-7.6
		c0.8-2.8,1.9-5.5,3.5-7.9l1.5-2.3l1.7,2.1c1.6,1.9,2.8,3.8,3.5,5.8c1.2,3,1.4,6.1,0.7,8.8c-0.7,2.4-2.1,4.5-3.2,6
		c-0.4,0.5-0.9,1.1-1.5,1.7l-1,0.9L1205.4,362.3z"/>
	<path class="st6" d="M1206.6,340.9c1.3,1.6,2.5,3.3,3.2,5.2c0.9,2.4,1.3,5.1,0.6,7.5c-0.5,2-1.7,3.7-2.9,5.3
		c-0.4,0.5-0.8,1-1.2,1.4c-0.9-0.4-1.7-1.2-2.3-2.1c-0.7-1-1-2.2-1.2-3.4c-0.3-2.2,0-4.6,0.6-6.7
		C1204,345.7,1205.1,343.2,1206.6,340.9 M1206.1,334.1l-3,4.6c-1.7,2.6-2.9,5.5-3.8,8.5c-0.8,3.1-1,5.8-0.7,8.4
		c0.3,1.9,0.9,3.5,1.8,5c1,1.6,2.4,2.8,4,3.5l2.4,1.1l2-1.8c0.7-0.6,1.3-1.3,1.7-2c1.3-1.7,2.8-3.9,3.6-6.7
		c0.9-3.1,0.6-6.7-0.7-10.1c-0.9-2.2-2.1-4.2-3.9-6.3L1206.1,334.1L1206.1,334.1z"/>
</g>
<g>
	<path class="st6" d="M1186.9,392.9c2.2,0,4.4,0.2,6.6,0.5c6.8,1,13.5,3.1,19,7.2c4.7,3.5,8.4,8.5,9.7,14.2
		c-3.6,1.8-7.6,2.6-11.7,2.6c-2,0-4-0.2-5.9-0.6c-6.6-1.4-12.6-4.9-17.4-9.5c-3.9-3.7-7.2-8.3-8.6-13.4c2.6-0.7,5.2-1,7.9-1.1
		C1186.5,392.9,1186.7,392.9,1186.9,392.9 M1186.9,388.9c-0.2,0-0.4,0-0.6,0c-3,0-5.9,0.5-8.8,1.2l-3.9,1l1.1,3.9
		c1.4,5.4,4.8,10.7,9.7,15.3c5.7,5.4,12.4,9,19.4,10.5c2.2,0.5,4.5,0.7,6.7,0.7c4.8,0,9.4-1.1,13.5-3l2.8-1.4l-0.7-3.1
		c-1.5-6.3-5.5-12.3-11.2-16.5c-5.4-4.1-12.4-6.8-20.8-8C1191.4,389.1,1189.1,388.9,1186.9,388.9L1186.9,388.9z"/>
</g>
<g>
	<path class="st6" d="M1202.4,434.7c7.3,3.5,13.5,9.3,18.5,15.8c1.5,2,3,4,4.1,6.2c2.4,4.6,3.4,9.6,3.8,14.8
		c-4.4-0.5-8.7-1.9-12.4-4.3c-4.1-2.5-7.5-6.2-9.5-10.5c-0.9-2-1.6-4-2.1-6.1C1203.5,445.4,1202.7,440.1,1202.4,434.7 M1198.1,428.2
		l0.3,6.7c0.3,5.6,1.1,11.2,2.5,16.7c0.5,1.9,1.2,4.4,2.4,6.8c2.3,4.9,6.2,9.2,11,12.2c4.1,2.5,9,4.2,14.1,4.8l4.9,0.6l-0.4-4.9
		c-0.6-6.6-1.9-11.8-4.2-16.3c-1.1-2.1-2.5-4.2-4.5-6.8c-6.1-7.8-12.8-13.4-20-16.9L1198.1,428.2L1198.1,428.2z"/>
</g>
<g>
	<path class="st0" d="M1225.4,391.2c-0.1-2.5-0.1-5.2,0.4-7.9c0.6-3.4,1.8-6.2,3.7-8.3c0.5-0.5,1-1.1,1.7-1.6
		c3-2.5,6.9-4.3,11.2-5.3c2.6-0.6,5.3-0.8,8.4-0.8c0.7,0,1.5,0,2.2,0l2.7,0.1l-0.9,2.6c-1.8,5.2-4.8,10.1-8.6,14.2
		c-1.6,1.7-3.1,3-4.7,4.1c-3.6,2.5-8.1,4.1-13.9,4.9l-2.2,0.3L1225.4,391.2z"/>
	<path class="st6" d="M1250.9,369.2c0.7,0,1.4,0,2.1,0c-1.7,5-4.5,9.6-8.2,13.4c-1.3,1.4-2.8,2.7-4.4,3.8c-3.8,2.6-8.4,3.9-13,4.6
		c-0.1-2.5-0.1-5.1,0.4-7.5c0.5-2.7,1.5-5.3,3.3-7.3c0.5-0.5,1-1,1.5-1.4c2.9-2.5,6.6-4,10.3-4.8
		C1245.5,369.4,1248.2,369.2,1250.9,369.2 M1250.9,365.2c-3.2,0-6.1,0.3-8.9,0.9c-4.6,1-8.8,3-12.1,5.7c-0.7,0.6-1.4,1.2-1.9,1.8
		c-2.2,2.4-3.6,5.5-4.2,9.3c-0.5,2.9-0.5,5.7-0.4,8.3l0.1,4.5l4.5-0.7c6-0.9,10.8-2.6,14.7-5.3c1.7-1.2,3.4-2.6,5-4.4
		c4-4.2,7.1-9.4,9-14.9l1.8-5.1l-5.4-0.2C1252.4,365.2,1251.6,365.2,1250.9,365.2L1250.9,365.2z"/>
</g>
<g>
	<path class="st0" d="M1252.5,432.6c-4.4-0.9-8.4-3.4-11.2-6.8c-3.1-3.8-4.8-8.7-4.5-13.6c0.1-1.6,0.3-3.1,0.6-4.2
		c0.5-2.7,1.3-5.4,2.2-8.1l0.8-2.4l2.1,1.4c2.6,1.6,4.9,4,6.8,6.8c2,3.1,3.6,6.8,4.9,11.5c1.5,5.5,1.7,10.1,0.8,14l-0.5,1.9
		L1252.5,432.6z"/>
	<path class="st6" d="M1241.3,400.6c2.5,1.6,4.6,3.8,6.2,6.2c2.2,3.3,3.6,7.1,4.6,10.9c1.1,4.2,1.8,8.8,0.8,13
		c-3.9-0.8-7.5-3-10.1-6.1c-2.8-3.4-4.3-7.8-4.1-12.2c0.1-1.3,0.3-2.6,0.5-4C1239.8,405.7,1240.5,403.1,1241.3,400.6 M1239.2,394.4
		l-1.7,4.8c-0.9,2.7-1.7,5.5-2.2,8.3c-0.2,1.2-0.5,2.8-0.6,4.5c-0.2,5.4,1.6,10.8,5,14.9c3.1,3.8,7.5,6.4,12.3,7.5l3.8,0.8l0.9-3.8
		c1.1-4.2,0.8-9.1-0.8-15c-1.3-4.9-3-8.8-5.2-12.1c-2-3-4.6-5.6-7.4-7.4L1239.2,394.4L1239.2,394.4z"/>
</g>
<g>
	<path class="st6" d="M1289.6,408.7c2.4,0,4.8,0.2,7.2,0.7c-1.9,7.7-4.2,15.5-9.1,21.7c-1.8,2.3-3.9,4.3-6.4,5.8
		c-3.8,2.3-8.4,3.1-12.9,3.1c-0.8,0-1.7,0-2.5-0.1c-3.6-0.2-7.2-0.9-10.7-2c1-4.4,2.4-8.7,4.5-12.6c2.4-4.4,5.6-8.3,9.8-11
		c1.1-0.7,2.2-1.3,3.4-1.9C1278.1,410,1283.8,408.7,1289.6,408.7 M1289.6,404.7c-6.4,0-12.7,1.4-18.4,4.1c-1.4,0.7-2.7,1.4-3.9,2.1
		c-4.5,2.9-8.3,7.2-11.1,12.4c-2.1,3.9-3.7,8.4-4.9,13.6l-0.8,3.6l3.5,1.1c3.8,1.2,7.7,1.9,11.6,2.1c0.9,0.1,1.9,0.1,2.8,0.1
		c5.8,0,10.8-1.2,14.9-3.7c2.7-1.6,5.2-3.9,7.5-6.7c5.5-7,8-15.6,9.9-23.2l1-4.1l-4.2-0.8C1294.9,405,1292.3,404.7,1289.6,404.7
		L1289.6,404.7z"/>
</g>
<g>
	<path class="st7" d="M1239.2,487.2c-0.2-17.5,5.4-34.9,15.7-48.8c10.3-13.9,25.1-24.3,41.5-29.2c-16.3,5.4-30.6,16.2-40.2,30.1
		c-9.6,14-14.5,31-13.7,47.8L1239.2,487.2z"/>
	<path class="st6" d="M1296.4,409.2c-16.4,4.9-31.2,15.2-41.5,29.2c-10.3,13.9-15.9,31.3-15.7,48.8l3.3-0.1
		c-0.7-16.7,4.1-33.8,13.7-47.8C1265.9,425.4,1280.2,414.6,1296.4,409.2L1296.4,409.2z"/>
</g>
<g>
	<path class="st7" d="M1237.7,491c-3.2-12.5-5.9-25.1-8-37.8c-2.2-12.7-3.8-25.5-5.1-38.3c-2.5-25.6-3.4-51.3-3.5-77
		c0.7,25.7,2.1,51.4,5.2,76.8c1.5,12.7,3.5,25.4,5.9,38s5.3,25.1,8.8,37.4L1237.7,491z"/>
	<path class="st6" d="M1221,337.9c0.2,25.7,1,51.4,3.5,77c1.3,12.8,2.9,25.6,5.1,38.3s4.8,25.3,8,37.8l3.2-0.9
		c-3.4-12.3-6.4-24.8-8.8-37.4c-2.4-12.6-4.4-25.3-5.9-38C1223.1,389.2,1221.7,363.6,1221,337.9L1221,337.9z"/>
</g>
<path class="st8" d="M1254.1,440.4c-1.2-6.9-2.9-13.7-5-20.4c-2.1-6.7-4.6-13.2-7.7-19.5c3.3,6.2,5.9,12.7,8.2,19.3
	c2.2,6.6,4.1,13.4,5.5,20.3L1254.1,440.4z"/>
<path class="st8" d="M1223.5,394.1c2-2.6,4.4-4.9,6.8-7c2.5-2.1,5-4.1,7.6-6s5.2-3.8,7.7-5.8s5.1-4,7.4-6.2
	c-2.2,2.3-4.7,4.4-7.2,6.4s-5.1,4-7.6,6s-5,4-7.4,6.2c-2.4,2.1-4.7,4.4-6.5,7L1223.5,394.1z"/>
<g>
	<path class="st7" d="M1226.1,419.3c-9.7-10.1-21.8-17.7-35.2-22.1c13.4,4.1,25.9,11.5,35.9,21.4L1226.1,419.3z"/>
	<path class="st6" d="M1190.9,397.2c13.3,4.4,25.5,12.1,35.2,22.1l0.7-0.7C1216.8,408.7,1204.4,401.3,1190.9,397.2L1190.9,397.2z"/>
</g>
<g>
	<path class="st7" d="M1237.1,489.9c-4.7-9.3-9.3-18.6-14.5-27.5s-11-17.6-17.9-25.4c7.3,7.4,13.6,15.8,19.3,24.5
		c5.7,8.7,10.9,17.8,16.1,26.8L1237.1,489.9z"/>
	<path class="st6" d="M1204.7,437c6.9,7.8,12.7,16.5,17.9,25.4c5.2,9,9.9,18.2,14.5,27.5l2.9-1.6c-5.1-9-10.3-18.1-16.1-26.8
		C1218.3,452.8,1212,444.4,1204.7,437L1204.7,437z"/>
</g>
<g>
	<path class="st7" d="M1244.9,458.5c12.9-0.5,26,2.1,37.6,7.5c-11.8-5.1-24.8-7.4-37.6-6.5V458.5z"/>
	<path class="st6" d="M1248.1,458.4c-1.1,0-2.1,0-3.2,0.1l0.1,1c1.8-0.1,3.5-0.2,5.3-0.2c11,0,22.1,2.3,32.3,6.7
		C1271.8,461,1260,458.4,1248.1,458.4L1248.1,458.4z"/>
</g>
<path class="st8" d="M1230.6,452c2.9-5.9,6.3-11.5,10.1-16.8c-3.6,5.5-6.6,11.2-9.2,17.2L1230.6,452z"/>
<g>
	<path class="st7" d="M1223.4,396.7c-1.7-3.4-3.9-6.5-6.4-9.4s-5.3-5.5-8.4-7.8c-3-2.3-6.3-4.4-9.7-6.2c-3.4-1.8-6.9-3.4-10.5-4.8
		c3.6,1.3,7.2,2.8,10.6,4.6c3.4,1.7,6.8,3.7,9.9,6s6,4.8,8.6,7.7c2.6,2.9,4.9,6,6.7,9.5L1223.4,396.7z"/>
	<path class="st6" d="M1188.4,368.6c3.6,1.4,7.1,3,10.5,4.8s6.6,3.8,9.7,6.2c3,2.3,5.9,4.9,8.4,7.8s4.7,6,6.4,9.4l0.9-0.5
		c-1.8-3.4-4.1-6.6-6.7-9.5s-5.5-5.4-8.6-7.7c-3.1-2.3-6.4-4.2-9.9-6C1195.6,371.4,1192,369.9,1188.4,368.6L1188.4,368.6z"/>
</g>
<g>
	<path class="st7" d="M1248.4,449.2c7.6-1.6,15.5-2.2,23.2-1.5c-7.7-0.3-15.5,0.6-23,2.5L1248.4,449.2z"/>
	<path class="st6" d="M1265.3,447.4c-5.7,0-11.3,0.6-16.9,1.8l0.2,1c6.5-1.7,13.3-2.6,20.1-2.6c1,0,1.9,0,2.9,0.1
		C1269.5,447.5,1267.4,447.4,1265.3,447.4L1265.3,447.4z"/>
</g>
<g>
	<path class="st7" d="M1211.7,382.4c-5.2-11.2-7.1-23.9-5.4-36c-1.4,12.2,0.8,24.7,6.3,35.6L1211.7,382.4z"/>
	<path class="st6" d="M1206.4,346.4c-1.8,12.1,0.1,24.8,5.4,36l0.9-0.4C1207.2,371.1,1205,358.6,1206.4,346.4L1206.4,346.4z"/>
</g>
<path class="st9" d="M1271.5,507.6c-1.5-5.1-4.5-9.8-8.5-12.8c-2.1-1.6-4.6-2.7-6.6-4.4s-3.7-4.4-3.5-7.2h-14.2l0,0h-14.2
	c0.3,2.8-1.4,5.5-3.5,7.2c-2,1.7-4.5,2.8-6.6,4.4c-4.1,3-7,7.7-8.5,12.8c-1.6,5.1-1.8,10.6-1.3,16c0.6,6.5,2.5,13,6.1,18.2
	s9.2,8.9,15.1,9.1h12.8l0,0h12.8c5.9-0.2,11.5-3.9,15.1-9.1s5.5-11.7,6.1-18.2C1273.3,518.2,1273.1,512.7,1271.5,507.6z"/>
<line class="st10" x1="525.2" y1="763.1" x2="1394.8" y2="763.1"/>
<text transform="matrix(1 0 0 1 320.2964 213.3419)" class="st3 st11 st12">BIENVENUE.</text>
<rect x="636.4" y="550.6" class="st13" width="647.1" height="28.2"/>
<rect x="670.1" y="579.1" class="st13" width="20.3" height="184"/>
<rect x="1231.3" y="579.1" class="st13" width="20.3" height="184"/>
<path class="st14" d="M1116.8,499.1H803.2c-10.8,0-19.6-8.8-19.6-19.6v-175c0-10.8,8.8-19.6,19.6-19.6h313.7
	c10.8,0,19.6,8.8,19.6,19.6v175C1136.4,490.4,1127.6,499.1,1116.8,499.1z"/>
<path class="st3" d="M1117.4,492.7H802.6c-6,0-10.8-4.9-10.8-10.8V302.2c0-6,4.9-10.8,10.8-10.8h314.7c6,0,10.8,4.9,10.8,10.8v179.7
	C1128.2,487.9,1123.3,492.7,1117.4,492.7z"/>
<rect x="931.4" y="499.1" class="st14" width="58.9" height="35.1"/>
<path class="st14" d="M907.3,534.2h105.4c5.1,0,9.2,4.1,9.2,9.2v7.2H898.1v-7.2C898.1,538.4,902.2,534.2,907.3,534.2z"/>
<path class="st9" d="M888.1,631.8H754.3c-11,0-19.8-8.9-19.8-19.8v-99.8c0-47.9,38.8-86.7,86.7-86.7l0,0c47.9,0,86.7,38.8,86.7,86.7
	V612C907.9,622.9,899,631.8,888.1,631.8z"/>
<path class="st9" d="M897.9,679.1H744.5c-5.5,0-10-4.5-10-10v-4.5c0-5.5,4.5-10,10-10h153.4c5.5,0,10,4.5,10,10v4.5
	C907.9,674.6,903.4,679.1,897.9,679.1z"/>
<path class="st9" d="M821.8,669.3L821.8,669.3c-7.5,0-13.5-6.1-13.5-13.5v-89.3c0-7.5,6.1-13.5,13.5-13.5l0,0
	c7.5,0,13.5,6.1,13.5,13.5v89.3C835.4,663.2,829.3,669.3,821.8,669.3z"/>
<rect x="804" y="679.1" class="st9" width="34.5" height="16.1"/>
<rect x="807.4" y="695.2" class="st9" width="27.5" height="16.1"/>
<rect x="815.8" y="711.3" class="st9" width="10.8" height="29.5"/>
<path class="st9" d="M781.2,748h80l0,0c0-4-3.2-7.2-7.2-7.2h-65.6C784.4,740.8,781.2,744,781.2,748L781.2,748z"/>
<rect x="790.2" y="748" class="st15" width="1.8" height="4.6"/>
<rect x="820.3" y="748" class="st15" width="1.8" height="4.6"/>
<rect x="850.4" y="748" class="st15" width="1.8" height="4.6"/>
<circle class="st6" cx="791.1" cy="757.5" r="5.6"/>
<circle class="st6" cx="821.2" cy="757.5" r="5.6"/>
<circle class="st6" cx="851.3" cy="757.5" r="5.6"/>
<path class="st9" d="M1174,503.4h38.8v31.9c0,8.5-6.9,15.4-15.4,15.4h-8.1c-8.5,0-15.4-6.9-15.4-15.4L1174,503.4L1174,503.4z"/>
<path class="st14" d="M1213.7,510.4c7.1,0,12.8,5.7,12.8,12.8s-5.7,12.8-12.8,12.8"/>
<path class="st14" d="M1071.5,548.8c0-11,8.9-19.9,19.9-19.9s19.9,8.9,19.9,19.9"/>
<path class="st6" d="M670.1,579.1c0,0,21.1,7.9,20.3,17.7c0.9-12,0-17.7,0-17.7H670.1z"/>
<path class="st6" d="M1229.7,579.1c0,0,21.1,7.9,20.3,17.7c0.9-12,0-17.7,0-17.7H1229.7z"/>
<path class="st6" d="M931.4,506.3c0,0,57.8-0.8,58,10.3c0.9-14.5,0.9-17.6,0.9-17.6h-58.9V506.3z"/>
<g>
	<path class="st16" d="M895.6,411.6c-1.9-6.2-2.9-12.8-2.9-19.6c0-6,0.8-11.9,2.3-17.4"/>
	<path class="st16" d="M905,430.9c-2.9-4.1-5.3-8.5-7.3-13.2"/>
	<path class="st16" d="M1008.4,438.8c-12.2,12.7-29.4,20.5-48.4,20.5c-18,0-34.3-7.1-46.4-18.6"/>
	<path class="st16" d="M1012.1,434.7c-0.2,0.3-0.5,0.6-0.7,0.8"/>
	<path class="st16" d="M1015.6,430.1c-0.4,0.5-0.8,1.1-1.1,1.6"/>
	<path class="st16" d="M999.8,337.7c16.7,12.3,27.6,32,27.6,54.3c0,6.8-1,13.3-2.9,19.5"/>
	<path class="st16" d="M966.9,325.1c7.8,0.8,15.2,2.9,22,6.1"/>
	<path class="st16" d="M910.3,346.6c12.3-13.5,30-21.9,49.7-21.9"/>
	<path class="st16" d="M906.9,350.7c1.1-1.4,2.2-2.8,3.4-4.1"/>
	<g>
		<path class="st16" d="M982.6,466.4c-7.2,2.2-14.7,3.3-22.6,3.3c-6.9,0-13.7-0.9-20.1-2.6"/>
		<path class="st16" d="M1004.8,455.5c-4.7,3.3-9.8,6.2-15.2,8.4"/>
		<path class="st16" d="M1014,336.2c14.6,14.1,23.7,33.9,23.7,55.9c0,20.8-8.1,39.6-21.4,53.6"/>
		<path class="st16" d="M1009.2,331.9c0.3,0.3,0.6,0.5,1,0.8"/>
		<path class="st16" d="M1003.9,327.9c0.6,0.4,1.3,0.9,1.9,1.3"/>
		<path class="st16" d="M897.3,346.1c14.1-19.3,37-31.8,62.7-31.8c7.8,0,15.4,1.2,22.5,3.3"/>
		<path class="st16" d="M882.7,384.1c0.9-9,3.4-17.6,7.1-25.4"/>
		<path class="st16" d="M907.6,449.4c-15.6-14.2-25.3-34.7-25.3-57.4"/>
		<path class="st16" d="M912.3,453.4c-1.6-1.3-3.2-2.6-4.7-4"/>
	</g>
	<g>
		<path class="st7" d="M918.9,365.8v-3.4h17.8l3,45.2c0.4,5.7,3,8.6,7.9,8.6c5.2,0,9.4-3.1,12.5-9.3c-0.2-0.9-0.3-2.4-0.4-4.4
			l-2.4-36.8h-5.2v-3.4h17.8l3,45.2c0.4,5.7,3,8.6,7.9,8.6c3.2,0,6-1.4,8.5-4.1c4.7-5.3,7-13.2,7-23.6c0-5.8-1-11-3-15.5
			c-1-2.3-2.3-3.7-4-4.4c-1.6-0.7-3.8-1.1-6.5-1.1h-3.2l-0.5-3.1l8.8-3c1-0.3,1.8-0.4,2.5-0.4s1.4,0.1,1.9,0.3c2,0.8,4,3.4,6,7.7
			c2,4.3,3,10.1,3,17.4c0,9.5-1.8,17.7-5.5,24.8c-1.9,3.5-4.3,6.3-7.4,8.4c-3.1,2.1-6.6,3.1-10.5,3.1c-8.2,0-13.5-3.2-16-9.5
			c-4.3,6.3-10,9.5-17.2,9.5c-6.2,0-10.6-1.7-13.3-5s-4.2-8.4-4.7-15.3l-2.4-36.8h-5.4V365.8z"/>
	</g>
</g>
<g>
	<g>
		<defs>
			<rect id="SVGID_00000101825763112682407670000005546432498928953494_" x="-1" y="13.3" width="1920" height="1080"/>
		</defs>
		<clipPath id="SVGID_00000091718868872016257920000011117761889076029324_">
			<use xlink:href="#SVGID_00000101825763112682407670000005546432498928953494_"  style="overflow:visible;"/>
		</clipPath>
		<path style="clip-path:url(#SVGID_00000091718868872016257920000011117761889076029324_);fill:#81ABFF;" d="M1690.1,497.4
			c88.3,16,225.4,20.1,260.6-120.7c35.2-140.7,43-207.7,3.7-256.2s-227.7-65.1-205.5,55.7c22.3,120.8-143.7,82.2-135.3,146.3
			S1627.3,486,1690.1,497.4z"/>
	</g>
	<g>
		<defs>
			<rect id="SVGID_00000099626756372575318480000011346727701966305438_" x="-1" y="13.3" width="1920" height="1080"/>
		</defs>
		<clipPath id="SVGID_00000116926499575206012420000003790161140197068962_">
			<use xlink:href="#SVGID_00000099626756372575318480000011346727701966305438_"  style="overflow:visible;"/>
		</clipPath>
		<g style="clip-path:url(#SVGID_00000116926499575206012420000003790161140197068962_);">
			<path class="st5" d="M-65.7,412c-15.3,31.6-32.9,61.9-33.7,98.3c-1.2,51.4,23.6,92.4,74,106.8c25.8,7.4,52.6,9.8,78.6,16.8
				c21.4,5.8,41.8,14.4,62.8,21.3c29.7,9.9,59.8,13.9,86.9-4.3c29.1-19.5,33.8-67.4,29.6-99.1c-5.3-40.5-24.3-122.5-74.3-128.2
				c-29.1-3.3-55.6,0-67.3-31.5c-5.2-14.2-8-43.9-29.7-40.7C15.4,358.3-42.9,364.6-65.7,412z"/>
		</g>
	</g>
</g>
<path class="st3" d="M-65.3,1019.3"/>
</svg>
