<?xml version="1.0" encoding="utf-8"?>
<!-- Generator: Adobe Illustrator 27.7.0, SVG Export Plug-In . SVG Version: 6.00 Build 0)  -->
<svg version="1.1" id="Calque_1" xmlns="http://www.w3.org/2000/svg" xmlns:xlink="http://www.w3.org/1999/xlink" x="0px" y="0px"
	 viewBox="0 0 414 896" style="enable-background:new 0 0 414 896;" xml:space="preserve">
<style type="text/css">
	.st0{fill:#F0F3FF;}
	.st1{fill:url(#SVGID_1_);}
	.st2{fill:url(#SVGID_00000023968216788182385700000004441978130773361073_);}
	.st3{fill:url(#SVGID_00000000191240002182673820000006174621642076482214_);}
	.st4{fill:#466BFF;}
	.st5{fill:none;stroke:#81ABFF;stroke-width:5;stroke-miterlimit:10;}
	.st6{fill:url(#SVGID_00000111151632438845436490000006266516504871045039_);}
	.st7{fill:#81ABFF;}
	.st8{fill:#272525;}
	.st9{fill:#FFFFFF;}
	.st10{fill:#55422F;stroke:#272525;stroke-miterlimit:10;}
	.st11{fill:#F0F3FF;stroke:#272525;stroke-width:4;stroke-miterlimit:10;}
	.st12{fill:#FFFFFF;stroke:#272525;stroke-width:4;stroke-linecap:round;stroke-linejoin:round;stroke-miterlimit:10;}
	.st13{fill:#F0F3FF;stroke:#272525;stroke-width:4;stroke-linecap:round;stroke-linejoin:round;stroke-miterlimit:10;}
	.st14{fill:none;stroke:#272525;stroke-width:4;stroke-miterlimit:10;}
	.st15{fill:#FFFFFF;stroke:#272525;stroke-width:4;stroke-miterlimit:10;}
	.st16{fill:none;stroke:#FFFFFF;stroke-width:2;stroke-linecap:round;stroke-linejoin:round;stroke-miterlimit:10;}
	.st17{fill:#55422F;}
	.st18{font-family:'CroissantOne-Regular';}
	.st19{font-size:31.2561px;}
	.st20{clip-path:url(#SVGID_00000085241030650852942160000018253585558116892068_);fill:#81ABFF;}
	.st21{clip-path:url(#SVGID_00000085241030650852942160000018253585558116892068_);}
</style>
<rect x="-0.5" class="st0" width="415.1" height="896"/>
<linearGradient id="SVGID_1_" gradientUnits="userSpaceOnUse" x1="267.2003" y1="236.9412" x2="379.1732" y2="236.9412">
	<stop  offset="0" style="stop-color:#FFFFFF"/>
	<stop  offset="1" style="stop-color:#466BFF"/>
</linearGradient>
<path class="st1" d="M414,387.2c-147.9-44.7-75.4-143.9-65.3-172.2c10.1-28.3-60.4-44.5-44.2-88.9C320.7,81.5,414,86.9,414,86.9
	V387.2z"/>
<linearGradient id="SVGID_00000064353238596407567910000012337692445706068624_" gradientUnits="userSpaceOnUse" x1="35.4609" y1="764.7682" x2="407.4218" y2="764.7682">
	<stop  offset="0" style="stop-color:#FFFFFF"/>
	<stop  offset="1" style="stop-color:#466BFF"/>
</linearGradient>
<path style="fill:url(#SVGID_00000064353238596407567910000012337692445706068624_);" d="M35.5,895.7c0,0,0-226.2,0-259.5
	c56.9-10.8,186.4,14.7,196,107.6s149.7,26.3,175.9,151.9H35.5z"/>
<path class="st4" d="M-0.2,895.7c0,0,0-241.8,0-277.4c53.8-11.6,176.3,15.7,185.4,115s141.5,28.1,166.3,162.3H-0.2z"/>
<path class="st7" d="M0,829.8l-0.4-2c0.4-0.1,40.1-8.4,84.9-24.7c26.3-9.6,49.2-20,68.1-31c23.5-13.7,40.8-28.3,51.3-43.5
	c5.7-8.2,7-17.1,3.9-26.4c-4.5-13.4-18.2-28-40.8-43.5c-18.1-12.4-41.9-25.4-70.7-38.5C47.2,597.8,0,582.6-0.5,582.4l0.6-2
	c0.5,0.2,47.8,15.5,97,37.9c28.9,13.2,52.8,26.2,71,38.7c22.9,15.7,36.9,30.7,41.6,44.5c3.4,10,2,19.5-4.1,28.3
	c-10.7,15.4-28.2,30.2-52,44.1c-19,11.1-42,21.6-68.5,31.2C40.2,821.4,0.4,829.7,0,829.8z"/>
<path class="st8" d="M340.2,439.2c0.6,0,1.2,0.1,1.8,0.3c0.8,0.2,1.7,0.5,2.4,1c-0.7,0.8-1.6,1.4-2.6,1.6c-0.3,0.1-0.6,0.1-0.9,0.1
	c0,0,0,0-0.1,0c-0.8,0-1.5-0.2-2.2-0.5c-0.5-0.3-0.9-0.6-1.3-1.1c0.6-0.6,1.2-1.2,2-1.3C339.7,439.3,339.9,439.2,340.2,439.2
	 M340.2,437.5c-0.4,0-0.8,0-1.2,0.1c-1.1,0.3-2,0.9-2.9,1.9l-1,1.1l0.9,1.1c0.5,0.6,1.1,1.2,1.9,1.5c0.9,0.4,1.9,0.7,3,0.7l0.1,0
	c0.4,0,0.8,0,1.2-0.1c1.3-0.3,2.5-1,3.6-2.1l1.4-1.5l-1.6-1.1c-1-0.7-2-1-3-1.3C341.8,437.7,341,437.5,340.2,437.5L340.2,437.5z"/>
<path class="st8" d="M306.3,404c0.5,0,1.1,0.1,1.6,0.2c0.5,0.1,0.9,0.3,1.3,0.5c1.2,0.5,2.2,1.3,3,2.3c0.6,0.7,1,1.6,1.2,2.4
	c-1,0.4-2,0.7-3,0.7c-0.3,0-0.6,0-0.9-0.1c-1.4-0.3-2.6-1.1-3.7-2.1c-1.1-0.9-2.2-1.9-2.9-3.2C304,404.3,305.1,404,306.3,404
	 M306.3,402.3c-1.3,0-2.7,0.3-4.1,0.9l-1.9,0.8l1,1.7c0.9,1.5,2.2,2.7,3.3,3.6c1.3,1.1,2.7,2.1,4.5,2.4c0.4,0.1,0.8,0.1,1.3,0.1
	c1.2,0,2.4-0.3,3.7-0.9l1.3-0.6l-0.3-1.4c-0.3-1.1-0.8-2.2-1.5-3.1c-0.9-1.1-2.2-2.1-3.7-2.8c-0.6-0.3-1.1-0.4-1.6-0.6
	C307.6,402.3,307,402.3,306.3,402.3L306.3,402.3z"/>
<g>
	<path class="st0" d="M350.4,449.8c0.3-0.1,0.6-0.1,0.9-0.2c-0.9-1.7-1.9-3.2-3.2-4.6c-1-1.1-2.1-2-3.5-2.6c-1.7-0.6-3.6-0.6-5.2,0
		c-1.5,0.5-2.8,1.5-3.9,2.7c0.4,1.3,1,2.6,2.1,3.5c0.5,0.4,1.1,0.8,1.7,1c1.7,0.7,3.6,1,5.5,1C346.7,450.6,348.6,450.3,350.4,449.8z
		"/>
	<path class="st8" d="M342.1,442c0.9,0,1.7,0.1,2.5,0.5c1.3,0.5,2.5,1.5,3.5,2.6c1.3,1.4,2.3,3,3.2,4.6c-0.3,0.1-0.6,0.1-0.9,0.2
		c-1.8,0.4-3.7,0.8-5.6,0.8c-0.1,0-0.2,0-0.3,0c-1.8,0-3.6-0.3-5.2-1c-0.6-0.3-1.2-0.6-1.7-1c-1.1-0.9-1.7-2.1-2.1-3.5
		c1.1-1.2,2.4-2.2,3.9-2.7C340.3,442.2,341.2,442,342.1,442 M342.1,440.3c-1.1,0-2.2,0.2-3.3,0.6c-1.7,0.6-3.3,1.7-4.6,3.2l-0.7,0.7
		l0.3,0.9c0.6,1.9,1.4,3.3,2.6,4.3c0.6,0.5,1.3,0.9,2.2,1.3c1.7,0.7,3.7,1.1,5.9,1.1c0.1,0,0.2,0,0.3,0c1.8,0,3.6-0.3,5.9-0.8
		c0.3-0.1,0.6-0.1,0.9-0.2l2.1-0.6l-1-1.9c-1.1-2-2.2-3.6-3.4-5c-1.3-1.5-2.7-2.4-4.1-3C344.3,440.4,343.2,440.3,342.1,440.3
		L342.1,440.3z"/>
</g>
<g>
	<path class="st0" d="M330.7,437.6c0.9-1.5,1.1-3.3,1-5c-1,0.5-2.1,1.1-3,1.8c-1.2,0.9-2.2,2-2.7,3.4c-0.5,1.2-0.7,2.6-0.6,3.9
		c0.8-0.4,1.7-0.7,2.4-1.2C329,439.7,330,438.8,330.7,437.6z"/>
	<path class="st8" d="M331.7,432.6c0.1,1.8-0.2,3.5-1,5c-0.7,1.2-1.7,2.1-2.9,2.8c-0.8,0.5-1.6,0.9-2.4,1.2
		c-0.1-1.3,0.1-2.7,0.6-3.9c0.6-1.4,1.6-2.5,2.7-3.4C329.7,433.7,330.7,433.1,331.7,432.6 M333.4,429.9L331,431
		c-1.3,0.6-2.4,1.3-3.3,2c-1.5,1.2-2.6,2.6-3.3,4.1c-0.6,1.4-0.8,3-0.7,4.7l0.1,2.5l2.3-0.9c1.1-0.4,1.9-0.9,2.7-1.4
		c1.5-0.9,2.7-2.1,3.4-3.4c0.9-1.6,1.4-3.6,1.3-6L333.4,429.9L333.4,429.9z"/>
</g>
<path class="st8" d="M321.8,390.1c1.6,1.9,2.9,4,3.8,6.3c1.1,2.8,1.5,6,0.7,9c-0.6,2.3-2,4.4-3.4,6.4c-0.5,0.6-0.9,1.2-1.5,1.7
	c-1.1-0.5-2.1-1.4-2.7-2.5c-0.8-1.2-1.2-2.6-1.4-4c-0.4-2.7,0-5.4,0.7-8C318.8,395.8,320.1,392.8,321.8,390.1 M321.6,387.2l-1.3,2
	c-1.8,2.9-3.2,6-4.1,9.3c-0.9,3.2-1.1,6.1-0.7,8.8c0.3,1.8,0.8,3.4,1.7,4.7c0.9,1.4,2.1,2.5,3.5,3.1l1.1,0.5l0.9-0.8
	c0.7-0.6,1.2-1.3,1.7-1.9c1.3-1.8,3-4.2,3.7-7c0.8-3.1,0.6-6.7-0.8-10.1c-0.9-2.3-2.2-4.5-4.1-6.7L321.6,387.2L321.6,387.2z"/>
<g>
	<path class="st9" d="M313,397.1c-0.3,1-0.4,2-0.2,2.9c0.1,0.5,0.2,1,0.5,1.5c0.2,0.4,0.6,0.7,1,0.9c0.2-0.2,0.4-0.4,0.5-0.6
		c0.5-0.7,1-1.5,1.3-2.3c0.3-1.1,0.2-2.2-0.3-3.3c-0.3-0.8-0.8-1.6-1.4-2.3C313.8,394.9,313.3,396,313,397.1z"/>
	<path class="st8" d="M314.4,393.9c0.6,0.7,1.1,1.4,1.4,2.3c0.4,1,0.5,2.2,0.3,3.3c-0.2,0.9-0.7,1.6-1.3,2.3
		c-0.2,0.2-0.3,0.4-0.5,0.6c-0.4-0.2-0.8-0.5-1-0.9c-0.3-0.4-0.4-1-0.5-1.5c-0.1-1,0-2,0.2-2.9C313.3,396,313.8,394.9,314.4,393.9
		 M314.2,391l-1.3,2c-0.7,1.1-1.3,2.4-1.6,3.7c-0.4,1.3-0.5,2.5-0.3,3.7c0.1,0.8,0.4,1.5,0.8,2.2c0.4,0.7,1,1.2,1.7,1.5l1.1,0.5
		l0.9-0.8c0.3-0.3,0.6-0.6,0.8-0.9c0.6-0.7,1.2-1.7,1.6-2.9c0.4-1.4,0.3-2.9-0.3-4.4c-0.4-0.9-0.9-1.8-1.7-2.8L314.2,391L314.2,391z
		"/>
</g>
<path class="st8" d="M305.9,416.6c1,0,1.9,0.1,2.9,0.2c2.9,0.4,5.9,1.4,8.3,3.1c2,1.5,3.6,3.7,4.2,6.2c-1.6,0.8-3.3,1.1-5.1,1.1
	c-0.9,0-1.7-0.1-2.6-0.3c-2.9-0.6-5.5-2.1-7.6-4.1c-1.7-1.6-3.1-3.6-3.7-5.8c1.1-0.3,2.3-0.4,3.4-0.5
	C305.7,416.6,305.8,416.6,305.9,416.6 M305.9,414.9c-0.1,0-0.2,0-0.3,0c-1.3,0-2.6,0.2-3.8,0.5l-1.7,0.4l0.5,1.7
	c0.6,2.3,2.1,4.6,4.2,6.7c2.5,2.4,5.4,3.9,8.4,4.6c1,0.2,2,0.3,2.9,0.3c2.1,0,4.1-0.5,5.9-1.3l1.2-0.6l-0.3-1.3
	c-0.6-2.7-2.4-5.3-4.9-7.2c-2.4-1.8-5.4-2.9-9.1-3.5C307.8,414.9,306.8,414.9,305.9,414.9L305.9,414.9z"/>
<path class="st8" d="M312.6,434.8c3.2,1.5,5.9,4.1,8.1,6.9c0.7,0.9,1.3,1.7,1.8,2.7c1,2,1.5,4.2,1.7,6.4c-1.9-0.2-3.8-0.8-5.4-1.9
	c-1.8-1.1-3.3-2.7-4.1-4.6c-0.4-0.9-0.7-1.8-0.9-2.7C313.1,439.5,312.7,437.1,312.6,434.8 M310.8,432l0.1,2.9
	c0.1,2.4,0.5,4.9,1.1,7.3c0.2,0.8,0.5,1.9,1,3c1,2.1,2.7,4,4.8,5.3c1.8,1.1,3.9,1.8,6.1,2.1l2.1,0.3l-0.2-2.1
	c-0.2-2.9-0.8-5.1-1.9-7.1c-0.5-0.9-1.1-1.8-2-3c-2.6-3.4-5.6-5.9-8.7-7.4L310.8,432L310.8,432z"/>
<g>
	<path class="st0" d="M329.2,413.8c0.7-0.5,1.3-1,1.9-1.7c1.6-1.7,2.8-3.7,3.6-5.9c-1.5-0.1-3,0-4.4,0.3c-1.6,0.4-3.2,1-4.5,2.1
		c-0.2,0.2-0.4,0.4-0.6,0.6c-0.8,0.9-1.2,2-1.4,3.2c-0.2,1.1-0.2,2.2-0.2,3.3C325.5,415.5,327.5,414.9,329.2,413.8z"/>
	<path class="st8" d="M333.7,406.3c0.3,0,0.6,0,0.9,0c-0.8,2.2-2,4.2-3.6,5.9c-0.6,0.6-1.2,1.2-1.9,1.7c-1.7,1.1-3.7,1.7-5.7,2
		c0-1.1,0-2.2,0.2-3.3c0.2-1.2,0.6-2.3,1.4-3.2c0.2-0.2,0.4-0.4,0.6-0.6c1.3-1.1,2.9-1.8,4.5-2.1
		C331.4,406.4,332.6,406.3,333.7,406.3 M333.7,404.5c-1.4,0-2.7,0.1-3.9,0.4c-2,0.4-3.8,1.3-5.3,2.5c-0.3,0.3-0.6,0.5-0.8,0.8
		c-0.9,1.1-1.6,2.4-1.8,4.1c-0.2,1.3-0.2,2.5-0.2,3.6l0,2l2-0.3c2.6-0.4,4.7-1.1,6.4-2.3c0.7-0.5,1.5-1.1,2.2-1.9
		c1.7-1.8,3.1-4.1,3.9-6.5l0.8-2.2l-2.4-0.1C334.4,404.5,334.1,404.5,333.7,404.5L333.7,404.5z"/>
</g>
<g>
	<path class="st0" d="M332.3,422.6c-0.7-1.1-1.6-2-2.7-2.7c-0.4,1.1-0.7,2.2-0.9,3.4c-0.1,0.6-0.2,1.1-0.2,1.7
		c-0.1,1.9,0.6,3.8,1.8,5.3c1.1,1.3,2.7,2.3,4.4,2.7c0.5-1.8,0.2-3.8-0.3-5.6C333.8,425.7,333.2,424.1,332.3,422.6z"/>
	<path class="st8" d="M329.6,419.9c1.1,0.7,2,1.6,2.7,2.7c1,1.4,1.6,3.1,2,4.7c0.5,1.8,0.8,3.8,0.3,5.6c-1.7-0.4-3.3-1.3-4.4-2.7
		c-1.2-1.5-1.9-3.4-1.8-5.3c0-0.6,0.1-1.2,0.2-1.7C328.9,422.2,329.2,421,329.6,419.9 M328.7,417.3l-0.7,2.1c-0.4,1.2-0.7,2.4-1,3.6
		c-0.1,0.5-0.2,1.2-0.3,2c-0.1,2.3,0.7,4.7,2.2,6.5c1.4,1.6,3.3,2.8,5.4,3.3l1.6,0.4l0.4-1.6c0.5-1.8,0.3-4-0.3-6.5
		c-0.6-2.1-1.3-3.8-2.3-5.3c-0.9-1.3-2-2.4-3.2-3.2L328.7,417.3L328.7,417.3z"/>
</g>
<path class="st8" d="M350.6,423.5c1.1,0,2.1,0.1,3.1,0.3c-0.8,3.4-1.9,6.7-4,9.5c-0.8,1-1.7,1.9-2.8,2.5c-1.7,1-3.6,1.4-5.6,1.4
	c-0.4,0-0.7,0-1.1,0c-1.6-0.1-3.1-0.4-4.7-0.9c0.4-1.9,1-3.8,2-5.5c1-1.9,2.5-3.6,4.3-4.8c0.5-0.3,1-0.6,1.5-0.8
	C345.6,424,348.1,423.5,350.6,423.5 M350.6,421.8c-2.8,0-5.5,0.6-8,1.8c-0.6,0.3-1.2,0.6-1.7,0.9c-1.9,1.3-3.6,3.1-4.9,5.4
	c-0.9,1.7-1.6,3.7-2.1,5.9l-0.3,1.6l1.5,0.5c1.6,0.5,3.4,0.8,5.1,0.9c0.4,0,0.8,0,1.2,0c2.5,0,4.7-0.5,6.5-1.6
	c1.2-0.7,2.3-1.7,3.2-2.9c2.4-3.1,3.5-6.8,4.3-10.1l0.4-1.8l-1.8-0.3C352.9,421.9,351.8,421.8,350.6,421.8L350.6,421.8z"/>
<g>
	<path class="st9" d="M328.7,457.7c-0.1-7.6,2.4-15.2,6.8-21.3c4.5-6.1,10.9-10.6,18.1-12.7c-7.1,2.4-13.3,7.1-17.5,13.1
		c-4.2,6.1-6.3,13.5-6,20.8L328.7,457.7z"/>
	<path class="st8" d="M353.6,423.7c-7.2,2.1-13.6,6.6-18.1,12.7c-4.5,6.1-6.9,13.6-6.8,21.3l1.4,0c-0.3-7.3,1.8-14.7,6-20.8
		C340.3,430.8,346.5,426.1,353.6,423.7L353.6,423.7z"/>
</g>
<g>
	<path class="st9" d="M328,459.3c-1.4-5.4-2.6-10.9-3.5-16.5c-0.9-5.5-1.7-11.1-2.2-16.7c-1.1-11.2-1.5-22.4-1.5-33.6
		c0.3,11.2,0.9,22.4,2.3,33.5c0.7,5.6,1.5,11.1,2.6,16.6c1.1,5.5,2.3,10.9,3.8,16.3L328,459.3z"/>
	<path class="st8" d="M320.7,392.6c0.1,11.2,0.4,22.4,1.5,33.6c0.5,5.6,1.3,11.1,2.2,16.7c0.9,5.5,2.1,11,3.5,16.5l1.4-0.4
		c-1.5-5.4-2.8-10.8-3.8-16.3c-1.1-5.5-1.9-11-2.6-16.6C321.7,415,321,403.8,320.7,392.6L320.7,392.6z"/>
</g>
<g>
	<path class="st17" d="M335.2,437.3c-0.5-3-1.3-6-2.2-8.9c-0.9-2.9-2-5.8-3.4-8.5c1.4,2.7,2.6,5.5,3.6,8.4c1,2.9,1.8,5.9,2.4,8.9
		L335.2,437.3z"/>
	<path class="st8" d="M335,437.5l0-0.2c-0.5-2.9-1.2-5.9-2.2-8.8c-1-3.2-2.1-5.9-3.4-8.5l0.4-0.2c1.3,2.5,2.5,5.3,3.6,8.5
		c1,2.9,1.8,5.9,2.4,8.9l0,0.2L335,437.5z"/>
</g>
<g>
	<path class="st17" d="M321.8,417.1c0.9-1.1,1.9-2.1,3-3c1.1-0.9,2.2-1.8,3.3-2.6c1.1-0.8,2.3-1.7,3.4-2.5c1.1-0.9,2.2-1.7,3.2-2.7
		c-1,1-2.1,1.9-3.1,2.8c-1.1,0.9-2.2,1.7-3.3,2.6c-1.1,0.9-2.2,1.8-3.2,2.7c-1,0.9-2,1.9-2.8,3L321.8,417.1z"/>
	<path class="st8" d="M322.2,417.7l-0.7-0.5l0.1-0.2c0.9-1.2,2-2.2,3-3.1c1.1-0.9,2.2-1.8,3.3-2.6c0.4-0.3,0.8-0.6,1.2-0.9
		c0.7-0.5,1.4-1.1,2.2-1.6c1.1-0.8,2.2-1.7,3.2-2.7l0.3,0.3c-1,1.1-2.2,2-3.2,2.8c-0.7,0.6-1.4,1.1-2.1,1.7
		c-0.4,0.3-0.8,0.6-1.2,0.9c-1,0.8-2.2,1.7-3.2,2.7c-0.9,0.8-2,1.8-2.8,3L322.2,417.7z"/>
</g>
<g>
	<path class="st9" d="M322.9,428.1c-4.2-4.4-9.5-7.7-15.3-9.6c5.8,1.8,11.3,5,15.6,9.3L322.9,428.1z"/>
	<path class="st8" d="M307.6,418.5c5.8,1.9,11.1,5.3,15.3,9.6l0.3-0.3C318.9,423.5,313.5,420.2,307.6,418.5L307.6,418.5z"/>
</g>
<g>
	<path class="st9" d="M327.7,458.9c-2-4.1-4.1-8.1-6.3-12c-2.3-3.9-4.8-7.7-7.8-11.1c3.2,3.2,5.9,6.9,8.4,10.7
		c2.5,3.8,4.8,7.8,7,11.7L327.7,458.9z"/>
	<path class="st8" d="M313.6,435.8c3,3.4,5.5,7.2,7.8,11.1c2.3,3.9,4.3,7.9,6.3,12l1.3-0.7c-2.2-3.9-4.5-7.9-7-11.7
		C319.5,442.7,316.8,439,313.6,435.8L313.6,435.8z"/>
</g>
<g>
	<path class="st9" d="M331.1,445.2c5.6-0.2,11.3,0.9,16.4,3.3c-5.1-2.2-10.8-3.2-16.4-2.8L331.1,445.2z"/>
	<path class="st8" d="M332.5,445.1c-0.5,0-0.9,0-1.4,0l0,0.4c0.8-0.1,1.5-0.1,2.3-0.1c4.8,0,9.6,1,14.1,2.9
		C342.9,446.3,337.7,445.1,332.5,445.1L332.5,445.1z"/>
</g>
<g>
	<path class="st17" d="M324.9,442.3c1.3-2.6,2.8-5,4.4-7.3c-1.5,2.4-2.9,4.9-4,7.5L324.9,442.3z"/>
	<path class="st8" d="M325.4,442.8l-0.8-0.4l0.1-0.2c1.3-2.6,2.8-5,4.4-7.3l0.4,0.2c-1.5,2.4-2.9,4.9-4,7.5L325.4,442.8z"/>
</g>
<g>
	<path class="st9" d="M321.7,418.3c-0.7-1.5-1.7-2.9-2.8-4.1c-1.1-1.3-2.3-2.4-3.7-3.4c-1.3-1-2.7-1.9-4.2-2.7
		c-1.5-0.8-3-1.5-4.6-2.1c1.6,0.6,3.1,1.2,4.6,2c1.5,0.8,2.9,1.6,4.3,2.6c1.4,1,2.6,2.1,3.8,3.4c1.1,1.2,2.1,2.6,2.9,4.1
		L321.7,418.3z"/>
	<path class="st8" d="M306.5,406c1.6,0.6,3.1,1.3,4.6,2.1c1.5,0.8,2.9,1.7,4.2,2.7c1.3,1,2.6,2.1,3.7,3.4c1.1,1.3,2,2.6,2.8,4.1
		l0.4-0.2c-0.8-1.5-1.8-2.9-2.9-4.1c-1.1-1.2-2.4-2.4-3.8-3.4c-1.4-1-2.8-1.9-4.3-2.6C309.6,407.2,308.1,406.6,306.5,406L306.5,406z
		"/>
</g>
<g>
	<path class="st9" d="M332.7,441.1c3.3-0.7,6.7-0.9,10.1-0.7c-3.4-0.1-6.8,0.3-10,1.1L332.7,441.1z"/>
	<path class="st8" d="M340,440.3c-2.5,0-4.9,0.3-7.4,0.8l0.1,0.4c2.8-0.7,5.8-1.1,8.8-1.1c0.4,0,0.8,0,1.3,0
		C341.9,440.4,340.9,440.3,340,440.3L340,440.3z"/>
</g>
<g>
	<path class="st9" d="M316.7,412c-2.3-4.9-3.1-10.4-2.3-15.7c-0.6,5.3,0.3,10.8,2.7,15.5L316.7,412z"/>
	<path class="st8" d="M314.4,396.3c-0.8,5.3,0.1,10.8,2.3,15.7l0.4-0.2C314.7,407.1,313.7,401.6,314.4,396.3L314.4,396.3z"/>
</g>
<g>
	<path class="st0" d="M342.7,466.6c-0.7-2.2-1.9-4.3-3.7-5.6c-0.9-0.7-2-1.2-2.9-1.9c-0.9-0.8-1.6-1.9-1.5-3.1h-6.2h0h-6.2
		c0.1,1.2-0.6,2.4-1.5,3.1c-0.9,0.8-1.9,1.2-2.9,1.9c-1.8,1.3-3,3.4-3.7,5.6c-0.7,2.2-0.8,4.6-0.6,7c0.3,2.8,1.1,5.7,2.7,7.9
		c1.6,2.3,4,3.9,6.6,4h5.6h0h5.6c2.6-0.1,5-1.7,6.6-4s2.4-5.1,2.7-7.9C343.5,471.2,343.4,468.8,342.7,466.6z"/>
	<path class="st8" d="M328.4,486.3h-5.6c-2.7-0.1-5.5-1.7-7.3-4.3c-1.5-2.2-2.5-5.1-2.8-8.3c-0.3-2.7-0.1-5.1,0.6-7.3
		c0.8-2.5,2.2-4.7,4-6c0.4-0.3,0.9-0.6,1.3-0.9c0.5-0.3,1.1-0.6,1.5-1c0.8-0.7,1.3-1.6,1.2-2.4l-0.1-0.9h14.3l-0.1,0.9
		c-0.1,0.8,0.4,1.7,1.2,2.4c0.5,0.4,1,0.7,1.5,1c0.4,0.3,0.9,0.5,1.3,0.9c1.8,1.3,3.3,3.5,4,6c0.7,2.2,0.9,4.6,0.6,7.3
		c-0.3,3.3-1.3,6.2-2.8,8.3c-1.8,2.6-4.6,4.2-7.3,4.3L328.4,486.3z M323.1,456.8c-0.2,1.1-0.8,2.1-1.8,2.9c-0.6,0.5-1.2,0.8-1.7,1.2
		c-0.4,0.3-0.8,0.5-1.2,0.8c-1.5,1.1-2.7,3-3.4,5.1c-0.6,1.9-0.8,4.2-0.5,6.6c0.3,3,1.2,5.6,2.5,7.5c1.5,2.2,3.7,3.5,5.9,3.6l11.2,0
		c2.1-0.1,4.3-1.4,5.9-3.6c1.4-1.9,2.2-4.5,2.5-7.5c0.2-2.4,0.1-4.7-0.5-6.6v0c-0.7-2.2-1.9-4-3.4-5.1c-0.4-0.3-0.8-0.5-1.2-0.8
		c-0.6-0.4-1.2-0.7-1.7-1.2c-1-0.8-1.6-1.9-1.8-2.9H323.1z"/>
</g>
<g>
	<path class="st8" d="M396.4,578.8H17.6c-0.5,0-0.9-0.4-0.9-0.9c0-0.5,0.4-0.9,0.9-0.9h378.9c0.5,0,0.9,0.4,0.9,0.9
		C397.3,578.4,396.9,578.8,396.4,578.8z"/>
</g>
<g>
	<rect x="66" y="485.3" class="st0" width="282" height="12.3"/>
	<path class="st8" d="M348,498.5H66c-0.5,0-0.9-0.4-0.9-0.9v-12.3c0-0.5,0.4-0.9,0.9-0.9h282c0.5,0,0.9,0.4,0.9,0.9v12.3
		C348.9,498.1,348.5,498.5,348,498.5z M66.9,496.7h280.2v-10.6H66.9V496.7z"/>
</g>
<g>
	<rect x="325.2" y="497.7" class="st0" width="8.9" height="80.2"/>
	<path class="st8" d="M334.1,578.8h-8.9c-0.5,0-0.9-0.4-0.9-0.9v-80.2c0-0.5,0.4-0.9,0.9-0.9h8.9c0.5,0,0.9,0.4,0.9,0.9v80.2
		C335,578.4,334.6,578.8,334.1,578.8z M326.1,577h7.1v-78.4h-7.1V577z"/>
</g>
<path class="st8" d="M275.3,463.8H138.7c-5.2,0-9.4-4.2-9.4-9.4v-76.3c0-5.2,4.2-9.4,9.4-9.4h136.7c5.2,0,9.4,4.2,9.4,9.4v76.3
	C284.7,459.5,280.5,463.8,275.3,463.8z M138.7,370.4c-4.2,0-7.7,3.4-7.7,7.7v76.3c0,4.2,3.4,7.7,7.7,7.7h136.7
	c4.2,0,7.7-3.4,7.7-7.7v-76.3c0-4.2-3.4-7.7-7.7-7.7H138.7z"/>
<path class="st4" d="M274.9,460.1H139.1c-3,0-5.4-2.4-5.4-5.4v-76.9c0-3,2.4-5.4,5.4-5.4h135.7c3,0,5.4,2.4,5.4,5.4v76.9
	C280.3,457.7,277.9,460.1,274.9,460.1z"/>
<path class="st8" d="M221.1,479h-27.4v-17h27.4V479z M195.4,477.3h23.9v-13.6h-23.9V477.3z"/>
<path class="st8" d="M234.8,486.2h-55.7v-4c0-2.7,2.2-4.9,4.9-4.9H230c2.7,0,4.9,2.2,4.9,4.9V486.2z M180.9,484.4h52.2v-2.3
	c0-1.7-1.4-3.1-3.1-3.1H184c-1.7,0-3.1,1.4-3.1,3.1V484.4z"/>
<g>
	<path class="st0" d="M175.7,520.7h-58.3c-4.8,0-8.6-3.9-8.6-8.6v-43.5c0-20.9,16.9-37.8,37.8-37.8h0c20.9,0,37.8,16.9,37.8,37.8
		v43.5C184.3,516.8,180.4,520.7,175.7,520.7z"/>
	<path class="st8" d="M175.7,521.6h-58.3c-5.2,0-9.5-4.3-9.5-9.5v-43.5c0-21.3,17.3-38.6,38.6-38.6s38.6,17.3,38.6,38.6v43.5
		C185.2,517.3,180.9,521.6,175.7,521.6z M146.5,431.7c-20.4,0-36.9,16.6-36.9,36.9v43.5c0,4.3,3.5,7.8,7.8,7.8h58.3
		c4.3,0,7.8-3.5,7.8-7.8v-43.5C183.4,448.2,166.9,431.7,146.5,431.7z"/>
</g>
<g>
	<path class="st0" d="M179,541.3h-64.9c-3,0-5.3-2.4-5.3-5.3l0,0c0-3,2.4-5.3,5.3-5.3H179c3,0,5.3,2.4,5.3,5.3l0,0
		C184.3,538.9,181.9,541.3,179,541.3z"/>
	<path class="st8" d="M179.9,542.2h-66.8c-2.9,0-5.2-2.3-5.2-5.2v-2c0-2.9,2.3-5.2,5.2-5.2h66.8c2.9,0,5.2,2.3,5.2,5.2v2
		C185.2,539.8,182.8,542.2,179.9,542.2z M113.1,531.5c-1.9,0-3.5,1.6-3.5,3.5v2c0,1.9,1.6,3.5,3.5,3.5h66.8c1.9,0,3.5-1.6,3.5-3.5
		v-2c0-1.9-1.6-3.5-3.5-3.5H113.1z"/>
</g>
<g>
	<path class="st0" d="M146.8,537L146.8,537c-3.3,0-5.9-2.6-5.9-5.9v-38.9c0-3.3,2.6-5.9,5.9-5.9h0c3.3,0,5.9,2.6,5.9,5.9v38.9
		C152.7,534.4,150.1,537,146.8,537z"/>
	<path class="st8" d="M146.8,537.9c-3.7,0-6.8-3-6.8-6.8v-38.9c0-3.7,3-6.8,6.8-6.8s6.8,3,6.8,6.8v38.9
		C153.6,534.8,150.5,537.9,146.8,537.9z M146.8,487.2c-2.8,0-5,2.3-5,5v38.9c0,2.8,2.3,5,5,5c2.8,0,5-2.3,5-5v-38.9
		C151.8,489.4,149.6,487.2,146.8,487.2z"/>
</g>
<g>
	<rect x="139" y="541.3" class="st0" width="15" height="7"/>
	<path class="st8" d="M154.9,549.2h-16.8v-8.8h16.8V549.2z M139.9,547.4h13.3v-5.3h-13.3V547.4z"/>
</g>
<g>
	<rect x="140.5" y="548.3" class="st0" width="12" height="7"/>
	<path class="st8" d="M153.4,556.2h-13.7v-8.8h13.7V556.2z M141.4,554.5h10.2v-5.3h-10.2V554.5z"/>
</g>
<g>
	<rect x="144.2" y="555.3" class="st0" width="4.7" height="12.8"/>
	<path class="st8" d="M149.7,569.1h-6.5v-14.6h6.5V569.1z M145,567.3h3v-11.1h-3V567.3z"/>
</g>
<g>
	<path class="st0" d="M129.1,571.3h34.8l0,0c0-1.7-1.4-3.1-3.1-3.1h-28.6C130.5,568.2,129.1,569.6,129.1,571.3L129.1,571.3z"/>
	<path class="st8" d="M164.8,572.2h-36.6v-0.9c0-2.2,1.8-4,4-4h28.6c2.2,0,4,1.8,4,4V572.2z M130.1,570.4h32.8
		c-0.3-0.8-1.1-1.4-2.1-1.4h-28.6C131.3,569.1,130.5,569.6,130.1,570.4z"/>
</g>
<g>
	<rect x="133" y="571.3" class="st9" width="0.8" height="2"/>
	<rect x="132.2" y="570.4" class="st8" width="2.5" height="3.7"/>
</g>
<g>
	<rect x="146.1" y="571.3" class="st9" width="0.8" height="2"/>
	<rect x="145.3" y="570.4" class="st8" width="2.5" height="3.7"/>
</g>
<g>
	<rect x="159.3" y="571.3" class="st9" width="0.8" height="2"/>
	<rect x="158.4" y="570.4" class="st8" width="2.5" height="3.7"/>
</g>
<circle class="st8" cx="133.4" cy="575.4" r="2.5"/>
<circle class="st8" cx="146.5" cy="575.4" r="2.5"/>
<circle class="st8" cx="159.6" cy="575.4" r="2.5"/>
<g>
	<path class="st0" d="M300.3,464.7h16.9v12.1c0,4.7-3.8,8.5-8.5,8.5l0,0c-4.7,0-8.5-3.8-8.5-8.5V464.7z"/>
	<path class="st8" d="M310.5,486.2H307c-4.2,0-7.6-3.4-7.6-7.6v-14.8H318v14.8C318,482.8,314.6,486.2,310.5,486.2z M301.1,465.6v13
		c0,3.2,2.6,5.8,5.8,5.8h3.5c3.2,0,5.8-2.6,5.8-5.8v-13H301.1z"/>
</g>
<path class="st8" d="M317.6,479.8v-1.7c2.6,0,4.7-2.1,4.7-4.7c0-2.6-2.1-4.7-4.7-4.7v-1.7c3.6,0,6.4,2.9,6.4,6.4
	S321.1,479.8,317.6,479.8z"/>
<path class="st8" d="M273.8,484.5h-1.7c0-4.3-3.5-7.8-7.8-7.8s-7.8,3.5-7.8,7.8h-1.7c0-5.3,4.3-9.6,9.6-9.6
	C269.6,474.9,273.8,479.2,273.8,484.5z"/>
<path class="st8" d="M324.5,497.7c0,0,9.2,3.4,8.9,7.7c0.4-5.2,0-7.7,0-7.7H324.5z"/>
<path class="st8" d="M194.5,466c0,0,25.2-0.4,25.3,4.5c0.4-6.3,0.4-7.6,0.4-7.6h-25.7V466z"/>
<g>
	<path class="st9" d="M178.9,425.2c-0.2,0-0.4-0.1-0.4-0.3c-0.8-2.8-1.3-5.7-1.3-8.7c0-2.6,0.3-5.2,1-7.7c0.1-0.2,0.3-0.4,0.5-0.3
		c0.2,0.1,0.4,0.3,0.3,0.5c-0.6,2.4-1,4.9-1,7.5c0,2.9,0.4,5.7,1.2,8.4c0.1,0.2-0.1,0.5-0.3,0.5C179,425.2,179,425.2,178.9,425.2z"
		/>
	<path class="st9" d="M183,433.6c-0.1,0-0.3-0.1-0.4-0.2c-1.3-1.8-2.4-3.8-3.2-5.8c-0.1-0.2,0-0.5,0.2-0.6c0.2-0.1,0.5,0,0.6,0.2
		c0.8,2,1.9,3.9,3.1,5.7c0.1,0.2,0.1,0.5-0.1,0.6C183.2,433.5,183.1,433.6,183,433.6z"/>
	<path class="st9" d="M207,446c-7.7,0-15-2.9-20.5-8.2c-0.2-0.2-0.2-0.4,0-0.6c0.2-0.2,0.4-0.2,0.6,0c5.4,5.1,12.5,8,19.9,8
		c7.9,0,15.3-3.1,20.8-8.8c0.2-0.2,0.4-0.2,0.6,0c0.2,0.2,0.2,0.4,0,0.6C222.7,442.8,215.1,446,207,446z"/>
	<path class="st9" d="M229.4,435.6c-0.1,0-0.2,0-0.3-0.1c-0.2-0.2-0.2-0.4-0.1-0.6c0.1-0.1,0.2-0.2,0.3-0.4c0.2-0.2,0.4-0.2,0.6-0.1
		c0.2,0.2,0.2,0.4,0.1,0.6c-0.1,0.1-0.2,0.2-0.3,0.4C229.7,435.5,229.5,435.6,229.4,435.6z"/>
	<path class="st9" d="M230.7,433.9c-0.1,0-0.2,0-0.3-0.1c-0.2-0.1-0.2-0.4-0.1-0.6c0.2-0.2,0.3-0.5,0.5-0.7c0.1-0.2,0.4-0.2,0.6-0.1
		c0.2,0.1,0.2,0.4,0.1,0.6c-0.2,0.2-0.3,0.5-0.5,0.7C231,433.9,230.8,433.9,230.7,433.9z"/>
	<path class="st9" d="M235.1,425.2c0,0-0.1,0-0.1,0c-0.2-0.1-0.4-0.3-0.3-0.5c0.8-2.7,1.2-5.5,1.2-8.4c0-9.2-4.4-17.9-11.8-23.3
		c-0.2-0.1-0.2-0.4-0.1-0.6c0.1-0.2,0.4-0.2,0.6-0.1c7.6,5.6,12.2,14.6,12.2,24c0,2.9-0.4,5.8-1.3,8.6
		C235.4,425,235.3,425.2,235.1,425.2z"/>
	<path class="st9" d="M219.6,390.1c-0.1,0-0.1,0-0.2,0c-3-1.4-6.2-2.3-9.4-2.6c-0.2,0-0.4-0.2-0.4-0.5c0-0.2,0.2-0.4,0.5-0.4
		c3.4,0.3,6.7,1.3,9.7,2.7c0.2,0.1,0.3,0.4,0.2,0.6C219.9,390.1,219.7,390.1,219.6,390.1z"/>
	<path class="st9" d="M185.3,396.9c-0.1,0-0.2,0-0.3-0.1c-0.2-0.2-0.2-0.4,0-0.6c5.6-6.2,13.6-9.7,22-9.7c0.2,0,0.4,0.2,0.4,0.4
		c0,0.2-0.2,0.4-0.4,0.4c-8.1,0-15.9,3.4-21.3,9.4C185.6,396.8,185.5,396.9,185.3,396.9z"/>
	<path class="st9" d="M183.8,398.6c-0.1,0-0.2,0-0.3-0.1c-0.2-0.1-0.2-0.4-0.1-0.6c0.5-0.6,1-1.2,1.5-1.8c0.2-0.2,0.4-0.2,0.6,0
		c0.2,0.2,0.2,0.4,0,0.6c-0.5,0.6-1,1.1-1.5,1.7C184.1,398.6,184,398.6,183.8,398.6z"/>
	<g>
		<path class="st9" d="M207,450.5c-3,0-6-0.4-8.9-1.2c-0.2-0.1-0.4-0.3-0.3-0.5c0.1-0.2,0.3-0.4,0.5-0.3c2.8,0.7,5.7,1.1,8.6,1.1
			c3.3,0,6.6-0.5,9.7-1.4c0.2-0.1,0.5,0.1,0.5,0.3s-0.1,0.5-0.3,0.5C213.8,450,210.4,450.5,207,450.5z"/>
		<path class="st9" d="M219.9,448c-0.2,0-0.3-0.1-0.4-0.3c-0.1-0.2,0-0.5,0.2-0.6c2.3-1,4.5-2.2,6.5-3.6c0.2-0.1,0.5-0.1,0.6,0.1
			c0.1,0.2,0.1,0.5-0.1,0.6c-2.1,1.5-4.4,2.7-6.7,3.7C220,448,220,448,219.9,448z"/>
		<path class="st9" d="M231.5,440c-0.1,0-0.2,0-0.3-0.1c-0.2-0.2-0.2-0.4,0-0.6c5.9-6.2,9.2-14.4,9.2-23c0-9.1-3.6-17.7-10.2-24
			c-0.2-0.2-0.2-0.4,0-0.6c0.2-0.2,0.4-0.2,0.6,0c6.7,6.5,10.5,15.3,10.5,24.7c0,8.8-3.4,17.2-9.5,23.6
			C231.8,440,231.6,440,231.5,440z"/>
		<path class="st9" d="M228.9,390.8c-0.1,0-0.2,0-0.3-0.1c-0.1-0.1-0.3-0.2-0.4-0.3c-0.2-0.2-0.2-0.4-0.1-0.6
			c0.2-0.2,0.4-0.2,0.6-0.1c0.1,0.1,0.3,0.2,0.4,0.3c0.2,0.2,0.2,0.4,0.1,0.6C229.1,390.7,229,390.8,228.9,390.8z"/>
		<path class="st9" d="M226.9,389.3c-0.1,0-0.2,0-0.3-0.1c-0.3-0.2-0.5-0.4-0.8-0.6c-0.2-0.1-0.2-0.4-0.1-0.6
			c0.1-0.2,0.4-0.2,0.6-0.1c0.3,0.2,0.6,0.4,0.8,0.6c0.2,0.1,0.2,0.4,0.1,0.6C227.2,389.2,227.1,389.3,226.9,389.3z"/>
		<path class="st9" d="M179.7,396.7c-0.1,0-0.2,0-0.3-0.1c-0.2-0.1-0.2-0.4-0.1-0.6c6.4-8.8,16.8-14,27.7-14c3.4,0,6.7,0.5,9.9,1.5
			c0.2,0.1,0.4,0.3,0.3,0.5c-0.1,0.2-0.3,0.4-0.5,0.3c-3.1-0.9-6.4-1.4-9.7-1.4c-10.6,0-20.7,5.1-27,13.7
			C179.9,396.6,179.8,396.7,179.7,396.7z"/>
		<path class="st9" d="M173.3,413.2C173.3,413.2,173.3,413.2,173.3,413.2c-0.3,0-0.5-0.2-0.4-0.5c0.4-3.9,1.4-7.7,3.1-11.2
			c0.1-0.2,0.4-0.3,0.6-0.2c0.2,0.1,0.3,0.4,0.2,0.6c-1.6,3.4-2.7,7.1-3,10.9C173.7,413,173.5,413.2,173.3,413.2z"/>
		<path class="st9" d="M184.2,441.7c-0.1,0-0.2,0-0.3-0.1c-7.1-6.5-11.2-15.7-11.2-25.3c0-0.2,0.2-0.4,0.4-0.4
			c0.2,0,0.4,0.2,0.4,0.4c0,9.4,4,18.4,10.9,24.7c0.2,0.2,0.2,0.4,0,0.6C184.4,441.6,184.3,441.7,184.2,441.7z"/>
		<path class="st9" d="M186.2,443.4c-0.1,0-0.2,0-0.3-0.1c-0.7-0.6-1.4-1.1-2.1-1.7c-0.2-0.2-0.2-0.4,0-0.6c0.2-0.2,0.4-0.2,0.6,0
			c0.6,0.6,1.3,1.2,2,1.7c0.2,0.1,0.2,0.4,0.1,0.6C186.5,443.3,186.3,443.4,186.2,443.4z"/>
	</g>
	<g>
		<path class="st9" d="M189.1,404.8v-1.5h7.8l1.3,19.7c0.2,2.5,1.3,3.8,3.4,3.8c2.3,0,4.1-1.4,5.5-4.1c-0.1-0.4-0.1-1-0.2-1.9l-1-16
			h-2.3v-1.5h7.8l1.3,19.7c0.2,2.5,1.3,3.8,3.4,3.8c1.4,0,2.6-0.6,3.7-1.8c2-2.3,3.1-5.7,3.1-10.3c0-2.5-0.4-4.8-1.3-6.7
			c-0.4-1-1-1.6-1.7-1.9c-0.7-0.3-1.7-0.5-2.8-0.5h-1.4l-0.2-1.4l3.8-1.3c0.4-0.1,0.8-0.2,1.1-0.2c0.3,0,0.6,0,0.8,0.1
			c0.9,0.4,1.8,1.5,2.6,3.4c0.9,1.9,1.3,4.4,1.3,7.6c0,4.1-0.8,7.7-2.4,10.8c-0.8,1.5-1.9,2.7-3.2,3.6c-1.3,0.9-2.9,1.4-4.6,1.4
			c-3.6,0-5.9-1.4-7-4.1c-1.9,2.8-4.4,4.1-7.5,4.1c-2.7,0-4.6-0.7-5.8-2.2c-1.2-1.4-1.8-3.7-2-6.7l-1-16H189.1z"/>
	</g>
</g>
<text transform="matrix(1 0 0 1 35.2168 299.542)" class="st4 st18 st19">BIENVENUE.</text>
<path class="st4" d="M414,364c-118.7-44.7-60.5-143.9-52.4-172.2c8.1-28.3-48.5-44.5-35.5-88.9S414,63.8,414,63.8V364z"/>
<path class="st7" d="M413.2,300.9c-10.7-23.1-43.8-34.1-75.9-44.8c-29.3-9.7-57-19-66.8-36.8c-4.8-8.7-2.5-20.6,6.8-35.4
	c7.3-11.7,19-25.2,34.8-40.2c26.8-25.5,56.4-46.6,56.7-46.9l0.9,1.2c-0.3,0.2-29.9,21.3-56.6,46.7c-15.7,14.9-27.3,28.3-34.5,39.9
	c-9,14.3-11.2,25.7-6.8,33.9c9.4,17.3,36.9,26.4,65.9,36.1c32.3,10.7,65.8,21.9,76.8,45.6L413.2,300.9z"/>
<path class="st7" d="M366.5,158.9c17.5,0.3,44-3.3,46.3-31.5c2.3-28.2,1.7-41.3-7.4-49.4c-9.1-8.1-45.9-5.3-37.8,17.2
	s-25,20.4-21.4,32.4S354.1,158.7,366.5,158.9z"/>
<ellipse class="st7" cx="375.3" cy="287.3" rx="7.3" ry="5"/>
<ellipse class="st7" cx="393.1" cy="294.5" rx="5" ry="3.4"/>
<g>
	<path class="st7" d="M325.7,218.7c-2,8.1,2,9.6,19.1,8.7c11.6-0.6,20.5,5.5,31.2,8.8c11.8,3.7,17.3-13.7,4.6-19
		c-8.2-3.4-13.7-18.3-21.4-18.2C346.9,199,328.6,206.9,325.7,218.7z"/>
</g>
</svg>
