<?xml version="1.0" encoding="utf-8"?>
<!-- Generator: Adobe Illustrator 26.4.1, SVG Export Plug-In . SVG Version: 6.00 Build 0)  -->
<svg version="1.1" id="Layer_1" xmlns="http://www.w3.org/2000/svg" xmlns:xlink="http://www.w3.org/1999/xlink" x="0px" y="0px"
	 viewBox="0 0 28 28" style="enable-background:new 0 0 28 28;" xml:space="preserve">
<style type="text/css">
	.st0{fill:#F24535;}
</style>
<path class="st0" d="M0,2c0-1.1,0.9-2,2.1-2H26c1.1,0,2,0.9,2,2v24c0,1.1-0.9,2-2.1,2H2.1C0.9,28,0,27.1,0,26V2z M8.7,23.4V10.8H4.4
	v12.6C4.4,23.4,8.7,23.4,8.7,23.4z M6.6,9.1c1.5,0,2.4-1,2.4-2.2S8.1,4.7,6.7,4.7S4.2,5.6,4.2,6.9C4.2,8.1,5.1,9.1,6.6,9.1L6.6,9.1z
	 M15.1,23.4v-7.1c0-0.4,0-0.8,0.1-1c0.3-0.8,1-1.5,2.2-1.5c1.5,0,2.1,1.2,2.1,2.9v6.8h4.2v-7.3c0-3.9-2.1-5.7-4.8-5.7
	c-2.2,0-3.2,1.2-3.8,2.1l0,0l0,0l0,0v-1.8h-4.2c0.1,1.2,0,12.6,0,12.6S15.1,23.4,15.1,23.4z"/>
</svg>
