<?xml version="1.0" encoding="utf-8"?>
<!-- Generator: Adobe Illustrator 26.4.1, SVG Export Plug-In . SVG Version: 6.00 Build 0)  -->
<svg version="1.1" id="Layer_1" xmlns="http://www.w3.org/2000/svg" xmlns:xlink="http://www.w3.org/1999/xlink" x="0px" y="0px"
	 viewBox="0 0 108.3 108.2" style="enable-background:new 0 0 108.3 108.2;" xml:space="preserve">
<style type="text/css">
	.st0{fill:none;stroke:#466BFF;stroke-width:2;stroke-linecap:round;stroke-linejoin:round;stroke-miterlimit:10;}
	.st1{fill:#466BFF;}
</style>
<path class="st0" d="M10.7,67.6c-1.3-4.2-2-8.6-2-13.2c0-4,0.5-8,1.6-11.7"/>
<path class="st0" d="M17,80.6c-2-2.8-3.6-5.7-4.9-8.9"/>
<path class="st0" d="M86.8,86C78.6,94.5,67,99.8,54.1,99.8C42,99.8,31,95,22.8,87.2"/>
<path class="st0" d="M89.3,83.2c-0.1,0.2-0.3,0.4-0.5,0.5"/>
<path class="st0" d="M91.7,80.1c-0.3,0.3-0.5,0.7-0.7,1.1"/>
<path class="st0" d="M81,17.7C92.3,26,99.6,39.3,99.6,54.4c0,4.6-0.7,9-2,13.2"/>
<path class="st0" d="M58.8,9.2c5.3,0.5,10.3,2,14.8,4.1"/>
<path class="st0" d="M20.6,23.7c8.3-9.1,20.2-14.8,33.5-14.8"/>
<path class="st0" d="M18.3,26.5c0.7-0.9,1.5-1.9,2.3-2.8"/>
<g>
	<path class="st0" d="M69.4,104.6c-4.9,1.5-9.9,2.2-15.3,2.2c-4.7,0-9.2-0.6-13.6-1.8"/>
	<path class="st0" d="M84.4,97.2c-3.2,2.2-6.6,4.2-10.3,5.7"/>
	<path class="st0" d="M90.6,16.7c9.9,9.5,16,22.9,16,37.7c0,14-5.5,26.7-14.4,36.2"/>
	<path class="st0" d="M87.4,13.8c0.2,0.2,0.4,0.3,0.7,0.5"/>
	<path class="st0" d="M83.8,11.1c0.4,0.3,0.9,0.6,1.3,0.9"/>
	<path class="st0" d="M11.8,23.4c9.5-13,25-21.5,42.3-21.5c5.3,0,10.4,0.8,15.2,2.2"/>
	<path class="st0" d="M2,49C2.6,43,4.3,37.2,6.8,31.9"/>
	<path class="st0" d="M18.8,93.1C8.2,83.5,1.7,69.7,1.7,54.4"/>
	<path class="st0" d="M21.9,95.8c-1.1-0.9-2.2-1.8-3.2-2.7"/>
</g>
<g>
	<path class="st1" d="M26.4,36.7v-2.3h12l2,30.5c0.3,3.8,2,5.8,5.3,5.8c3.5,0,6.3-2.1,8.4-6.3c-0.1-0.6-0.2-1.6-0.3-3l-1.6-24.8
		h-3.5v-2.3h12l2,30.5c0.3,3.8,2,5.8,5.3,5.8c2.2,0,4-0.9,5.7-2.8c3.2-3.6,4.7-8.9,4.7-15.9c0-3.9-0.7-7.4-2-10.5
		c-0.7-1.6-1.6-2.5-2.7-3c-1.1-0.5-2.6-0.7-4.4-0.7h-2.2L67,35.7l5.9-2c0.7-0.2,1.2-0.3,1.7-0.3c0.5,0,0.9,0.1,1.3,0.2
		c1.3,0.5,2.7,2.3,4,5.2c1.3,2.9,2,6.8,2,11.7c0,6.4-1.2,11.9-3.7,16.7c-1.3,2.4-2.9,4.3-5,5.7c-2.1,1.4-4.5,2.1-7.1,2.1
		c-5.5,0-9.1-2.2-10.8-6.4c-2.9,4.3-6.7,6.4-11.6,6.4c-4.2,0-7.2-1.1-9-3.4C33,69.4,32,66,31.7,61.3L30,36.5h-3.6L26.4,36.7
		L26.4,36.7z"/>
</g>
</svg>
