<?xml version="1.0" encoding="utf-8"?>
<!-- Generator: Adobe Illustrator 27.7.0, SVG Export Plug-In . SVG Version: 6.00 Build 0)  -->
<svg version="1.1" id="Calque_1" xmlns="http://www.w3.org/2000/svg" xmlns:xlink="http://www.w3.org/1999/xlink" x="0px" y="0px"
	 viewBox="0 0 1920 1080" style="enable-background:new 0 0 1920 1080;" xml:space="preserve">
<style type="text/css">
	.st0{fill:#F0F3FF;}
	.st1{fill:#272525;}
	.st2{fill:#FFFFFF;}
	.st3{fill:#55422F;}
	.st4{fill:#466BFF;}
	.st5{fill:#81ABFF;}
	.st6{fill:url(#SVGID_1_);}
	.st7{fill:none;stroke:#81ABFF;stroke-width:5;stroke-miterlimit:10;}
	.st8{fill:url(#SVGID_00000181063312945757888120000017129277515669146043_);}
	.st9{clip-path:url(#SVGID_00000075855457685677692660000008509153136021525904_);}
	.st10{clip-path:url(#SVGID_00000075855457685677692660000008509153136021525904_);fill:#272525;}
	.st11{clip-path:url(#SVGID_00000075855457685677692660000008509153136021525904_);fill:#466BFF;}
	.st12{clip-path:url(#SVGID_00000075855457685677692660000008509153136021525904_);fill:#F0F3FF;}
	.st13{clip-path:url(#SVGID_00000075855457685677692660000008509153136021525904_);fill:none;}
</style>
<g>
	<defs>
		<rect id="SVGID_00000067236234070521373290000002537254244095187362_" y="-4.2" width="1920" height="1085.9"/>
	</defs>
	<clipPath id="SVGID_00000065786553564784621070000015208133144114373797_">
		<use xlink:href="#SVGID_00000067236234070521373290000002537254244095187362_"  style="overflow:visible;"/>
	</clipPath>
	
		<rect y="-4.2" style="clip-path:url(#SVGID_00000065786553564784621070000015208133144114373797_);fill:#466BFF;" width="1920" height="1085.9"/>
	<g style="clip-path:url(#SVGID_00000065786553564784621070000015208133144114373797_);">
		<path class="st2" d="M1331,665.9c-4-2.8-8.7-4.4-13.4-5.7c-4.7-1.3-9.6-2.3-14.4-1.2c-4.5,1.1-8.2,4-11.3,7.5
			c1.9,2.5,4.4,4.5,7.2,5.9c3.8,1.9,8.2,2.8,12.5,2.7c1.6,0,3.2-0.2,4.8-0.5C1322,673.5,1327,670.2,1331,665.9z"/>
		<path class="st1" d="M1307.6,658.5c3.4,0,6.7,0.8,10,1.7c4.7,1.3,9.4,2.9,13.4,5.7c-4,4.3-9,7.6-14.7,8.7
			c-1.6,0.3-3.2,0.4-4.8,0.5c-0.1,0-0.2,0-0.3,0c-4.2,0-8.4-0.8-12.2-2.7c-2.8-1.4-5.3-3.4-7.2-5.9c3.1-3.5,6.8-6.4,11.3-7.5
			C1304.6,658.7,1306.1,658.5,1307.6,658.5 M1307.6,648.8c-2.3,0-4.6,0.3-6.7,0.8c-5.9,1.4-11.4,5-16.2,10.5l-5.3,6l4.9,6.3
			c2.7,3.5,6.3,6.5,10.5,8.6c4.9,2.5,10.6,3.8,16.6,3.8l0.4,0c2.3,0,4.5-0.2,6.6-0.6c7.3-1.4,14.1-5.4,19.9-11.6l7.6-8.2l-9.1-6.4
			c-5.4-3.8-11.3-5.7-16.4-7.1C1316.5,649.9,1312.2,648.8,1307.6,648.8L1307.6,648.8z"/>
	</g>
	<g style="clip-path:url(#SVGID_00000065786553564784621070000015208133144114373797_);">
		<path class="st0" d="M1100.2,466.8c4.1,6.9,10,12.5,16.1,17.6c6.1,5.1,12.8,10,20.6,11.5c7.4,1.4,15-0.4,21.9-3.5
			c-1.2-4.9-3.5-9.6-6.7-13.6c-4.4-5.5-10.3-9.7-16.7-12.5c-2.4-1.1-4.9-2-7.5-2.6C1118.7,461.5,1109,463.1,1100.2,466.8z"/>
		<path class="st1" d="M1119.2,462.7c2.9,0,5.9,0.3,8.8,1c2.6,0.6,5.1,1.5,7.5,2.6c6.4,2.8,12.3,7,16.7,12.5c3.2,4,5.5,8.6,6.7,13.6
			c-5.3,2.4-11,4-16.7,4c-1.7,0-3.5-0.2-5.2-0.5c-7.8-1.5-14.5-6.4-20.6-11.5c-6.1-5.1-12.1-10.7-16.1-17.6
			C1106.3,464.2,1112.7,462.7,1119.2,462.7 M1119.2,453c-7.4,0-15.1,1.6-22.7,4.8l-10.3,4.3l5.7,9.6c5,8.4,12,14.9,18.3,20.1
			c7.1,5.9,15,11.7,25,13.6c2.3,0.4,4.6,0.6,7,0.6c6.5,0,13.5-1.6,20.7-4.8l7.3-3.3l-1.8-7.8c-1.5-6.2-4.4-12.2-8.6-17.4
			c-5.1-6.4-12.2-11.7-20.4-15.3c-3.1-1.4-6.1-2.4-9.1-3.1C1126.7,453.4,1123,453,1119.2,453L1119.2,453z"/>
	</g>
	<g style="clip-path:url(#SVGID_00000065786553564784621070000015208133144114373797_);">
		<path class="st0" d="M1364.5,717.4c1.6-0.4,3.2-0.8,4.7-1.2c-5-9.2-10.6-18-17.6-25.7c-5.4-5.9-11.8-11.3-19.3-14.2
			c-9.2-3.6-19.8-3.2-29.1,0.2c-8.3,3-15.6,8.4-21.5,15c2.3,7.4,5.8,14.3,11.6,19.2c2.9,2.4,6.3,4.2,9.7,5.7
			c9.6,4.1,20.1,5.6,30.5,5.4C1344,721.7,1354.3,719.9,1364.5,717.4z"/>
		<path class="st1" d="M1318.3,673.9c4.8,0,9.5,0.8,14,2.5c7.5,2.9,13.8,8.2,19.3,14.2c7,7.7,12.7,16.5,17.6,25.7
			c-1.6,0.4-3.2,0.8-4.7,1.2c-10.1,2.4-20.4,4.3-30.8,4.5c-0.5,0-1.1,0-1.6,0c-9.9,0-19.8-1.6-28.9-5.4c-3.5-1.5-6.8-3.3-9.7-5.7
			c-5.9-4.9-9.4-11.8-11.6-19.2c5.9-6.6,13.2-12,21.5-15C1308,674.8,1313.2,673.9,1318.3,673.9 M1318.3,664.2
			c-6.3,0-12.5,1.1-18.4,3.3c-9.4,3.4-18.1,9.6-25.4,17.7l-3.6,4.1l1.6,5.2c3.2,10.4,8,18.2,14.7,23.7c3.3,2.8,7.3,5.1,12.1,7.2
			c9.7,4.1,20.7,6.2,32.7,6.2c0.6,0,1.2,0,1.8,0c9.8-0.2,20.3-1.7,32.9-4.7c1.6-0.4,3.3-0.8,5-1.2l11.9-3.2l-5.8-10.8
			c-6-11.1-12.2-20.2-19-27.6c-7.4-8.1-14.9-13.6-22.9-16.7C1330.3,665.2,1324.4,664.2,1318.3,664.2L1318.3,664.2z"/>
	</g>
	<g style="clip-path:url(#SVGID_00000065786553564784621070000015208133144114373797_);">
		<path class="st0" d="M1254.9,649.6c4.9-8.4,6.1-18.3,5.7-28c-5.8,2.8-11.4,6-16.5,10c-6.5,5-12,11.3-15.3,18.8
			c-2.9,6.8-3.8,14.3-3.4,21.7c4.7-1.9,9.3-4.1,13.6-6.8C1245.4,661.3,1251.2,656.1,1254.9,649.6z"/>
		<path class="st1" d="M1260.7,621.6c0.4,9.7-0.9,19.6-5.7,28c-3.8,6.5-9.5,11.7-15.9,15.6c-4.3,2.7-8.9,4.9-13.6,6.8
			c-0.4-7.4,0.5-14.9,3.4-21.7c3.2-7.5,8.8-13.8,15.3-18.8C1249.2,627.6,1254.8,624.4,1260.7,621.6 M1269.8,606.4l-13.3,6.5
			c-7.4,3.6-13.2,7.1-18.2,11c-8.4,6.6-14.6,14.2-18.2,22.7c-3.3,7.7-4.7,16.4-4.1,26l0.8,13.6l12.6-5.2c5.9-2.5,10.7-4.9,15-7.6
			c8.4-5.3,14.8-11.7,19.1-19c5.2-9,7.5-19.9,7-33.2L1269.8,606.4L1269.8,606.4z"/>
	</g>
	<g style="clip-path:url(#SVGID_00000065786553564784621070000015208133144114373797_);">
		<path class="st0" d="M1183.9,434.3c-3.9,14.5-6,29.8-3.8,44.7c1.2,7.9,3.6,15.7,7.9,22.4c3.7,5.8,9,10.8,15.3,13.7
			c3.1-2.8,5.7-6.1,8.2-9.4c8.2-10.8,15.6-22.4,19.2-35.4c4.5-16.4,2.3-34.2-3.9-50c-5-12.7-12.5-24.2-21.3-34.7
			C1195.9,400.6,1188.6,417.1,1183.9,434.3z"/>
		<path class="st1" d="M1205.6,385.6c8.7,10.5,16.3,22,21.3,34.7c6.2,15.8,8.4,33.6,3.9,50c-3.5,13-11,24.7-19.2,35.4
			c-2.5,3.3-5.2,6.6-8.2,9.4c-6.3-2.9-11.5-7.9-15.3-13.7c-4.3-6.7-6.7-14.5-7.9-22.4c-2.2-14.9-0.2-30.2,3.8-44.7
			C1188.6,417.1,1195.9,400.6,1205.6,385.6 M1204.6,369.2l-7.1,11.1c-10.2,15.9-17.9,33.2-22.8,51.5c-4.9,18-6.2,33.9-4,48.6
			c1.5,10.1,4.6,18.9,9.3,26.2c5,7.7,11.6,13.7,19.3,17.3l5.8,2.7l4.8-4.3c3.7-3.3,6.7-7.1,9.4-10.7c7.5-9.8,16.6-23.1,20.8-38.7
			c4.7-17.3,3.2-37.2-4.2-56.1c-5-12.7-12.5-24.9-22.8-37.4L1204.6,369.2L1204.6,369.2z"/>
	</g>
	<g style="clip-path:url(#SVGID_00000065786553564784621070000015208133144114373797_);">
		<path class="st2" d="M1156.6,424.6c-1.4,5.3-2.2,10.9-1.4,16.3c0.4,2.9,1.3,5.7,2.9,8.2c1.4,2.1,3.3,3.9,5.6,5
			c1.1-1,2.1-2.2,3-3.4c3-3.9,5.7-8.2,7-12.9c1.6-6,0.9-12.5-1.4-18.3c-1.8-4.6-4.6-8.8-7.8-12.7
			C1160.9,412.3,1158.3,418.3,1156.6,424.6z"/>
		<path class="st1" d="M1164.5,406.8c3.2,3.8,5.9,8.1,7.8,12.7c2.3,5.8,3.1,12.3,1.4,18.3c-1.3,4.8-4,9-7,12.9
			c-0.9,1.2-1.9,2.4-3,3.4c-2.3-1.1-4.2-2.9-5.6-5c-1.6-2.5-2.5-5.3-2.9-8.2c-0.8-5.4-0.1-11,1.4-16.3
			C1158.3,418.3,1160.9,412.3,1164.5,406.8 M1163.5,390.4l-7.1,11.1c-4.1,6.3-7.1,13.2-9.1,20.5c-2,7.4-2.5,14.1-1.6,20.3
			c0.7,4.6,2.1,8.6,4.3,12c2.4,3.8,5.8,6.8,9.6,8.6l5.8,2.7l4.8-4.3c1.7-1.6,3.1-3.3,4.2-4.7c3.1-4.1,6.8-9.5,8.6-16.3
			c2.1-7.6,1.4-16.2-1.8-24.3c-2.1-5.2-5.1-10.3-9.3-15.3L1163.5,390.4L1163.5,390.4z"/>
	</g>
	<g style="clip-path:url(#SVGID_00000065786553564784621070000015208133144114373797_);">
		<path class="st0" d="M1096.4,535.3c3.4,12.5,11.3,23.5,20.8,32.5c11.8,11.1,26.4,19.6,42.2,22.9c14.3,3,29.6,1.5,42.6-4.9
			c-3.2-13.7-12.1-25.9-23.4-34.4c-13.3-9.9-29.5-15.1-45.9-17.5c-5.7-0.8-11.5-1.4-17.3-1.3
			C1109.1,532.8,1102.7,533.7,1096.4,535.3z"/>
		<path class="st1" d="M1116.8,532.7c5.3,0,10.6,0.5,15.9,1.3c16.4,2.4,32.7,7.6,45.9,17.5c11.3,8.5,20.3,20.7,23.4,34.4
			c-8.7,4.3-18.5,6.4-28.3,6.4c-4.8,0-9.6-0.5-14.3-1.5c-15.9-3.3-30.4-11.8-42.2-22.9c-9.5-8.9-17.4-20-20.8-32.5
			c6.2-1.6,12.6-2.5,19.1-2.6C1115.9,532.7,1116.4,532.7,1116.8,532.7 M1116.8,523c-0.5,0-1,0-1.5,0c-7.2,0.1-14.3,1.1-21.3,2.9
			l-9.5,2.5l2.5,9.4c3.5,13,11.6,25.8,23.5,37c13.9,13.1,30.1,21.9,46.9,25.4c5.4,1.1,10.9,1.7,16.3,1.7c11.5,0,22.8-2.5,32.6-7.4
			l6.9-3.4l-1.7-7.5c-3.5-15.2-13.4-29.7-27.1-39.9c-13.2-9.8-30.1-16.3-50.3-19.3C1127.8,523.5,1122.2,523,1116.8,523L1116.8,523z"
			/>
	</g>
	<g style="clip-path:url(#SVGID_00000065786553564784621070000015208133144114373797_);">
		<path class="st0" d="M1199.4,672.1c-12.2-15.6-27.1-29.6-44.9-38.2c0.6,12.9,2.6,25.8,5.8,38.4c1.3,5.1,2.9,10.1,5.1,14.9
			c4.9,10.5,13.2,19.3,23,25.4c9.1,5.6,19.5,9,30.1,10.3c-1-12.5-3.5-24.7-9.2-35.8C1206.5,681.8,1203.1,676.9,1199.4,672.1z"/>
		<path class="st1" d="M1154.5,633.9c17.8,8.6,32.7,22.6,44.9,38.2c3.7,4.7,7.2,9.7,10,15c5.7,11,8.2,23.3,9.2,35.8
			c-10.6-1.3-21-4.6-30.1-10.3c-9.8-6.1-18.1-14.9-23-25.4c-2.2-4.8-3.8-9.8-5.1-14.9C1157,659.8,1155.1,646.9,1154.5,633.9
			 M1144,618.2l0.8,16.2c0.6,13.6,2.7,27.2,6.1,40.4c1.2,4.6,2.9,10.6,5.7,16.6c5.5,11.8,15,22.3,26.7,29.5
			c9.9,6.2,21.7,10.2,34.1,11.7l11.8,1.4l-1-11.8c-1.3-16-4.6-28.5-10.3-39.4c-2.7-5.2-6.1-10.2-10.9-16.5
			c-14.7-18.8-30.9-32.6-48.3-41L1144,618.2L1144,618.2z"/>
	</g>
	<g style="clip-path:url(#SVGID_00000065786553564784621070000015208133144114373797_);">
		<path class="st0" d="M1246.5,517.2c3.9-2.7,7.4-5.8,10.6-9.2c8.8-9.3,15.6-20.5,19.8-32.5c-8.2-0.3-16.5,0.1-24.5,1.8
			c-9.1,2-17.9,5.8-25,11.7c-1.3,1.1-2.5,2.2-3.6,3.4c-4.4,4.9-6.8,11.3-7.9,17.7c-1,6-1,12.1-0.9,18.2
			C1226.2,526.7,1237.2,523.5,1246.5,517.2z"/>
		<path class="st1" d="M1271.7,475.3c1.7,0,3.4,0,5.1,0.1c-4.2,12.1-11,23.2-19.8,32.5c-3.2,3.4-6.7,6.6-10.6,9.2
			c-9.3,6.4-20.3,9.5-31.5,11.2c-0.1-6.1-0.2-12.2,0.9-18.2c1.1-6.5,3.5-12.8,7.9-17.7c1.1-1.2,2.3-2.4,3.6-3.4
			c7.1-6,15.9-9.8,25-11.7C1258.7,475.8,1265.2,475.3,1271.7,475.3 M1271.7,465.6c-7.8,0-14.8,0.7-21.4,2.1
			c-11.3,2.5-21.3,7.2-29.2,13.8c-1.8,1.5-3.3,2.9-4.6,4.4c-5.2,5.8-8.7,13.4-10.2,22.5c-1.2,7-1.2,13.8-1,20.1l0.3,11l10.8-1.6
			c14.6-2.2,26.2-6.3,35.6-12.7c4.2-2.8,8.1-6.3,12.2-10.6c9.7-10.2,17.2-22.7,21.9-36l4.3-12.4l-13.1-0.5
			C1275.4,465.6,1273.5,465.6,1271.7,465.6L1271.7,465.6z"/>
	</g>
	<g style="clip-path:url(#SVGID_00000065786553564784621070000015208133144114373797_);">
		<path class="st0" d="M1263.6,566.3c-3.9-5.9-9-11.2-15-15.1c-2.1,6.2-3.8,12.5-5,18.9c-0.6,3.2-1.1,6.4-1.3,9.6
			c-0.5,10.6,3.1,21.4,9.9,29.6c6.2,7.5,14.9,12.8,24.4,14.8c2.5-10.1,0.9-21.2-1.8-31.4C1272.4,583.4,1269,574.3,1263.6,566.3z"/>
		<path class="st1" d="M1248.7,551.2c6,3.8,11,9.1,15,15.1c5.3,8,8.7,17.1,11.2,26.4c2.7,10.2,4.4,21.3,1.8,31.4
			c-9.5-2-18.2-7.3-24.4-14.8c-6.8-8.2-10.4-19-9.9-29.6c0.1-3.2,0.6-6.4,1.3-9.6C1244.9,563.7,1246.6,557.4,1248.7,551.2
			 M1243.5,536.4l-4,11.7c-2.3,6.6-4.1,13.4-5.4,20.2c-0.8,4.3-1.3,7.7-1.4,11c-0.6,13,3.8,26.2,12.1,36.2
			c7.6,9.2,18.2,15.6,29.9,18.1l9.2,2l2.3-9.1c2.5-10.2,1.9-22.1-1.9-36.2c-3.2-11.8-7.3-21.3-12.5-29.2c-4.9-7.3-11-13.5-17.8-17.9
			L1243.5,536.4L1243.5,536.4z"/>
	</g>
	<g style="clip-path:url(#SVGID_00000065786553564784621070000015208133144114373797_);">
		<path class="st0" d="M1382.9,572.7c-19.4-3.7-39.9-1.1-57.7,7.4c-2.9,1.4-5.6,2.9-8.3,4.6c-10.1,6.5-18,16-23.7,26.6
			c-5.1,9.5-8.5,19.9-10.8,30.5c8.4,2.6,17.1,4.2,25.9,4.8c12.8,0.8,26.2-0.8,37.2-7.3c6-3.6,11.1-8.5,15.4-14
			C1372.6,610.1,1378.2,591.4,1382.9,572.7z"/>
		<path class="st1" d="M1365.5,571c5.8,0,11.7,0.5,17.4,1.6c-4.7,18.7-10.3,37.4-22.1,52.5c-4.3,5.5-9.4,10.4-15.4,14
			c-9.3,5.5-20.3,7.5-31.1,7.5c-2,0-4-0.1-6.1-0.2c-8.8-0.6-17.5-2.2-25.9-4.8c2.3-10.6,5.7-21,10.8-30.5
			c5.7-10.6,13.6-20.1,23.7-26.6c2.7-1.7,5.4-3.2,8.3-4.6C1337.7,574.1,1351.6,571,1365.5,571 M1365.5,561.4
			c-15.4,0-30.8,3.4-44.5,9.9c-3.5,1.7-6.6,3.4-9.4,5.2c-10.8,7-20.1,17.4-27,30.1c-5.1,9.5-9,20.3-11.8,33l-1.9,8.7l8.5,2.6
			c9.1,2.8,18.6,4.6,28.1,5.2c2.3,0.1,4.5,0.2,6.7,0.2c14.1,0,26.2-3,36.1-8.9c6.5-3.9,12.6-9.4,18.1-16.3
			c13.3-17,19.3-37.9,23.9-56.1l2.5-9.9l-10.1-1.9C1378.4,562,1371.9,561.4,1365.5,561.4L1365.5,561.4z"/>
	</g>
	<g style="clip-path:url(#SVGID_00000065786553564784621070000015208133144114373797_);">
		<path class="st2" d="M1243.6,761.1c-0.5-42.4,13.1-84.4,38-118.2c24.9-33.7,60.8-58.9,100.5-70.7c-39.4,13.1-74,39.2-97.2,73
			c-23.3,33.8-35,75.1-33.2,115.6L1243.6,761.1z"/>
		<path class="st1" d="M1382.1,572.2c-39.8,11.8-75.6,36.9-100.5,70.7c-24.9,33.7-38.5,75.8-38,118.2l8.1-0.2
			c-1.8-40.5,10-81.8,33.2-115.6C1308.1,611.4,1342.7,585.3,1382.1,572.2L1382.1,572.2z"/>
	</g>
	<g style="clip-path:url(#SVGID_00000065786553564784621070000015208133144114373797_);">
		<path class="st2" d="M1239.8,770.2c-7.8-30.2-14.2-60.8-19.5-91.5c-5.2-30.7-9.3-61.7-12.3-92.7c-6.1-62-8.2-124.3-8.6-186.5
			c1.7,62.2,5.2,124.4,12.6,186.1c3.7,30.8,8.4,61.6,14.3,92c5.9,30.5,12.9,60.7,21.3,90.5L1239.8,770.2z"/>
		<path class="st1" d="M1199.4,399.5c0.4,62.2,2.5,124.5,8.6,186.5c3,31,7.1,61.9,12.3,92.7c5.2,30.7,11.7,61.3,19.5,91.5l7.8-2.1
			c-8.4-29.8-15.4-60.1-21.3-90.5c-5.9-30.5-10.6-61.2-14.3-92C1204.6,523.8,1201.2,461.6,1199.4,399.5L1199.4,399.5z"/>
	</g>
	<g style="clip-path:url(#SVGID_00000065786553564784621070000015208133144114373797_);">
		<path class="st3" d="M1279.6,647.7c-2.9-16.6-7-33.1-12-49.3c-5.1-16.2-11.1-32-18.7-47.2c7.9,15,14.4,30.8,19.9,46.8
			c5.4,16.1,9.9,32.5,13.3,49.2L1279.6,647.7z"/>
		<path class="st1" d="M1278.7,649.1l-0.2-1.2c-2.9-16.3-6.9-32.8-12-49.1c-5.5-17.6-11.6-33-18.6-47l2.2-1.1
			c7.4,14,13.9,29.3,19.9,47c5.5,16.3,10,32.9,13.3,49.4l0.2,1.2L1278.7,649.1z"/>
	</g>
	<g style="clip-path:url(#SVGID_00000065786553564784621070000015208133144114373797_);">
		<path class="st3" d="M1205.4,535.6c4.8-6.4,10.6-11.8,16.5-16.9c5.9-5.1,12.1-9.8,18.4-14.5c6.2-4.7,12.5-9.3,18.7-14
			c6.2-4.8,12.3-9.6,17.8-15.1c-5.4,5.6-11.4,10.6-17.5,15.5c-6.1,4.9-12.2,9.7-18.3,14.5c-6.1,4.8-12.1,9.7-17.9,14.9
			c-5.7,5.2-11.3,10.7-15.7,16.9L1205.4,535.6z"/>
		<path class="st1" d="M1207.7,538.7l-4-2.8l0.7-1c5.1-6.8,11.3-12.4,16.7-17.1c6.1-5.2,12.4-10.1,18.4-14.6c2.2-1.7,4.4-3.3,6.6-5
			c4-3,8.1-6,12-9c5.9-4.5,12-9.4,17.7-15l1.7,1.7c-5.6,5.8-12,11.1-17.6,15.6c-3.9,3.2-7.8,6.2-11.8,9.3c-2.2,1.7-4.4,3.4-6.6,5.2
			c-5.8,4.6-11.9,9.6-17.8,14.9c-5.1,4.6-10.9,10.2-15.5,16.7L1207.7,538.7z"/>
	</g>
	<g style="clip-path:url(#SVGID_00000065786553564784621070000015208133144114373797_);">
		<path class="st2" d="M1211.8,596.7c-23.4-24.4-52.9-43-85.1-53.6c32.5,9.8,62.6,27.8,86.8,51.9L1211.8,596.7z"/>
		<path class="st1" d="M1126.6,543.1c32.3,10.6,61.8,29.2,85.1,53.6l1.7-1.7C1189.3,570.9,1159.2,553,1126.6,543.1L1126.6,543.1z"/>
	</g>
	<g style="clip-path:url(#SVGID_00000065786553564784621070000015208133144114373797_);">
		<path class="st2" d="M1238.5,767.6c-11.3-22.5-22.5-45-35.2-66.7c-12.7-21.7-26.7-42.6-43.4-61.5c17.7,18,33,38.3,46.8,59.4
			c13.9,21.1,26.4,43.1,38.9,65L1238.5,767.6z"/>
		<path class="st1" d="M1159.8,639.5c16.7,18.9,30.8,39.8,43.4,61.5c12.7,21.7,23.9,44.1,35.2,66.7l7.1-3.8
			c-12.5-21.9-25-43.9-38.9-65C1192.8,677.7,1177.5,657.5,1159.8,639.5L1159.8,639.5z"/>
	</g>
	<g style="clip-path:url(#SVGID_00000065786553564784621070000015208133144114373797_);">
		<path class="st2" d="M1257.3,691.4c31.3-1.3,62.9,5.1,91.1,18.2c-28.6-12.4-60.1-17.8-91-15.8L1257.3,691.4z"/>
		<path class="st1" d="M1265.1,691.3c-2.6,0-5.2,0.1-7.8,0.2l0.1,2.4c4.2-0.3,8.5-0.4,12.7-0.4c26.8,0,53.6,5.5,78.3,16.2
			C1322.5,697.6,1293.8,691.3,1265.1,691.3L1265.1,691.3z"/>
	</g>
	<g style="clip-path:url(#SVGID_00000065786553564784621070000015208133144114373797_);">
		<path class="st3" d="M1222.7,675.8c7.1-14.2,15.3-27.8,24.6-40.6c-8.6,13.3-16.1,27.2-22.4,41.6L1222.7,675.8z"/>
		<path class="st1" d="M1225.5,678.4l-4.4-2.1l0.6-1.1c7.1-14.2,15.4-27.9,24.7-40.8l2,1.4c-8.5,13.2-16,27.1-22.3,41.5
			L1225.5,678.4z"/>
	</g>
	<g style="clip-path:url(#SVGID_00000065786553564784621070000015208133144114373797_);">
		<path class="st2" d="M1205.1,541.9c-4.2-8.2-9.4-15.8-15.5-22.8c-6.1-7-12.9-13.3-20.3-18.9c-7.4-5.6-15.3-10.6-23.5-14.9
			c-8.2-4.4-16.7-8.2-25.3-11.6c8.7,3.2,17.3,6.9,25.6,11.1c8.3,4.2,16.3,9,23.9,14.5c7.6,5.5,14.6,11.7,20.9,18.6
			c6.3,6.9,11.9,14.6,16.3,22.9L1205.1,541.9z"/>
		<path class="st1" d="M1120.5,473.8c8.7,3.4,17.2,7.2,25.3,11.6c8.2,4.4,16.1,9.3,23.5,14.9c7.4,5.6,14.2,11.9,20.3,18.9
			c6.1,7,11.4,14.6,15.5,22.8l2.1-1.1c-4.4-8.3-10-16-16.3-22.9c-6.3-6.9-13.4-13.1-20.9-18.6c-7.6-5.5-15.6-10.3-23.9-14.5
			C1137.8,480.6,1129.2,477,1120.5,473.8L1120.5,473.8z"/>
	</g>
	<g style="clip-path:url(#SVGID_00000065786553564784621070000015208133144114373797_);">
		<path class="st2" d="M1265.7,669c18.5-4,37.5-5.2,56.2-3.8c-18.8-0.7-37.6,1.4-55.6,6.1L1265.7,669z"/>
		<path class="st1" d="M1306.7,664.7c-13.7,0-27.5,1.5-40.9,4.4l0.6,2.4c15.8-4.1,32.2-6.2,48.7-6.2c2.3,0,4.6,0,7,0.1
			C1316.8,664.9,1311.8,664.7,1306.7,664.7L1306.7,664.7z"/>
	</g>
	<g style="clip-path:url(#SVGID_00000065786553564784621070000015208133144114373797_);">
		<path class="st2" d="M1177,507.4c-12.7-27.1-17.2-57.8-13-87.2c-3.4,29.5,1.9,59.8,15.2,86.2L1177,507.4z"/>
		<path class="st1" d="M1164,420.2c-4.2,29.4,0.3,60.1,13,87.2l2.2-1.1C1166,480,1160.6,449.6,1164,420.2L1164,420.2z"/>
	</g>
	<g style="clip-path:url(#SVGID_00000065786553564784621070000015208133144114373797_);">
		<path class="st0" d="M1321.7,810.4c-3.8-12.4-10.8-23.7-20.6-31c-5.2-3.8-11-6.5-15.9-10.7c-4.9-4.2-9-10.6-8.4-17.4h-34.5h0
			h-34.5c0.6,6.8-3.4,13.2-8.4,17.4c-4.9,4.2-10.8,6.8-15.9,10.7c-9.8,7.3-16.9,18.6-20.6,31c-3.8,12.4-4.4,25.7-3.1,38.7
			c1.6,15.8,6,31.5,14.8,44s22.2,21.6,36.6,22.1h31.1h0h31.1c14.4-0.5,27.8-9.5,36.6-22.1c8.8-12.5,13.3-28.2,14.8-44
			C1326.1,836.1,1325.5,822.8,1321.7,810.4z"/>
		<path class="st1" d="M1242.3,920h-31.1c-15.2-0.5-30.3-9.6-40.6-24.1c-8.5-12.1-13.9-28.1-15.7-46.3c-1.5-14.9-0.4-28.5,3.3-40.6
			c4.3-14.1,12.2-26,22.4-33.5c2.4-1.8,4.9-3.3,7.3-4.7c3-1.8,5.9-3.6,8.4-5.7c4.6-3.9,7.1-8.9,6.7-13.3l-0.5-5.3h79.5l-0.5,5.3
			c-0.4,4.4,2.1,9.4,6.7,13.3c2.5,2.1,5.4,3.9,8.4,5.7c2.4,1.5,4.9,3,7.3,4.7c10.1,7.5,18.1,19.4,22.4,33.5l0,0
			c3.7,12,4.8,25.7,3.3,40.6c-1.8,18.2-7.2,34.2-15.7,46.3c-10.2,14.6-25.3,23.6-40.4,24.1L1242.3,920z M1212.5,756.2
			c-1,5.9-4.5,11.7-9.8,16.3c-3.1,2.6-6.4,4.7-9.7,6.6c-2.3,1.4-4.5,2.7-6.5,4.2c-8.5,6.3-15.2,16.4-18.8,28.5
			c-3.3,10.8-4.3,23.2-2.9,36.8c1.6,16.6,6.5,31,14,41.7c8.5,12.1,20.8,19.6,32.8,20l62,0c11.9-0.4,24.2-7.9,32.6-20
			c7.5-10.7,12.3-25.1,14-41.7c1.3-13.6,0.4-26-2.9-36.8v0c-3.7-12.1-10.4-22.2-18.8-28.5c-2-1.5-4.2-2.8-6.5-4.2
			c-3.2-2-6.6-4-9.7-6.6c-5.4-4.6-8.8-10.4-9.8-16.3H1212.5z"/>
	</g>
	<g style="clip-path:url(#SVGID_00000065786553564784621070000015208133144114373797_);">
		<rect x="-216" y="914.6" class="st0" width="1566.9" height="68.3"/>
		<path class="st1" d="M1350.9,987.8H-216c-2.7,0-4.8-2.2-4.8-4.8v-68.3c0-2.7,2.2-4.8,4.8-4.8h1566.9c2.7,0,4.8,2.2,4.8,4.8v68.3
			C1355.8,985.6,1353.6,987.8,1350.9,987.8z M-211.1,978.1h1557.2v-58.6H-211.1V978.1z"/>
	</g>
	<g style="clip-path:url(#SVGID_00000065786553564784621070000015208133144114373797_);">
		<rect x="1224.5" y="983.5" class="st0" width="49.2" height="445.6"/>
		<path class="st1" d="M1273.7,1434h-49.2c-2.7,0-4.8-2.2-4.8-4.8V983.5c0-2.7,2.2-4.8,4.8-4.8h49.2c2.7,0,4.8,2.2,4.8,4.8v445.6
			C1278.5,1431.8,1276.4,1434,1273.7,1434z M1229.3,1424.3h39.5V988.3h-39.5V1424.3z"/>
	</g>
	<path style="clip-path:url(#SVGID_00000065786553564784621070000015208133144114373797_);fill:#F0F3FF;" d="M942.8,789.9H192.1
		c-28.6,0-51.8-23.2-51.8-51.8v-415c0-28.6,23.2-51.8,51.8-51.8h750.6c28.6,0,51.8,23.2,51.8,51.8v415
		C994.6,766.7,971.4,789.9,942.8,789.9z"/>
	<path style="clip-path:url(#SVGID_00000065786553564784621070000015208133144114373797_);fill:#272525;" d="M947.2,794.7H187.7
		c-28.8,0-52.3-23.4-52.3-52.3V318.7c0-28.8,23.4-52.3,52.3-52.3h759.5c28.8,0,52.3,23.4,52.3,52.3v423.8
		C999.5,771.3,976,794.7,947.2,794.7z M187.7,276.1c-23.5,0-42.6,19.1-42.6,42.6v423.8c0,23.5,19.1,42.6,42.6,42.6h759.5
		c23.5,0,42.6-19.1,42.6-42.6V318.7c0-23.5-19.1-42.6-42.6-42.6H187.7z"/>
	<path style="clip-path:url(#SVGID_00000065786553564784621070000015208133144114373797_);fill:#466BFF;" d="M935.9,774.4H199.1
		c-21.5,0-38.8-17.4-38.8-38.8V325.7c0-21.5,17.4-38.8,38.8-38.8h736.8c21.5,0,38.8,17.4,38.8,38.8v409.9
		C974.7,757,957.3,774.4,935.9,774.4z"/>
	<g style="clip-path:url(#SVGID_00000065786553564784621070000015208133144114373797_);">
		<rect x="498.3" y="789.9" class="st2" width="142.6" height="85"/>
		<path class="st1" d="M645.7,879.7H493.4v-94.7h152.3V879.7z M503.1,870.1H636v-75.3H503.1V870.1z"/>
	</g>
	<g style="clip-path:url(#SVGID_00000065786553564784621070000015208133144114373797_);">
		<path class="st2" d="M426.8,874.9h281.3c5.1,0,9.2,4.1,9.2,9.2v30.5H417.6v-30.5C417.6,879,421.8,874.9,426.8,874.9z"/>
		<path class="st1" d="M722.1,919.4H412.8v-22.3c0-14.9,12.2-27.1,27.1-27.1h255.2c14.9,0,27.1,12.2,27.1,27.1V919.4z M422.5,909.7
			h290v-12.6c0-9.6-7.8-17.4-17.4-17.4H439.9c-9.6,0-17.4,7.8-17.4,17.4V909.7z"/>
	</g>
	<g style="clip-path:url(#SVGID_00000065786553564784621070000015208133144114373797_);">
		<path class="st0" d="M1085.7,800.2h94v71.3c0,23.8-19.3,43-43,43h-7.9c-23.8,0-43-19.3-43-43V800.2z"/>
		<path class="st1" d="M1142.5,919.4h-19.6c-23.2,0-42.1-18.9-42.1-42.1v-82h103.7v82C1184.5,900.6,1165.7,919.4,1142.5,919.4z
			 M1090.5,805.1v72.3c0,17.9,14.5,32.4,32.4,32.4h19.6c17.9,0,32.4-14.5,32.4-32.4v-72.3H1090.5z"/>
	</g>
	<path style="clip-path:url(#SVGID_00000065786553564784621070000015208133144114373797_);fill:#272525;" d="M1181.9,883.9v-9.7
		c14.4,0,26.1-11.7,26.1-26.1c0-14.4-11.7-26.1-26.1-26.1v-9.7c19.8,0,35.8,16.1,35.8,35.8S1201.6,883.9,1181.9,883.9z"/>
	<g style="clip-path:url(#SVGID_00000065786553564784621070000015208133144114373797_);">
		<path class="st2" d="M837.5,910.1c0-26.7,21.6-48.3,48.3-48.3s48.3,21.6,48.3,48.3"/>
		<path class="st1" d="M938.9,910.1h-9.7c0-24-19.5-43.4-43.4-43.4c-24,0-43.4,19.5-43.4,43.4h-9.7c0-29.3,23.8-53.1,53.1-53.1
			S938.9,880.8,938.9,910.1z"/>
	</g>
	<path style="clip-path:url(#SVGID_00000065786553564784621070000015208133144114373797_);fill:#272525;" d="M1220.5,983.5
		c0,0,51.1,19.1,49.2,42.9c2.2-29,0-42.9,0-42.9H1220.5z"/>
	<path style="clip-path:url(#SVGID_00000065786553564784621070000015208133144114373797_);fill:#272525;" d="M498.3,807.4
		c0,0,140-2,140.4,25c2.2-35,2.2-42.5,2.2-42.5H498.3V807.4z"/>
	<g style="clip-path:url(#SVGID_00000065786553564784621070000015208133144114373797_);">
		<path class="st2" d="M411.5,580.4c-1,0-2-0.7-2.3-1.7c-4.7-15.5-7.1-31.7-7.1-48.1c0-14.5,1.9-28.9,5.6-42.8
			c0.3-1.3,1.7-2.1,3-1.7c1.3,0.3,2.1,1.7,1.7,3c-3.6,13.5-5.4,27.4-5.4,41.5c0,15.9,2.3,31.6,6.9,46.7c0.4,1.3-0.3,2.6-1.6,3
			C411.9,580.4,411.7,580.4,411.5,580.4z"/>
		<path class="st2" d="M434.3,627.1c-0.8,0-1.5-0.4-2-1c-7.1-10.1-13.1-21-17.9-32.4c-0.5-1.2,0.1-2.7,1.3-3.2
			c1.2-0.5,2.7,0.1,3.2,1.3c4.6,11.1,10.4,21.7,17.3,31.5c0.8,1.1,0.5,2.6-0.6,3.4C435.3,626.9,434.8,627.1,434.3,627.1z"/>
		<path class="st2" d="M567.5,696c-42.7,0-83.2-16.2-114.1-45.6c-1-0.9-1-2.5-0.1-3.4c0.9-1,2.5-1,3.4-0.1
			c30,28.6,69.3,44.3,110.7,44.3c43.9,0,85-17.4,115.5-49c0.9-1,2.5-1,3.4-0.1c1,0.9,1,2.5,0.1,3.4C655,678.1,612.7,696,567.5,696z"
			/>
		<path class="st2" d="M692,638.2c-0.6,0-1.1-0.2-1.6-0.6c-1-0.9-1.1-2.4-0.3-3.4c0.6-0.7,1.1-1.3,1.6-2c0.8-1,2.4-1.2,3.4-0.3
			c1,0.8,1.2,2.4,0.3,3.4c-0.6,0.7-1.1,1.4-1.7,2C693.4,637.9,692.7,638.2,692,638.2z"/>
		<path class="st2" d="M699.2,629c-0.5,0-1-0.2-1.4-0.5c-1.1-0.8-1.3-2.3-0.5-3.4c0.9-1.3,1.8-2.6,2.7-3.9c0.8-1.1,2.3-1.4,3.4-0.6
			c1.1,0.8,1.4,2.3,0.6,3.4c-0.9,1.3-1.9,2.7-2.8,4C700.7,628.7,700,629,699.2,629z"/>
		<path class="st2" d="M723.5,580.3c-0.2,0-0.5,0-0.7-0.1c-1.3-0.4-2-1.7-1.6-3c4.5-15,6.9-30.7,6.9-46.6c0-51-24.6-99.4-65.7-129.6
			c-1.1-0.8-1.3-2.3-0.5-3.4c0.8-1.1,2.3-1.3,3.4-0.5c42.4,31.1,67.7,81,67.7,133.5c0,16.3-2.4,32.5-7.1,48
			C725.5,579.6,724.6,580.3,723.5,580.3z"/>
		<path class="st2" d="M637.4,385.7c-0.3,0-0.7-0.1-1-0.2c-16.5-7.9-34.2-12.8-52.4-14.6c-1.3-0.1-2.3-1.3-2.2-2.7
			c0.1-1.3,1.3-2.3,2.7-2.2c18.8,1.9,37,7,54,15.1c1.2,0.6,1.7,2,1.1,3.2C639.2,385.2,638.3,385.7,637.4,385.7z"/>
		<path class="st2" d="M447.1,423.1c-0.6,0-1.2-0.2-1.6-0.6c-1-0.9-1.1-2.4-0.2-3.4c31.3-34.2,75.8-53.9,122.2-53.9
			c1.3,0,2.4,1.1,2.4,2.4c0,1.3-1.1,2.4-2.4,2.4c-45,0-88.2,19.1-118.6,52.3C448.4,422.8,447.7,423.1,447.1,423.1z"/>
		<path class="st2" d="M438.8,432.9c-0.5,0-1-0.2-1.5-0.5c-1.1-0.8-1.2-2.3-0.4-3.4c2.7-3.4,5.5-6.8,8.4-10c0.9-1,2.4-1,3.4-0.2
			c1,0.9,1.1,2.4,0.2,3.4c-2.8,3.1-5.6,6.4-8.2,9.7C440.2,432.6,439.5,432.9,438.8,432.9z"/>
		<g>
			<path class="st2" d="M567.5,721.2c-16.7,0-33.3-2.2-49.3-6.4c-1.3-0.3-2.1-1.7-1.7-3c0.3-1.3,1.7-2.1,3-1.7
				c15.6,4.2,31.7,6.3,48,6.3c18.4,0,36.6-2.7,54-8c1.3-0.4,2.6,0.3,3,1.6c0.4,1.3-0.3,2.6-1.6,3C605,718.4,586.4,721.2,567.5,721.2
				z"/>
			<path class="st2" d="M639.2,707c-1,0-1.9-0.6-2.2-1.5c-0.5-1.2,0.1-2.7,1.3-3.2c12.8-5.3,25-12,36.4-20c1.1-0.8,2.6-0.5,3.4,0.6
				c0.8,1.1,0.5,2.6-0.6,3.4c-11.6,8.2-24.2,15.1-37.3,20.6C639.8,707,639.5,707,639.2,707z"/>
			<path class="st2" d="M703.7,662.8c-0.6,0-1.2-0.2-1.7-0.7c-1-0.9-1-2.5-0.1-3.4c33-34.7,51.2-80.2,51.2-128.1
				c0-50.8-20.1-98.3-56.7-133.6c-1-0.9-1-2.5-0.1-3.4c0.9-1,2.5-1,3.4-0.1c37.5,36.2,58.2,84.9,58.2,137.1
				c0,49.2-18.7,95.8-52.5,131.4C705,662.5,704.4,662.8,703.7,662.8z"/>
			<path class="st2" d="M688.9,389.3c-0.6,0-1.1-0.2-1.6-0.6c-0.8-0.6-1.5-1.3-2.3-1.9c-1-0.8-1.2-2.4-0.3-3.4
				c0.8-1,2.4-1.2,3.4-0.3c0.8,0.6,1.6,1.3,2.3,1.9c1,0.9,1.1,2.4,0.3,3.4C690.3,389,689.6,389.3,688.9,389.3z"/>
			<path class="st2" d="M678.3,380.9c-0.5,0-1-0.2-1.4-0.5c-1.5-1.1-3-2.1-4.5-3.2c-1.1-0.8-1.4-2.3-0.6-3.4
				c0.8-1.1,2.3-1.4,3.4-0.6c1.5,1.1,3.1,2.1,4.6,3.2c1.1,0.8,1.3,2.3,0.5,3.4C679.8,380.6,679,380.9,678.3,380.9z"/>
			<path class="st2" d="M415.6,421.9c-0.5,0-1-0.2-1.4-0.5c-1.1-0.8-1.3-2.3-0.5-3.4c35.8-48.8,93.3-78,153.8-78
				c18.8,0,37.4,2.7,55.2,8.1c1.3,0.4,2,1.7,1.6,3c-0.4,1.3-1.7,2-3,1.6c-17.4-5.3-35.5-7.9-53.8-7.9c-58.9,0-115,28.4-149.9,76
				C417.1,421.5,416.4,421.9,415.6,421.9z"/>
			<path class="st2" d="M380.3,513.8c-0.1,0-0.2,0-0.2,0c-1.3-0.1-2.3-1.3-2.2-2.7c2.2-21.7,8.1-42.6,17.4-62.2
				c0.6-1.2,2-1.7,3.2-1.1c1.2,0.6,1.7,2,1.1,3.2c-9.1,19.1-14.8,39.5-16.9,60.7C382.6,512.9,381.5,513.8,380.3,513.8z"/>
			<path class="st2" d="M440.6,672c-0.6,0-1.2-0.2-1.6-0.6c-39.5-36-62.1-87.3-62.1-140.7c0-1.3,1.1-2.4,2.4-2.4s2.4,1.1,2.4,2.4
				c0,52,22.1,102,60.5,137.2c1,0.9,1.1,2.4,0.2,3.4C441.9,671.7,441.3,672,440.6,672z"/>
			<path class="st2" d="M452,681.6c-0.5,0-1-0.2-1.5-0.5c-3.9-3.1-7.8-6.3-11.5-9.7c-1-0.9-1.1-2.4-0.2-3.4c0.9-1,2.4-1.1,3.4-0.2
				c3.6,3.3,7.4,6.5,11.2,9.5c1.1,0.8,1.2,2.3,0.4,3.4C453.4,681.2,452.7,681.6,452,681.6z"/>
		</g>
		<g>
			<path class="st2" d="M468,467.2V459h43.2l7.2,109.5c1,13.9,7.3,20.9,19,20.9c12.7,0,22.8-7.5,30.3-22.5c-0.4-2.2-0.7-5.7-1-10.6
				l-5.7-89h-12.7V459h43.2l7.2,109.5c1,13.9,7.3,20.9,19,20.9c7.8,0,14.6-3.3,20.5-9.8c11.3-12.8,17-31.9,17-57.1
				c0-14.1-2.5-26.5-7.4-37.5c-2.5-5.5-5.7-9-9.6-10.7c-4-1.7-9.2-2.6-15.8-2.6h-7.8l-1.2-7.6l21.3-7.2c2.3-0.7,4.4-1,6.1-1
				c1.8,0,3.3,0.3,4.5,0.8c4.9,2,9.8,8.3,14.5,18.7c4.8,10.4,7.2,24.5,7.2,42.1c0,22.9-4.4,42.9-13.3,60
				c-4.5,8.5-10.5,15.2-17.9,20.3c-7.4,5-15.9,7.6-25.5,7.6c-19.8,0-32.7-7.6-38.7-22.9c-10.4,15.3-24.2,22.9-41.5,22.9
				c-15,0-25.8-4-32.2-12.1c-6.5-8-10.3-20.4-11.4-37l-5.7-89H468z"/>
		</g>
	</g>
	
		<rect y="-4.2" style="clip-path:url(#SVGID_00000065786553564784621070000015208133144114373797_);fill:none;" width="1920" height="1085.9"/>
</g>
</svg>
