<?xml version="1.0" encoding="utf-8"?>
<!-- Generator: Adobe Illustrator 26.4.1, SVG Export Plug-In . SVG Version: 6.00 Build 0)  -->
<svg version="1.1" id="Layer_1" xmlns="http://www.w3.org/2000/svg" xmlns:xlink="http://www.w3.org/1999/xlink" x="0px" y="0px"
	 viewBox="0 0 1920 202.9" style="enable-background:new 0 0 1920 202.9;" xml:space="preserve">
<style type="text/css">
	.st0{fill:url(#SVGID_1_);}
	.st1{fill:#466BFF;}
</style>
<linearGradient id="SVGID_1_" gradientUnits="userSpaceOnUse" x1="578.1235" y1="681.8831" x2="2503.7732" y2="681.8831" gradientTransform="matrix(-1 0 0 -1 2501.1755 788.5163)">
	<stop  offset="0" style="stop-color:#FFFFFF"/>
	<stop  offset="1" style="stop-color:#466BFF"/>
</linearGradient>
<path class="st0" d="M1923.1,60.5c-305.3,0-431.5-76.8-917.2-9.6C554.1,113.3,336.9,72.6,0.3,88.1L-2.6,183c305.3,0,381,15.7,916,0
	c645.3-18.9,672.3,0,1008.4,0L1923.1,60.5z"/>
<path class="st1" d="M2898.1,87.8c-479.3,0-675.4-67.2-1437.8,0c-708.9,62.5-1055.2,0-1582.8,0V220c479.3,0,598,15.7,1437.8,0
	c1012.8-18.9,1055.2,0,1582.8,0V87.8z"/>
</svg>
